<svg width="1440" height="202" viewBox="0 0 1440 202" fill="none" xmlns="http://www.w3.org/2000/svg">
<path d="M504.134 -111.036L504.112 -111.048L504.09 -111.059L504.067 -111.07L504.045 -111.082L504.023 -111.093L504.001 -111.104L503.979 -111.115L503.957 -111.127L503.934 -111.138L503.912 -111.149L503.89 -111.16L503.868 -111.171L503.845 -111.182L503.823 -111.194L503.801 -111.205L503.778 -111.216L503.756 -111.227L503.734 -111.238L503.711 -111.249L503.689 -111.26L503.688 -111.261L503.666 -111.272L503.644 -111.283L503.621 -111.294L503.599 -111.305L503.576 -111.315L503.576 -111.316L503.554 -111.326L503.553 -111.326L503.531 -111.337L503.53 -111.337L503.396 -111.402L503.394 -111.403L503.328 -111.434L503.326 -111.435L503.305 -111.445L503.303 -111.446L503.26 -111.467L503.258 -111.467L503.237 -111.478L503.235 -111.478L503.214 -111.489L503.212 -111.489L503.191 -111.499L503.19 -111.499L503.169 -111.51L503.167 -111.51L503.146 -111.521L503.144 -111.521L503.031 -111.574L503.029 -111.575L502.985 -111.595L502.983 -111.596L502.939 -111.617L502.937 -111.618L502.916 -111.628L502.914 -111.629L502.893 -111.638L502.891 -111.639L502.87 -111.649L502.867 -111.65L502.846 -111.66L502.844 -111.66L502.823 -111.67L502.821 -111.671L502.8 -111.681L502.797 -111.682L502.777 -111.691L502.774 -111.693L502.754 -111.702L502.751 -111.703L502.731 -111.713L502.728 -111.714L502.707 -111.723L502.705 -111.724L502.684 -111.734L502.681 -111.735C502.683 -111.735 502.683 -111.734 502.684 -111.734L504.134 -111.036ZM1589.43 166.706C1590.34 178.95 1592.78 190.774 1596.56 201.999H1595.28C1591.54 190.768 1589.12 178.945 1588.22 166.706H1532.96C1532.06 178.946 1529.63 190.767 1525.89 201.999H1524.61C1528.39 190.774 1530.84 178.952 1531.75 166.706C1531.78 166.297 1531.81 165.899 1531.83 165.502C1532.04 162.312 1532.15 159.111 1532.15 155.872C1532.15 155.475 1532.15 155.066 1532.14 154.669C1532.12 151.43 1531.98 148.229 1531.75 145.039C1531.72 144.642 1531.69 144.233 1531.66 143.836C1531.39 140.597 1531.02 137.384 1530.53 134.206C1530.47 133.797 1530.41 133.399 1530.34 133.002C1529.83 129.752 1529.21 126.538 1528.48 123.373C1528.39 122.964 1528.29 122.566 1528.19 122.169C1527.42 118.919 1526.53 115.705 1525.54 112.539C1525.42 112.131 1525.28 111.733 1525.15 111.336C1524.1 108.074 1522.94 104.86 1521.64 101.706C1521.5 101.309 1521.33 100.9 1521.16 100.502C1519.82 97.2283 1518.34 94.0143 1516.75 90.8731C1516.55 90.4639 1516.35 90.0663 1516.14 89.669C1514.46 86.383 1512.65 83.181 1510.71 80.0398C1510.47 79.6421 1510.22 79.2334 1509.95 78.8357C1484.08 37.6573 1438.11 10.2251 1385.82 10.2251H1209.33H1209.33H1191.88C1192.09 13.4024 1192.2 16.6169 1192.2 19.8548H1209.33H1209.33H1385.82C1432.45 19.8548 1473.72 43.2303 1498.38 78.8357C1498.67 79.2334 1498.94 79.6421 1499.21 80.0398C1501.33 83.1571 1503.31 86.3711 1505.16 89.669C1505.39 90.0663 1505.62 90.4754 1505.84 90.8731C1507.55 94.0023 1509.16 97.2163 1510.63 100.502C1510.81 100.9 1510.99 101.297 1511.16 101.706C1512.55 104.86 1513.81 108.062 1514.94 111.336C1515.09 111.733 1515.23 112.142 1515.37 112.539C1516.44 115.705 1517.4 118.907 1518.22 122.169C1518.33 122.566 1518.44 122.964 1518.52 123.373C1519.32 126.538 1519.99 129.752 1520.53 133.002C1520.62 133.399 1520.68 133.809 1520.74 134.206C1521.26 137.384 1521.66 140.585 1521.93 143.836C1521.98 144.233 1522.02 144.63 1522.04 145.039C1522.3 148.217 1522.44 151.43 1522.47 154.669C1522.48 155.066 1522.48 155.475 1522.48 155.872C1522.48 159.111 1522.37 162.324 1522.13 165.502C1522.12 165.911 1522.08 166.308 1522.04 166.706C1521.07 179.001 1518.42 190.832 1514.36 201.999H1513.08C1517.17 190.841 1519.85 179.009 1520.83 166.706C1520.87 166.297 1520.89 165.899 1520.92 165.502C1521.15 162.324 1521.27 159.111 1521.27 155.872C1521.27 155.475 1521.27 155.066 1521.26 154.669C1521.23 151.43 1521.09 148.217 1520.83 145.039C1520.81 144.642 1520.77 144.245 1520.72 143.836C1520.45 140.597 1520.04 137.384 1519.52 134.206C1519.45 133.797 1519.38 133.399 1519.31 133.002C1518.75 129.752 1518.08 126.538 1517.28 123.373C1517.19 122.964 1517.08 122.566 1516.99 122.169C1516.14 118.907 1515.17 115.693 1514.1 112.539C1513.95 112.142 1513.82 111.733 1513.66 111.336C1512.53 108.062 1511.24 104.848 1509.84 101.706C1509.67 101.297 1509.49 100.9 1509.31 100.502C1507.82 97.2163 1506.2 94.0023 1504.45 90.8731C1504.24 90.4639 1504.01 90.0663 1503.78 89.669C1501.91 86.3711 1499.9 83.1571 1497.76 80.0398C1497.48 79.6306 1497.2 79.2334 1496.91 78.8357C1472.41 43.9285 1431.75 21.0583 1385.82 21.0583H1209.33H1209.33H1192.19C1192.16 24.2723 1192.03 27.4859 1191.79 30.6881H1209.33H1209.33H1385.82C1426.01 30.6881 1461.85 49.5498 1484.9 78.8357C1485.22 79.2334 1485.52 79.6306 1485.82 80.0398C1488.2 83.1334 1490.44 86.3469 1492.52 89.669C1492.79 90.0663 1493.03 90.4639 1493.27 90.8731C1495.2 93.9904 1496.97 97.2044 1498.61 100.502C1498.81 100.9 1499 101.297 1499.2 101.706C1500.72 104.836 1502.11 108.05 1503.37 111.336C1503.53 111.733 1503.68 112.142 1503.83 112.539C1505 115.693 1506.04 118.895 1506.96 122.169C1507.08 122.566 1507.19 122.964 1507.29 123.373C1508.15 126.538 1508.89 129.74 1509.48 133.002C1509.56 133.399 1509.64 133.809 1509.71 134.206C1510.26 137.372 1510.7 140.585 1511.01 143.836C1511.06 144.233 1511.1 144.63 1511.12 145.039C1511.4 148.217 1511.56 151.43 1511.58 154.669C1511.59 155.066 1511.59 155.475 1511.59 155.872C1511.59 159.111 1511.47 162.324 1511.23 165.502C1511.19 165.911 1511.16 166.308 1511.12 166.706C1510.05 179.069 1507.15 190.916 1502.73 201.999H1501.42C1505.89 190.927 1508.82 179.078 1509.9 166.706C1509.95 166.308 1509.99 165.911 1510.01 165.502C1510.26 162.324 1510.38 159.111 1510.38 155.872C1510.38 155.475 1510.38 155.066 1510.37 154.669C1510.35 151.418 1510.19 148.217 1509.9 145.039C1509.88 144.63 1509.84 144.233 1509.8 143.836C1509.49 140.585 1509.04 137.372 1508.47 134.206C1508.41 133.809 1508.34 133.399 1508.26 133.002C1507.65 129.74 1506.9 126.538 1506.03 123.373C1505.93 122.975 1505.83 122.566 1505.72 122.169C1504.79 118.907 1503.72 115.693 1502.52 112.539C1502.38 112.142 1502.23 111.733 1502.06 111.336C1500.81 108.05 1499.39 104.836 1497.86 101.706C1497.66 101.297 1497.46 100.9 1497.25 100.502C1495.59 97.2044 1493.79 93.9904 1491.85 90.8731C1491.6 90.4639 1491.35 90.0663 1491.1 89.669C1488.99 86.3469 1486.72 83.1334 1484.3 80.0398C1483.98 79.6306 1483.67 79.2334 1483.36 78.8357C1460.51 50.2476 1425.27 31.8912 1385.82 31.8912H1209.33H1209.33H1191.7C1191.44 35.1176 1191.06 38.3311 1190.58 41.5214H1209.33H1209.33H1385.82C1419.38 41.5214 1449.63 55.9173 1470.65 78.8357C1471.01 79.2334 1471.37 79.6306 1471.72 80.0398C1474.47 83.1086 1477.04 86.323 1479.45 89.669C1479.73 90.0663 1480.02 90.4754 1480.28 90.8731C1482.45 93.9784 1484.47 97.1802 1486.31 100.502C1486.54 100.9 1486.75 101.297 1486.97 101.706C1488.68 104.824 1490.23 108.038 1491.63 111.336C1491.81 111.733 1491.97 112.131 1492.14 112.539C1493.44 115.681 1494.6 118.895 1495.62 122.169C1495.74 122.566 1495.86 122.975 1495.97 123.373C1496.93 126.527 1497.74 129.74 1498.4 133.002C1498.48 133.399 1498.56 133.797 1498.63 134.206C1499.25 137.372 1499.73 140.585 1500.07 143.836C1500.12 144.233 1500.17 144.642 1500.19 145.039C1500.5 148.217 1500.67 151.418 1500.7 154.669C1500.71 155.066 1500.71 155.475 1500.71 155.872C1500.71 159.111 1500.58 162.324 1500.3 165.502C1500.28 165.899 1500.24 166.308 1500.19 166.706C1499.01 179.155 1495.81 191.026 1490.94 201.999H1489.61C1494.54 191.039 1497.79 179.166 1498.98 166.706C1499.02 166.308 1499.05 165.911 1499.09 165.502C1499.37 162.324 1499.5 159.123 1499.5 155.872C1499.5 155.475 1499.5 155.066 1499.49 154.669C1499.46 151.418 1499.28 148.205 1498.98 145.039C1498.94 144.642 1498.91 144.233 1498.85 143.836C1498.52 140.585 1498.03 137.372 1497.41 134.206C1497.34 133.797 1497.25 133.399 1497.17 133.002C1496.49 129.74 1495.68 126.527 1494.71 123.373C1494.6 122.964 1494.48 122.566 1494.35 122.169C1493.32 118.895 1492.15 115.681 1490.83 112.539C1490.67 112.142 1490.5 111.733 1490.32 111.336C1488.91 108.038 1487.33 104.824 1485.61 101.706C1485.39 101.297 1485.17 100.9 1484.93 100.502C1483.07 97.1802 1481.02 93.9666 1478.82 90.8731C1478.54 90.4754 1478.25 90.0663 1477.96 89.669C1475.53 86.3112 1472.91 83.0966 1470.11 80.0398C1469.75 79.6306 1469.39 79.2334 1469.01 78.8357C1448.24 56.6276 1418.63 42.7245 1385.82 42.7245H1209.33H1209.33H1190.4C1189.89 45.9628 1189.27 49.1768 1188.53 52.3547H1209.33H1209.33H1385.82C1412.47 52.3547 1436.78 62.3692 1455.2 78.8357C1455.65 79.221 1456.09 79.6184 1456.52 80.0398C1459.79 83.0366 1462.86 86.2625 1465.71 89.669C1466.05 90.0663 1466.38 90.4639 1466.7 90.8731C1469.21 93.9418 1471.53 97.1563 1473.66 100.502C1473.92 100.9 1474.18 101.297 1474.42 101.706C1476.34 104.812 1478.11 108.025 1479.7 111.336C1479.9 111.733 1480.08 112.131 1480.26 112.539C1481.72 115.669 1483.03 118.883 1484.17 122.169C1484.31 122.566 1484.44 122.964 1484.58 123.373C1485.63 126.514 1486.52 129.728 1487.26 133.002C1487.36 133.399 1487.44 133.809 1487.53 134.206C1488.22 137.36 1488.75 140.573 1489.12 143.836C1489.17 144.233 1489.22 144.642 1489.26 145.039C1489.6 148.205 1489.78 151.418 1489.81 154.669C1489.83 155.066 1489.83 155.475 1489.83 155.872C1489.83 159.123 1489.68 162.336 1489.38 165.502C1489.34 165.899 1489.31 166.308 1489.26 166.706C1487.94 179.272 1484.34 191.169 1478.9 201.999H1477.55C1483.06 191.189 1486.7 179.287 1488.04 166.706C1488.08 166.308 1488.13 165.911 1488.16 165.502C1488.46 162.336 1488.62 159.123 1488.62 155.872C1488.62 155.475 1488.62 155.066 1488.6 154.669C1488.57 151.418 1488.39 148.205 1488.04 145.039C1488 144.63 1487.95 144.233 1487.9 143.836C1487.53 140.573 1486.98 137.36 1486.29 134.206C1486.21 133.797 1486.13 133.399 1486.03 133.002C1485.28 129.728 1484.36 126.514 1483.3 123.373C1483.16 122.964 1483.03 122.566 1482.88 122.169C1481.74 118.871 1480.42 115.669 1478.93 112.539C1478.75 112.131 1478.55 111.733 1478.36 111.336C1476.74 108.025 1474.95 104.812 1472.99 101.706C1472.75 101.297 1472.5 100.9 1472.23 100.502C1470.05 97.1563 1467.7 93.9418 1465.16 90.8731C1464.82 90.4639 1464.48 90.0663 1464.14 89.669C1461.23 86.2626 1458.09 83.049 1454.77 80.0398C1454.34 79.6545 1453.91 79.2691 1453.47 78.8962C1453.45 78.8719 1453.43 78.8477 1453.4 78.8357C1435.32 63.1033 1411.68 53.5578 1385.82 53.5578H1209.33H1209.33H1188.26C1187.49 56.7961 1186.61 60.0101 1185.62 63.188H1209.33H1209.33H1385.82C1405.4 63.188 1423.6 69.2422 1438.61 79.5697C1439.12 79.9068 1439.63 80.2683 1440.12 80.6294C1443.96 83.3739 1447.57 86.395 1450.93 89.6932C1451.34 90.0785 1451.74 90.4753 1452.14 90.8849C1455.13 93.8941 1457.9 97.1076 1460.45 100.502C1460.75 100.899 1461.04 101.297 1461.33 101.706C1463.57 104.775 1465.61 107.989 1467.47 111.335C1467.68 111.733 1467.9 112.13 1468.11 112.539C1469.77 115.645 1471.26 118.859 1472.57 122.169C1472.73 122.566 1472.88 122.975 1473.03 123.372C1474.21 126.502 1475.23 129.716 1476.06 133.002C1476.17 133.399 1476.27 133.797 1476.37 134.206C1477.13 137.36 1477.73 140.561 1478.16 143.835C1478.22 144.233 1478.26 144.63 1478.3 145.039C1478.68 148.193 1478.89 151.407 1478.92 154.669C1478.94 155.066 1478.94 155.464 1478.94 155.872C1478.94 159.123 1478.77 162.336 1478.43 165.502C1478.4 165.911 1478.36 166.308 1478.3 166.706C1476.81 179.434 1472.7 191.372 1466.55 201.998H1465.16C1471.41 191.401 1475.57 179.454 1477.09 166.706C1477.14 166.308 1477.19 165.911 1477.22 165.502C1477.56 162.336 1477.73 159.123 1477.73 155.872C1477.73 155.475 1477.73 155.066 1477.72 154.669C1477.68 151.418 1477.47 148.205 1477.09 145.039C1477.04 144.63 1477 144.233 1476.93 143.835C1476.51 140.573 1475.91 137.36 1475.12 134.206C1475.04 133.808 1474.93 133.411 1474.82 133.002C1473.97 129.716 1472.94 126.502 1471.73 123.372C1471.59 122.975 1471.43 122.566 1471.27 122.169C1469.96 118.859 1468.45 115.645 1466.75 112.539C1466.53 112.13 1466.32 111.733 1466.09 111.335C1464.21 107.989 1462.12 104.775 1459.85 101.706C1459.54 101.297 1459.24 100.899 1458.94 100.502C1456.34 97.1076 1453.51 93.906 1450.46 90.8968C1450.06 90.5116 1449.66 90.1142 1449.25 89.7289C1445.84 86.4792 1442.18 83.4943 1438.28 80.7974C1437.79 80.4488 1437.28 80.0997 1436.76 79.7625C1422.18 70.049 1404.65 64.3911 1385.82 64.3911H1209.33H1209.33H1185.24C1184.2 67.6414 1183.05 70.8554 1181.79 74.0213H1209.33H1209.33H1385.82C1398.67 74.0213 1410.83 76.9699 1421.67 82.2182C1422.25 82.5068 1422.83 82.7961 1423.41 83.0847C1427.73 85.2999 1431.81 87.8876 1435.65 90.8126C1436.11 91.1493 1436.55 91.4988 1437 91.8599C1440.41 94.5563 1443.59 97.5174 1446.51 100.707C1446.87 101.08 1447.21 101.465 1447.54 101.851C1450.18 104.824 1452.6 108.002 1454.78 111.336C1455.05 111.733 1455.3 112.131 1455.55 112.539C1457.49 115.621 1459.23 118.835 1460.75 122.169C1460.94 122.566 1461.12 122.964 1461.29 123.373C1462.65 126.49 1463.82 129.704 1464.79 133.002C1464.9 133.399 1465.02 133.797 1465.13 134.206C1466 137.347 1466.68 140.561 1467.16 143.836C1467.23 144.233 1467.28 144.642 1467.33 145.039C1467.77 148.193 1468 151.407 1468.05 154.669C1468.06 155.066 1468.06 155.475 1468.06 155.872C1468.06 159.134 1467.86 162.349 1467.49 165.502C1467.44 165.911 1467.39 166.308 1467.33 166.706C1465.6 179.671 1460.81 191.678 1453.71 201.999H1452.22C1459.45 191.72 1464.35 179.703 1466.11 166.706C1466.17 166.308 1466.22 165.911 1466.27 165.502C1466.65 162.349 1466.85 159.134 1466.85 155.872C1466.85 155.475 1466.85 155.066 1466.84 154.669C1466.79 151.407 1466.55 148.193 1466.11 145.039C1466.06 144.63 1466 144.233 1465.95 143.836C1465.46 140.561 1464.76 137.347 1463.87 134.206C1463.76 133.797 1463.64 133.399 1463.52 133.002C1462.54 129.692 1461.36 126.478 1459.97 123.373C1459.8 122.975 1459.62 122.566 1459.42 122.169C1457.88 118.835 1456.1 115.608 1454.13 112.539C1453.91 112.202 1453.7 111.878 1453.47 111.552C1453.44 111.492 1453.4 111.432 1453.35 111.372C1453.35 111.36 1453.34 111.348 1453.33 111.336C1451.12 108.014 1448.66 104.872 1446 101.935C1445.65 101.55 1445.3 101.164 1444.94 100.791C1441.97 97.6257 1438.76 94.7127 1435.32 92.0644C1434.86 91.7158 1434.4 91.3786 1433.94 91.0413C1430.06 88.1644 1425.9 85.6367 1421.52 83.4944C1420.93 83.2054 1420.34 82.9166 1419.74 82.6395C1409.42 77.8851 1397.93 75.2245 1385.82 75.2245H1209.33H1209.33H1181.3C1179.97 78.4866 1178.52 81.7008 1176.95 84.8547H1209.33H1209.33H1385.82C1392.14 84.8547 1398.26 85.673 1404.1 87.2133C1404.77 87.3944 1405.46 87.5868 1406.13 87.7911C1411.09 89.2476 1415.82 91.2462 1420.25 93.6895C1420.77 93.9668 1421.28 94.2554 1421.79 94.5564C1425.61 96.7831 1429.21 99.3589 1432.54 102.248C1432.94 102.573 1433.33 102.922 1433.71 103.271C1436.65 105.919 1439.36 108.82 1441.83 111.914C1442.13 112.287 1442.42 112.672 1442.7 113.057C1444.92 115.958 1446.92 119.039 1448.67 122.278C1448.89 122.674 1449.1 123.072 1449.3 123.469C1450.89 126.527 1452.25 129.704 1453.36 133.002H1453.38C1453.41 133.099 1453.45 133.195 1453.47 133.303C1453.58 133.604 1453.68 133.905 1453.76 134.206C1454.78 137.324 1455.58 140.538 1456.15 143.836C1456.22 144.233 1456.28 144.631 1456.35 145.039C1456.84 148.181 1457.11 151.395 1457.16 154.669C1457.17 155.066 1457.17 155.475 1457.17 155.873C1457.17 159.135 1456.96 162.361 1456.51 165.502C1456.46 165.911 1456.41 166.309 1456.35 166.706C1454.29 180.054 1448.46 192.18 1440.01 201.999H1438.43C1447.07 192.257 1453.01 180.107 1455.12 166.706C1455.18 166.309 1455.24 165.899 1455.29 165.502C1455.73 162.349 1455.96 159.135 1455.96 155.873C1455.96 155.464 1455.96 155.066 1455.95 154.669C1455.9 151.395 1455.61 148.181 1455.12 145.039C1455.06 144.631 1455 144.233 1454.91 143.836C1454.34 140.538 1453.53 137.336 1452.51 134.218C1452.39 133.821 1452.25 133.423 1452.11 133.027C1450.96 129.74 1449.57 126.562 1447.96 123.518C1447.77 123.12 1447.55 122.735 1447.33 122.35C1445.56 119.136 1443.53 116.066 1441.28 113.19C1441.01 112.816 1440.7 112.444 1440.4 112.083C1437.91 108.989 1435.15 106.124 1432.16 103.524C1431.78 103.175 1431.39 102.838 1430.99 102.513C1427.62 99.6724 1423.97 97.1448 1420.08 94.9657C1419.58 94.6771 1419.06 94.3999 1418.54 94.135C1414.01 91.7398 1409.2 89.8383 1404.16 88.478C1403.45 88.2852 1402.75 88.1165 1402.05 87.9478C1396.84 86.7081 1391.41 86.0578 1385.82 86.0578H1209.33H1209.33H1176.34C1174.7 89.3323 1172.91 92.5459 1171 95.688H1209.33H1209.33H1384.75H1385.82C1386.32 95.688 1386.81 95.688 1387.31 95.7117C1393.3 95.8441 1399.07 96.8672 1404.51 98.6243C1405.11 98.8291 1405.7 99.0339 1406.3 99.2387C1410.69 100.816 1414.83 102.886 1418.68 105.378C1419.13 105.654 1419.56 105.955 1420 106.256C1423.3 108.507 1426.36 111.071 1429.14 113.924C1429.47 114.261 1429.79 114.597 1430.11 114.946C1432.59 117.583 1434.81 120.46 1436.78 123.505C1437.01 123.866 1437.24 124.239 1437.47 124.612C1439.24 127.489 1440.76 130.523 1442.04 133.7C1442.19 134.085 1442.33 134.471 1442.48 134.856C1443.62 137.878 1444.51 141.019 1445.15 144.245C1445.24 144.642 1445.31 145.051 1445.38 145.449C1445.93 148.566 1446.24 151.768 1446.28 155.03C1446.29 155.307 1446.29 155.596 1446.29 155.872V156.233C1446.26 159.568 1445.97 162.842 1445.42 166.032C1445.36 166.453 1445.27 166.863 1445.19 167.284C1442.51 181.12 1435.06 193.28 1424.61 201.999H1422.69C1433.42 193.486 1441.13 181.358 1443.92 167.477C1423.88 170.72 1407.18 184.026 1399.23 201.999H1397.91C1405.99 183.289 1423.33 169.442 1444.16 166.224C1444.74 163.023 1445.04 159.736 1445.07 156.378C1418.44 159.549 1396.35 177.648 1387.5 201.999H1386.22C1395.15 176.982 1417.77 158.367 1445.07 155.174C1445.03 151.9 1444.73 148.699 1444.17 145.581C1411.9 149.261 1385.34 171.905 1376.03 201.999H1374.77C1384.11 171.307 1411.11 148.174 1443.94 144.389C1443.3 141.163 1442.4 138.022 1441.25 135.012C1404.28 139.93 1374.2 166.81 1364.71 201.999H1363.46C1372.95 166.284 1403.36 138.955 1440.8 133.868C1439.52 130.715 1437.97 127.682 1436.18 124.829C1395.53 131.707 1362.92 162.441 1353.47 201.998H1352.22C1361.67 161.998 1394.48 130.87 1435.48 123.734C1433.49 120.7 1431.23 117.86 1428.73 115.247C1385.56 124.811 1351.58 158.898 1342.32 201.998H1341.09C1350.31 158.563 1384.38 124.146 1427.74 114.236C1424.93 111.42 1421.82 108.891 1418.49 106.689C1374.23 119.603 1340.12 156.379 1331.22 201.998H1329.98C1338.84 156.173 1372.87 119.15 1417.14 105.835C1413.23 103.391 1408.99 101.393 1404.53 99.9005C1392.68 104.474 1381.46 110.758 1371.13 118.654C1368.23 120.856 1365.4 123.204 1362.69 125.647C1361.07 127.092 1359.45 128.62 1357.71 130.354C1356.75 131.305 1355.82 132.268 1354.9 133.231C1352.37 135.903 1349.99 138.647 1347.79 141.368C1345.59 144.088 1343.42 147.013 1341.34 150.058C1339.31 153.019 1337.36 156.149 1335.55 159.339C1333.7 162.577 1331.98 165.923 1330.44 169.282C1328.8 172.772 1327.3 176.407 1325.98 180.09C1324.53 184.099 1323.25 188.216 1322.21 192.333C1321.39 195.52 1320.72 198.748 1320.14 201.998H1318.91C1319.5 198.651 1320.2 195.327 1321.04 192.043C1322.09 187.879 1323.38 183.726 1324.85 179.682C1326.18 175.974 1327.69 172.302 1329.33 168.776C1330.89 165.394 1332.64 162.011 1334.5 158.737C1336.32 155.523 1338.3 152.369 1340.34 149.384C1342.44 146.302 1344.63 143.354 1346.85 140.622C1349.06 137.865 1351.48 135.108 1354.02 132.412C1354.95 131.425 1355.89 130.462 1356.85 129.511C1358.6 127.754 1360.25 126.201 1361.88 124.757C1364.61 122.289 1367.48 119.917 1370.39 117.691C1380.4 110.035 1391.25 103.884 1402.69 99.3343C1397.35 97.7455 1391.68 96.8904 1385.82 96.8904H1385.02C1377.15 101.055 1369.62 105.979 1362.48 111.635C1359.59 113.911 1356.75 116.343 1354.03 118.858C1352.54 120.243 1351.22 121.494 1350.01 122.698C1348.7 124.022 1347.43 125.322 1346.25 126.598C1343.74 129.282 1341.34 132.05 1339.14 134.807C1336.94 137.54 1334.82 140.368 1332.68 143.474C1330.63 146.435 1328.68 149.504 1326.89 152.61C1325.09 155.679 1323.36 158.893 1321.75 162.191C1320.13 165.513 1318.63 168.92 1317.29 172.314C1315.89 175.841 1314.62 179.488 1313.49 183.148C1311.6 189.322 1310.13 195.619 1309.08 201.998H1307.85C1308.91 195.498 1310.41 189.08 1312.34 182.787C1313.47 179.103 1314.75 175.432 1316.16 171.881C1317.52 168.45 1319.03 165.02 1320.66 161.662C1322.28 158.339 1324.03 155.089 1325.84 152.008C1327.65 148.878 1329.62 145.785 1331.68 142.8C1333.85 139.658 1335.97 136.805 1338.2 134.061C1340.42 131.268 1342.83 128.488 1345.37 125.779C1346.56 124.503 1347.83 123.179 1349.16 121.855C1350.38 120.639 1351.71 119.363 1353.21 117.967C1355.95 115.439 1358.82 112.996 1361.72 110.697C1368.32 105.473 1375.28 100.851 1382.5 96.8902H1209.33H1209.33H1170.27C1166.27 103.343 1161.75 109.517 1156.74 115.331C1154.37 118.111 1151.85 120.82 1149.29 123.36C1149.19 123.48 1149.1 123.577 1148.97 123.685C1146.57 126.092 1143.98 128.488 1141.28 130.835C1138.43 133.278 1135.56 135.577 1132.76 137.648C1129.83 139.815 1126.8 141.909 1123.72 143.847C1120.51 145.893 1117.27 147.771 1114.11 149.432C1110.76 151.226 1107.31 152.899 1103.86 154.403C1100.31 155.956 1096.56 157.412 1092.7 158.737C1088.47 160.193 1084.2 161.433 1080.03 162.444L1079.96 162.456C1077.33 163.106 1074.69 163.672 1072.03 164.165C1074.19 179.42 1082.24 192.813 1093.8 201.998H1091.91C1080.73 192.673 1072.97 179.421 1070.83 164.382C1067.66 164.96 1064.47 165.417 1061.26 165.778C1063.23 179.546 1069.25 192.031 1078.08 201.998H1076.5C1067.88 191.983 1062 179.572 1060.05 165.911C1056.85 166.235 1053.62 166.464 1050.38 166.585C1052.13 179.629 1057.03 191.687 1064.28 201.998H1062.81C1055.69 191.656 1050.89 179.626 1049.17 166.633C1047.67 166.681 1046.17 166.705 1044.66 166.705H1039.42C1040.94 179.451 1045.1 191.401 1051.34 201.998H1049.96C1043.81 191.373 1039.71 179.433 1038.21 166.705H1028.48C1029.81 179.286 1033.46 191.187 1038.97 201.998H1037.62C1032.18 191.168 1028.57 179.273 1027.26 166.705H1017.53C1018.73 179.164 1021.96 191.038 1026.9 201.998H1025.59C1020.71 191.024 1017.5 179.155 1016.32 166.705H1006.61C1007.69 179.075 1010.61 190.927 1015.08 201.998H1013.77C1009.35 190.917 1006.46 179.066 1005.39 166.705H995.68C996.665 179.006 999.325 190.842 1003.42 201.998H1002.14C998.081 190.834 995.448 178.998 994.47 166.705H984.759C985.669 178.949 988.114 190.773 991.89 201.998H990.615C986.873 190.767 984.451 178.944 983.551 166.705H928.296C927.395 178.946 924.961 190.766 921.218 201.998H919.948C923.724 190.773 926.176 178.951 927.087 166.705C927.111 166.296 927.147 165.899 927.159 165.501C927.377 162.312 927.486 159.11 927.486 155.872C927.486 155.474 927.486 155.065 927.474 154.668C927.45 151.43 927.316 148.228 927.087 145.038C927.05 144.641 927.026 144.232 926.99 143.835C926.724 140.596 926.349 137.383 925.866 134.205C925.805 133.796 925.744 133.399 925.672 133.001C925.164 129.751 924.547 126.538 923.809 123.372C923.725 122.963 923.628 122.565 923.519 122.168C922.758 118.918 921.863 115.704 920.871 112.538C920.75 112.13 920.617 111.732 920.484 111.335C919.432 108.073 918.271 104.859 916.977 101.705C916.832 101.308 916.662 100.899 916.493 100.502C915.151 97.2275 913.675 94.0135 912.079 90.8723C911.886 90.4631 911.68 90.0655 911.474 89.6683C909.793 86.3823 907.979 83.1802 906.045 80.039C905.803 79.6413 905.549 79.2327 905.282 78.835C879.415 37.6565 833.448 10.2243 781.156 10.2243H604.667H587.216C587.422 13.4017 587.53 16.6161 587.53 19.854H604.666H781.156C827.789 19.854 869.051 43.2296 893.71 78.835C894 79.2327 894.278 79.6413 894.544 80.039C896.66 83.1563 898.644 86.3703 900.494 89.6683C900.723 90.0655 900.953 90.4746 901.171 90.8723C902.888 94.0016 904.496 97.2156 905.96 100.502C906.142 100.899 906.323 101.296 906.492 101.705C907.883 104.859 909.141 108.061 910.278 111.335C910.422 111.732 910.568 112.141 910.701 112.538C911.777 115.704 912.732 118.906 913.555 122.168C913.664 122.565 913.772 122.963 913.857 123.372C914.655 126.538 915.32 129.751 915.864 133.001C915.949 133.399 916.01 133.808 916.07 134.205C916.59 137.383 916.989 140.584 917.267 143.835C917.316 144.232 917.352 144.63 917.376 145.038C917.63 148.216 917.775 151.43 917.8 154.668C917.812 155.065 917.812 155.474 917.812 155.872C917.812 159.11 917.702 162.324 917.461 165.501C917.449 165.91 917.412 166.308 917.377 166.705C916.399 179.001 913.752 190.832 909.696 201.998H908.413C912.508 190.841 915.181 179.009 916.167 166.705C916.204 166.296 916.228 165.899 916.251 165.501C916.481 162.324 916.602 159.11 916.602 155.872C916.602 155.474 916.602 155.065 916.59 154.668C916.566 151.43 916.421 148.216 916.167 145.038C916.143 144.641 916.106 144.244 916.058 143.835C915.78 140.596 915.368 137.383 914.849 134.205C914.788 133.796 914.715 133.399 914.643 133.001C914.086 129.751 913.409 126.538 912.611 123.372C912.526 122.963 912.417 122.565 912.321 122.168C911.474 118.906 910.507 115.693 909.43 112.538C909.286 112.141 909.153 111.732 908.995 111.335C907.859 108.061 906.577 104.847 905.174 101.705C905.005 101.296 904.823 100.899 904.642 100.502C903.155 97.2156 901.534 94.0016 899.78 90.8723C899.575 90.4631 899.345 90.0655 899.115 89.6683C897.241 86.3703 895.234 83.1563 893.093 80.039C892.814 79.6298 892.536 79.2327 892.246 78.835C867.746 43.9278 827.087 21.0576 781.157 21.0576H604.667H587.519C587.495 24.2716 587.362 27.4851 587.12 30.6873H604.666H781.157C821.343 30.6873 857.188 49.5491 880.238 78.835C880.552 79.2327 880.854 79.6298 881.157 80.039C883.539 83.1326 885.776 86.3461 887.857 89.6683C888.123 90.0655 888.365 90.4631 888.606 90.8723C890.529 93.9896 892.307 97.2036 893.94 100.502C894.145 100.899 894.339 101.296 894.532 101.705C896.056 104.835 897.447 108.049 898.704 111.335C898.862 111.732 899.019 112.141 899.164 112.538C900.337 115.693 901.377 118.894 902.296 122.168C902.417 122.565 902.526 122.963 902.622 123.372C903.481 126.538 904.219 129.739 904.812 133.001C904.896 133.399 904.969 133.808 905.041 134.205C905.597 137.371 906.033 140.584 906.347 143.835C906.395 144.232 906.432 144.63 906.456 145.038C906.734 148.216 906.891 151.43 906.916 154.668C906.928 155.065 906.928 155.474 906.928 155.872C906.928 159.11 906.807 162.324 906.565 165.501C906.529 165.91 906.493 166.308 906.456 166.705C905.389 179.069 902.488 190.915 898.059 201.998H896.752C901.227 190.926 904.157 179.077 905.235 166.705C905.283 166.308 905.32 165.91 905.344 165.501C905.598 162.324 905.719 159.11 905.719 155.872C905.719 155.474 905.719 155.065 905.707 154.668C905.683 151.418 905.525 148.216 905.235 145.038C905.211 144.63 905.174 144.232 905.138 143.835C904.824 140.584 904.376 137.371 903.808 134.205C903.747 133.808 903.675 133.399 903.59 133.001C902.985 129.739 902.236 126.538 901.365 123.372C901.268 122.975 901.159 122.565 901.05 122.168C900.119 118.906 899.055 115.693 897.858 112.538C897.713 112.141 897.568 111.732 897.398 111.335C896.14 108.049 894.726 104.835 893.19 101.705C892.996 101.296 892.791 100.899 892.585 100.502C890.928 97.2036 889.126 93.9896 887.18 90.8723C886.937 90.4631 886.684 90.0655 886.43 89.6683C884.325 86.3461 882.052 83.1326 879.633 80.039C879.319 79.6298 879.004 79.2327 878.69 78.835C855.846 50.2468 820.605 31.8904 781.157 31.8904H604.668H587.035C586.769 35.1168 586.394 38.3304 585.911 41.5206H604.667H781.157C814.716 41.5206 844.962 55.9165 865.979 78.835C866.342 79.2327 866.705 79.6298 867.056 80.039C869.802 83.1078 872.377 86.3222 874.784 89.6683C875.062 90.0655 875.352 90.4746 875.618 90.8723C877.783 93.9777 879.802 97.1794 881.641 100.502C881.87 100.899 882.088 101.296 882.306 101.705C884.011 104.823 885.559 108.037 886.962 111.335C887.143 111.732 887.3 112.13 887.47 112.538C888.776 115.68 889.937 118.894 890.953 122.168C891.073 122.565 891.194 122.975 891.303 123.372C892.259 126.526 893.069 129.739 893.734 133.001C893.818 133.399 893.891 133.796 893.963 134.205C894.581 137.371 895.064 140.584 895.403 143.835C895.451 144.232 895.499 144.641 895.524 145.038C895.838 148.216 896.007 151.418 896.032 154.668C896.044 155.065 896.044 155.474 896.044 155.872C896.044 159.11 895.911 162.324 895.633 165.501C895.609 165.899 895.572 166.308 895.524 166.705C894.345 179.154 891.147 191.025 886.269 201.998H884.943C889.879 191.038 893.12 179.165 894.314 166.705C894.351 166.308 894.387 165.91 894.423 165.501C894.701 162.324 894.834 159.122 894.834 155.872C894.834 155.474 894.834 155.065 894.822 154.668C894.799 151.418 894.617 148.204 894.314 145.038C894.278 144.641 894.242 144.232 894.181 143.835C893.855 140.584 893.359 137.371 892.742 134.205C892.669 133.796 892.585 133.399 892.501 133.001C891.823 129.739 891.013 126.526 890.045 123.372C889.937 122.963 889.816 122.565 889.683 122.168C888.655 118.894 887.482 115.68 886.164 112.538C886.006 112.141 885.837 111.732 885.656 111.335C884.241 108.037 882.668 104.823 880.94 101.705C880.722 101.296 880.504 100.899 880.262 100.502C878.4 97.1794 876.356 93.9659 874.155 90.8723C873.876 90.4746 873.586 90.0655 873.296 89.6683C870.866 86.3104 868.241 83.0958 865.448 80.039C865.085 79.6298 864.722 79.2327 864.347 78.835C843.571 56.6269 813.967 42.7237 781.157 42.7237H604.668H585.729C585.221 45.9621 584.604 49.1761 583.867 52.3539H604.667H781.157C807.799 52.3539 832.119 62.3684 850.537 78.835C850.984 79.2202 851.419 79.6176 851.855 80.039C855.12 83.0358 858.191 86.2617 861.045 89.6683C861.384 90.0655 861.711 90.4631 862.037 90.8723C864.541 93.9411 866.863 97.1555 868.991 100.502C869.257 100.899 869.511 101.296 869.752 101.705C871.676 104.811 873.441 108.025 875.037 111.335C875.231 111.732 875.412 112.13 875.594 112.538C877.057 115.668 878.363 118.882 879.5 122.168C879.646 122.565 879.779 122.963 879.911 123.372C880.963 126.513 881.858 129.727 882.596 133.001C882.693 133.399 882.778 133.808 882.862 134.205C883.552 137.359 884.083 140.573 884.458 143.835C884.507 144.232 884.555 144.641 884.591 145.038C884.93 148.204 885.111 151.418 885.148 154.668C885.16 155.065 885.16 155.474 885.16 155.872C885.16 159.122 885.015 162.335 884.713 165.501C884.676 165.899 884.64 166.308 884.591 166.705C883.272 179.272 879.67 191.168 874.232 201.998H872.882C878.39 191.188 882.036 179.286 883.37 166.705C883.418 166.308 883.467 165.91 883.491 165.501C883.793 162.335 883.95 159.122 883.95 155.872C883.95 155.474 883.951 155.065 883.938 154.668C883.902 151.418 883.721 148.204 883.37 145.038C883.334 144.63 883.285 144.232 883.237 143.835C882.862 140.573 882.318 137.359 881.629 134.205C881.544 133.796 881.459 133.399 881.362 133.001C880.613 129.727 879.693 126.513 878.63 123.372C878.496 122.963 878.363 122.565 878.218 122.168C877.069 118.87 875.751 115.668 874.264 112.538C874.082 112.13 873.888 111.732 873.696 111.335C872.074 108.025 870.285 104.811 868.326 101.705C868.084 101.296 867.83 100.899 867.564 100.502C865.387 97.1555 863.029 93.9411 860.489 90.8723C860.151 90.4631 859.812 90.0655 859.474 89.6683C856.559 86.2619 853.427 83.0482 850.102 80.039C849.678 79.6537 849.243 79.2683 848.807 78.8955C848.783 78.8711 848.759 78.8469 848.735 78.835C830.655 63.1025 807.013 53.557 781.157 53.557H604.668H583.589C582.827 56.7953 581.943 60.0094 580.952 63.1872H604.667H781.157C800.736 63.1872 818.937 69.2414 833.945 79.5689C834.452 79.9061 834.961 80.2676 835.456 80.6286C839.29 83.3731 842.905 86.3942 846.268 89.6925C846.679 90.0777 847.078 90.4745 847.477 90.8841C850.464 93.8933 853.233 97.1068 855.785 100.501C856.087 100.899 856.377 101.296 856.668 101.705C858.906 104.774 860.949 107.989 862.8 111.335C863.017 111.732 863.235 112.13 863.44 112.538C865.109 115.644 866.597 118.858 867.903 122.168C868.06 122.565 868.217 122.974 868.362 123.372C869.547 126.501 870.563 129.715 871.398 133.001C871.507 133.399 871.603 133.796 871.7 134.205C872.462 137.359 873.066 140.561 873.49 143.835C873.55 144.232 873.599 144.629 873.635 145.038C874.01 148.192 874.227 151.406 874.251 154.668C874.276 155.065 874.276 155.463 874.276 155.871C874.276 159.122 874.106 162.335 873.768 165.501C873.732 165.91 873.696 166.308 873.635 166.705C872.143 179.433 868.035 191.372 861.884 201.998H860.495C866.739 191.4 870.909 179.453 872.425 166.705C872.474 166.308 872.523 165.91 872.559 165.501C872.898 162.335 873.067 159.122 873.067 155.871C873.067 155.474 873.067 155.065 873.055 154.668C873.018 151.418 872.8 148.204 872.425 145.038C872.377 144.629 872.329 144.232 872.268 143.835C871.845 140.573 871.24 137.359 870.454 134.205C870.37 133.808 870.261 133.41 870.152 133.001C869.305 129.715 868.277 126.501 867.068 123.372C866.923 122.974 866.766 122.565 866.609 122.168C865.29 118.858 863.779 115.644 862.086 112.538C861.868 112.13 861.651 111.732 861.421 111.335C859.546 107.989 857.454 104.774 855.181 101.705C854.878 101.296 854.576 100.899 854.273 100.501C851.673 97.1068 848.844 93.9052 845.796 90.896C845.397 90.5108 844.998 90.1134 844.587 89.7282C841.177 86.4785 837.512 83.4935 833.618 80.7967C833.122 80.448 832.614 80.0989 832.094 79.7617C817.509 70.0482 799.987 64.3903 781.157 64.3903H604.668H580.578C579.537 67.6406 578.388 70.8546 577.119 74.0205H604.667H781.157C794 74.0205 806.166 76.9692 817.001 82.2175C817.582 82.5061 818.162 82.7953 818.743 83.0839C823.061 85.2991 827.148 87.8869 830.982 90.8118C831.441 91.1485 831.889 91.4981 832.336 91.8591C835.747 94.5555 838.927 97.5166 841.842 100.706C842.204 101.079 842.543 101.465 842.869 101.85C845.518 104.823 847.937 108.001 850.113 111.335C850.379 111.732 850.633 112.13 850.887 112.538C852.822 115.621 854.564 118.834 856.087 122.168C856.269 122.565 856.45 122.963 856.619 123.372C857.986 126.49 859.159 129.703 860.126 133.001C860.235 133.399 860.356 133.796 860.465 134.205C861.336 137.347 862.013 140.561 862.497 143.835C862.569 144.232 862.618 144.641 862.666 145.038C863.101 148.192 863.331 151.406 863.38 154.668C863.392 155.065 863.392 155.474 863.392 155.872C863.392 159.134 863.198 162.348 862.823 165.501C862.775 165.91 862.727 166.308 862.666 166.705C860.939 179.67 856.14 191.678 849.041 201.998H847.558C854.787 191.719 859.684 179.703 861.445 166.705C861.505 166.308 861.554 165.91 861.602 165.501C861.989 162.348 862.182 159.134 862.182 155.872C862.182 155.474 862.182 155.065 862.17 154.668C862.122 151.406 861.88 148.192 861.445 145.038C861.396 144.63 861.336 144.232 861.287 143.835C860.792 140.561 860.09 137.347 859.207 134.205C859.099 133.796 858.978 133.399 858.857 133.001C857.877 129.691 856.692 126.478 855.301 123.372C855.132 122.975 854.95 122.565 854.757 122.168C853.209 118.834 851.431 115.608 849.46 112.538C849.243 112.201 849.037 111.877 848.807 111.552C848.771 111.491 848.735 111.432 848.686 111.371C848.686 111.359 848.674 111.347 848.662 111.335C846.449 108.013 843.994 104.871 841.334 101.934C840.983 101.549 840.632 101.164 840.269 100.79C837.306 97.6249 834.09 94.7119 830.655 92.0636C830.196 91.715 829.736 91.3778 829.277 91.0405C825.395 88.1637 821.235 85.636 816.857 83.4937C816.264 83.2046 815.671 82.9158 815.079 82.6387C804.751 77.8843 793.263 75.2238 781.157 75.2238H604.668H576.635C575.305 78.4859 573.854 81.7 572.281 84.8539H604.667H781.157C787.47 84.8539 793.589 85.6723 799.43 87.2125C800.108 87.3936 800.797 87.586 801.462 87.7904C806.421 89.2469 811.149 91.2455 815.587 93.6888C816.107 93.966 816.615 94.2547 817.123 94.5557C820.944 96.7824 824.548 99.3582 827.874 102.247C828.273 102.572 828.66 102.921 829.047 103.27C831.986 105.918 834.694 108.82 837.162 111.913C837.464 112.286 837.754 112.672 838.032 113.056C840.258 115.957 842.253 119.039 844.007 122.277C844.225 122.674 844.429 123.071 844.635 123.468C846.219 126.526 847.586 129.704 848.698 133.002H848.711C848.747 133.098 848.783 133.194 848.807 133.302C848.916 133.604 849.013 133.905 849.098 134.205C850.114 137.323 850.912 140.537 851.48 143.835C851.553 144.232 851.613 144.63 851.685 145.038C852.169 148.18 852.447 151.394 852.496 154.668C852.508 155.065 852.508 155.475 852.508 155.872C852.508 159.134 852.29 162.36 851.843 165.501C851.795 165.911 851.746 166.308 851.685 166.705C849.619 180.053 843.798 192.179 835.347 201.998H833.768C842.399 192.256 848.348 180.106 850.452 166.705C850.512 166.308 850.573 165.899 850.621 165.501C851.069 162.348 851.299 159.134 851.299 155.872C851.299 155.463 851.299 155.065 851.287 154.668C851.238 151.394 850.948 148.18 850.452 145.038C850.392 144.63 850.331 144.232 850.247 143.835C849.678 140.537 848.868 137.335 847.84 134.217C847.719 133.82 847.586 133.423 847.441 133.026C846.292 129.74 844.901 126.562 843.293 123.517C843.099 123.119 842.882 122.734 842.664 122.349C840.898 119.135 838.867 116.066 836.617 113.189C836.339 112.815 836.037 112.443 835.734 112.082C833.243 108.988 830.486 106.123 827.499 103.523C827.112 103.174 826.725 102.837 826.326 102.512C822.951 99.6716 819.299 97.144 815.417 94.965C814.91 94.6764 814.389 94.3991 813.87 94.1342C809.346 91.739 804.534 89.8375 799.49 88.4772C798.789 88.2844 798.088 88.1157 797.386 87.9471C792.174 86.7073 786.744 86.0571 781.157 86.0571H604.668H571.677C570.032 89.3316 568.242 92.5451 566.331 95.6872H604.667H780.081H781.157C781.653 95.6872 782.149 95.6872 782.645 95.711C788.631 95.8433 794.4 96.8665 799.841 98.6235C800.446 98.8283 801.039 99.0331 801.632 99.2379C806.021 100.815 810.169 102.885 814.015 105.377C814.462 105.654 814.898 105.955 815.333 106.255C818.634 108.506 821.694 111.07 824.475 113.923C824.802 114.26 825.128 114.596 825.443 114.946C827.922 117.582 830.148 120.459 832.119 123.505C832.348 123.866 832.578 124.238 832.808 124.611C834.574 127.488 836.098 130.522 837.379 133.7C837.524 134.084 837.669 134.47 837.814 134.855C838.951 137.877 839.846 141.018 840.487 144.244C840.572 144.641 840.644 145.05 840.717 145.448C841.261 148.565 841.575 151.767 841.612 155.029C841.624 155.306 841.624 155.595 841.624 155.872V156.233C841.599 159.567 841.309 162.841 840.753 166.031C840.693 166.452 840.608 166.862 840.523 167.283C837.847 181.12 830.391 193.279 819.942 201.998H818.025C828.75 193.485 836.461 181.357 839.253 167.476C819.21 170.719 802.51 184.025 794.56 201.998H793.242C801.321 183.288 818.66 169.441 839.495 166.223C840.076 163.022 840.378 159.735 840.402 156.377C813.77 159.548 791.688 177.647 782.838 201.998H781.552C790.481 176.981 813.1 158.366 840.402 155.173C840.366 151.899 840.064 148.698 839.508 145.58C807.235 149.261 780.674 171.905 771.365 201.998H770.101C779.441 171.306 806.442 148.173 839.277 144.389C838.637 141.162 837.73 138.021 836.581 135.011C799.611 139.929 769.53 166.81 760.042 201.998H758.796C768.284 166.283 798.696 138.954 836.133 133.868C834.851 130.715 833.303 127.681 831.513 124.828C790.86 131.706 758.258 162.441 748.807 201.998H747.559C757.003 161.998 789.81 130.869 830.812 123.733C828.829 120.699 826.567 117.859 824.064 115.246C780.895 124.81 746.912 158.897 737.651 201.998H736.42C745.646 158.562 779.709 124.145 823.072 114.236C820.266 111.419 817.159 108.891 813.821 106.688C769.562 119.602 735.455 156.378 726.556 201.998H725.318C734.169 156.172 768.204 119.149 812.478 105.834C808.56 103.39 804.328 101.392 799.865 99.8997C788.014 104.474 776.791 110.757 766.464 118.653C763.561 120.856 760.731 123.203 758.023 125.646C756.402 127.091 754.781 128.62 753.04 130.353C752.085 131.304 751.153 132.267 750.234 133.23C747.706 135.902 745.325 138.646 743.123 141.367C740.922 144.087 738.757 147.012 736.677 150.057C734.646 153.019 732.699 156.148 730.885 159.339C729.034 162.576 727.317 165.922 725.769 169.281C724.137 172.772 722.638 176.407 721.319 180.09C719.868 184.099 718.586 188.215 717.546 192.332C716.728 195.52 716.052 198.748 715.472 201.998H714.244C714.835 198.65 715.531 195.326 716.373 192.043C717.425 187.878 718.719 183.725 720.182 179.681C721.512 175.973 723.024 172.302 724.669 168.775C726.229 165.393 727.97 162.01 729.832 158.736C731.659 155.522 733.63 152.368 735.674 149.383C737.778 146.302 739.967 143.353 742.18 140.621C744.393 137.864 746.812 135.107 749.351 132.411C750.283 131.424 751.226 130.461 752.181 129.51C753.935 127.753 755.579 126.2 757.212 124.756C759.945 122.288 762.811 119.917 765.726 117.69C775.739 110.034 786.587 103.884 798.027 99.3335C792.682 97.7447 787.01 96.8896 781.156 96.8896H780.358C772.486 101.055 764.952 105.978 757.817 111.635C754.926 113.91 752.085 116.342 749.363 118.857C747.876 120.242 746.558 121.494 745.348 122.698C744.03 124.021 742.76 125.321 741.587 126.598C739.072 129.281 736.677 132.05 734.476 134.806C732.276 137.539 730.159 140.367 728.019 143.473C725.963 146.435 724.016 149.503 722.226 152.609C720.424 155.679 718.695 158.893 717.086 162.191C715.465 165.513 713.966 168.92 712.623 172.314C711.221 175.84 709.951 179.488 708.826 183.147C706.932 189.321 705.466 195.619 704.416 201.997H703.189C704.248 195.497 705.74 189.079 707.677 182.786C708.802 179.103 710.084 175.431 711.498 171.881C712.853 168.449 714.365 165.02 715.997 161.661C717.618 158.339 719.36 155.088 721.174 152.007C722.988 148.877 724.959 145.784 727.015 142.799C729.179 139.657 731.307 136.804 733.533 134.06C735.758 131.267 738.165 128.487 740.704 125.778C741.889 124.503 743.16 123.179 744.489 121.854C745.711 120.638 747.041 119.362 748.541 117.966C751.286 115.439 754.152 112.995 757.054 110.696C763.658 105.472 770.611 100.85 777.831 96.8894H604.667H565.605C561.602 103.342 557.079 109.517 552.073 115.331C549.702 118.111 547.187 120.819 544.623 123.359C544.526 123.479 544.429 123.576 544.309 123.684C541.902 126.092 539.314 128.487 536.617 130.834C533.763 133.277 530.897 135.576 528.091 137.647C525.165 139.814 522.13 141.908 519.058 143.846C515.841 145.892 512.6 147.77 509.444 149.431C506.094 151.225 502.647 152.898 499.189 154.402C495.646 155.955 491.897 157.412 488.039 158.736C483.806 160.192 479.537 161.432 475.365 162.443L475.292 162.455C472.668 163.105 470.02 163.671 467.359 164.164C469.519 179.419 477.569 192.813 489.137 201.997H487.242C476.066 192.673 468.306 179.42 466.162 164.381C462.994 164.959 459.801 165.416 456.596 165.777C458.565 179.545 464.587 192.031 473.416 201.997H471.831C463.215 191.983 457.335 179.571 455.386 165.91C452.182 166.235 448.953 166.464 445.712 166.584C447.461 179.628 452.368 191.686 459.618 201.997H458.141C451.027 191.656 446.22 179.625 444.502 166.632C443.003 166.68 441.503 166.704 439.992 166.704H434.755C436.271 179.45 440.431 191.4 446.671 201.997H445.296C439.146 191.372 435.04 179.432 433.546 166.704H423.811C425.145 179.285 428.792 191.186 434.301 201.997H432.951C427.512 191.167 423.908 179.272 422.589 166.704H412.866C414.06 179.163 417.298 191.038 422.233 201.997H420.919C416.041 191.023 412.836 179.154 411.657 166.704H401.946C403.024 179.074 405.942 190.926 410.415 201.997H409.107C404.68 190.916 401.793 179.065 400.725 166.704H391.014C391.999 179.005 394.658 190.841 398.751 201.997H397.469C393.415 190.833 390.782 178.997 389.804 166.704H380.093C381.002 178.948 383.448 190.773 387.224 201.997H385.949C382.207 190.767 379.785 178.944 378.884 166.704H323.63C322.729 178.945 320.295 190.766 316.552 201.997H315.282C319.057 190.772 321.51 178.95 322.42 166.704C322.445 166.295 322.481 165.898 322.493 165.501C322.711 162.311 322.82 159.109 322.82 155.871C322.82 155.474 322.82 155.064 322.808 154.667C322.784 151.429 322.65 148.227 322.421 145.038C322.384 144.64 322.36 144.231 322.323 143.834C322.058 140.596 321.683 137.382 321.199 134.204C321.139 133.796 321.078 133.398 321.006 133.001C320.498 129.75 319.881 126.537 319.143 123.371C319.059 122.962 318.962 122.565 318.853 122.167C318.091 118.917 317.197 115.704 316.205 112.538C316.083 112.129 315.951 111.731 315.818 111.334C314.766 108.072 313.604 104.858 312.31 101.704C312.165 101.307 311.996 100.898 311.827 100.501C310.484 97.2268 309.009 94.0128 307.413 90.8715C307.219 90.4624 307.014 90.0647 306.808 89.6675C305.127 86.3815 303.313 83.1795 301.379 80.0382C301.136 79.6406 300.883 79.2319 300.616 78.8342C274.749 37.6557 228.782 10.2235 176.49 10.2235H0V9.01994H176.49C229.484 9.01994 276.043 36.9699 302.056 78.8342H439.992C472.664 78.8313 499.244 52.3741 499.244 19.8537C499.244 -12.6686 472.662 -39.1277 439.987 -39.1277L335.999 -39.1282C336.254 -39.5302 336.523 -39.9231 336.773 -40.3308H439.987C473.329 -40.3308 500.454 -13.3331 500.454 19.8537C500.454 53.038 473.332 80.0349 439.992 80.0382H439.987H302.793C304.704 83.1795 306.506 86.3815 308.163 89.6675H439.992C478.666 89.6646 510.128 58.3477 510.128 19.8537C510.128 -18.6428 478.663 -49.961 439.987 -49.961H342.485C342.663 -50.3634 342.853 -50.7588 343.025 -51.1646H439.987C479.33 -51.1642 511.337 -19.3058 511.337 19.8537C511.337 59.0107 479.333 90.8682 439.992 90.8715H439.987H308.78C310.352 94.0128 311.803 97.2268 313.145 100.501H439.992C484.667 100.498 521.012 64.3209 521.012 19.8537C521.012 -24.6155 484.665 -60.7939 439.987 -60.7943H345.592C345.705 -61.1967 345.828 -61.5935 345.935 -61.9979H439.987C485.331 -61.9975 522.221 -25.279 522.221 19.8537C522.221 64.9864 485.331 101.705 439.987 101.705L313.629 101.704C314.899 104.858 316.048 108.072 317.1 111.334H439.992C490.669 111.331 531.896 70.2947 531.896 19.8537C531.896 -30.5896 490.666 -71.6276 439.987 -71.6276L347.844 -71.6281C347.9 -72.0273 347.948 -72.4297 347.998 -72.8308H439.987C491.333 -72.8308 533.106 -31.2531 533.106 19.8539C533.106 70.9603 491.333 112.539 439.987 112.539L317.474 112.538C318.455 115.704 319.337 118.917 320.111 122.168H439.992C496.67 122.165 542.78 76.2686 542.78 19.854C542.78 -36.5626 496.668 -82.4602 439.987 -82.4608H348.763C348.765 -82.6622 348.778 -82.8609 348.778 -83.0628C348.778 -83.2652 348.765 -83.462 348.763 -83.6644H439.987C497.334 -83.6639 543.989 -37.2261 543.989 19.854C543.989 76.9341 497.334 123.372 439.987 123.372L320.39 123.371C321.115 126.537 321.731 129.751 322.239 133.001H439.992C502.671 132.998 553.664 82.242 553.664 19.854C553.664 -42.5358 502.669 -93.2936 439.987 -93.2941H349.176C349.126 -93.6951 349.078 -94.098 349.022 -94.4977H439.987C503.335 -94.4972 554.873 -43.1997 554.873 19.854C554.873 82.9073 503.336 134.206 439.987 134.206L322.421 134.205C322.905 137.383 323.267 140.596 323.534 143.834H439.992C508.673 143.832 564.548 88.2156 564.548 19.854C564.548 -48.5094 508.67 -104.127 439.987 -104.127L347.718 -104.128C347.611 -104.531 347.488 -104.929 347.376 -105.33H439.987C509.337 -105.33 565.758 -49.173 565.758 19.854C565.758 88.8804 509.337 145.039 439.987 145.039L323.63 145.038C323.872 148.216 323.993 151.429 324.017 154.668H439.992C441.262 154.668 442.532 154.656 443.801 154.607C444.201 154.607 444.612 154.595 445.011 154.583C448.252 154.463 451.493 154.222 454.71 153.873C455.109 153.837 455.521 153.789 455.919 153.741C457.213 153.596 458.508 153.428 459.79 153.235C461.749 152.947 463.72 152.622 465.679 152.249C466.078 152.165 466.477 152.092 466.888 152.007C470.299 151.322 473.696 150.503 477.034 149.565C481.352 148.349 485.645 146.892 489.793 145.255C493.505 143.798 497.206 142.15 500.786 140.344C504.257 138.622 507.618 136.757 510.775 134.794C513.81 132.965 516.906 130.906 519.965 128.668C522.795 126.61 525.673 124.335 528.491 121.904C531.055 119.7 533.498 117.437 535.772 115.187C535.977 114.97 536.195 114.754 536.412 114.524C538.964 111.972 541.419 109.288 543.717 106.544C546.353 103.427 548.82 100.212 551.142 96.8899C551.42 96.4932 551.699 96.0955 551.976 95.6868C554.117 92.5566 556.112 89.3426 557.963 86.0566C558.204 85.6599 558.434 85.2502 558.652 84.8535C560.393 81.6994 562.002 78.4978 563.477 75.2233C563.658 74.8266 563.84 74.4169 564.021 74.0202C565.412 70.8543 566.682 67.6521 567.819 64.39C567.964 63.9933 568.109 63.5956 568.242 63.1869C569.318 60.021 570.286 56.8069 571.12 53.5567C571.229 53.16 571.338 52.7623 571.435 52.3536C572.233 49.1758 572.91 45.9618 573.466 42.7234C573.538 42.3267 573.611 41.917 573.66 41.5203C574.192 38.33 574.603 35.1165 574.893 31.8901C574.93 31.4814 574.965 31.0837 574.99 30.687C575.256 27.4848 575.401 24.2832 575.426 21.0573C575.438 20.66 575.438 20.2504 575.438 19.8537C575.438 16.6158 575.317 13.4014 575.087 10.224C575.062 9.82675 575.038 9.42957 575.002 9.0204C570.818 -43.2086 536.582 -87.1435 489.563 -105.608C488.958 -105.849 488.342 -106.089 487.725 -106.306C481.715 -108.581 475.498 -110.423 469.113 -111.819C468.013 -112.06 466.912 -112.288 465.8 -112.493C457.443 -114.118 448.821 -114.961 439.992 -114.961H344.477C344.306 -115.367 344.115 -115.762 343.937 -116.165H439.992C449.994 -116.165 459.741 -115.093 469.125 -113.035C470.129 -112.842 471.109 -112.614 472.1 -112.361C478.086 -110.928 483.927 -109.099 489.587 -106.896C490.18 -106.667 490.772 -106.427 491.365 -106.186C538.13 -87.2396 572.063 -43.2204 576.211 9.02055C576.248 9.41777 576.284 9.81497 576.296 10.2241C576.538 13.4015 576.646 16.616 576.646 19.8539C576.646 20.2506 576.646 20.6602 576.634 21.0574C576.611 24.2834 576.465 27.485 576.199 30.6871C576.175 31.0839 576.151 31.4816 576.102 31.8903C575.824 35.1167 575.413 38.3302 574.893 41.5204C574.832 41.9292 574.76 42.3268 574.699 42.7236C574.143 45.9619 573.466 49.1759 572.68 52.3537C572.583 52.7505 572.487 53.1601 572.378 53.5569C571.544 56.8072 570.588 60.0211 569.512 63.187C569.379 63.5957 569.246 63.9934 569.1 64.3902C567.976 67.6523 566.719 70.8664 565.327 74.0203C565.158 74.4171 564.989 74.8267 564.795 75.2235C563.344 78.498 561.748 81.6997 560.03 84.8537C559.813 85.2504 559.583 85.66 559.365 86.0568C557.527 89.3428 555.556 92.5567 553.44 95.6869C553.161 96.0837 552.896 96.4933 552.605 96.8901C550.138 100.489 547.478 103.968 544.636 107.315C542.326 110.083 539.847 112.791 537.283 115.355C537.065 115.595 536.848 115.812 536.618 116.029C534.332 118.316 531.865 120.591 529.289 122.818C526.435 125.261 523.545 127.56 520.679 129.631C517.583 131.894 514.463 133.976 511.403 135.83C508.222 137.792 504.837 139.682 501.33 141.427C497.714 143.245 493.989 144.906 490.228 146.387C486.056 148.035 481.726 149.492 477.373 150.72C473.902 151.707 470.371 152.549 466.828 153.235C466.428 153.32 466.017 153.404 465.618 153.464C463.731 153.825 461.845 154.138 459.958 154.415C458.604 154.607 457.25 154.788 455.895 154.945C455.496 154.993 455.085 155.041 454.686 155.089C451.469 155.426 448.24 155.655 444.999 155.775C444.6 155.799 444.201 155.811 443.789 155.811C442.52 155.859 441.262 155.871 439.992 155.871H324.029C324.029 159.11 323.92 162.323 323.715 165.501H378.8H380.021H389.72H390.93H400.616H401.838H411.549H412.759H422.481H423.69H433.414H434.623H439.992C441.444 165.501 442.907 165.477 444.358 165.429C444.757 165.429 445.168 165.405 445.568 165.381C448.796 165.272 452.025 165.044 455.23 164.706C455.628 164.67 456.028 164.634 456.427 164.586C459.644 164.225 462.836 163.767 466.005 163.189C466.404 163.129 466.803 163.057 467.19 162.973C469.838 162.492 472.462 161.914 475.063 161.276L475.147 161.251C479.259 160.253 483.468 159.025 487.652 157.604C491.473 156.281 495.199 154.836 498.705 153.295C502.128 151.803 505.55 150.154 508.875 148.372C512.008 146.723 515.224 144.857 518.405 142.835C521.453 140.909 524.476 138.839 527.366 136.684C530.16 134.626 533.002 132.351 535.82 129.92C538.492 127.596 541.068 125.213 543.475 122.83C543.559 122.746 543.644 122.661 543.753 122.541C546.304 119.989 548.796 117.305 551.154 114.56C555.955 108.975 560.308 103.077 564.178 96.8898C564.42 96.493 564.674 96.0953 564.916 95.6866C566.851 92.5445 568.652 89.331 570.322 86.0565C570.539 85.6597 570.745 85.2501 570.938 84.8533C572.522 81.6992 573.986 78.4852 575.316 75.2232C575.498 74.8264 575.667 74.4287 575.812 74.02C577.094 70.8541 578.267 67.64 579.307 64.3898C579.44 63.9931 579.561 63.5954 579.682 63.1867C580.685 60.0089 581.568 56.8067 582.343 53.5566C582.439 53.1598 582.536 52.7502 582.621 52.3534C583.358 49.1756 583.987 45.9616 584.507 42.7233C584.568 42.3265 584.628 41.9288 584.688 41.5201C585.172 38.3299 585.547 35.1164 585.813 31.89C585.849 31.4932 585.886 31.0836 585.91 30.6868C586.151 27.4846 586.285 24.2831 586.309 21.0571C586.321 20.6599 586.321 20.2503 586.321 19.8535C586.321 16.6157 586.212 13.4136 586.007 10.2238C585.983 9.8266 585.946 9.41747 585.922 9.02025C582.004 -43.7866 549.678 -88.8407 504.135 -111.037C504.135 -111.037 504.134 -111.037 504.133 -111.037L502.681 -111.735C498.498 -113.721 494.194 -115.515 489.793 -117.103C489.792 -117.103 489.791 -117.104 489.79 -117.104C489.174 -117.333 488.558 -117.549 487.93 -117.754L487.957 -117.745L487.96 -117.744L487.986 -117.735L487.989 -117.735L488.016 -117.726L488.018 -117.725L488.045 -117.716L488.048 -117.715L488.075 -117.706L488.077 -117.706L488.104 -117.697L488.107 -117.696L488.133 -117.687L488.136 -117.686L488.163 -117.677L488.165 -117.677L488.192 -117.667L488.195 -117.667L488.221 -117.658L488.253 -117.647L488.28 -117.638L488.283 -117.638L488.309 -117.628L488.312 -117.628L488.339 -117.619L488.341 -117.618L488.368 -117.609L488.37 -117.608L488.397 -117.599L488.4 -117.598L488.426 -117.589L488.429 -117.588L488.456 -117.579L488.458 -117.579L488.485 -117.569L488.487 -117.569L488.514 -117.559L488.517 -117.559L488.543 -117.55L488.546 -117.549L488.573 -117.54L488.575 -117.539L488.602 -117.53L488.604 -117.529L488.631 -117.52L488.634 -117.519L488.66 -117.51L488.662 -117.509L488.689 -117.5L488.691 -117.499L488.719 -117.49L488.72 -117.489L488.747 -117.48L488.75 -117.479L488.776 -117.47L488.778 -117.469L488.805 -117.46L488.807 -117.459L488.863 -117.439L488.865 -117.439L488.892 -117.429L488.894 -117.429L488.922 -117.419H488.923L488.95 -117.409L488.952 -117.409L488.979 -117.399L488.981 -117.399L489.008 -117.389L489.01 -117.388L489.037 -117.379L489.039 -117.378L489.066 -117.368L489.067 -117.368L489.095 -117.358H489.096L489.124 -117.348L489.125 -117.347L489.153 -117.338L489.183 -117.327L489.211 -117.317L489.212 -117.317L489.239 -117.307L489.241 -117.306L489.268 -117.296L489.326 -117.275L489.384 -117.254L489.442 -117.233L489.471 -117.223L489.5 -117.213L489.528 -117.202L489.557 -117.192L489.586 -117.181L489.615 -117.17L489.644 -117.16L489.672 -117.149L489.701 -117.138L489.73 -117.128L489.759 -117.117L489.788 -117.106L487.926 -117.756L487.927 -117.756H487.928C487.927 -117.756 487.927 -117.756 487.926 -117.756C481.856 -119.875 475.592 -121.584 469.195 -122.883C468.095 -123.1 467.007 -123.317 465.906 -123.509C457.489 -125.014 448.83 -125.796 439.99 -125.796H335.906C335.656 -126.204 335.387 -126.597 335.131 -127H358.516H360.596H378.627H381.13H405.5H409.551H439.99C449.99 -127 459.748 -126.001 469.193 -124.111C469.194 -124.111 469.195 -124.111 469.196 -124.111C470.174 -123.919 471.153 -123.702 472.132 -123.486C472.132 -123.486 472.133 -123.485 472.135 -123.485C478.168 -122.15 484.057 -120.441 489.788 -118.394C489.789 -118.394 489.79 -118.394 489.791 -118.394C490.382 -118.177 490.974 -117.961 491.566 -117.732C491.567 -117.732 491.568 -117.732 491.569 -117.731C495.861 -116.143 500.069 -114.35 504.155 -112.364C504.156 -112.364 504.157 -112.364 504.158 -112.363C504.641 -112.135 505.111 -111.906 505.582 -111.678C505.583 -111.678 505.584 -111.677 505.584 -111.677C551.044 -89.1195 583.236 -43.9087 587.13 9.0181H604.665H781.155C834.148 9.0181 880.707 36.9681 906.72 78.8324H1044.66C1077.33 78.8295 1103.91 52.3723 1103.91 19.8519C1103.91 -12.6704 1077.33 -39.1296 1044.65 -39.1296L940.663 -39.13C940.919 -39.532 941.188 -39.9249 941.438 -40.3327H1044.65C1077.99 -40.3327 1105.12 -13.3349 1105.12 19.8519C1105.12 53.0382 1077.99 80.0369 1044.65 80.0369L907.458 80.0364C909.369 83.1776 911.17 86.3797 912.827 89.6657H1044.66C1083.33 89.6628 1114.79 58.3459 1114.79 19.8519C1114.79 -18.6446 1083.33 -49.9629 1044.65 -49.9629H947.15C947.328 -50.3653 947.518 -50.7607 947.689 -51.1665H1044.65C1083.99 -51.166 1116 -19.3076 1116 19.8519C1116 59.0109 1083.99 90.8702 1044.65 90.8702L913.444 90.8697C915.016 94.0109 916.468 97.2249 917.81 100.499H1044.66C1089.33 100.496 1125.68 64.3191 1125.68 19.8519C1125.68 -24.6174 1089.33 -60.7957 1044.65 -60.7962H950.257C950.37 -61.1986 950.493 -61.5953 950.599 -61.9997H1044.65C1090 -61.9993 1126.89 -25.2808 1126.89 19.8519C1126.89 64.9845 1090 101.703 1044.65 101.703L918.294 101.703C919.564 104.857 920.712 108.07 921.764 111.332H1044.66C1095.33 111.329 1136.56 70.2929 1136.56 19.8519C1136.56 -30.5914 1095.33 -71.6295 1044.65 -71.6295L952.508 -71.6299C952.564 -72.0291 952.612 -72.4315 952.662 -72.8326H1044.65C1096 -72.8326 1137.77 -31.2549 1137.77 19.852C1137.77 70.9585 1096 112.537 1044.65 112.537L922.139 112.536C923.119 115.702 924.001 118.916 924.776 122.166H1044.66C1101.33 122.163 1147.44 76.2668 1147.44 19.8522C1147.44 -36.5645 1101.33 -82.462 1044.65 -82.4626H953.428C953.43 -82.6641 953.443 -82.8627 953.443 -83.0646C953.443 -83.267 953.43 -83.4638 953.428 -83.6662H1044.65C1102 -83.6657 1148.65 -37.2279 1148.65 19.8522C1148.65 76.9323 1102 123.371 1044.65 123.371L925.054 123.37C925.78 126.536 926.396 129.749 926.904 132.999H1044.66C1107.34 132.996 1158.33 82.2401 1158.33 19.8522C1158.33 -42.5377 1107.33 -93.2955 1044.65 -93.2959H953.84C953.79 -93.697 953.742 -94.0998 953.686 -94.4995H1044.65C1108 -94.499 1159.54 -43.2016 1159.54 19.8522C1159.54 82.9054 1108 134.204 1044.65 134.204L927.085 134.203C927.569 137.381 927.932 140.594 928.198 143.833H1044.66C1113.34 143.83 1169.21 88.2138 1169.21 19.8522C1169.21 -48.5113 1113.33 -104.129 1044.65 -104.129L952.383 -104.13C952.276 -104.533 952.153 -104.931 952.04 -105.332H1044.65C1114 -105.332 1170.42 -49.1749 1170.42 19.8522C1170.42 88.8786 1114 145.037 1044.65 145.037L928.295 145.036C928.537 148.214 928.658 151.428 928.682 154.666H1044.66C1045.93 154.666 1047.2 154.654 1048.47 154.605C1048.87 154.605 1049.28 154.593 1049.68 154.582C1052.92 154.461 1056.16 154.221 1059.37 153.871C1059.77 153.835 1060.19 153.787 1060.58 153.739C1061.88 153.594 1063.17 153.426 1064.45 153.233C1066.41 152.945 1068.38 152.62 1070.34 152.247C1070.74 152.163 1071.14 152.09 1071.55 152.006C1074.96 151.32 1078.36 150.501 1081.7 149.563C1086.02 148.347 1090.31 146.891 1094.46 145.253C1098.17 143.797 1101.87 142.148 1105.45 140.342C1108.92 138.621 1112.28 136.755 1115.44 134.793C1118.47 132.964 1121.57 130.905 1124.63 128.666C1127.46 126.608 1130.34 124.333 1133.16 121.902C1135.72 119.699 1138.16 117.436 1140.44 115.185C1140.64 114.968 1140.86 114.752 1141.08 114.523C1143.63 111.971 1146.08 109.287 1148.38 106.542C1151.02 103.425 1153.48 100.21 1155.81 96.8881C1156.08 96.4913 1156.36 96.0936 1156.64 95.6849C1158.78 92.5547 1160.78 89.3408 1162.63 86.0548C1162.87 85.658 1163.1 85.2484 1163.32 84.8516C1165.06 81.6975 1166.67 78.496 1168.14 75.2215C1168.32 74.8247 1168.5 74.4151 1168.69 74.0184C1170.08 70.8525 1171.35 67.6503 1172.48 64.3882C1172.63 63.9914 1172.77 63.5938 1172.91 63.1851C1173.98 60.0192 1174.95 56.805 1175.78 53.5549C1175.89 53.1581 1176 52.7605 1176.1 52.3517C1176.9 49.1739 1177.57 45.9599 1178.13 42.7216C1178.2 42.3248 1178.28 41.9152 1178.32 41.5184C1178.86 38.3282 1179.27 35.1147 1179.56 31.8883C1179.59 31.4796 1179.63 31.0819 1179.65 30.6852C1179.92 27.483 1180.07 24.2814 1180.09 21.0554C1180.1 20.6582 1180.1 20.2486 1180.1 19.8519C1180.1 16.614 1179.98 13.3995 1179.75 10.2222C1179.73 9.82494 1179.7 9.42772 1179.67 9.01855C1175.48 -43.2104 1141.25 -87.1453 1094.23 -105.61C1093.62 -105.851 1093.01 -106.091 1092.39 -106.308C1086.38 -108.583 1080.16 -110.425 1073.78 -111.821C1072.68 -112.062 1071.58 -112.29 1070.46 -112.495C1062.11 -114.12 1053.48 -114.963 1044.66 -114.963H949.142C948.97 -115.369 948.78 -115.764 948.602 -116.167H1044.66C1054.66 -116.167 1064.41 -115.095 1073.79 -113.037C1074.79 -112.844 1075.77 -112.616 1076.76 -112.363C1082.75 -110.93 1088.59 -109.101 1094.25 -106.898C1094.84 -106.669 1095.44 -106.428 1096.03 -106.188C1142.79 -87.2414 1176.73 -43.2222 1180.88 9.01871C1180.91 9.41592 1180.95 9.81313 1180.96 10.2223C1181.2 13.3997 1181.31 16.6141 1181.31 19.852C1181.31 20.2488 1181.31 20.6584 1181.3 21.0556C1181.28 24.2815 1181.13 27.4831 1180.86 30.6853C1180.84 31.0821 1180.82 31.4797 1180.77 31.8884C1180.49 35.1148 1180.08 38.3284 1179.56 41.5186C1179.5 41.9273 1179.42 42.325 1179.36 42.7217C1178.81 45.9601 1178.13 49.1741 1177.35 52.3519C1177.25 52.7486 1177.15 53.1583 1177.04 53.555C1176.21 56.8053 1175.25 60.0193 1174.18 63.1852C1174.04 63.5939 1173.91 63.9916 1173.76 64.3883C1172.64 67.6504 1171.38 70.8646 1169.99 74.0185C1169.82 74.4153 1169.65 74.8249 1169.46 75.2216C1168.01 78.4961 1166.41 81.6979 1164.69 84.8518C1164.48 85.2486 1164.25 85.6582 1164.03 86.0549C1162.19 89.3409 1160.22 92.5549 1158.1 95.6851C1157.83 96.0818 1157.56 96.4915 1157.27 96.8882C1154.8 100.488 1152.14 103.966 1149.3 107.313C1146.99 110.081 1144.51 112.789 1141.95 115.353C1141.73 115.594 1141.51 115.81 1141.28 116.027C1139 118.314 1136.53 120.589 1133.95 122.816C1131.1 125.26 1128.21 127.559 1125.34 129.629C1122.25 131.892 1119.13 133.974 1116.07 135.828C1112.89 137.79 1109.5 139.68 1105.99 141.425C1102.38 143.243 1098.65 144.904 1094.89 146.385C1090.72 148.033 1086.39 149.49 1082.04 150.718C1078.57 151.705 1075.04 152.547 1071.49 153.233C1071.09 153.318 1070.68 153.402 1070.28 153.462C1068.4 153.824 1066.51 154.136 1064.62 154.414C1063.27 154.606 1061.91 154.787 1060.56 154.943C1060.16 154.991 1059.75 155.039 1059.35 155.087C1056.13 155.424 1052.9 155.653 1049.66 155.773C1049.26 155.798 1048.87 155.809 1048.45 155.809C1047.18 155.858 1045.93 155.869 1044.66 155.869H928.694C928.694 159.108 928.585 162.321 928.379 165.499H983.465H984.686H994.385H995.594H1005.28H1006.5H1016.21H1017.42H1027.15H1028.36H1038.08H1039.29H1044.66C1046.11 165.499 1047.57 165.475 1049.02 165.427C1049.42 165.427 1049.83 165.403 1050.23 165.379C1053.46 165.27 1056.69 165.042 1059.89 164.705C1060.29 164.668 1060.69 164.632 1061.09 164.585C1064.31 164.223 1067.5 163.765 1070.67 163.188C1071.07 163.128 1071.47 163.055 1071.85 162.971C1074.5 162.49 1077.13 161.912 1079.73 161.274L1079.81 161.25C1083.92 160.251 1088.13 159.023 1092.32 157.602C1096.14 156.279 1099.86 154.834 1103.37 153.294C1106.79 151.801 1110.21 150.152 1113.54 148.371C1116.67 146.721 1119.89 144.856 1123.07 142.833C1126.12 140.908 1129.14 138.837 1132.03 136.682C1134.82 134.624 1137.67 132.349 1140.48 129.918C1143.16 127.594 1145.73 125.211 1148.14 122.828C1148.22 122.744 1148.31 122.659 1148.42 122.539C1150.97 119.987 1153.46 117.303 1155.82 114.559C1160.62 108.973 1164.97 103.076 1168.84 96.8879C1169.09 96.4912 1169.34 96.0935 1169.58 95.6848C1171.52 92.5426 1173.32 89.3291 1174.99 86.0546C1175.2 85.6579 1175.41 85.2482 1175.6 84.8515C1177.19 81.6974 1178.65 78.4834 1179.98 75.2213C1180.16 74.8246 1180.33 74.4269 1180.48 74.0182C1181.76 70.8523 1182.93 67.6382 1183.97 64.388C1184.1 63.9913 1184.23 63.5936 1184.35 63.1849C1185.35 60.0071 1186.23 56.8049 1187.01 53.5547C1187.1 53.158 1187.2 52.7484 1187.29 52.3516C1188.02 49.1738 1188.65 45.9598 1189.17 42.7214C1189.23 42.3247 1189.29 41.927 1189.35 41.5183C1189.84 38.328 1190.21 35.1145 1190.48 31.8881C1190.51 31.4914 1190.55 31.0817 1190.57 30.685C1190.82 27.4828 1190.95 24.2812 1190.97 21.0553C1190.99 20.6581 1190.99 20.2484 1190.99 19.8517C1190.99 16.6138 1190.88 13.4118 1190.67 10.222C1190.65 9.82477 1190.61 9.41563 1190.59 9.01842C1186.67 -43.7884 1154.34 -88.8425 1108.8 -111.039C1108.8 -111.039 1108.8 -111.039 1108.8 -111.039L1108.78 -111.051L1108.75 -111.062L1108.73 -111.073L1108.71 -111.085L1108.69 -111.096L1108.67 -111.107L1108.64 -111.118L1108.62 -111.13L1108.6 -111.141L1108.58 -111.152L1108.55 -111.163L1108.53 -111.174L1108.51 -111.185L1108.49 -111.197L1108.46 -111.208L1108.44 -111.219L1108.42 -111.23L1108.4 -111.241L1108.38 -111.252L1108.35 -111.263L1108.35 -111.264L1108.33 -111.275L1108.31 -111.286L1108.29 -111.297L1108.26 -111.308L1108.24 -111.318L1108.24 -111.319L1108.22 -111.329L1108.22 -111.329L1108.2 -111.34L1108.19 -111.34L1108.06 -111.405L1108.06 -111.406L1107.99 -111.437L1107.99 -111.438L1107.97 -111.448L1107.97 -111.449L1107.92 -111.47L1107.92 -111.47L1107.9 -111.481L1107.9 -111.481L1107.88 -111.491L1107.88 -111.492L1107.86 -111.502L1107.85 -111.502L1107.83 -111.513L1107.83 -111.513L1107.81 -111.524L1107.81 -111.524L1107.7 -111.577L1107.69 -111.578L1107.65 -111.598L1107.65 -111.599L1107.6 -111.62L1107.6 -111.621L1107.58 -111.631L1107.58 -111.632L1107.56 -111.641L1107.55 -111.642L1107.53 -111.652L1107.53 -111.653L1107.51 -111.662L1107.51 -111.663L1107.49 -111.673L1107.48 -111.674L1107.46 -111.684L1107.46 -111.685L1107.44 -111.694L1107.44 -111.696L1107.42 -111.705L1107.42 -111.706L1107.39 -111.715L1107.39 -111.717L1107.37 -111.726L1107.37 -111.727L1107.35 -111.737L1107.35 -111.738C1103.16 -113.724 1098.86 -115.517 1094.46 -117.105C1094.46 -117.105 1094.46 -117.106 1094.45 -117.106L1094.43 -117.117L1094.4 -117.128L1094.37 -117.138L1094.34 -117.149L1094.31 -117.16L1094.28 -117.17L1094.25 -117.181L1094.22 -117.192L1094.19 -117.202L1094.17 -117.212L1094.14 -117.223L1094.11 -117.233L1094.05 -117.254L1093.99 -117.275L1093.93 -117.296L1093.91 -117.306L1093.9 -117.307L1093.88 -117.317L1093.88 -117.317L1093.85 -117.327L1093.82 -117.337L1093.79 -117.347L1093.79 -117.348L1093.76 -117.358H1093.76L1093.73 -117.368L1093.73 -117.368L1093.7 -117.378L1093.7 -117.379L1093.68 -117.388L1093.67 -117.389L1093.65 -117.398L1093.64 -117.399L1093.62 -117.408L1093.62 -117.409L1093.59 -117.419H1093.59L1093.56 -117.429L1093.56 -117.429L1093.53 -117.439L1093.53 -117.439L1093.47 -117.459L1093.47 -117.46L1093.44 -117.469L1093.44 -117.47L1093.42 -117.479L1093.41 -117.48L1093.39 -117.489L1093.38 -117.49L1093.36 -117.499L1093.35 -117.5L1093.33 -117.509L1093.33 -117.51L1093.3 -117.519L1093.3 -117.519L1093.27 -117.529L1093.27 -117.529L1093.24 -117.539L1093.24 -117.539L1093.21 -117.549L1093.21 -117.549L1093.18 -117.559L1093.18 -117.559L1093.15 -117.569L1093.15 -117.569L1093.12 -117.579L1093.12 -117.579L1093.09 -117.588L1093.09 -117.589L1093.07 -117.598L1093.06 -117.599L1093.04 -117.608L1093.03 -117.609L1093.01 -117.618L1093 -117.619L1092.98 -117.628L1092.97 -117.628L1092.95 -117.638L1092.95 -117.638L1092.92 -117.647L1092.89 -117.658L1092.86 -117.667L1092.86 -117.667L1092.83 -117.677L1092.83 -117.677L1092.8 -117.686L1092.8 -117.686L1092.77 -117.695L1092.77 -117.696L1092.74 -117.705L1092.74 -117.706L1092.71 -117.715L1092.71 -117.715L1092.68 -117.724L1092.68 -117.725L1092.65 -117.734L1092.65 -117.735L1092.63 -117.744L1092.62 -117.744L1092.6 -117.753H1092.59L1092.59 -117.754C1086.52 -119.872 1080.26 -121.581 1073.86 -122.881C1072.76 -123.098 1071.67 -123.315 1070.57 -123.506C1062.16 -125.011 1053.5 -125.794 1044.66 -125.794H940.573C940.324 -126.202 940.054 -126.595 939.798 -126.998H963.183H965.263H983.295H985.798H1010.17H1014.22H1044.66C1054.66 -126.998 1064.42 -125.998 1073.86 -124.109C1073.86 -124.109 1073.86 -124.109 1073.86 -124.109C1074.84 -123.917 1075.82 -123.7 1076.8 -123.484C1076.8 -123.484 1076.8 -123.483 1076.8 -123.483C1082.84 -122.147 1088.72 -120.438 1094.46 -118.392C1094.46 -118.392 1094.46 -118.392 1094.46 -118.392C1095.05 -118.175 1095.64 -117.959 1096.23 -117.73C1096.23 -117.73 1096.23 -117.73 1096.24 -117.729C1100.53 -116.141 1104.74 -114.348 1108.82 -112.362C1108.82 -112.361 1108.82 -112.361 1108.83 -112.361C1109.31 -112.132 1109.78 -111.904 1110.25 -111.675C1110.25 -111.675 1110.25 -111.675 1110.25 -111.675C1155.71 -89.1172 1187.9 -43.9064 1191.8 9.0204H1209.33H1209.33H1385.82C1438.82 9.0204 1485.37 36.9704 1511.39 78.8347H1649.32C1682 78.8318 1708.58 52.3746 1708.58 19.8542C1708.58 -12.6681 1681.99 -39.1273 1649.32 -39.1273L1545.33 -39.1277C1545.59 -39.5297 1545.85 -39.9226 1546.1 -40.3304H1649.32C1682.66 -40.3304 1709.79 -13.3326 1709.79 19.8542C1709.79 53.0405 1682.66 80.0392 1649.32 80.0392L1512.12 80.0387C1514.04 83.1799 1515.84 86.382 1517.49 89.668H1649.32C1688 89.665 1719.46 58.3482 1719.46 19.8542C1719.46 -18.6423 1687.99 -49.9606 1649.32 -49.9606H1551.82C1551.99 -50.363 1552.18 -50.7584 1552.36 -51.1642H1649.32C1688.66 -51.1637 1720.67 -19.3053 1720.67 19.8542C1720.67 59.0132 1688.66 90.8725 1649.32 90.8725L1518.11 90.872C1519.68 94.0132 1521.13 97.2272 1522.48 100.501H1649.32C1694 100.498 1730.34 64.3214 1730.34 19.8542C1730.34 -24.6151 1694 -60.7934 1649.32 -60.7939H1554.92C1555.04 -61.1963 1555.16 -61.593 1555.27 -61.9974H1649.32C1694.66 -61.997 1731.55 -25.2785 1731.55 19.8542C1731.55 64.9868 1694.66 101.706 1649.32 101.706L1522.96 101.705C1524.23 104.859 1525.38 108.072 1526.43 111.335H1649.32C1700 111.332 1741.23 70.2952 1741.23 19.8542C1741.23 -30.5892 1700 -71.6272 1649.32 -71.6272L1557.18 -71.6276C1557.23 -72.0268 1557.28 -72.4293 1557.33 -72.8303H1649.32C1700.66 -72.8303 1742.44 -31.2526 1742.44 19.8543C1742.44 70.9608 1700.66 112.539 1649.32 112.539L1526.81 112.538C1527.79 115.704 1528.67 118.918 1529.44 122.168H1649.32C1706 122.165 1752.11 76.2691 1752.11 19.8545C1752.11 -36.5622 1706 -82.4597 1649.32 -82.4603H1558.09C1558.1 -82.6618 1558.11 -82.8604 1558.11 -83.0623C1558.11 -83.2647 1558.1 -83.4615 1558.09 -83.6639H1649.32C1706.67 -83.6634 1753.32 -37.2256 1753.32 19.8545C1753.32 76.9345 1706.67 123.373 1649.32 123.373L1529.72 123.372C1530.45 126.538 1531.06 129.751 1531.57 133.002H1649.32C1712 132.999 1763 82.2424 1763 19.8545C1763 -42.5354 1712 -93.2932 1649.32 -93.2936H1558.51C1558.46 -93.6947 1558.41 -94.0975 1558.35 -94.4972H1649.32C1712.67 -94.4967 1764.2 -43.1993 1764.2 19.8545C1764.2 82.9077 1712.67 134.206 1649.32 134.206L1531.75 134.205C1532.24 137.383 1532.6 140.597 1532.87 143.835H1649.32C1718 143.832 1773.88 88.2161 1773.88 19.8545C1773.88 -48.509 1718 -104.126 1649.32 -104.126L1557.05 -104.127C1556.94 -104.531 1556.82 -104.929 1556.71 -105.33H1649.32C1718.67 -105.33 1775.09 -49.1726 1775.09 19.8545C1775.09 88.8809 1718.67 145.039 1649.32 145.039L1532.96 145.038C1533.2 148.216 1533.32 151.43 1533.35 154.668H1649.32C1650.59 154.668 1651.86 154.656 1653.13 154.608C1653.53 154.608 1653.94 154.596 1654.34 154.584C1657.58 154.463 1660.82 154.223 1664.04 153.874C1664.44 153.838 1664.85 153.79 1665.25 153.741C1666.54 153.597 1667.84 153.428 1669.12 153.236C1671.08 152.947 1673.05 152.622 1675.01 152.249C1675.41 152.165 1675.81 152.093 1676.22 152.008C1679.63 151.322 1683.03 150.504 1686.37 149.565C1690.68 148.349 1694.98 146.893 1699.12 145.255C1702.84 143.799 1706.54 142.15 1710.12 140.344C1713.59 138.623 1716.95 136.757 1720.11 134.795C1723.14 132.966 1726.24 130.907 1729.3 128.668C1732.13 126.61 1735 124.335 1737.82 121.904C1740.39 119.701 1742.83 117.438 1745.1 115.187C1745.31 114.971 1745.53 114.754 1745.74 114.525C1748.3 111.973 1750.75 109.289 1753.05 106.544C1755.68 103.427 1758.15 100.213 1760.47 96.8904C1760.75 96.4936 1761.03 96.0959 1761.31 95.6872C1763.45 92.557 1765.44 89.3431 1767.29 86.0571C1767.54 85.6603 1767.77 85.2507 1767.98 84.8539C1769.72 81.6998 1771.33 78.4983 1772.81 75.2238C1772.99 74.827 1773.17 74.4174 1773.35 74.0206C1774.74 70.8548 1776.01 67.6525 1777.15 64.3905C1777.3 63.9937 1777.44 63.5961 1777.57 63.1873C1778.65 60.0215 1779.62 56.8073 1780.45 53.5572C1780.56 53.1604 1780.67 52.7628 1780.77 52.354C1781.56 49.1762 1782.24 45.9622 1782.8 42.7239C1782.87 42.3271 1782.94 41.9175 1782.99 41.5208C1783.52 38.3305 1783.93 35.117 1784.22 31.8906C1784.26 31.4819 1784.3 31.0842 1784.32 30.6875C1784.59 27.4853 1784.73 24.2837 1784.76 21.0577C1784.77 20.6605 1784.77 20.2509 1784.77 19.8542C1784.77 16.6163 1784.65 13.4018 1784.42 10.2244C1784.39 9.82722 1784.37 9.43001 1784.33 9.02084C1780.15 -43.2082 1745.91 -87.1431 1698.89 -105.608C1698.29 -105.848 1697.67 -106.089 1697.06 -106.306C1691.05 -108.581 1684.83 -110.422 1678.44 -111.819C1677.34 -112.059 1676.24 -112.288 1675.13 -112.493C1666.77 -114.118 1658.15 -114.961 1649.32 -114.961H1553.81C1553.64 -115.366 1553.45 -115.761 1553.27 -116.165H1649.32C1659.33 -116.165 1669.07 -115.093 1678.46 -113.034C1679.46 -112.842 1680.44 -112.613 1681.43 -112.36C1687.42 -110.928 1693.26 -109.098 1698.92 -106.895C1699.51 -106.667 1700.1 -106.426 1700.7 -106.186C1747.46 -87.2391 1781.39 -43.2199 1785.54 9.02101C1785.58 9.41823 1785.62 9.81541 1785.63 10.2246C1785.87 13.402 1785.98 16.6164 1785.98 19.8543C1785.98 20.2511 1785.98 20.6607 1785.97 21.0579C1785.94 24.2838 1785.8 27.4854 1785.53 30.6876C1785.51 31.0844 1785.48 31.482 1785.43 31.8907C1785.16 35.1171 1784.74 38.3307 1784.22 41.5209C1784.16 41.9296 1784.09 42.3273 1784.03 42.724C1783.47 45.9624 1782.8 49.1764 1782.01 52.3542C1781.91 52.7509 1781.82 53.1606 1781.71 53.5573C1780.88 56.8076 1779.92 60.0216 1778.84 63.1875C1778.71 63.5962 1778.58 63.9939 1778.43 64.3906C1777.31 67.6527 1776.05 70.8669 1774.66 74.0208C1774.49 74.4176 1774.32 74.8272 1774.13 75.2239C1772.68 78.4984 1771.08 81.7001 1769.36 84.8541C1769.14 85.2508 1768.91 85.6605 1768.7 86.0572C1766.86 89.3432 1764.89 92.5572 1762.77 95.6874C1762.49 96.0841 1762.23 96.4938 1761.94 96.8905C1759.47 100.49 1756.81 103.968 1753.97 107.315C1751.66 110.083 1749.18 112.792 1746.61 115.355C1746.4 115.596 1746.18 115.813 1745.95 116.029C1743.66 118.317 1741.2 120.591 1738.62 122.818C1735.77 125.262 1732.88 127.561 1730.01 129.631C1726.91 131.894 1723.79 133.977 1720.73 135.83C1717.55 137.792 1714.17 139.682 1710.66 141.428C1707.05 143.245 1703.32 144.906 1699.56 146.387C1695.39 148.035 1691.06 149.492 1686.7 150.72C1683.23 151.707 1679.7 152.55 1676.16 153.236C1675.76 153.32 1675.35 153.405 1674.95 153.465C1673.06 153.826 1671.18 154.139 1669.29 154.416C1667.94 154.608 1666.58 154.789 1665.23 154.945C1664.83 154.994 1664.42 155.041 1664.02 155.089C1660.8 155.426 1657.57 155.655 1654.33 155.776C1653.93 155.8 1653.53 155.812 1653.12 155.812C1651.85 155.86 1650.59 155.872 1649.32 155.872H1533.36C1533.36 159.11 1533.25 162.324 1533.05 165.501H1588.13H1589.35H1599.05H1600.26H1609.95H1611.17H1620.88H1622.09H1631.81H1633.02H1642.75H1643.95H1649.32C1650.78 165.501 1652.24 165.477 1653.69 165.429C1654.09 165.429 1654.5 165.405 1654.9 165.381C1658.13 165.273 1661.36 165.044 1664.56 164.707C1664.96 164.671 1665.36 164.634 1665.76 164.587C1668.98 164.226 1672.17 163.768 1675.34 163.19C1675.74 163.13 1676.13 163.058 1676.52 162.973C1679.17 162.492 1681.79 161.914 1684.39 161.277L1684.48 161.252C1688.59 160.253 1692.8 159.026 1696.98 157.605C1700.8 156.281 1704.53 154.837 1708.04 153.296C1711.46 151.804 1714.88 150.154 1718.21 148.373C1721.34 146.724 1724.56 144.858 1727.74 142.836C1730.78 140.91 1733.81 138.839 1736.7 136.685C1739.49 134.627 1742.33 132.351 1745.15 129.92C1747.82 127.596 1750.4 125.213 1752.81 122.83C1752.89 122.746 1752.98 122.662 1753.08 122.541C1755.64 119.99 1758.13 117.305 1760.49 114.561C1765.29 108.976 1769.64 103.078 1773.51 96.8902C1773.75 96.4935 1774.01 96.0958 1774.25 95.6871C1776.18 92.545 1777.98 89.3314 1779.65 86.0569C1779.87 85.6602 1780.08 85.2505 1780.27 84.8538C1781.85 81.6997 1783.32 78.4857 1784.65 75.2236C1784.83 74.8269 1785 74.4292 1785.14 74.0205C1786.43 70.8546 1787.6 67.6405 1788.64 64.3903C1788.77 63.9936 1788.89 63.5959 1789.01 63.1872C1790.02 60.0094 1790.9 56.8071 1791.67 53.557C1791.77 53.1603 1791.87 52.7506 1791.95 52.3539C1792.69 49.1761 1793.32 45.9621 1793.84 42.7237C1793.9 42.327 1793.96 41.9293 1794.02 41.5206C1794.5 38.3304 1794.88 35.1168 1795.14 31.8904C1795.18 31.4937 1795.22 31.084 1795.24 30.6873C1795.48 27.4851 1795.62 24.2835 1795.64 21.0576C1795.65 20.6604 1795.65 20.2507 1795.65 19.854C1795.65 16.6161 1795.54 13.4141 1795.34 10.2243C1795.31 9.82707 1795.28 9.41792 1795.25 9.02071C1791.34 -43.7861 1759.01 -88.8402 1713.47 -111.037C1713.47 -111.037 1713.47 -111.037 1713.46 -111.037L1713.44 -111.048L1713.42 -111.059L1713.4 -111.071L1713.38 -111.082L1713.35 -111.093L1713.33 -111.105L1713.31 -111.116L1713.29 -111.128L1713.27 -111.139L1713.24 -111.15L1713.22 -111.161L1713.2 -111.172L1713.18 -111.183L1713.15 -111.195L1713.13 -111.206L1713.11 -111.217L1713.09 -111.228L1713.06 -111.239L1713.04 -111.25L1713.02 -111.261L1713.02 -111.261L1713 -111.272L1712.97 -111.283L1712.95 -111.294L1712.93 -111.305L1712.91 -111.316L1712.89 -111.327L1712.88 -111.327L1712.86 -111.338L1712.86 -111.338L1712.73 -111.403L1712.73 -111.403L1712.66 -111.435L1712.66 -111.436L1712.64 -111.446L1712.63 -111.446L1712.59 -111.467L1712.59 -111.468L1712.57 -111.478L1712.57 -111.479L1712.55 -111.489L1712.54 -111.49L1712.52 -111.5L1712.52 -111.5L1712.5 -111.51L1712.5 -111.511L1712.48 -111.521L1712.47 -111.522L1712.36 -111.575L1712.36 -111.576L1712.32 -111.596L1712.31 -111.597L1712.27 -111.618L1712.27 -111.618L1712.25 -111.628L1712.24 -111.629L1712.22 -111.639L1712.22 -111.64L1712.2 -111.65L1712.2 -111.651L1712.18 -111.66L1712.18 -111.661L1712.15 -111.671L1712.15 -111.672L1712.13 -111.681L1712.13 -111.682L1712.11 -111.692L1712.11 -111.693L1712.08 -111.703L1712.08 -111.704L1712.06 -111.713L1712.06 -111.715L1712.04 -111.724L1712.04 -111.725L1712.02 -111.734L1712.01 -111.736C1707.83 -113.722 1703.53 -115.515 1699.12 -117.103C1699.12 -117.103 1699.12 -117.104 1699.12 -117.104L1699.09 -117.114L1699.06 -117.125L1699.03 -117.136L1698.98 -117.157L1698.95 -117.168L1698.89 -117.189L1698.8 -117.221L1698.75 -117.242L1698.6 -117.294L1698.57 -117.304L1698.57 -117.304L1698.54 -117.314L1698.54 -117.315L1698.52 -117.325L1698.48 -117.335L1698.46 -117.345L1698.46 -117.346L1698.43 -117.356H1698.43L1698.4 -117.366L1698.4 -117.366L1698.37 -117.376L1698.37 -117.376L1698.34 -117.386L1698.34 -117.386L1698.31 -117.396L1698.31 -117.397L1698.28 -117.406L1698.28 -117.407L1698.26 -117.417H1698.25L1698.23 -117.427L1698.22 -117.427L1698.2 -117.437L1698.2 -117.437L1698.17 -117.447H1698.17L1698.14 -117.457L1698.14 -117.457L1698.11 -117.467L1698.11 -117.467L1698.08 -117.477L1698.08 -117.477L1698.05 -117.487L1698.05 -117.487L1698.02 -117.497L1698.02 -117.497L1697.99 -117.507L1697.99 -117.507L1697.97 -117.517L1697.96 -117.517L1697.94 -117.527L1697.93 -117.527L1697.91 -117.537L1697.91 -117.537L1697.88 -117.547L1697.88 -117.547L1697.85 -117.557L1697.85 -117.557L1697.82 -117.567L1697.82 -117.567L1697.79 -117.576L1697.79 -117.577L1697.76 -117.586L1697.76 -117.587L1697.73 -117.596L1697.73 -117.596L1697.7 -117.606L1697.7 -117.606L1697.67 -117.615L1697.67 -117.616L1697.64 -117.625L1697.64 -117.626L1697.62 -117.635L1697.61 -117.636L1697.59 -117.645L1697.58 -117.645L1697.56 -117.655L1697.55 -117.655L1697.53 -117.664L1697.52 -117.665L1697.5 -117.674L1697.5 -117.675L1697.47 -117.684L1697.47 -117.684L1697.44 -117.693L1697.44 -117.694L1697.41 -117.703L1697.41 -117.704L1697.38 -117.713L1697.38 -117.713L1697.35 -117.722L1697.35 -117.723L1697.32 -117.732L1697.32 -117.733L1697.29 -117.742L1697.29 -117.742L1697.26 -117.751H1697.26L1697.26 -117.752C1691.19 -119.87 1684.93 -121.579 1678.53 -122.879C1677.43 -123.096 1676.34 -123.312 1675.24 -123.504C1666.82 -125.009 1658.17 -125.792 1649.32 -125.792H1545.24C1544.99 -126.2 1544.72 -126.593 1544.47 -126.995H1567.85H1569.93H1587.96H1590.46H1614.83H1618.89H1649.32C1659.33 -126.995 1669.08 -125.996 1678.53 -124.107C1678.53 -124.107 1678.53 -124.107 1678.53 -124.107C1679.51 -123.914 1680.49 -123.697 1681.47 -123.481C1681.47 -123.481 1681.47 -123.48 1681.47 -123.48C1687.5 -122.145 1693.39 -120.436 1699.12 -118.39C1699.12 -118.389 1699.12 -118.389 1699.12 -118.389C1699.72 -118.173 1700.31 -117.956 1700.9 -117.728C1700.9 -117.727 1700.9 -117.727 1700.9 -117.727C1705.2 -116.138 1709.4 -114.345 1713.49 -112.359C1713.49 -112.359 1713.49 -112.359 1713.49 -112.359C1713.98 -112.13 1714.45 -111.902 1714.92 -111.673C1714.92 -111.673 1714.92 -111.673 1714.92 -111.673C1760.38 -89.1149 1792.57 -43.9041 1796.46 9.02269H1814V10.2263H1796.55C1796.75 13.4037 1796.86 16.6181 1796.86 19.856H1814V21.0596H1796.85C1796.83 24.2736 1796.69 27.4871 1796.45 30.6893H1814V31.8924H1796.37C1796.1 35.1188 1795.73 38.3324 1795.24 41.5226H1814V42.7257H1795.06C1794.55 45.9641 1793.94 49.1781 1793.2 52.3559H1814V53.559H1792.92C1792.16 56.7974 1791.28 60.0113 1790.28 63.1892H1814V64.3923H1789.91C1788.87 67.6426 1787.72 70.8566 1786.45 74.0225H1814V75.2256H1785.97C1784.64 78.4877 1783.19 81.7018 1781.61 84.8558H1814V86.0589H1781.01C1779.36 89.3334 1777.57 92.5469 1775.66 95.6891H1814V96.8922H1774.94C1770.94 103.345 1766.41 109.519 1761.41 115.333C1759.04 118.113 1756.52 120.822 1753.96 123.362C1753.86 123.482 1753.76 123.579 1753.64 123.687C1751.23 126.094 1748.65 128.49 1745.95 130.837C1743.1 133.28 1740.23 135.579 1737.42 137.65C1734.5 139.817 1731.46 141.911 1728.39 143.849C1725.17 145.895 1721.93 147.773 1718.78 149.434C1715.43 151.228 1711.98 152.901 1708.52 154.405C1704.98 155.958 1701.23 157.414 1697.37 158.738C1693.14 160.195 1688.87 161.435 1684.7 162.446L1684.63 162.458C1682 163.108 1679.35 163.674 1676.69 164.167C1678.85 179.421 1686.9 192.815 1698.47 202H1696.57C1685.4 192.675 1677.64 179.423 1675.49 164.384C1672.33 164.962 1669.13 165.419 1665.93 165.78C1667.9 179.548 1673.92 192.033 1682.75 202H1681.16C1672.55 191.985 1666.67 179.574 1664.72 165.912C1661.51 166.237 1658.29 166.466 1655.04 166.587C1656.79 179.631 1661.7 191.689 1668.95 202H1667.47C1660.36 191.658 1655.55 179.628 1653.84 166.635C1652.34 166.683 1650.84 166.707 1649.32 166.707H1644.09C1645.6 179.453 1649.76 191.403 1656 202H1654.63C1648.48 191.375 1644.37 179.435 1642.88 166.707H1633.14C1634.48 179.288 1638.12 191.189 1643.63 202H1642.28C1636.84 191.17 1633.24 179.275 1631.92 166.707H1622.2C1623.39 179.166 1626.63 191.04 1631.57 202H1630.25C1625.37 191.026 1622.17 179.157 1620.99 166.707H1611.28C1612.36 179.077 1615.28 190.929 1619.75 202H1618.44C1614.01 190.919 1611.13 179.068 1610.06 166.707H1600.35C1601.33 179.008 1603.99 190.844 1608.08 202H1606.8C1602.75 190.836 1600.11 179 1599.14 166.707H1589.43L1589.43 166.706ZM1712.02 -111.734C1712.02 -111.734 1712.02 -111.735 1712.01 -111.735L1712.02 -111.734ZM1107.35 -111.734C1107.35 -111.734 1107.35 -111.735 1107.35 -111.735L1107.35 -111.734ZM106.833 171.882C108.188 168.451 109.7 165.021 111.332 161.662C112.953 158.34 114.694 155.09 116.508 152.008C118.322 148.879 120.293 145.785 122.349 142.8C124.514 139.658 126.642 136.806 128.867 134.061C131.093 131.269 133.499 128.488 136.039 125.78C137.224 124.504 138.494 123.18 139.824 121.856C141.045 120.64 142.376 119.364 143.875 117.968C146.621 115.44 149.486 112.996 152.389 110.697C158.992 105.473 165.945 100.851 173.165 96.8908H0.000461709V95.6877H175.415H176.491C176.986 95.6877 177.483 95.6877 177.978 95.7115C183.964 95.8438 189.733 96.8669 195.175 98.624C195.78 98.8288 196.372 99.0336 196.965 99.2384C201.355 100.815 205.503 102.885 209.349 105.377C209.796 105.654 210.231 105.955 210.666 106.256C213.968 108.506 217.028 111.071 219.809 113.923C220.136 114.261 220.462 114.597 220.777 114.946C223.256 117.583 225.482 120.46 227.453 123.505C227.682 123.866 227.912 124.239 228.142 124.612C229.907 127.489 231.431 130.522 232.713 133.7C232.858 134.085 233.003 134.471 233.148 134.856C234.285 137.877 235.18 141.019 235.821 144.244C235.906 144.642 235.978 145.051 236.051 145.448C236.595 148.566 236.909 151.767 236.946 155.03C236.958 155.306 236.958 155.595 236.958 155.872V156.233C236.933 159.568 236.643 162.841 236.087 166.032C236.026 166.453 235.942 166.862 235.857 167.283C233.181 181.12 225.724 193.28 215.275 201.998H213.359C224.084 193.486 231.795 181.358 234.587 167.476C214.544 170.72 197.844 184.025 189.893 201.998H188.576C196.655 183.288 213.994 169.441 234.829 166.224C235.409 163.022 235.712 159.736 235.736 156.378C209.104 159.549 187.021 177.648 178.172 201.998H176.886C185.815 176.981 208.434 158.367 235.736 155.174C235.7 151.9 235.397 148.698 234.841 145.58C202.569 149.261 176.008 171.905 166.698 201.998H165.435C174.775 171.307 201.776 148.173 234.611 144.389C233.971 141.163 233.064 138.022 231.915 135.012C194.945 139.93 164.863 166.81 155.376 201.998H154.13C163.618 166.283 194.03 138.955 231.467 133.868C230.185 130.715 228.637 127.682 226.847 124.829C186.194 131.707 153.592 162.441 144.14 201.998H142.892C152.336 161.998 185.144 130.87 226.146 123.733C224.162 120.7 221.901 117.859 219.398 115.247C176.229 124.81 142.246 158.898 132.985 201.998H131.754C140.98 158.562 175.043 124.146 218.406 114.236C215.6 111.419 212.493 108.891 209.155 106.689C164.896 119.603 130.789 156.378 121.89 201.998H120.652C129.503 156.172 163.538 119.15 207.812 105.834C203.894 103.39 199.662 101.393 195.199 99.9002C183.348 104.474 172.125 110.757 161.797 118.654C158.895 120.856 156.065 123.204 153.356 125.647C151.736 127.091 150.115 128.62 148.374 130.354C147.419 131.305 146.487 132.267 145.568 133.23C143.04 135.903 140.659 138.647 138.457 141.367C136.256 144.088 134.091 147.013 132.011 150.058C129.979 153.019 128.033 156.149 126.219 159.339C124.368 162.577 122.651 165.923 121.103 169.282C119.471 172.772 117.971 176.407 116.653 180.09C115.202 184.099 113.92 188.216 112.88 192.332C112.062 195.52 111.385 198.748 110.806 201.998H109.578C110.169 198.651 110.865 195.327 111.707 192.043C112.759 187.878 114.053 183.726 115.516 179.681C116.846 175.973 118.358 172.302 120.003 168.776C121.562 165.393 123.304 162.011 125.166 158.737C126.992 155.523 128.963 152.369 131.008 149.384C133.112 146.302 135.301 143.354 137.514 140.621C139.727 137.864 142.146 135.108 144.685 132.412C145.616 131.425 146.56 130.462 147.515 129.511C149.268 127.754 150.913 126.2 152.545 124.756C155.279 122.289 158.145 119.917 161.06 117.69C171.073 110.034 181.921 103.884 193.361 99.334C188.016 97.7451 182.344 96.8901 176.49 96.8901H175.692C167.82 101.055 160.286 105.978 153.151 111.635C150.26 113.91 147.418 116.342 144.697 118.858C143.21 120.242 141.892 121.494 140.682 122.698C139.364 124.022 138.094 125.321 136.921 126.598C134.406 129.282 132.011 132.05 129.81 134.807C127.609 137.539 125.493 140.368 123.353 143.474C121.297 146.435 119.35 149.504 117.559 152.61C115.757 155.679 114.028 158.893 112.42 162.191C110.799 165.513 109.3 168.92 107.957 172.314C106.555 175.841 105.285 179.488 104.16 183.147C102.266 189.322 100.8 195.619 99.7497 201.998H98.5228C99.5822 195.498 101.074 189.08 103.011 182.786C104.136 179.103 105.418 175.432 106.832 171.881L106.833 171.882ZM289.044 78.8356C289.334 79.2333 289.612 79.6419 289.878 80.0396C291.994 83.1569 293.978 86.3709 295.828 89.6689C296.057 90.0661 296.287 90.4753 296.505 90.8729C298.222 94.0022 299.831 97.2162 301.294 100.502C301.476 100.899 301.657 101.297 301.827 101.706C303.217 104.86 304.475 108.061 305.612 111.335C305.757 111.733 305.902 112.142 306.035 112.539C307.112 115.705 308.067 118.907 308.889 122.169C308.998 122.566 309.107 122.964 309.191 123.372C309.989 126.538 310.655 129.752 311.199 133.002C311.283 133.399 311.344 133.808 311.404 134.206C311.925 137.383 312.323 140.585 312.602 143.835C312.65 144.233 312.686 144.63 312.711 145.039C312.964 148.217 313.109 151.43 313.134 154.669C313.146 155.066 313.146 155.475 313.146 155.872C313.146 159.111 313.037 162.324 312.795 165.502C312.783 165.911 312.747 166.308 312.711 166.706C311.733 179.001 309.086 190.832 305.031 201.998H303.748C307.842 190.841 310.515 179.009 311.501 166.706C311.537 166.297 311.562 165.899 311.586 165.502C311.815 162.324 311.936 159.111 311.936 155.872C311.936 155.475 311.936 155.066 311.924 154.669C311.901 151.43 311.755 148.217 311.501 145.039C311.477 144.642 311.441 144.245 311.392 143.835C311.114 140.597 310.703 137.383 310.183 134.206C310.122 133.797 310.05 133.399 309.977 133.002C309.421 129.752 308.744 126.538 307.945 123.372C307.861 122.964 307.752 122.566 307.655 122.169C306.809 118.907 305.841 115.693 304.765 112.539C304.62 112.142 304.487 111.733 304.329 111.335C303.193 108.061 301.911 104.847 300.508 101.706C300.339 101.297 300.158 100.899 299.976 100.502C298.489 97.2162 296.868 94.0022 295.114 90.8729C294.909 90.4638 294.679 90.0661 294.449 89.6689C292.575 86.3709 290.568 83.1569 288.427 80.0396C288.148 79.6304 287.87 79.2333 287.58 78.8356C263.08 43.9284 222.421 21.0582 176.491 21.0582H0.000615611V19.8546H176.491C223.123 19.8546 264.386 43.2302 289.044 78.8356ZM275.572 78.8356C275.886 79.2333 276.188 79.6304 276.491 80.0396C278.873 83.1332 281.11 86.3467 283.191 89.6689C283.457 90.0661 283.699 90.4638 283.94 90.8729C285.863 93.9902 287.641 97.2042 289.274 100.502C289.479 100.899 289.673 101.297 289.866 101.706C291.39 104.836 292.781 108.049 294.038 111.335C294.196 111.733 294.353 112.142 294.498 112.539C295.671 115.693 296.711 118.895 297.63 122.169C297.751 122.566 297.86 122.964 297.957 123.372C298.815 126.538 299.553 129.74 300.146 133.002C300.23 133.399 300.303 133.808 300.375 134.206C300.931 137.372 301.367 140.585 301.681 143.835C301.73 144.233 301.766 144.63 301.79 145.039C302.069 148.217 302.225 151.43 302.25 154.669C302.262 155.066 302.262 155.475 302.262 155.872C302.262 159.111 302.141 162.324 301.899 165.502C301.863 165.911 301.827 166.308 301.79 166.706C300.723 179.069 297.822 190.916 293.393 201.998H292.086C296.561 190.927 299.491 179.078 300.569 166.706C300.617 166.308 300.654 165.911 300.678 165.502C300.932 162.324 301.053 159.111 301.053 155.872C301.053 155.475 301.053 155.066 301.041 154.669C301.017 151.418 300.859 148.217 300.569 145.039C300.544 144.63 300.509 144.233 300.472 143.835C300.158 140.585 299.71 137.372 299.142 134.206C299.082 133.808 299.009 133.399 298.924 133.002C298.319 129.74 297.57 126.538 296.699 123.372C296.602 122.975 296.493 122.566 296.385 122.169C295.453 118.907 294.389 115.693 293.192 112.539C293.047 112.142 292.902 111.733 292.732 111.335C291.474 108.049 290.06 104.836 288.524 101.706C288.331 101.297 288.125 100.899 287.919 100.502C286.262 97.2042 284.46 93.9902 282.514 90.8729C282.272 90.4638 282.018 90.0661 281.764 89.6689C279.659 86.3467 277.386 83.1332 274.967 80.0396C274.653 79.6304 274.338 79.2333 274.024 78.8356C251.18 50.2474 215.94 31.891 176.491 31.891H0.000923417V30.6879H176.491C216.678 30.6879 252.521 49.5497 275.572 78.8356ZM212.335 82.2182C212.916 82.5068 213.496 82.7961 214.077 83.0847C218.395 85.2999 222.482 87.8876 226.316 90.8126C226.775 91.1493 227.223 91.4988 227.67 91.8599C231.081 94.5563 234.261 97.5174 237.176 100.707C237.538 101.08 237.877 101.465 238.203 101.851C240.852 104.824 243.271 108.002 245.447 111.336C245.713 111.733 245.967 112.131 246.221 112.539C248.156 115.621 249.898 118.835 251.421 122.169C251.603 122.566 251.784 122.964 251.953 123.373C253.319 126.49 254.493 129.704 255.46 133.002C255.569 133.399 255.69 133.797 255.799 134.206C256.67 137.347 257.347 140.561 257.831 143.836C257.903 144.233 257.952 144.642 258 145.039C258.435 148.193 258.665 151.407 258.714 154.669C258.726 155.066 258.726 155.475 258.726 155.872C258.726 159.134 258.532 162.349 258.157 165.502C258.109 165.911 258.061 166.308 258 166.706C256.273 179.671 251.474 191.678 244.374 201.999H242.892C250.121 191.72 255.018 179.703 256.779 166.706C256.839 166.308 256.888 165.911 256.936 165.502C257.322 162.349 257.516 159.134 257.516 155.872C257.516 155.475 257.516 155.066 257.504 154.669C257.456 151.407 257.214 148.193 256.779 145.039C256.73 144.63 256.67 144.233 256.621 143.836C256.126 140.561 255.424 137.347 254.541 134.206C254.433 133.797 254.312 133.399 254.191 133.002C253.211 129.692 252.026 126.478 250.635 123.373C250.466 122.975 250.284 122.566 250.091 122.169C248.543 118.835 246.765 115.608 244.794 112.539C244.577 112.202 244.371 111.878 244.141 111.552C244.105 111.492 244.069 111.432 244.02 111.372C244.02 111.36 244.008 111.348 243.996 111.336C241.783 108.014 239.328 104.872 236.668 101.935C236.317 101.55 235.966 101.164 235.603 100.791C232.64 97.6257 229.424 94.7127 225.989 92.0644C225.53 91.7158 225.07 91.3786 224.611 91.0413C220.729 88.1644 216.569 85.6367 212.191 83.4944C211.598 83.2054 211.005 82.9166 210.413 82.6395C200.085 77.8851 188.597 75.2245 176.491 75.2245H0.000769514V74.0214H176.491C189.334 74.0214 201.5 76.9699 212.335 82.2182ZM229.279 79.5695C229.786 79.9067 230.295 80.2682 230.79 80.6292C234.624 83.3737 238.239 86.3948 241.602 89.6931C242.013 90.0784 242.412 90.4751 242.811 90.8847C245.798 93.8939 248.567 97.1074 251.119 100.502C251.421 100.899 251.711 101.297 252.002 101.706C254.24 104.775 256.283 107.989 258.134 111.335C258.351 111.733 258.569 112.13 258.774 112.539C260.443 115.645 261.931 118.858 263.237 122.169C263.394 122.566 263.551 122.975 263.696 123.372C264.881 126.502 265.897 129.716 266.731 133.002C266.841 133.399 266.937 133.797 267.034 134.205C267.796 137.36 268.4 140.561 268.824 143.835C268.884 144.232 268.933 144.63 268.969 145.039C269.344 148.193 269.561 151.406 269.585 154.668C269.61 155.066 269.61 155.463 269.61 155.872C269.61 159.122 269.44 162.336 269.102 165.502C269.066 165.911 269.03 166.308 268.969 166.705C267.477 179.433 263.369 191.372 257.218 201.998H255.829C262.073 191.401 266.243 179.453 267.759 166.705C267.808 166.308 267.857 165.911 267.893 165.502C268.232 162.336 268.401 159.122 268.401 155.872C268.401 155.475 268.401 155.066 268.389 154.668C268.352 151.418 268.134 148.205 267.759 145.039C267.711 144.63 267.663 144.232 267.602 143.835C267.179 140.573 266.574 137.36 265.788 134.205C265.704 133.808 265.595 133.411 265.486 133.002C264.639 129.716 263.611 126.502 262.402 123.372C262.257 122.975 262.1 122.566 261.943 122.169C260.624 118.858 259.113 115.645 257.42 112.539C257.202 112.13 256.985 111.733 256.755 111.335C254.88 107.989 252.788 104.775 250.515 101.706C250.212 101.297 249.91 100.899 249.607 100.502C247.007 97.1074 244.178 93.9059 241.13 90.8967C240.731 90.5114 240.332 90.1141 239.921 89.7288C236.511 86.4791 232.846 83.4941 228.952 80.7973C228.456 80.4486 227.948 80.0995 227.428 79.7624C212.843 70.0488 195.321 64.3909 176.491 64.3909H0.000615611V63.1878H176.491C196.07 63.1878 214.271 69.242 229.279 79.5695ZM245.871 78.8356C246.318 79.2209 246.753 79.6182 247.189 80.0396C250.454 83.0364 253.525 86.2623 256.379 89.6689C256.718 90.0661 257.045 90.4638 257.371 90.8729C259.875 93.9417 262.197 97.1561 264.325 100.502C264.591 100.899 264.845 101.297 265.086 101.706C267.01 104.812 268.775 108.025 270.371 111.335C270.565 111.733 270.746 112.13 270.928 112.539C272.391 115.669 273.697 118.883 274.834 122.169C274.979 122.566 275.113 122.964 275.245 123.372C276.297 126.514 277.192 129.728 277.93 133.002C278.027 133.399 278.112 133.808 278.196 134.206C278.886 137.36 279.417 140.573 279.792 143.835C279.841 144.233 279.889 144.642 279.925 145.039C280.264 148.205 280.445 151.418 280.482 154.669C280.494 155.066 280.494 155.475 280.494 155.872C280.494 159.123 280.349 162.336 280.047 165.502C280.01 165.899 279.974 166.308 279.925 166.706C278.606 179.272 275.004 191.169 269.566 201.998H268.216C273.724 191.188 277.37 179.286 278.704 166.706C278.752 166.308 278.801 165.911 278.825 165.502C279.127 162.336 279.284 159.123 279.284 155.872C279.284 155.475 279.284 155.066 279.272 154.669C279.236 151.418 279.055 148.205 278.704 145.039C278.668 144.63 278.619 144.233 278.571 143.835C278.196 140.573 277.652 137.36 276.963 134.206C276.878 133.797 276.793 133.399 276.696 133.002C275.947 129.728 275.027 126.514 273.964 123.372C273.83 122.964 273.697 122.566 273.552 122.169C272.403 118.871 271.085 115.669 269.598 112.539C269.416 112.13 269.222 111.733 269.03 111.335C267.408 108.025 265.619 104.812 263.66 101.706C263.418 101.297 263.164 100.899 262.898 100.502C260.721 97.1561 258.363 93.9417 255.823 90.8729C255.485 90.4638 255.146 90.0661 254.808 89.6689C251.893 86.2625 248.761 83.0488 245.436 80.0396C245.012 79.6543 244.577 79.269 244.141 78.8961C244.117 78.8717 244.093 78.8475 244.069 78.8356C225.989 63.1031 202.347 53.5576 176.491 53.5576H0.000615611V52.3545H176.491C203.133 52.3545 227.453 62.369 245.871 78.8356ZM261.313 78.8356C261.676 79.2333 262.039 79.6304 262.39 80.0396C265.135 83.1084 267.711 86.3228 270.118 89.6689C270.396 90.0661 270.686 90.4753 270.952 90.8729C273.116 93.9783 275.136 97.18 276.974 100.502C277.204 100.899 277.422 101.297 277.64 101.706C279.345 104.824 280.893 108.038 282.296 111.335C282.477 111.733 282.634 112.13 282.804 112.539C284.11 115.681 285.27 118.895 286.286 122.169C286.407 122.566 286.528 122.975 286.637 123.372C287.593 126.526 288.403 129.74 289.068 133.002C289.152 133.399 289.225 133.797 289.297 134.206C289.914 137.372 290.398 140.585 290.737 143.835C290.785 144.233 290.833 144.642 290.858 145.039C291.172 148.217 291.341 151.418 291.366 154.669C291.378 155.066 291.378 155.475 291.378 155.872C291.378 159.111 291.245 162.324 290.966 165.502C290.943 165.899 290.906 166.308 290.858 166.706C289.679 179.155 286.481 191.026 281.603 201.998H280.277C285.213 191.039 288.454 179.166 289.648 166.706C289.684 166.308 289.721 165.911 289.757 165.502C290.035 162.324 290.168 159.123 290.168 155.872C290.168 155.475 290.168 155.066 290.156 154.669C290.132 151.418 289.951 148.205 289.648 145.039C289.612 144.642 289.576 144.233 289.515 143.835C289.189 140.585 288.693 137.372 288.076 134.206C288.003 133.797 287.919 133.399 287.835 133.002C287.157 129.74 286.347 126.526 285.379 123.372C285.27 122.964 285.15 122.566 285.016 122.169C283.988 118.895 282.816 115.681 281.497 112.539C281.34 112.142 281.171 111.733 280.99 111.335C279.575 108.038 278.002 104.824 276.273 101.706C276.056 101.297 275.838 100.899 275.596 100.502C273.734 97.18 271.689 93.9665 269.489 90.8729C269.21 90.4753 268.92 90.0661 268.63 89.6689C266.199 86.3111 263.575 83.0964 260.782 80.0396C260.418 79.6304 260.056 79.2333 259.681 78.8356C238.905 56.6275 209.301 42.7243 176.491 42.7243H0.000461709V41.5212H176.491C210.05 41.5212 240.296 55.9172 261.313 78.8356ZM194.764 87.2132C195.442 87.3942 196.131 87.5866 196.795 87.791C201.754 89.2475 206.483 91.2461 210.921 93.6894C211.441 93.9667 211.949 94.2553 212.457 94.5563C216.278 96.783 219.882 99.3588 223.208 102.247C223.607 102.573 223.994 102.922 224.381 103.271C227.32 105.919 230.028 108.82 232.495 111.913C232.797 112.286 233.088 112.672 233.366 113.057C235.591 115.958 237.586 119.039 239.341 122.278C239.558 122.674 239.763 123.072 239.969 123.469C241.553 126.526 242.92 129.704 244.032 133.002H244.044C244.081 133.099 244.117 133.195 244.141 133.303C244.25 133.604 244.347 133.905 244.432 134.206C245.448 137.324 246.246 140.538 246.814 143.836C246.886 144.233 246.947 144.63 247.019 145.039C247.503 148.181 247.781 151.395 247.83 154.669C247.842 155.066 247.842 155.475 247.842 155.872C247.842 159.134 247.624 162.36 247.177 165.502C247.128 165.911 247.08 166.308 247.019 166.706C244.953 180.054 239.131 192.18 230.681 201.999H229.102C237.733 192.256 243.682 180.107 245.786 166.706C245.846 166.308 245.907 165.899 245.955 165.502C246.403 162.349 246.632 159.134 246.632 155.872C246.632 155.464 246.632 155.066 246.62 154.669C246.572 151.395 246.282 148.181 245.786 145.039C245.725 144.63 245.665 144.233 245.58 143.836C245.012 140.538 244.202 137.336 243.173 134.218C243.053 133.821 242.92 133.423 242.775 133.027C241.625 129.74 240.235 126.562 238.627 123.517C238.433 123.12 238.215 122.735 237.998 122.35C236.232 119.136 234.201 116.066 231.951 113.189C231.673 112.816 231.37 112.444 231.068 112.083C228.577 108.989 225.82 106.124 222.833 103.524C222.446 103.174 222.058 102.838 221.659 102.513C218.285 99.6722 214.633 97.1446 210.751 94.9656C210.244 94.677 209.723 94.3997 209.203 94.1349C204.68 91.7396 199.867 89.8382 194.824 88.4779C194.123 88.285 193.422 88.1163 192.72 87.9477C187.508 86.7079 182.078 86.0577 176.491 86.0577H0.000461709V84.8546H176.491C182.803 84.8546 188.923 85.6729 194.764 87.2132Z" fill="#EAE7E5"/>
</svg>
