<svg width="352" height="129" viewBox="0 0 352 129" fill="none" xmlns="http://www.w3.org/2000/svg">
    <path d="M337.712 -147.626L337.693 -147.637L337.674 -147.646L337.655 -147.657L337.636 -147.667L337.616 -147.676L337.597 -147.687L337.578 -147.696L337.559 -147.706L337.539 -147.716L337.52 -147.726L337.501 -147.736L337.482 -147.746L337.462 -147.756L337.443 -147.766L337.423 -147.776L337.404 -147.785L337.384 -147.795L337.365 -147.805L337.346 -147.815L337.326 -147.824L337.307 -147.834L337.287 -147.844L337.268 -147.854L337.248 -147.864L337.229 -147.873L337.209 -147.882L337.19 -147.892L337.072 -147.95L337.013 -147.978L336.993 -147.988L336.992 -147.988L336.954 -148.007L336.952 -148.007L336.934 -148.016L336.932 -148.017L336.914 -148.026L336.912 -148.026L336.894 -148.035L336.893 -148.036L336.875 -148.045L336.873 -148.045L336.855 -148.054L336.853 -148.055L336.755 -148.102L336.753 -148.102L336.715 -148.121L336.713 -148.121L336.675 -148.139L336.673 -148.14L336.655 -148.149L336.653 -148.15L336.635 -148.158L336.633 -148.159L336.615 -148.168L336.613 -148.169L336.595 -148.177L336.593 -148.178L336.575 -148.186L336.573 -148.188L336.555 -148.196L336.552 -148.197L336.535 -148.205L336.532 -148.206L336.514 -148.215L336.512 -148.216L336.494 -148.224L336.492 -148.225L336.474 -148.234L336.472 -148.234L336.454 -148.243L337.712 -147.626ZM1280.01 97.79C1280.8 108.609 1282.93 119.057 1286.21 128.975H1285.1C1281.85 119.052 1279.75 108.605 1278.96 97.79H1230.99C1230.21 108.606 1228.09 119.051 1224.85 128.975H1223.74C1227.02 119.057 1229.15 108.611 1229.94 97.79C1229.96 97.4289 1229.99 97.0775 1230 96.7265C1230.19 93.9079 1230.29 91.079 1230.29 88.2175C1230.29 87.8665 1230.29 87.505 1230.28 87.154C1230.26 84.2926 1230.14 81.4636 1229.94 78.6451C1229.91 78.2941 1229.89 77.9326 1229.86 77.5816C1229.63 74.7201 1229.3 71.8806 1228.88 69.0726C1228.83 68.7115 1228.77 68.3601 1228.71 68.0092C1228.27 65.1372 1227.74 62.2976 1227.09 59.5002C1227.02 59.1391 1226.94 58.7877 1226.84 58.4367C1226.18 55.5647 1225.4 52.7252 1224.54 49.9278C1224.44 49.5667 1224.32 49.2153 1224.21 48.8643C1223.29 45.9819 1222.29 43.1423 1221.16 40.3553C1221.04 40.0043 1220.89 39.6428 1220.74 39.2918C1219.58 36.3988 1218.3 33.5589 1216.91 30.7833C1216.74 30.4218 1216.56 30.0704 1216.38 29.7194C1214.92 26.8159 1213.35 23.9865 1211.67 21.2109C1211.46 20.8595 1211.24 20.4983 1211.01 20.147C1188.55 -16.2389 1148.64 -40.4783 1103.24 -40.4783H950.001H934.849C935.027 -37.6708 935.122 -34.8304 935.122 -31.9694H950H1103.24C1143.72 -31.9694 1179.55 -11.3145 1200.96 20.147C1201.21 20.4983 1201.45 20.8595 1201.68 21.2109C1203.52 23.9654 1205.24 26.8053 1206.85 29.7194C1207.05 30.0704 1207.25 30.4319 1207.44 30.7833C1208.93 33.5484 1210.33 36.3883 1211.6 39.2918C1211.75 39.6428 1211.91 39.9942 1212.06 40.3553C1213.27 43.1423 1214.36 45.9713 1215.35 48.8643C1215.47 49.2153 1215.6 49.5768 1215.71 49.9278C1216.65 52.7252 1217.48 55.5543 1218.19 58.4367C1218.29 58.7877 1218.38 59.1391 1218.45 59.5002C1219.15 62.2976 1219.72 65.1372 1220.2 68.0092C1220.27 68.3601 1220.32 68.7217 1220.37 69.0726C1220.83 71.8806 1221.17 74.7096 1221.41 77.5816C1221.46 77.9326 1221.49 78.284 1221.51 78.6451C1221.73 81.4531 1221.86 84.2926 1221.88 87.154C1221.89 87.505 1221.89 87.8665 1221.89 88.2175C1221.89 91.079 1221.79 93.9185 1221.58 96.7265C1221.57 97.088 1221.54 97.439 1221.51 97.79C1220.66 108.655 1218.36 119.109 1214.84 128.975H1213.73C1217.28 119.117 1219.6 108.662 1220.46 97.79C1220.49 97.4289 1220.51 97.0775 1220.53 96.7265C1220.73 93.9185 1220.84 91.079 1220.84 88.2175C1220.84 87.8665 1220.84 87.505 1220.83 87.154C1220.81 84.2926 1220.68 81.4531 1220.46 78.6451C1220.44 78.2941 1220.41 77.9431 1220.36 77.5816C1220.12 74.7201 1219.77 71.8806 1219.31 69.0726C1219.26 68.7115 1219.2 68.3601 1219.14 68.0092C1218.65 65.1372 1218.06 62.2976 1217.37 59.5002C1217.3 59.1391 1217.2 58.7877 1217.12 58.4367C1216.38 55.5543 1215.54 52.7148 1214.61 49.9278C1214.48 49.5768 1214.37 49.2153 1214.23 48.8643C1213.25 45.9713 1212.13 43.1314 1210.91 40.3553C1210.77 39.9942 1210.61 39.6428 1210.45 39.2918C1209.16 36.3883 1207.75 33.5484 1206.23 30.7833C1206.05 30.4218 1205.85 30.0704 1205.65 29.7194C1204.03 26.8053 1202.28 23.9654 1200.42 21.2109C1200.18 20.8493 1199.94 20.4983 1199.69 20.147C1178.42 -10.6975 1143.12 -30.9059 1103.24 -30.9059H950.001H935.111C935.091 -28.066 934.975 -25.2265 934.765 -22.397H950H1103.24C1138.13 -22.397 1169.25 -5.73045 1189.26 20.147C1189.54 20.4983 1189.8 20.8493 1190.06 21.2109C1192.13 23.9444 1194.07 26.7839 1195.88 29.7194C1196.11 30.0704 1196.32 30.4218 1196.53 30.7833C1198.2 33.5378 1199.74 36.3777 1201.16 39.2918C1201.34 39.6428 1201.51 39.9942 1201.67 40.3553C1203 43.1208 1204.2 45.9607 1205.3 48.8643C1205.43 49.2153 1205.57 49.5768 1205.7 49.9278C1206.71 52.7148 1207.62 55.5437 1208.42 58.4367C1208.52 58.7877 1208.61 59.1391 1208.7 59.5002C1209.44 62.2976 1210.08 65.1267 1210.6 68.0092C1210.67 68.3601 1210.74 68.7217 1210.8 69.0726C1211.28 71.8701 1211.66 74.7096 1211.93 77.5816C1211.97 77.9326 1212.01 78.284 1212.03 78.6451C1212.27 81.4531 1212.41 84.2926 1212.43 87.154C1212.44 87.505 1212.44 87.8665 1212.44 88.2175C1212.44 91.079 1212.33 93.9185 1212.12 96.7265C1212.09 97.088 1212.06 97.439 1212.03 97.79C1211.1 108.715 1208.58 119.183 1204.74 128.975H1203.6C1207.49 119.192 1210.03 108.722 1210.97 97.79C1211.01 97.439 1211.04 97.088 1211.06 96.7265C1211.28 93.9185 1211.39 91.079 1211.39 88.2175C1211.39 87.8665 1211.39 87.505 1211.38 87.154C1211.36 84.282 1211.22 81.4531 1210.97 78.6451C1210.95 78.284 1210.91 77.9326 1210.88 77.5816C1210.61 74.7096 1210.22 71.8701 1209.73 69.0726C1209.68 68.7217 1209.61 68.3601 1209.54 68.0092C1209.01 65.1267 1208.36 62.2976 1207.61 59.5002C1207.52 59.1492 1207.43 58.7877 1207.33 58.4367C1206.53 55.5543 1205.6 52.7148 1204.56 49.9278C1204.44 49.5768 1204.31 49.2153 1204.16 48.8643C1203.07 45.9607 1201.84 43.1208 1200.51 40.3553C1200.34 39.9942 1200.16 39.6428 1199.98 39.2918C1198.55 36.3777 1196.98 33.5378 1195.29 30.7833C1195.08 30.4218 1194.86 30.0704 1194.64 29.7194C1192.81 26.7839 1190.84 23.9444 1188.74 21.2109C1188.46 20.8493 1188.19 20.4983 1187.92 20.147C1168.09 -5.11389 1137.49 -21.3339 1103.24 -21.3339H950.001H934.691C934.461 -18.483 934.135 -15.6435 933.715 -12.8245H950H1103.24C1132.37 -12.8245 1158.64 -0.104065 1176.88 20.147C1177.2 20.4983 1177.51 20.8493 1177.82 21.2109C1180.2 23.9225 1182.44 26.7628 1184.53 29.7194C1184.77 30.0704 1185.02 30.4319 1185.25 30.7833C1187.13 33.5272 1188.89 36.3564 1190.48 39.2918C1190.68 39.6428 1190.87 39.9942 1191.06 40.3553C1192.54 43.1103 1193.88 45.9502 1195.1 48.8643C1195.26 49.2153 1195.4 49.5667 1195.54 49.9278C1196.68 52.7038 1197.68 55.5437 1198.57 58.4367C1198.67 58.7877 1198.78 59.1492 1198.87 59.5002C1199.7 62.2872 1200.4 65.1267 1200.98 68.0092C1201.05 68.3601 1201.12 68.7115 1201.18 69.0726C1201.72 71.8701 1202.14 74.7096 1202.43 77.5816C1202.47 77.9326 1202.51 78.2941 1202.54 78.6451C1202.81 81.4531 1202.96 84.282 1202.98 87.154C1202.99 87.505 1202.99 87.8665 1202.99 88.2175C1202.99 91.079 1202.87 93.9185 1202.63 96.7265C1202.61 97.0775 1202.58 97.439 1202.54 97.79C1201.51 108.79 1198.74 119.28 1194.5 128.975H1193.35C1197.63 119.291 1200.45 108.8 1201.49 97.79C1201.52 97.439 1201.55 97.088 1201.58 96.7265C1201.82 93.9185 1201.94 91.0895 1201.94 88.2175C1201.94 87.8665 1201.94 87.505 1201.93 87.154C1201.91 84.282 1201.75 81.4425 1201.49 78.6451C1201.45 78.2941 1201.42 77.9326 1201.37 77.5816C1201.09 74.7096 1200.66 71.8701 1200.12 69.0726C1200.06 68.7115 1199.98 68.3601 1199.91 68.0092C1199.32 65.1267 1198.62 62.2872 1197.78 59.5002C1197.68 59.1391 1197.58 58.7877 1197.46 58.4367C1196.57 55.5437 1195.55 52.7038 1194.41 49.9278C1194.27 49.5768 1194.12 49.2153 1193.97 48.8643C1192.74 45.9502 1191.37 43.1103 1189.87 40.3553C1189.68 39.9942 1189.49 39.6428 1189.28 39.2918C1187.67 36.3564 1185.89 33.5168 1183.98 30.7833C1183.74 30.4319 1183.49 30.0704 1183.24 29.7194C1181.13 26.7524 1178.85 23.9119 1176.42 21.2109C1176.11 20.8493 1175.79 20.4983 1175.47 20.147C1157.43 0.523575 1131.72 -11.7614 1103.24 -11.7614H950.001H933.557C933.116 -8.89998 932.581 -6.06003 931.941 -3.25206H950H1103.24C1126.37 -3.25206 1147.48 5.59689 1163.48 20.147C1163.86 20.4874 1164.24 20.8385 1164.62 21.2109C1167.45 23.8588 1170.12 26.7093 1172.6 29.7194C1172.89 30.0704 1173.18 30.4218 1173.46 30.7833C1175.63 33.4949 1177.65 36.3352 1179.5 39.2918C1179.73 39.6428 1179.95 39.9942 1180.16 40.3553C1181.83 43.0997 1183.36 45.9394 1184.75 48.8643C1184.92 49.2153 1185.07 49.5667 1185.23 49.9278C1186.5 52.6933 1187.64 55.5332 1188.62 58.4367C1188.75 58.7877 1188.86 59.1391 1188.98 59.5002C1189.89 62.2762 1190.67 65.1162 1191.31 68.0092C1191.39 68.3601 1191.47 68.7217 1191.54 69.0726C1192.14 71.8596 1192.6 74.6992 1192.93 77.5816C1192.97 77.9326 1193.01 78.2941 1193.04 78.6451C1193.34 81.4425 1193.49 84.282 1193.53 87.154C1193.54 87.505 1193.54 87.8665 1193.54 88.2175C1193.54 91.0895 1193.41 93.9291 1193.15 96.7265C1193.12 97.0775 1193.09 97.439 1193.04 97.79C1191.9 108.894 1188.77 119.406 1184.05 128.975H1182.88C1187.66 119.423 1190.82 108.907 1191.98 97.79C1192.02 97.439 1192.07 97.088 1192.09 96.7265C1192.35 93.9291 1192.49 91.0895 1192.49 88.2175C1192.49 87.8665 1192.49 87.505 1192.48 87.154C1192.44 84.282 1192.29 81.4425 1191.98 78.6451C1191.95 78.284 1191.91 77.9326 1191.87 77.5816C1191.54 74.6992 1191.07 71.8596 1190.47 69.0726C1190.4 68.7115 1190.32 68.3601 1190.24 68.0092C1189.59 65.1162 1188.79 62.2762 1187.87 59.5002C1187.75 59.1391 1187.64 58.7877 1187.51 58.4367C1186.51 55.5226 1185.37 52.6933 1184.08 49.9278C1183.92 49.5667 1183.75 49.2153 1183.58 48.8643C1182.18 45.9394 1180.62 43.0997 1178.92 40.3553C1178.71 39.9942 1178.49 39.6428 1178.26 39.2918C1176.37 36.3352 1174.32 33.4949 1172.12 30.7833C1171.82 30.4218 1171.53 30.0704 1171.23 29.7194C1168.7 26.7095 1165.98 23.8698 1163.1 21.2109C1162.73 20.8704 1162.35 20.5299 1161.97 20.2004C1161.95 20.1789 1161.93 20.1575 1161.91 20.147C1146.21 6.24553 1125.69 -2.18896 1103.24 -2.18896H950.001H931.699C931.038 0.67247 930.271 3.51239 929.41 6.32037H950H1103.24C1120.24 6.32037 1136.04 11.67 1149.07 20.7955C1149.51 21.0934 1149.95 21.4128 1150.38 21.7318C1153.71 24.1569 1156.85 26.8264 1159.77 29.7408C1160.13 30.0812 1160.47 30.4318 1160.82 30.7937C1163.41 33.4527 1165.82 36.2922 1168.03 39.2917C1168.29 39.6427 1168.55 39.9941 1168.8 40.3552C1170.74 43.0672 1172.52 45.9075 1174.12 48.8641C1174.31 49.2151 1174.5 49.5665 1174.68 49.9276C1176.13 52.672 1177.42 55.5117 1178.55 58.4366C1178.69 58.7876 1178.83 59.1491 1178.95 59.5001C1179.98 62.2656 1180.86 65.1055 1181.59 68.009C1181.68 68.36 1181.77 68.7114 1181.85 69.0725C1182.51 71.8595 1183.04 74.6885 1183.4 77.5815C1183.46 77.9324 1183.5 78.2838 1183.53 78.6449C1183.86 81.4319 1184.04 84.2715 1184.07 87.1539C1184.09 87.5049 1184.09 87.8563 1184.09 88.2174C1184.09 91.0894 1183.94 93.9289 1183.65 96.7263C1183.61 97.0879 1183.58 97.4389 1183.53 97.7899C1182.23 109.037 1178.67 119.586 1173.33 128.975H1172.12C1177.54 119.611 1181.16 109.054 1182.48 97.7899C1182.52 97.4389 1182.56 97.0879 1182.6 96.7263C1182.89 93.9289 1183.04 91.0894 1183.04 88.2174C1183.04 87.8664 1183.04 87.5049 1183.03 87.1539C1182.99 84.2819 1182.81 81.4424 1182.48 78.6449C1182.44 78.2838 1182.4 77.9324 1182.34 77.5815C1181.98 74.699 1181.45 71.8595 1180.77 69.0725C1180.7 68.7215 1180.6 68.3705 1180.51 68.009C1179.77 65.1055 1178.88 62.2656 1177.83 59.5001C1177.7 59.1491 1177.57 58.7876 1177.43 58.4366C1176.29 55.5117 1174.97 52.672 1173.5 49.9276C1173.31 49.5665 1173.12 49.2151 1172.93 48.8641C1171.3 45.9075 1169.48 43.0672 1167.51 40.3552C1167.24 39.9941 1166.98 39.6427 1166.72 39.2917C1164.46 36.2922 1162.01 33.4632 1159.36 30.8043C1159.01 30.4639 1158.67 30.1127 1158.31 29.7723C1155.35 26.9009 1152.17 24.2633 1148.79 21.8803C1148.36 21.5723 1147.91 21.2638 1147.46 20.9659C1134.8 12.3829 1119.58 7.38347 1103.24 7.38347H950.001H929.085C928.181 10.2555 927.184 13.0954 926.081 15.8928H950H1103.24C1114.39 15.8928 1124.95 18.4983 1134.36 23.1358C1134.86 23.3908 1135.37 23.6463 1135.87 23.9014C1139.62 25.8587 1143.17 28.1453 1146.5 30.7298C1146.9 31.0274 1147.28 31.3362 1147.67 31.6553C1150.63 34.0378 1153.4 36.6543 1155.93 39.4728C1156.24 39.8024 1156.53 40.1428 1156.82 40.4832C1159.12 43.1103 1161.22 45.9182 1163.11 48.8643C1163.34 49.2153 1163.56 49.5667 1163.78 49.9278C1165.46 52.6512 1166.97 55.4907 1168.29 58.4367C1168.45 58.7877 1168.61 59.1391 1168.76 59.5002C1169.94 62.2551 1170.96 65.0951 1171.8 68.0092C1171.9 68.3601 1172 68.7115 1172.1 69.0726C1172.85 71.8487 1173.44 74.6886 1173.86 77.5816C1173.92 77.9326 1173.96 78.2941 1174.01 78.6451C1174.38 81.4321 1174.58 84.2716 1174.63 87.154C1174.64 87.505 1174.64 87.8665 1174.64 88.2175C1174.64 91.0999 1174.47 93.94 1174.14 96.7265C1174.1 97.088 1174.06 97.439 1174.01 97.79C1172.51 109.246 1168.34 119.856 1162.18 128.975H1160.89C1167.17 119.893 1171.42 109.275 1172.95 97.79C1173 97.439 1173.04 97.088 1173.08 96.7265C1173.42 93.94 1173.59 91.0999 1173.59 88.2175C1173.59 87.8665 1173.59 87.505 1173.58 87.154C1173.53 84.2716 1173.32 81.4321 1172.95 78.6451C1172.9 78.284 1172.85 77.9326 1172.81 77.5816C1172.38 74.6886 1171.77 71.8487 1171 69.0726C1170.91 68.7115 1170.8 68.3601 1170.7 68.0092C1169.85 65.0842 1168.82 62.2446 1167.61 59.5002C1167.47 59.1492 1167.31 58.7877 1167.14 58.4367C1165.8 55.4907 1164.25 52.6398 1162.54 49.9278C1162.35 49.6299 1162.17 49.3432 1161.97 49.0558C1161.94 49.0023 1161.91 48.9497 1161.87 48.8964C1161.87 48.8858 1161.86 48.8748 1161.85 48.8644C1159.93 45.9289 1157.79 43.1529 1155.48 40.5574C1155.18 40.2174 1154.88 39.8768 1154.56 39.547C1151.99 36.75 1149.2 34.176 1146.21 31.836C1145.81 31.5279 1145.42 31.23 1145.02 30.9319C1141.65 28.3899 1138.03 26.1564 1134.23 24.2634C1133.72 24.008 1133.2 23.7529 1132.69 23.508C1123.72 19.3069 1113.75 16.956 1103.24 16.956H950.001H925.661C924.506 19.8385 923.247 22.6785 921.881 25.4654H950H1103.24C1108.72 25.4654 1114.03 26.1885 1119.1 27.5495C1119.69 27.7095 1120.29 27.8795 1120.87 28.0601C1125.17 29.347 1129.28 31.113 1133.13 33.272C1133.58 33.517 1134.02 33.772 1134.46 34.0379C1137.78 36.0055 1140.91 38.2815 1143.8 40.834C1144.14 41.1215 1144.48 41.4299 1144.82 41.7384C1147.37 44.0779 1149.72 46.6419 1151.86 49.375C1152.12 49.7046 1152.38 50.0454 1152.62 50.3854C1154.55 52.9484 1156.28 55.6714 1157.81 58.5328C1157.99 58.8834 1158.17 59.2348 1158.35 59.5854C1159.73 62.2872 1160.91 65.0952 1161.88 68.0093H1161.89C1161.92 68.0947 1161.95 68.1793 1161.97 68.2749C1162.07 68.5412 1162.15 68.8072 1162.23 69.0728C1163.11 71.8277 1163.8 74.6676 1164.29 77.5817C1164.36 77.9327 1164.41 78.2841 1164.47 78.6452C1164.89 81.4213 1165.13 84.2612 1165.18 87.1542C1165.19 87.5052 1165.19 87.8667 1165.19 88.2177C1165.19 91.1001 1165 93.9506 1164.61 96.7266C1164.57 97.0881 1164.53 97.4391 1164.47 97.7901C1162.68 109.585 1157.62 120.299 1150.29 128.975H1148.92C1156.41 120.367 1161.57 109.631 1163.4 97.7901C1163.45 97.4391 1163.51 97.0776 1163.55 96.7266C1163.94 93.9401 1164.14 91.1001 1164.14 88.2177C1164.14 87.8565 1164.14 87.5052 1164.13 87.1542C1164.08 84.2612 1163.83 81.4213 1163.4 78.6452C1163.35 78.2841 1163.3 77.9327 1163.22 77.5817C1162.73 74.6676 1162.03 71.8383 1161.13 69.0833C1161.03 68.7328 1160.91 68.3814 1160.79 68.0308C1159.79 65.1269 1158.58 62.3189 1157.19 59.6284C1157.02 59.277 1156.83 58.9369 1156.64 58.5965C1155.11 55.7565 1153.34 53.0445 1151.39 50.5025C1151.15 50.1725 1150.89 49.8434 1150.62 49.5244C1148.46 46.7905 1146.07 44.259 1143.47 41.9616C1143.14 41.6531 1142.8 41.3556 1142.45 41.0685C1139.52 38.5585 1136.35 36.3251 1132.98 34.3996C1132.54 34.1446 1132.09 33.8996 1131.64 33.6656C1127.71 31.5491 1123.53 29.869 1119.15 28.667C1118.55 28.4966 1117.94 28.3475 1117.33 28.1985C1112.8 27.1031 1108.09 26.5285 1103.24 26.5285H950H921.356C919.928 29.4219 918.375 32.2614 916.715 35.0378H949.999H1102.3H1103.24C1103.67 35.0378 1104.1 35.0378 1104.53 35.0588C1109.73 35.1758 1114.73 36.0798 1119.46 37.6324C1119.98 37.8133 1120.5 37.9943 1121.01 38.1753C1124.82 39.5688 1128.43 41.3979 1131.76 43.5997C1132.15 43.8442 1132.53 44.1103 1132.91 44.3757C1135.78 46.3646 1138.43 48.6307 1140.85 51.1511C1141.13 51.4491 1141.41 51.7462 1141.69 52.0548C1143.84 54.3847 1145.77 56.9267 1147.48 59.6176C1147.68 59.9366 1147.88 60.2661 1148.08 60.5957C1149.61 63.1377 1150.94 65.8181 1152.05 68.6261C1152.18 68.9661 1152.3 69.3071 1152.43 69.6471C1153.42 72.317 1154.19 75.0931 1154.75 77.9431C1154.82 78.2941 1154.89 78.6557 1154.95 79.007C1155.42 81.7616 1155.69 84.5907 1155.73 87.4731C1155.74 87.7175 1155.74 87.9731 1155.74 88.2175V88.5366C1155.71 91.483 1155.46 94.3756 1154.98 97.1945C1154.93 97.5667 1154.85 97.9286 1154.78 98.3006C1152.46 110.527 1145.98 121.272 1136.91 128.975H1135.25C1144.56 121.453 1151.25 110.737 1153.68 98.4711C1136.28 101.337 1121.78 113.094 1114.87 128.975H1113.73C1120.74 112.443 1135.8 100.208 1153.89 97.3645C1154.39 94.5356 1154.66 91.6316 1154.68 88.6645C1131.55 91.4661 1112.38 107.459 1104.7 128.975H1103.58C1111.33 106.87 1130.97 90.422 1154.68 87.6006C1154.64 84.7076 1154.38 81.8786 1153.9 79.1236C1125.88 82.3759 1102.82 102.385 1094.73 128.975H1093.64C1101.75 101.856 1125.19 81.4148 1153.7 78.0711C1153.14 75.2202 1152.36 72.4445 1151.36 69.7852C1119.26 74.1305 1093.14 97.8826 1084.9 128.975H1083.82C1092.06 97.4171 1118.46 73.269 1150.97 68.7746C1149.86 65.9885 1148.51 63.3081 1146.96 60.7871C1111.66 66.8647 1083.35 94.0219 1075.15 128.975H1074.06C1082.26 93.6305 1110.75 66.1251 1146.35 59.8194C1144.63 57.1389 1142.66 54.6289 1140.49 52.3205C1103.01 60.771 1073.5 90.891 1065.46 128.975H1064.39C1072.4 90.5947 1101.98 60.1838 1139.63 51.4274C1137.19 48.9384 1134.49 46.7045 1131.6 44.7585C1093.17 56.1696 1063.56 88.6647 1055.83 128.975H1054.75C1062.44 88.483 1091.99 55.7691 1130.43 44.0035C1127.03 41.844 1123.35 40.0789 1119.48 38.76C1109.19 42.8015 1099.45 48.3536 1090.48 55.3309C1087.96 57.277 1085.5 59.3515 1083.15 61.51C1081.74 62.7864 1080.34 64.1374 1078.82 65.6694C1077.99 66.5094 1077.19 67.36 1076.39 68.211C1074.19 70.5724 1072.13 72.9971 1070.21 75.401C1068.3 77.805 1066.42 80.3894 1064.62 83.0801C1062.85 85.6965 1061.16 88.462 1059.59 91.2809C1057.98 94.142 1056.49 97.0984 1055.15 100.066C1053.73 103.151 1052.43 106.363 1051.28 109.617C1050.02 113.159 1048.91 116.797 1048.01 120.434C1047.3 123.251 1046.71 126.103 1046.21 128.975H1045.14C1045.65 126.017 1046.26 123.08 1046.99 120.179C1047.9 116.499 1049.02 112.829 1050.3 109.256C1051.45 105.979 1052.76 102.735 1054.19 99.6192C1055.55 96.6307 1057.06 93.6417 1058.67 90.7487C1060.26 87.9088 1061.97 85.1218 1063.75 82.4842C1065.57 79.7612 1067.47 77.1562 1069.39 74.7417C1071.32 72.3058 1073.42 69.8698 1075.62 67.4877C1076.43 66.6154 1077.25 65.7648 1078.08 64.9242C1079.6 63.3717 1081.03 61.9993 1082.45 60.7231C1084.82 58.5427 1087.31 56.4472 1089.84 54.4797C1098.53 47.7148 1107.95 42.2802 1117.88 38.2597C1113.24 36.8558 1108.32 36.1003 1103.24 36.1003H1102.54C1095.71 39.7806 1089.17 44.1307 1082.97 49.1292C1080.46 51.1396 1077.99 53.2885 1075.63 55.5111C1074.34 56.7346 1073.2 57.8406 1072.15 58.9045C1071 60.0741 1069.9 61.2226 1068.88 62.3506C1066.7 64.7221 1064.62 67.1682 1062.71 69.6041C1060.8 72.0186 1058.96 74.5177 1057.1 77.262C1055.31 79.8789 1053.62 82.5905 1052.07 85.335C1050.5 88.047 1049 90.8869 1047.61 93.801C1046.2 96.7365 1044.9 99.7469 1043.73 102.746C1042.51 105.862 1041.41 109.085 1040.44 112.318C1038.79 117.774 1037.52 123.339 1036.61 128.975H1035.54C1036.46 123.231 1037.76 117.56 1039.44 111.999C1040.41 108.745 1041.53 105.501 1042.76 102.363C1043.93 99.3314 1045.24 96.3008 1046.66 93.333C1048.07 90.3975 1049.58 87.5255 1051.16 84.8025C1052.73 82.0374 1054.44 79.304 1056.23 76.6665C1058.11 73.89 1059.95 71.3695 1061.89 68.9445C1063.82 66.4769 1065.91 64.02 1068.11 61.6265C1069.14 60.4994 1070.25 59.3295 1071.4 58.1595C1072.46 57.085 1073.61 55.9575 1074.92 54.724C1077.3 52.4905 1079.79 50.3311 1082.31 48.2996C1088.04 43.6836 1094.08 39.5995 1100.35 36.1001H950H916.084C912.609 41.8015 908.682 47.2576 904.335 52.3949C902.277 54.8515 900.093 57.2449 897.867 59.489C897.783 59.5951 897.699 59.6805 897.594 59.7761C895.504 61.9035 893.257 64.0201 890.916 66.094C888.438 68.2531 885.949 70.2845 883.513 72.1144C880.972 74.0289 878.337 75.8794 875.67 77.5915C872.877 79.3999 870.063 81.0589 867.322 82.5269C864.414 84.1118 861.422 85.5898 858.419 86.9193C855.343 88.2913 852.087 89.5783 848.738 90.7483C845.063 92.0353 841.356 93.1309 837.734 94.0242L837.67 94.0348C835.392 94.6092 833.093 95.1093 830.783 95.5453C832.658 109.024 839.648 120.859 849.691 128.975H848.046C838.342 120.735 831.605 109.025 829.743 95.7368C826.992 96.2473 824.22 96.6512 821.438 96.9702C823.147 109.136 828.376 120.168 836.041 128.975H834.665C827.185 120.126 822.079 109.159 820.387 97.0874C817.605 97.3745 814.801 97.5768 811.988 97.6829C813.506 109.209 817.767 119.863 824.062 128.975H822.779C816.602 119.837 812.428 109.207 810.937 97.7258C809.635 97.7679 808.333 97.7893 807.021 97.7893H802.474C803.791 109.052 807.402 119.611 812.821 128.975H811.626C806.287 119.586 802.722 109.036 801.424 97.7893H792.972C794.13 108.906 797.297 119.422 802.08 128.975H800.908C796.185 119.405 793.056 108.895 791.911 97.7893H783.469C784.506 108.799 787.317 119.291 791.602 128.975H790.461C786.226 119.278 783.443 108.791 782.419 97.7893H773.988C774.924 108.72 777.458 119.192 781.341 128.975H780.205C776.362 119.183 773.855 108.712 772.928 97.7893H764.496C765.351 108.658 767.66 119.117 771.214 128.975H770.101C766.581 119.11 764.295 108.652 763.446 97.7893H755.014C755.804 108.608 757.927 119.057 761.205 128.975H760.098C756.849 119.051 754.747 108.604 753.965 97.7893H705.99C705.208 108.605 703.095 119.05 699.845 128.975H698.742C702.02 119.056 704.15 108.61 704.94 97.7893C704.961 97.4282 704.992 97.0768 705.003 96.7258C705.192 93.9073 705.287 91.0783 705.287 88.2169C705.287 87.8659 705.287 87.5044 705.276 87.1534C705.256 84.2919 705.14 81.463 704.94 78.6444C704.909 78.2935 704.888 77.9319 704.856 77.5809C704.625 74.7195 704.3 71.88 703.88 69.072C703.827 68.7108 703.775 68.3594 703.712 68.0085C703.271 65.1364 702.735 62.297 702.095 59.4996C702.021 59.1384 701.937 58.787 701.843 58.4361C701.182 55.564 700.405 52.7245 699.543 49.9271C699.438 49.566 699.323 49.2146 699.208 48.8636C698.294 45.9812 697.286 43.1417 696.162 40.3547C696.036 40.0037 695.889 39.6421 695.743 39.2912C694.577 36.3982 693.296 33.5582 691.91 30.7826C691.742 30.4211 691.563 30.0697 691.385 29.7187C689.925 26.8152 688.35 23.9858 686.671 21.2102C686.46 20.8588 686.24 20.4977 686.009 20.1463C663.55 -16.2396 623.639 -40.479 578.237 -40.479H425H409.848C410.027 -37.6714 410.121 -34.8311 410.121 -31.9701H425H578.237C618.725 -31.9701 654.551 -11.3151 675.961 20.1463C676.213 20.4977 676.454 20.8588 676.685 21.2102C678.522 23.9647 680.244 26.8046 681.851 29.7187C682.05 30.0697 682.25 30.4312 682.439 30.7826C683.93 33.5477 685.326 36.3876 686.597 39.2912C686.755 39.6421 686.912 39.9935 687.059 40.3547C688.267 43.1417 689.359 45.9706 690.346 48.8636C690.471 49.2146 690.597 49.5761 690.713 49.9271C691.648 52.7245 692.477 55.5536 693.191 58.4361C693.286 58.787 693.38 59.1384 693.454 59.4996C694.147 62.297 694.724 65.1364 695.196 68.0085C695.27 68.3594 695.323 68.721 695.375 69.072C695.827 71.88 696.173 74.7089 696.415 77.5809C696.456 77.9319 696.488 78.2833 696.509 78.6444C696.729 81.4524 696.855 84.2919 696.877 87.1534C696.887 87.5044 696.887 87.8659 696.887 88.2169C696.887 91.0783 696.792 93.9178 696.582 96.7258C696.572 97.0873 696.541 97.4383 696.509 97.7893C695.661 108.654 693.363 119.108 689.841 128.975H688.727C692.282 119.116 694.603 108.661 695.459 97.7893C695.491 97.4282 695.512 97.0768 695.532 96.7258C695.732 93.9178 695.837 91.0783 695.837 88.2169C695.837 87.8659 695.837 87.5044 695.827 87.1534C695.806 84.2919 695.679 81.4524 695.459 78.6444C695.438 78.2935 695.406 77.9425 695.365 77.5809C695.123 74.7195 694.766 71.88 694.315 69.072C694.262 68.7108 694.199 68.3594 694.136 68.0085C693.653 65.1364 693.065 62.297 692.372 59.4996C692.298 59.1384 692.204 58.787 692.12 58.4361C691.385 55.5536 690.545 52.7141 689.61 49.9271C689.484 49.5761 689.369 49.2146 689.232 48.8636C688.246 45.9706 687.132 43.1307 685.915 40.3547C685.767 39.9935 685.61 39.6421 685.453 39.2912C684.161 36.3876 682.754 33.5477 681.231 30.7826C681.053 30.4211 680.853 30.0697 680.654 29.7187C679.026 26.8046 677.284 23.9647 675.425 21.2102C675.183 20.8486 674.942 20.4977 674.69 20.1463C653.417 -10.6982 618.116 -30.9066 578.237 -30.9066H425.001H410.111C410.091 -28.0667 409.975 -25.2271 409.765 -22.3976H425H578.237C613.129 -22.3976 644.251 -5.73112 664.264 20.1463C664.536 20.4977 664.799 20.8486 665.062 21.2102C667.13 23.9437 669.073 26.7832 670.879 29.7187C671.11 30.0697 671.32 30.4211 671.53 30.7826C673.199 33.5371 674.743 36.377 676.16 39.2912C676.339 39.6421 676.507 39.9935 676.675 40.3547C677.998 43.1201 679.205 45.9601 680.297 48.8636C680.434 49.2146 680.57 49.5761 680.696 49.9271C681.715 52.7141 682.618 55.5431 683.416 58.4361C683.521 58.787 683.615 59.1384 683.699 59.4996C684.444 62.297 685.085 65.126 685.6 68.0085C685.673 68.3594 685.736 68.721 685.799 69.072C686.282 71.8694 686.66 74.7089 686.933 77.5809C686.975 77.9319 687.007 78.2833 687.028 78.6444C687.269 81.4524 687.405 84.2919 687.427 87.1534C687.438 87.5044 687.438 87.8659 687.438 88.2169C687.438 91.0783 687.332 93.9178 687.122 96.7258C687.091 97.0873 687.06 97.4383 687.028 97.7893C686.101 108.714 683.583 119.182 679.737 128.975H678.602C682.487 119.191 685.031 108.722 685.967 97.7893C686.009 97.4383 686.041 97.0873 686.062 96.7258C686.282 93.9178 686.387 91.0783 686.387 88.2169C686.387 87.8659 686.387 87.5044 686.377 87.1534C686.356 84.2814 686.219 81.4524 685.967 78.6444C685.947 78.2833 685.915 77.9319 685.883 77.5809C685.61 74.7089 685.222 71.8694 684.728 69.072C684.676 68.721 684.613 68.3594 684.539 68.0085C684.014 65.126 683.363 62.297 682.607 59.4996C682.523 59.1486 682.429 58.787 682.334 58.4361C681.526 55.5536 680.602 52.7141 679.562 49.9271C679.436 49.5761 679.31 49.2146 679.163 48.8636C678.071 45.9601 676.843 43.1201 675.509 40.3547C675.341 39.9935 675.163 39.6421 674.984 39.2912C673.546 36.377 671.981 33.5371 670.291 30.7826C670.081 30.4211 669.86 30.0697 669.64 29.7187C667.812 26.7832 665.839 23.9437 663.739 21.2102C663.466 20.8486 663.193 20.4977 662.92 20.1463C643.085 -5.11458 612.488 -21.3345 578.237 -21.3345H425.001H409.691C409.46 -18.4836 409.135 -15.6441 408.715 -12.8252H425H578.237C607.375 -12.8252 633.635 -0.104752 651.884 20.1463C652.199 20.4977 652.514 20.8486 652.819 21.2102C655.203 23.9218 657.439 26.7621 659.528 29.7187C659.77 30.0697 660.022 30.4312 660.253 30.7826C662.132 33.5266 663.886 36.3557 665.482 39.2912C665.681 39.6421 665.87 39.9935 666.059 40.3547C667.54 43.1096 668.884 45.9495 670.102 48.8636C670.259 49.2146 670.395 49.566 670.543 49.9271C671.677 52.7031 672.685 55.5431 673.567 58.4361C673.672 58.787 673.777 59.1486 673.871 59.4996C674.701 62.2866 675.404 65.126 675.982 68.0085C676.055 68.3594 676.118 68.7108 676.181 69.072C676.717 71.8694 677.137 74.7089 677.431 77.5809C677.473 77.9319 677.515 78.2935 677.536 78.6444C677.809 81.4524 677.955 84.2814 677.977 87.1534C677.988 87.5044 677.988 87.8659 677.988 88.2169C677.988 91.0783 677.872 93.9178 677.63 96.7258C677.61 97.0768 677.577 97.4383 677.536 97.7893C676.512 108.789 673.736 119.279 669.5 128.975H668.349C672.635 119.291 675.449 108.799 676.486 97.7893C676.517 97.4383 676.549 97.0873 676.58 96.7258C676.822 93.9178 676.937 91.0889 676.937 88.2169C676.937 87.8659 676.937 87.5044 676.927 87.1534C676.906 84.2814 676.748 81.4418 676.486 78.6444C676.454 78.2935 676.423 77.9319 676.37 77.5809C676.087 74.7089 675.656 71.8694 675.121 69.072C675.057 68.7108 674.984 68.3594 674.911 68.0085C674.323 65.126 673.619 62.2866 672.779 59.4996C672.685 59.1384 672.58 58.787 672.464 58.4361C671.572 55.5431 670.553 52.7031 669.409 49.9271C669.272 49.5761 669.125 49.2146 668.968 48.8636C667.739 45.9495 666.374 43.1096 664.873 40.3547C664.684 39.9935 664.495 39.6421 664.285 39.2912C662.668 36.3557 660.893 33.5161 658.982 30.7826C658.74 30.4312 658.489 30.0697 658.237 29.7187C656.126 26.7517 653.848 23.9112 651.422 21.2102C651.107 20.8486 650.792 20.4977 650.467 20.1463C632.428 0.522903 606.724 -11.7621 578.237 -11.7621H425.001H408.557C408.116 -8.90065 407.581 -6.06073 406.94 -3.25275H425H578.237C601.369 -3.25275 622.484 5.59622 638.476 20.1463C638.864 20.4867 639.242 20.8378 639.62 21.2102C642.456 23.8582 645.122 26.7087 647.6 29.7187C647.894 30.0697 648.178 30.4211 648.461 30.7826C650.635 33.4942 652.651 36.3345 654.499 39.2912C654.73 39.6421 654.95 39.9935 655.16 40.3547C656.83 43.099 658.362 45.9387 659.748 48.8636C659.917 49.2146 660.074 49.566 660.232 49.9271C661.502 52.6926 662.636 55.5325 663.623 58.4361C663.749 58.787 663.865 59.1384 663.98 59.4996C664.894 62.2756 665.671 65.1155 666.311 68.0085C666.395 68.3594 666.469 68.721 666.542 69.072C667.141 71.859 667.603 74.6985 667.928 77.5809C667.97 77.9319 668.012 78.2935 668.044 78.6444C668.338 81.4418 668.495 84.2814 668.527 87.1534C668.537 87.5044 668.537 87.8659 668.537 88.2169C668.537 91.0889 668.411 93.9284 668.149 96.7258C668.117 97.0768 668.086 97.4383 668.044 97.7893C666.898 108.893 663.771 119.406 659.049 128.975H657.877C662.659 119.423 665.825 108.906 666.983 97.7893C667.025 97.4383 667.067 97.0873 667.088 96.7258C667.351 93.9284 667.487 91.0889 667.487 88.2169C667.487 87.8659 667.487 87.5044 667.477 87.1534C667.445 84.2814 667.288 81.4418 666.983 78.6444C666.952 78.2833 666.91 77.9319 666.868 77.5809C666.542 74.6985 666.07 71.859 665.471 69.072C665.398 68.7108 665.324 68.3594 665.24 68.0085C664.589 65.1155 663.791 62.2756 662.868 59.4996C662.752 59.1384 662.636 58.787 662.51 58.4361C661.513 55.522 660.368 52.6926 659.077 49.9271C658.919 49.566 658.751 49.2146 658.583 48.8636C657.176 45.9387 655.622 43.099 653.921 40.3547C653.711 39.9935 653.491 39.6421 653.26 39.2912C651.37 36.3345 649.323 33.4942 647.117 30.7826C646.823 30.4211 646.529 30.0697 646.236 29.7187C643.705 26.7088 640.985 23.8691 638.098 21.2102C637.73 20.8698 637.352 20.5292 636.974 20.1997C636.953 20.1782 636.932 20.1568 636.911 20.1463C621.214 6.24484 600.686 -2.18967 578.237 -2.18967H425.001H406.699C406.038 0.671783 405.271 3.51172 404.41 6.31969H425H578.237C595.237 6.31969 611.039 11.6693 624.07 20.7948C624.511 21.0927 624.952 21.4121 625.382 21.7312C628.711 24.1562 631.85 26.8257 634.769 29.7401C635.126 30.0805 635.473 30.4311 635.819 30.793C638.413 33.452 640.817 36.2915 643.033 39.291C643.295 39.642 643.547 39.9934 643.799 40.3545C645.742 43.0665 647.516 45.9069 649.123 48.8635C649.312 49.2144 649.501 49.5658 649.679 49.927C651.128 52.6713 652.42 55.511 653.554 58.4359C653.69 58.7869 653.827 59.1484 653.953 59.4994C654.982 62.2649 655.864 65.1048 656.589 68.0084C656.683 68.3593 656.767 68.7107 656.851 69.0719C657.513 71.8589 658.037 74.6878 658.405 77.5808C658.457 77.9318 658.499 78.2832 658.531 78.6443C658.856 81.4313 659.045 84.2708 659.066 87.1532C659.088 87.5042 659.088 87.8556 659.088 88.2167C659.088 91.0887 658.94 93.9282 658.646 96.7257C658.615 97.0872 658.584 97.4382 658.531 97.7892C657.235 109.036 653.669 119.585 648.328 128.974H647.122C652.544 119.61 656.164 109.053 657.481 97.7892C657.523 97.4382 657.565 97.0872 657.596 96.7257C657.891 93.9282 658.037 91.0887 658.037 88.2167C658.037 87.8658 658.037 87.5042 658.027 87.1532C657.995 84.2812 657.806 81.4417 657.481 78.6443C657.439 78.2832 657.397 77.9318 657.344 77.5808C656.977 74.6984 656.452 71.8589 655.769 69.0719C655.696 68.7209 655.601 68.3699 655.507 68.0084C654.772 65.1048 653.879 62.2649 652.829 59.4994C652.703 59.1484 652.567 58.7869 652.43 58.4359C651.286 55.511 649.973 52.6713 648.503 49.927C648.314 49.5658 648.126 49.2144 647.926 48.8635C646.298 45.9069 644.482 43.0665 642.508 40.3545C642.245 39.9934 641.983 39.642 641.72 39.291C639.463 36.2915 637.006 33.4625 634.36 30.8036C634.013 30.4632 633.667 30.1121 633.31 29.7716C630.349 26.9002 627.167 24.2626 623.786 21.8797C623.356 21.5716 622.915 21.2631 622.463 20.9652C609.8 12.3822 594.586 7.3828 578.237 7.3828H425.001H404.085C403.181 10.2548 402.184 13.0947 401.081 15.8921H425H578.237C589.388 15.8921 599.951 18.4976 609.359 23.1351C609.863 23.3901 610.367 23.6457 610.871 23.9007C614.62 25.8581 618.168 28.1447 621.497 30.7292C621.896 31.0267 622.285 31.3356 622.673 31.6546C625.634 34.0371 628.396 36.6536 630.926 39.4721C631.241 39.8017 631.535 40.1422 631.819 40.4826C634.118 43.1096 636.218 45.9176 638.108 48.8636C638.339 49.2146 638.56 49.566 638.78 49.9271C640.46 52.6505 641.972 55.49 643.295 58.4361C643.453 58.787 643.61 59.1384 643.757 59.4996C644.943 62.2545 645.962 65.0944 646.802 68.0085C646.896 68.3594 647.001 68.7108 647.096 69.072C647.852 71.848 648.44 74.6879 648.86 77.5809C648.923 77.9319 648.965 78.2935 649.007 78.6444C649.385 81.4314 649.585 84.271 649.627 87.1534C649.637 87.5044 649.637 87.8659 649.637 88.2169C649.637 91.0993 649.469 93.9393 649.144 96.7258C649.101 97.0873 649.06 97.4383 649.007 97.7893C647.507 109.246 643.341 119.855 637.177 128.975H635.89C642.166 119.892 646.418 109.274 647.947 97.7893C647.999 97.4383 648.041 97.0873 648.083 96.7258C648.419 93.9393 648.587 91.0993 648.587 88.2169C648.587 87.8659 648.587 87.5044 648.577 87.1534C648.535 84.271 648.325 81.4314 647.947 78.6444C647.905 78.2833 647.852 77.9319 647.81 77.5809C647.38 74.6879 646.771 71.848 646.004 69.072C645.91 68.7108 645.805 68.3594 645.7 68.0085C644.849 65.0835 643.82 62.2439 642.612 59.4996C642.466 59.1486 642.308 58.787 642.14 58.4361C640.796 55.49 639.253 52.6391 637.541 49.9271C637.352 49.6292 637.174 49.3425 636.974 49.0551C636.943 49.0016 636.912 48.949 636.869 48.8957C636.869 48.8851 636.859 48.8742 636.848 48.8637C634.927 45.9283 632.795 43.1522 630.485 40.5568C630.181 40.2167 629.876 39.8762 629.561 39.5463C626.989 36.7493 624.196 34.1754 621.214 31.8353C620.815 31.5272 620.416 31.2293 620.017 30.9313C616.646 28.3893 613.034 26.1557 609.233 24.2627C608.719 24.0073 608.204 23.7522 607.69 23.5073C598.723 19.3062 588.748 16.9554 578.237 16.9554H425.001H400.661C399.506 19.8378 398.247 22.6778 396.881 25.4647H425H578.237C583.718 25.4647 589.032 26.1878 594.103 27.5488C594.691 27.7088 595.289 27.8788 595.867 28.0594C600.172 29.3464 604.277 31.1124 608.131 33.2713C608.582 33.5163 609.023 33.7713 609.464 34.0373C612.782 36.0048 615.911 38.2809 618.799 40.8333C619.145 41.1208 619.482 41.4292 619.817 41.7377C622.369 44.0772 624.721 46.6412 626.863 49.3743C627.125 49.7039 627.377 50.0447 627.619 50.3848C629.551 52.9477 631.283 55.6707 632.806 58.5322C632.995 58.8827 633.173 59.2341 633.352 59.5847C634.727 62.2865 635.914 65.0945 636.88 68.0086H636.89C636.922 68.094 636.953 68.1786 636.974 68.2742C637.069 68.5406 637.153 68.8065 637.226 69.0721C638.109 71.827 638.802 74.6669 639.295 77.581C639.358 77.932 639.41 78.2834 639.473 78.6445C639.894 81.4206 640.135 84.2605 640.177 87.1535C640.188 87.5045 640.188 87.866 640.188 88.217C640.188 91.0994 639.999 93.9499 639.61 96.726C639.568 97.0875 639.526 97.4385 639.473 97.7895C637.679 109.584 632.625 120.299 625.287 128.975H623.916C631.41 120.366 636.576 109.631 638.402 97.7895C638.455 97.4385 638.507 97.0769 638.549 96.726C638.938 93.9395 639.137 91.0994 639.137 88.217C639.137 87.8559 639.137 87.5045 639.127 87.1535C639.085 84.2605 638.833 81.4206 638.402 78.6445C638.35 78.2834 638.297 77.932 638.224 77.581C637.73 74.6669 637.027 71.8376 636.134 69.0827C636.029 68.7321 635.914 68.3807 635.788 68.0301C634.79 65.1262 633.583 62.3182 632.186 59.6277C632.018 59.2763 631.829 58.9362 631.64 58.5958C630.107 55.7558 628.344 53.0438 626.39 50.5018C626.149 50.1718 625.886 49.8428 625.624 49.5237C623.461 46.7898 621.067 44.2583 618.473 41.9609C618.137 41.6525 617.801 41.3549 617.455 41.0678C614.525 38.5578 611.354 36.3244 607.984 34.3989C607.543 34.1439 607.091 33.899 606.64 33.6649C602.713 31.5485 598.534 29.8683 594.155 28.6663C593.546 28.4959 592.937 28.3469 592.328 28.1978C587.802 27.1024 583.088 26.5278 578.237 26.5278H425.001H396.357C394.928 29.4212 393.375 32.2607 391.715 35.0372H425H577.303H578.237C578.668 35.0372 579.098 35.0372 579.529 35.0581C584.726 35.1751 589.735 36.0791 594.46 37.6317C594.984 37.8126 595.499 37.9936 596.014 38.1746C599.825 39.5681 603.427 41.3972 606.766 43.599C607.154 43.8435 607.532 44.1096 607.91 44.375C610.777 46.364 613.433 48.63 615.848 51.1505C616.132 51.4484 616.415 51.7455 616.689 52.0541C618.841 54.384 620.773 56.926 622.485 59.6169C622.684 59.9359 622.883 60.2654 623.083 60.595C624.616 63.137 625.939 65.8175 627.052 68.6254C627.178 68.9655 627.304 69.3064 627.43 69.6464C628.417 72.3163 629.194 75.0924 629.75 77.9424C629.824 78.2934 629.887 78.655 629.95 79.0064C630.422 81.7609 630.695 84.59 630.727 87.4724C630.737 87.7169 630.737 87.9724 630.737 88.2169V88.5359C630.716 91.4823 630.464 94.3749 629.981 97.1939C629.929 97.566 629.855 97.9279 629.782 98.2999C627.458 110.526 620.984 121.271 611.912 128.975H610.248C619.56 121.453 626.255 110.736 628.679 98.4704C611.277 101.336 596.777 113.094 589.874 128.975H588.73C595.745 112.442 610.799 100.207 628.889 97.3639C629.393 94.5349 629.656 91.631 629.677 88.6638C606.553 91.4654 587.38 107.458 579.697 128.975H578.58C586.333 106.869 605.972 90.4213 629.677 87.5999C629.645 84.7069 629.383 81.8779 628.9 79.1229C600.879 82.3753 577.818 102.384 569.735 128.975H568.638C576.747 101.855 600.191 81.4141 628.7 78.0704C628.144 75.2195 627.356 72.4439 626.359 69.7845C594.26 74.1299 568.142 97.8819 559.904 128.975H558.822C567.06 97.4164 593.466 73.2683 625.97 68.7739C624.857 65.9879 623.513 63.3074 621.959 60.7864C586.661 66.864 558.355 94.0213 550.149 128.974H549.065C557.265 93.6298 585.75 66.1245 621.35 59.8187C619.628 57.1383 617.664 54.6282 615.491 52.3198C578.01 60.7703 548.504 90.8903 540.463 128.974H539.395C547.405 90.594 576.98 60.1831 614.63 51.4267C612.194 48.9378 609.496 46.7039 606.598 44.7578C568.17 56.169 538.556 88.6641 530.83 128.974H529.755C537.44 88.4823 566.991 55.7684 605.432 44.0028C602.03 41.8433 598.355 40.0783 594.48 38.7593C584.191 42.8008 574.446 48.3529 565.48 55.3303C562.96 57.2763 560.503 59.3508 558.151 61.5093C556.743 62.7857 555.337 64.1367 553.825 65.6687C552.995 66.5087 552.186 67.3593 551.388 68.2103C549.194 70.5717 547.126 72.9964 545.214 75.4003C543.304 77.8043 541.424 80.3888 539.618 83.0794C537.854 85.6958 536.164 88.4613 534.589 91.2802C532.982 94.1413 531.491 97.0977 530.147 100.066C528.73 103.15 527.428 106.362 526.283 109.616C525.023 113.159 523.91 116.796 523.007 120.434C522.297 123.25 521.71 126.103 521.206 128.974H520.14C520.653 126.017 521.257 123.08 521.989 120.178C522.902 116.498 524.026 112.829 525.296 109.255C526.451 105.979 527.763 102.735 529.191 99.6185C530.546 96.63 532.058 93.641 533.675 90.748C535.26 87.9081 536.972 85.1211 538.747 82.4836C540.574 79.7606 542.474 77.1555 544.395 74.741C546.317 72.3051 548.417 69.8691 550.622 67.4871C551.431 66.6147 552.249 65.7641 553.079 64.9236C554.601 63.371 556.029 61.9986 557.447 60.7225C559.82 58.542 562.309 56.4465 564.839 54.479C573.533 47.7141 582.952 42.2796 592.884 38.2591C588.243 36.8551 583.319 36.0996 578.237 36.0996H577.544C570.709 39.7799 564.167 44.13 557.972 49.1285C555.462 51.1389 552.995 53.2879 550.632 55.5105C549.341 56.7339 548.196 57.84 547.146 58.9039C546.002 60.0735 544.899 61.2219 543.881 62.3499C541.697 64.7215 539.618 67.1675 537.707 69.6034C535.796 72.0179 533.958 74.517 532.1 77.2614C530.315 79.8782 528.625 82.5898 527.07 85.3343C525.506 88.0463 524.004 90.8862 522.607 93.8003C521.201 96.7358 519.899 99.7463 518.733 102.745C517.515 105.861 516.413 109.084 515.436 112.318C513.792 117.773 512.518 123.338 511.607 128.974H510.542C511.461 123.231 512.757 117.56 514.439 111.999C515.415 108.744 516.528 105.5 517.756 102.363C518.932 99.3307 520.246 96.3001 521.663 93.3323C523.07 90.3968 524.582 87.5248 526.157 84.8018C527.732 82.0367 529.443 79.3033 531.228 76.6658C533.108 73.8893 534.955 71.3689 536.888 68.9438C538.82 66.4762 540.909 64.0194 543.114 61.6259C544.143 60.4987 545.246 59.3289 546.401 58.1588C547.461 57.0844 548.616 55.9568 549.918 54.7233C552.302 52.4898 554.79 50.3305 557.31 48.2989C563.043 43.6829 569.081 39.5988 575.349 36.0994H425H391.085C387.609 41.8008 383.682 47.2569 379.336 52.3943C377.277 54.8509 375.093 57.2442 372.867 59.4883C372.783 59.5944 372.699 59.6798 372.594 59.7754C370.504 61.9028 368.258 64.0194 365.916 66.0933C363.438 68.2524 360.95 70.2838 358.513 72.1137C355.973 74.0282 353.337 75.8787 350.671 77.5908C347.877 79.3992 345.063 81.0582 342.323 82.5262C339.414 84.1111 336.422 85.5892 333.42 86.9187C330.343 88.2906 327.088 89.5776 323.738 90.7476C320.063 92.0346 316.357 93.1302 312.734 94.0235L312.671 94.0341C310.393 94.6086 308.093 95.1086 305.783 95.5446C307.659 109.023 314.648 120.858 324.692 128.974H323.046C313.343 120.735 306.605 109.024 304.744 95.7361C301.993 96.2466 299.221 96.6505 296.438 96.9696C298.147 109.135 303.376 120.167 311.042 128.974H309.666C302.185 120.125 297.08 109.158 295.388 97.0867C292.605 97.3737 289.802 97.5761 286.988 97.6822C288.507 109.208 292.767 119.863 299.062 128.974H297.779C291.603 119.836 287.429 109.206 285.938 97.7252C284.636 97.7673 283.334 97.7886 282.022 97.7886H277.475C278.791 109.051 282.402 119.61 287.821 128.974H286.627C281.287 119.585 277.723 109.035 276.425 97.7886H267.973C269.13 108.905 272.297 119.421 277.08 128.974H275.909C271.186 119.404 268.056 108.894 266.912 97.7886H258.47C259.506 108.798 262.317 119.29 266.602 128.974H265.462C261.226 119.277 258.444 108.79 257.42 97.7886H248.989C249.924 108.719 252.458 119.191 256.341 128.974H255.206C251.362 119.183 248.855 108.711 247.928 97.7886H239.497C240.352 108.658 242.661 119.117 246.214 128.974H245.101C241.581 119.109 239.295 108.651 238.446 97.7886H230.015C230.804 108.608 232.928 119.056 236.206 128.974H235.099C231.85 119.051 229.747 108.603 228.965 97.7886H180.99C180.208 108.605 178.095 119.05 174.846 128.974H173.742C177.021 119.056 179.15 108.609 179.941 97.7886C179.962 97.4275 179.993 97.0761 180.004 96.7251C180.193 93.9066 180.287 91.0776 180.287 88.2162C180.287 87.8652 180.287 87.5037 180.277 87.1527C180.256 84.2912 180.14 81.4623 179.941 78.6438C179.909 78.2928 179.888 77.9312 179.856 77.5802C179.626 74.7188 179.3 71.8793 178.88 69.0713C178.828 68.7102 178.775 68.3588 178.712 68.0078C178.271 65.1358 177.736 62.2963 177.095 59.4989C177.022 59.1377 176.938 58.7863 176.843 58.4354C176.182 55.5634 175.405 52.7238 174.544 49.9264C174.439 49.5653 174.323 49.2139 174.208 48.8629C173.294 45.9805 172.286 43.141 171.163 40.354C171.037 40.003 170.89 39.6414 170.743 39.2905C169.577 36.3975 168.296 33.5576 166.91 30.7819C166.742 30.4204 166.564 30.069 166.385 29.718C164.925 26.8145 163.351 23.9851 161.671 21.2095C161.461 20.8581 161.241 20.497 161.009 20.1456C138.55 -16.2402 98.639 -40.4797 53.237 -40.4797H-100V-41.5432H53.237C99.2486 -41.5432 139.673 -16.8462 162.259 20.1456H282.022C310.389 20.143 333.467 -3.23488 333.467 -31.9703C333.467 -60.7074 310.387 -84.0871 282.017 -84.0871L191.73 -84.0875C191.952 -84.4427 192.185 -84.7899 192.402 -85.1502H282.017C310.966 -85.1502 334.517 -61.2946 334.517 -31.9703C334.517 -2.64824 310.969 21.2065 282.022 21.2095H282.017H162.899C164.558 23.9851 166.123 26.8145 167.561 29.718H282.022C315.6 29.7155 342.917 2.0435 342.917 -31.9703C342.917 -65.9864 315.597 -93.6595 282.017 -93.6595H197.361C197.516 -94.0151 197.681 -94.3645 197.83 -94.723H282.017C316.177 -94.7226 343.967 -66.5722 343.967 -31.9703C343.967 2.62933 316.18 30.779 282.022 30.7819H282.017H168.097C169.462 33.5576 170.722 36.3975 171.887 39.2905H282.022C320.81 39.2879 352.367 7.32147 352.367 -31.9703C352.367 -71.2639 320.809 -103.232 282.017 -103.232H200.059C200.157 -103.588 200.264 -103.938 200.357 -104.295H282.017C321.387 -104.295 353.417 -71.8502 353.417 -31.9703C353.417 7.90947 321.387 40.3548 282.017 40.3548L172.307 40.354C173.41 43.141 174.408 45.9805 175.321 48.8629H282.022C326.022 48.8604 361.817 12.6 361.817 -31.9703C361.817 -76.5427 326.019 -112.804 282.017 -112.804L202.014 -112.805C202.063 -113.158 202.105 -113.513 202.148 -113.868H282.017C326.598 -113.868 362.867 -77.1289 362.867 -31.9702C362.867 13.1881 326.598 49.9275 282.017 49.9275L175.646 49.9267C176.497 52.7241 177.263 55.5636 177.936 58.4356H282.022C331.232 58.4331 371.267 17.8786 371.267 -31.9701C371.267 -81.8205 331.23 -122.376 282.017 -122.377H202.813C202.814 -122.555 202.825 -122.73 202.825 -122.909C202.825 -123.087 202.814 -123.261 202.813 -123.44H282.017C331.809 -123.44 372.317 -82.4068 372.317 -31.9701C372.317 18.4666 331.809 59.5001 282.017 59.5001L178.177 59.4993C178.807 62.2967 179.342 65.1362 179.783 68.0082H282.022C336.443 68.0056 380.717 23.1568 380.717 -31.9701C380.717 -87.0985 336.441 -131.949 282.017 -131.949H203.171C203.127 -132.304 203.086 -132.66 203.037 -133.013H282.017C337.019 -133.012 381.767 -87.6852 381.767 -31.9701C381.767 23.7446 337.02 69.0725 282.017 69.0725L179.941 69.0717C180.361 71.8797 180.676 74.7192 180.907 77.5806H282.022C341.653 77.5781 390.167 28.4351 390.167 -31.9701C390.167 -92.3769 341.651 -141.521 282.017 -141.521L201.905 -141.522C201.813 -141.879 201.706 -142.23 201.608 -142.585H282.017C342.231 -142.585 391.218 -92.9633 391.218 -31.9701C391.218 29.0226 342.231 78.6449 282.017 78.6449L180.991 78.6441C181.201 81.4521 181.306 84.2917 181.327 87.1531H282.022C283.124 87.1531 284.227 87.1425 285.329 87.0996C285.676 87.0996 286.033 87.0891 286.38 87.0786C289.194 86.9721 292.007 86.7596 294.801 86.4511C295.147 86.4192 295.504 86.3767 295.85 86.3338C296.974 86.2063 298.098 86.0576 299.211 85.8872C300.912 85.6322 302.623 85.3451 304.324 85.0157C304.671 84.9412 305.017 84.8772 305.374 84.8024C308.336 84.1964 311.285 83.4733 314.183 82.6438C317.932 81.5694 321.66 80.2828 325.261 78.8358C328.485 77.5489 331.698 76.0919 334.806 74.4963C337.819 72.9753 340.738 71.3268 343.479 69.5928C346.114 67.9767 348.802 66.1573 351.458 64.1794C353.915 62.3608 356.414 60.3504 358.861 58.2023C361.087 56.2554 363.208 54.2558 365.182 52.2673C365.36 52.0758 365.549 51.8844 365.738 51.6819C367.954 49.4269 370.085 47.0554 372.081 44.6303C374.369 41.8758 376.511 39.0355 378.527 36.0998C378.769 35.7493 379.011 35.3979 379.252 35.0367C381.11 32.2709 382.842 29.4309 384.449 26.5274C384.659 26.1768 384.859 25.8149 385.047 25.4643C386.559 22.6773 387.956 19.8484 389.237 16.955C389.395 16.6044 389.552 16.2425 389.709 15.8919C390.917 13.0945 392.019 10.265 393.007 7.38252C393.133 7.03195 393.259 6.68056 393.375 6.31943C394.309 3.522 395.149 0.681946 395.873 -2.18993C395.968 -2.5405 396.062 -2.89188 396.147 -3.25302C396.84 -6.06099 397.427 -8.90091 397.91 -11.7624C397.973 -12.1129 398.036 -12.4749 398.078 -12.8255C398.541 -15.6444 398.897 -18.4839 399.149 -21.3348C399.181 -21.696 399.212 -22.0473 399.234 -22.3979C399.464 -25.2274 399.59 -28.0564 399.612 -30.9068C399.622 -31.2578 399.622 -31.6198 399.622 -31.9703C399.622 -34.8314 399.517 -37.6717 399.318 -40.4793C399.296 -40.8303 399.275 -41.1812 399.244 -41.5428C395.611 -87.693 365.885 -126.514 325.062 -142.83C324.537 -143.043 324.001 -143.255 323.466 -143.447C318.247 -145.457 312.85 -147.084 307.306 -148.318C306.351 -148.531 305.395 -148.733 304.429 -148.914C297.173 -150.349 289.687 -151.094 282.022 -151.094H199.091C198.942 -151.453 198.777 -151.802 198.622 -152.158H282.022C290.706 -152.158 299.168 -151.211 307.316 -149.392C308.188 -149.222 309.039 -149.02 309.899 -148.797C315.097 -147.531 320.168 -145.914 325.083 -143.968C325.597 -143.766 326.112 -143.553 326.626 -143.341C367.229 -126.599 396.692 -87.7034 400.293 -41.5426C400.325 -41.1917 400.357 -40.8407 400.367 -40.4791C400.577 -37.6716 400.672 -34.8313 400.672 -31.9702C400.672 -31.6196 400.672 -31.2577 400.661 -30.9067C400.64 -28.0562 400.514 -25.2273 400.283 -22.3978C400.262 -22.0472 400.241 -21.6958 400.199 -21.3347C399.958 -18.4838 399.601 -15.6443 399.149 -12.8253C399.096 -12.4642 399.034 -12.1128 398.981 -11.7622C398.498 -8.9008 397.91 -6.06087 397.228 -3.25288C397.144 -2.90231 397.06 -2.54036 396.965 -2.18979C396.241 0.68222 395.411 3.52214 394.477 6.31956C394.361 6.68069 394.246 7.03209 394.12 7.38266C393.144 10.2651 392.052 13.1051 390.844 15.892C390.697 16.2426 390.55 16.6045 390.382 16.9551C389.122 19.8485 387.736 22.6776 386.245 25.4645C386.056 25.815 385.856 26.177 385.667 26.5275C384.071 29.4311 382.36 32.271 380.523 35.0369C380.281 35.3875 380.05 35.7494 379.798 36.1C377.656 39.2805 375.346 42.354 372.878 45.3113C370.873 47.7573 368.72 50.1503 366.494 52.4158C366.305 52.6283 366.116 52.8198 365.917 53.0113C363.932 55.0324 361.79 57.0423 359.554 59.0098C357.076 61.1693 354.566 63.2007 352.078 65.0302C349.39 67.0297 346.681 68.8698 344.024 70.5077C341.263 72.2412 338.323 73.9112 335.278 75.4536C332.138 77.0596 328.904 78.5272 325.639 79.8357C322.017 81.2923 318.257 82.5797 314.477 83.6647C311.464 84.5367 308.398 85.2812 305.322 85.8872C304.975 85.9621 304.618 86.0367 304.272 86.0897C302.633 86.4088 300.996 86.6853 299.357 86.9302C298.181 87.0998 297.006 87.2597 295.83 87.3977C295.483 87.4406 295.126 87.4827 294.779 87.5252C291.987 87.8231 289.183 88.0252 286.369 88.1316C286.022 88.1531 285.676 88.1635 285.319 88.1635C284.217 88.206 283.124 88.2166 282.022 88.2166H181.337C181.337 91.078 181.243 93.9175 181.064 96.7255H228.892H229.952H238.373H239.423H247.834H248.894H257.326H258.376H266.818H267.868H276.31H277.36H282.022C283.282 96.7255 284.553 96.704 285.812 96.6615C286.159 96.6615 286.516 96.6405 286.863 96.6194C289.666 96.5234 292.469 96.3215 295.252 96.0235C295.598 95.9915 295.945 95.9594 296.291 95.9173C299.085 95.5983 301.856 95.1934 304.607 94.683C304.954 94.6299 305.3 94.566 305.636 94.4915C307.936 94.0664 310.214 93.5559 312.472 92.9924L312.545 92.9705C316.116 92.0884 319.769 91.0033 323.403 89.7479C326.72 88.5783 329.955 87.3018 332.999 85.9404C335.971 84.6219 338.942 83.1644 341.829 81.5905C344.549 80.1331 347.342 78.4846 350.104 76.6976C352.75 74.996 355.374 73.1665 357.884 71.2626C360.31 69.4441 362.777 67.4336 365.224 65.2855C367.544 63.2321 369.781 61.1261 371.87 59.0206C371.943 58.9462 372.017 58.8716 372.111 58.7652C374.327 56.5107 376.49 54.1387 378.538 51.7137C382.706 46.7787 386.486 41.5672 389.846 36.0997C390.056 35.7491 390.276 35.3978 390.487 35.0366C392.167 32.2602 393.731 29.4207 395.18 26.5273C395.369 26.1767 395.548 25.8148 395.715 25.4642C397.091 22.6772 398.362 19.8372 399.517 16.9548C399.674 16.6042 399.821 16.2529 399.947 15.8917C401.06 13.0943 402.079 10.2542 402.981 7.38237C403.097 7.0318 403.202 6.68042 403.307 6.31929C404.178 3.51131 404.945 0.681808 405.617 -2.19005C405.701 -2.54062 405.785 -2.90259 405.859 -3.25316C406.499 -6.06114 407.045 -8.90106 407.497 -11.7625C407.549 -12.1131 407.601 -12.4645 407.654 -12.8256C408.074 -15.6445 408.399 -18.4841 408.631 -21.3349C408.662 -21.6855 408.694 -22.0475 408.714 -22.398C408.924 -25.2275 409.04 -28.0565 409.061 -30.907C409.072 -31.258 409.072 -31.6199 409.072 -31.9705C409.072 -34.8315 408.977 -37.6609 408.798 -40.4794C408.778 -40.8304 408.746 -41.1919 408.725 -41.5429C405.323 -88.2037 377.257 -128.014 337.714 -147.627L337.712 -147.626L336.452 -148.244C332.82 -149.999 329.082 -151.584 325.261 -152.987L325.259 -152.988C324.724 -153.19 324.189 -153.381 323.644 -153.562L323.667 -153.554L323.67 -153.554L323.692 -153.546L323.695 -153.545L323.718 -153.537L323.72 -153.536L323.744 -153.528L323.746 -153.528L323.769 -153.52L323.772 -153.52L323.795 -153.512L323.797 -153.511L323.82 -153.503L323.823 -153.502L323.846 -153.494L323.848 -153.494L323.871 -153.486L323.873 -153.485L323.897 -153.477L323.925 -153.468L323.948 -153.46L323.95 -153.46L323.973 -153.451L323.975 -153.451L323.999 -153.443L324.001 -153.442L324.024 -153.434L324.026 -153.434L324.049 -153.425L324.051 -153.425L324.075 -153.417L324.077 -153.416L324.1 -153.408L324.102 -153.408L324.125 -153.399L324.128 -153.399L324.151 -153.39L324.153 -153.39L324.176 -153.382L324.178 -153.381L324.202 -153.373L324.204 -153.372L324.227 -153.364L324.229 -153.364L324.252 -153.355L324.255 -153.355L324.278 -153.346L324.279 -153.346L324.303 -153.338L324.305 -153.337L324.328 -153.329L324.33 -153.328L324.353 -153.32L324.355 -153.32L324.379 -153.311L324.38 -153.311L324.404 -153.302L324.405 -153.302L324.454 -153.284L324.456 -153.284L324.479 -153.275L324.481 -153.275L324.505 -153.266L324.529 -153.257L324.531 -153.257L324.555 -153.249L324.556 -153.248L324.58 -153.239L324.605 -153.231L324.606 -153.23L324.63 -153.221L324.655 -153.212L324.68 -153.203L324.705 -153.194L324.732 -153.185L324.756 -153.176L324.781 -153.167L324.806 -153.158L324.856 -153.139L324.906 -153.121L324.957 -153.102L324.981 -153.093L325.007 -153.084L325.031 -153.075L325.057 -153.065L325.082 -153.056L325.106 -153.046L325.132 -153.037L325.157 -153.028L325.182 -153.018L325.207 -153.009L325.232 -152.999L325.257 -152.99L323.64 -153.564C318.37 -155.436 312.931 -156.946 307.378 -158.095C306.422 -158.286 305.477 -158.478 304.522 -158.647C297.214 -159.977 289.696 -160.669 282.02 -160.669H191.649C191.433 -161.029 191.199 -161.376 190.976 -161.732H211.28H213.086H228.742H230.915H252.074H255.591H282.02C290.703 -161.732 299.175 -160.849 307.375 -159.18H307.378C308.227 -159.01 309.077 -158.818 309.927 -158.627L309.929 -158.626C315.168 -157.446 320.281 -155.936 325.257 -154.128L325.259 -154.128C325.773 -153.936 326.287 -153.745 326.801 -153.543L326.803 -153.542C330.53 -152.139 334.183 -150.555 337.731 -148.8L337.733 -148.799C338.153 -148.597 338.561 -148.395 338.97 -148.193L338.972 -148.193C378.442 -128.26 406.393 -88.3116 409.774 -41.5448H424.998H578.235C624.247 -41.5448 664.671 -16.8479 687.257 20.144H807.02C835.388 20.1414 858.465 -3.2365 858.465 -31.972C858.465 -60.7091 835.385 -84.0887 807.015 -84.0887L716.728 -84.0891C716.95 -84.4443 717.184 -84.7915 717.401 -85.1518H807.015C835.964 -85.1518 859.516 -61.2962 859.516 -31.972C859.516 -2.6481 835.964 21.2083 807.015 21.2083L687.898 21.2079C689.557 23.9835 691.121 26.8129 692.56 29.7164H807.02C840.599 29.7138 867.915 2.04189 867.915 -31.972C867.915 -65.988 840.596 -93.6612 807.015 -93.6612H722.36C722.514 -94.0167 722.68 -94.3661 722.828 -94.7247H807.015C841.175 -94.7243 868.965 -66.5738 868.965 -31.972C868.965 2.62947 841.175 30.7807 807.015 30.7807L693.095 30.7803C694.46 33.5559 695.72 36.3959 696.886 39.2889H807.02C845.809 39.2863 877.365 7.31985 877.365 -31.972C877.365 -71.2655 845.807 -103.233 807.016 -103.234H725.057C725.155 -103.589 725.263 -103.94 725.355 -104.297H807.015C846.385 -104.297 878.415 -71.8518 878.415 -31.972C878.415 7.90785 846.385 40.3532 807.015 40.3532L697.305 40.3524C698.408 43.1394 699.406 45.9789 700.319 48.8613H807.02C851.02 48.8587 886.815 12.5984 886.815 -31.972C886.815 -76.5443 851.018 -112.806 807.015 -112.806L727.013 -112.806C727.061 -113.159 727.103 -113.515 727.146 -113.869H807.015C851.596 -113.869 887.865 -77.1306 887.865 -31.9718C887.865 13.1865 851.596 49.9259 807.015 49.9259L700.644 49.9251C701.495 52.7225 702.261 55.562 702.934 58.434H807.02C856.23 58.4315 896.265 17.877 896.265 -31.9717C896.265 -81.8222 856.228 -122.378 807.016 -122.378H727.811C727.812 -122.556 727.823 -122.732 727.823 -122.91C727.823 -123.089 727.812 -123.263 727.811 -123.442H807.015C856.807 -123.441 897.315 -82.4084 897.315 -31.9717C897.315 18.465 856.807 59.4985 807.015 59.4985L703.175 59.4977C703.805 62.2951 704.34 65.1346 704.782 68.0066H807.02C861.441 68.004 905.715 23.1551 905.715 -31.9717C905.715 -87.1002 861.439 -131.95 807.015 -131.951H728.169C728.125 -132.305 728.084 -132.661 728.035 -133.014H807.015C862.018 -133.014 906.765 -87.6868 906.765 -31.9717C906.765 23.743 862.018 69.0709 807.015 69.0709L704.939 69.0701C705.359 71.8781 705.674 74.7176 705.905 77.579H807.02C866.651 77.5765 915.165 28.4335 915.165 -31.9717C915.165 -92.3785 866.649 -141.523 807.015 -141.523L726.903 -141.524C726.811 -141.88 726.704 -142.232 726.606 -142.586H807.015C867.229 -142.586 916.216 -92.9649 916.216 -31.9717C916.216 29.021 867.229 78.6433 807.015 78.6433L705.989 78.6425C706.199 81.4505 706.304 84.29 706.325 87.1515H807.02C808.122 87.1515 809.225 87.1409 810.327 87.098C810.674 87.098 811.031 87.0874 811.378 87.077C814.192 86.9705 817.005 86.758 819.799 86.4495C820.145 86.4176 820.502 86.3751 820.849 86.3322C821.972 86.2047 823.096 86.056 824.209 85.8856C825.91 85.6306 827.621 85.3435 829.322 85.0141C829.669 84.9396 830.015 84.8756 830.373 84.8007C833.334 84.1947 836.283 83.4716 839.182 82.6422C842.93 81.5677 846.658 80.2812 850.259 78.8342C853.483 77.5472 856.696 76.0902 859.804 74.4946C862.818 72.9736 865.736 71.3251 868.477 69.5912C871.112 67.975 873.8 66.1557 876.456 64.1777C878.913 62.3592 881.412 60.3488 883.859 58.2007C886.085 56.2538 888.206 54.2542 890.18 52.2657C890.358 52.0741 890.547 51.8828 890.736 51.6803C892.952 49.4253 895.083 47.0537 897.079 44.6287C899.367 41.8742 901.509 39.0338 903.525 36.0982C903.767 35.7477 904.009 35.3963 904.25 35.0351C906.108 32.2692 907.841 29.4293 909.447 26.5258C909.657 26.1752 909.857 25.8132 910.045 25.4627C911.557 22.6757 912.954 19.8467 914.235 16.9533C914.393 16.6028 914.55 16.2408 914.708 15.8903C915.915 13.0928 917.018 10.2633 918.005 7.38089C918.131 7.03032 918.257 6.67894 918.373 6.31781C919.307 3.52039 920.147 0.680313 920.871 -2.19156C920.966 -2.54213 921.06 -2.89351 921.145 -3.25465C921.838 -6.06262 922.425 -8.90254 922.909 -11.764C922.971 -12.1146 923.034 -12.4765 923.076 -12.8271C923.539 -15.646 923.895 -18.4855 924.147 -21.3364C924.179 -21.6976 924.21 -22.049 924.232 -22.3995C924.462 -25.229 924.588 -28.058 924.61 -30.9085C924.62 -31.2594 924.62 -31.6214 924.62 -31.972C924.62 -34.833 924.515 -37.6733 924.316 -40.4809C924.294 -40.8319 924.273 -41.1829 924.242 -41.5444C920.609 -87.6946 890.883 -126.516 850.06 -142.832C849.535 -143.044 848.999 -143.257 848.464 -143.448C843.245 -145.459 837.848 -147.086 832.304 -148.32C831.349 -148.532 830.393 -148.735 829.427 -148.916C822.171 -150.351 814.685 -151.096 807.02 -151.096H724.089C723.94 -151.455 723.775 -151.803 723.621 -152.16H807.02C815.704 -152.16 824.166 -151.213 832.314 -149.394C833.186 -149.224 834.037 -149.022 834.897 -148.798C840.095 -147.532 845.166 -145.916 850.081 -143.969C850.595 -143.767 851.11 -143.555 851.624 -143.342C892.228 -126.601 921.69 -87.7051 925.292 -41.5443C925.323 -41.1933 925.355 -40.8423 925.365 -40.4808C925.575 -37.6732 925.67 -34.8329 925.67 -31.9718C925.67 -31.6212 925.67 -31.2593 925.659 -30.9083C925.638 -28.0578 925.512 -25.2289 925.281 -22.3994C925.26 -22.0488 925.24 -21.6974 925.197 -21.3363C924.956 -18.4854 924.599 -15.6459 924.147 -12.827C924.094 -12.4658 924.032 -12.1144 923.979 -11.7639C923.496 -8.90242 922.909 -6.0625 922.226 -3.25452C922.142 -2.90395 922.058 -2.54199 921.963 -2.19141C921.239 0.680588 920.409 3.52052 919.475 6.31795C919.359 6.67908 919.244 7.03046 919.118 7.38103C918.142 10.2635 917.05 13.1035 915.841 15.8904C915.695 16.241 915.548 16.6029 915.38 16.9535C914.12 19.8469 912.734 22.676 911.243 25.4628C911.054 25.8134 910.854 26.1754 910.665 26.5259C909.069 29.4295 907.358 32.2694 905.521 35.0353C905.279 35.3858 905.048 35.7478 904.796 36.0984C902.654 39.2788 900.344 42.3524 897.876 45.3097C895.871 47.7557 893.718 50.1487 891.492 52.4141C891.303 52.6267 891.114 52.8182 890.915 53.0097C888.93 55.0307 886.788 57.0407 884.552 59.0082C882.074 61.1677 879.564 63.1991 877.076 65.0286C874.388 67.0281 871.679 68.8681 869.022 70.5061C866.261 72.2396 863.321 73.9096 860.276 75.452C857.137 77.058 853.903 78.5256 850.637 79.8341C847.015 81.2906 843.255 82.578 839.476 83.663C836.462 84.535 833.396 85.2796 830.32 85.8856C829.973 85.9605 829.616 86.035 829.27 86.0881C827.631 86.4071 825.994 86.6837 824.356 86.9285C823.179 87.0981 822.004 87.2581 820.828 87.3961C820.481 87.439 820.124 87.481 819.777 87.5235C816.984 87.8215 814.181 88.0236 811.367 88.13C811.02 88.1515 810.674 88.1619 810.317 88.1619C809.215 88.2044 808.122 88.215 807.02 88.215H706.336C706.336 91.0764 706.241 93.916 706.062 96.7239H753.89H754.951H763.372H764.422H772.832H773.893H782.324H783.375H791.816H792.866H801.308H802.358H807.02C808.28 96.7239 809.551 96.7024 810.811 96.6599C811.157 96.6599 811.514 96.6389 811.861 96.6178C814.664 96.5218 817.468 96.3199 820.25 96.0218C820.596 95.9899 820.943 95.9578 821.289 95.9157C824.083 95.5967 826.855 95.1918 829.605 94.6814C829.952 94.6283 830.298 94.5644 830.635 94.4898C832.934 94.0648 835.212 93.5543 837.47 92.9908L837.544 92.9688C841.114 92.0867 844.767 91.0017 848.401 89.7463C851.718 88.5766 854.953 87.3002 857.998 85.9388C860.969 84.6203 863.94 83.1628 866.828 81.5888C869.547 80.1315 872.34 78.4829 875.102 76.696C877.748 74.9944 880.373 73.1649 882.882 71.261C885.308 69.4424 887.775 67.432 890.222 65.2839C892.542 63.2305 894.779 61.1245 896.868 59.019C896.941 58.9446 897.015 58.87 897.11 58.7636C899.325 56.5091 901.488 54.1371 903.536 51.7121C907.704 46.7771 911.484 41.5656 914.844 36.0981C915.055 35.7475 915.275 35.3961 915.485 35.035C917.165 32.2586 918.729 29.419 920.178 26.5257C920.367 26.1751 920.546 25.8131 920.714 25.4625C922.089 22.6755 923.36 19.8356 924.515 16.9532C924.672 16.6026 924.819 16.2512 924.945 15.8901C926.058 13.0927 927.077 10.2526 927.98 7.38077C928.095 7.0302 928.201 6.6788 928.305 6.31767C929.177 3.50969 929.943 0.680191 930.615 -2.19168C930.699 -2.54225 930.784 -2.90419 930.857 -3.25476C931.497 -6.06274 932.043 -8.90269 932.495 -11.7641C932.547 -12.1147 932.6 -12.4661 932.652 -12.8272C933.072 -15.6462 933.398 -18.4857 933.629 -21.3366C933.66 -21.6871 933.692 -22.0491 933.713 -22.3997C933.922 -25.2292 934.038 -28.0581 934.06 -30.9086C934.07 -31.2596 934.07 -31.6215 934.07 -31.9721C934.07 -34.8332 933.975 -37.6625 933.797 -40.481C933.776 -40.832 933.744 -41.1936 933.723 -41.5445C930.321 -88.2053 902.255 -128.016 862.712 -147.629L862.71 -147.629L862.691 -147.639L862.672 -147.649L862.652 -147.659L862.633 -147.669L862.614 -147.679L862.595 -147.689L862.576 -147.699L862.556 -147.709L862.537 -147.719L862.518 -147.729L862.498 -147.739L862.479 -147.748L862.46 -147.758L862.441 -147.768L862.421 -147.778L862.402 -147.788L862.382 -147.798L862.363 -147.807L862.343 -147.817L862.324 -147.827L862.304 -147.837L862.285 -147.847L862.265 -147.856L862.246 -147.866L862.226 -147.875L862.207 -147.885L862.187 -147.895L862.069 -147.952L862.01 -147.981L861.991 -147.99L861.989 -147.991L861.952 -148.009L861.95 -148.01L861.932 -148.019L861.93 -148.019L861.912 -148.029L861.91 -148.029L861.892 -148.038L861.891 -148.038L861.872 -148.047L861.871 -148.048L861.852 -148.057L861.851 -148.057L861.753 -148.104L861.751 -148.105L861.713 -148.123L861.711 -148.124L861.673 -148.142L861.671 -148.143L861.653 -148.152L861.651 -148.152L861.633 -148.161L861.631 -148.162L861.613 -148.17L861.611 -148.171L861.593 -148.18L861.59 -148.181L861.573 -148.189L861.57 -148.19L861.553 -148.199L861.55 -148.199L861.532 -148.208L861.53 -148.209L861.512 -148.217L861.51 -148.218L861.492 -148.227L861.489 -148.228L861.472 -148.236L861.469 -148.237L861.451 -148.245L861.449 -148.247C857.817 -150.001 854.08 -151.586 850.258 -152.989L850.256 -152.99L850.231 -152.999L850.206 -153.009L850.181 -153.018L850.156 -153.028L850.131 -153.037L850.106 -153.046L850.081 -153.056L850.056 -153.065L850.031 -153.074L850.006 -153.084L849.981 -153.093L849.956 -153.102L849.906 -153.121L849.856 -153.139L849.805 -153.158L849.781 -153.167L849.756 -153.176L849.731 -153.185L849.704 -153.194L849.68 -153.203L849.656 -153.212L849.63 -153.221L849.605 -153.23L849.604 -153.231L849.58 -153.239L849.555 -153.248L849.554 -153.249L849.53 -153.257L849.528 -153.257L849.505 -153.266L849.48 -153.275L849.478 -153.275L849.455 -153.284L849.453 -153.284L849.404 -153.302L849.403 -153.302L849.379 -153.311L849.378 -153.311L849.354 -153.319L849.352 -153.32L849.329 -153.328L849.327 -153.329L849.304 -153.337L849.302 -153.337L849.278 -153.346L849.277 -153.346L849.254 -153.355L849.251 -153.355L849.228 -153.363L849.226 -153.364L849.203 -153.372L849.201 -153.373L849.177 -153.381L849.175 -153.381L849.152 -153.39L849.15 -153.39L849.127 -153.399L849.125 -153.399L849.101 -153.407L849.099 -153.408L849.076 -153.416L849.074 -153.417L849.05 -153.425L849.048 -153.425L849.025 -153.433L849.023 -153.434L849 -153.442L848.998 -153.443L848.974 -153.451L848.972 -153.451L848.949 -153.459L848.947 -153.46L848.924 -153.468L848.896 -153.477L848.872 -153.485L848.87 -153.485L848.847 -153.494L848.845 -153.494L848.822 -153.502L848.819 -153.503L848.796 -153.511L848.794 -153.511L848.77 -153.519L848.768 -153.52L848.745 -153.528L848.743 -153.528L848.719 -153.536L848.717 -153.537L848.694 -153.545L848.691 -153.545L848.669 -153.553L848.666 -153.554L848.643 -153.562L848.64 -153.562C843.371 -155.434 837.932 -156.944 832.378 -158.093C831.423 -158.284 830.478 -158.476 829.522 -158.645C822.214 -159.975 814.696 -160.667 807.021 -160.667H716.65C716.433 -161.027 716.199 -161.374 715.977 -161.73H736.281H738.087H753.742H755.916H777.075H780.592H807.021C815.703 -161.73 824.176 -160.847 832.376 -159.178H832.378C833.228 -159.008 834.078 -158.816 834.928 -158.625L834.93 -158.624C840.169 -157.444 845.282 -155.934 850.258 -154.126L850.26 -154.126C850.773 -153.934 851.287 -153.743 851.801 -153.541L851.804 -153.54C855.53 -152.137 859.184 -150.553 862.732 -148.798L862.734 -148.797C863.154 -148.595 863.562 -148.393 863.97 -148.191L863.973 -148.191C903.443 -128.258 931.393 -88.3096 934.774 -41.5428H949.998H1103.24C1149.25 -41.5428 1189.67 -16.8458 1212.26 20.146H1332.02C1360.39 20.1434 1383.47 -3.23448 1383.47 -31.9699C1383.47 -60.707 1360.39 -84.0867 1332.02 -84.0867L1241.73 -84.0871C1241.95 -84.4423 1242.18 -84.7895 1242.4 -85.1498H1332.02C1360.96 -85.1498 1384.52 -61.2942 1384.52 -31.9699C1384.52 -2.64609 1360.96 21.2103 1332.02 21.2103L1212.9 21.2099C1214.56 23.9855 1216.12 26.8149 1217.56 29.7184H1332.02C1365.6 29.7159 1392.92 2.0439 1392.92 -31.9699C1392.92 -65.986 1365.6 -93.6591 1332.02 -93.6591H1247.36C1247.51 -94.0147 1247.68 -94.3641 1247.83 -94.7226H1332.02C1366.17 -94.7222 1393.97 -66.5718 1393.97 -31.9699C1393.97 2.63148 1366.17 30.7827 1332.02 30.7827L1218.1 30.7824C1219.46 33.558 1220.72 36.3979 1221.89 39.2909H1332.02C1370.81 39.2883 1402.37 7.32187 1402.37 -31.9699C1402.37 -71.2635 1370.81 -103.231 1332.02 -103.232H1250.06C1250.16 -103.587 1250.26 -103.938 1250.36 -104.295H1332.02C1371.39 -104.295 1403.41 -71.8498 1403.41 -31.9699C1403.41 7.90987 1371.39 40.3552 1332.02 40.3552L1222.31 40.3544C1223.41 43.1414 1224.41 45.9809 1225.32 48.8633H1332.02C1376.02 48.8608 1411.82 12.6004 1411.82 -31.9699C1411.82 -76.5423 1376.02 -112.804 1332.02 -112.804L1252.01 -112.804C1252.06 -113.157 1252.1 -113.513 1252.15 -113.867H1332.02C1376.6 -113.867 1412.87 -77.1285 1412.87 -31.9698C1412.87 13.1885 1376.6 49.9279 1332.02 49.9279L1225.64 49.9271C1226.5 52.7245 1227.26 55.564 1227.93 58.4361H1332.02C1381.23 58.4335 1421.27 17.879 1421.27 -31.9697C1421.27 -81.8201 1381.23 -122.376 1332.02 -122.376H1252.81C1252.81 -122.554 1252.82 -122.73 1252.82 -122.908C1252.82 -123.087 1252.81 -123.261 1252.81 -123.44H1332.02C1381.81 -123.439 1422.32 -82.4064 1422.32 -31.9697C1422.32 18.467 1381.81 59.5005 1332.02 59.5005L1228.18 59.4997C1228.81 62.2971 1229.34 65.1366 1229.78 68.0086H1332.02C1386.44 68.006 1430.72 23.1572 1430.72 -31.9697C1430.72 -87.0981 1386.44 -131.948 1332.02 -131.949H1253.17C1253.13 -132.303 1253.08 -132.659 1253.04 -133.012H1332.02C1387.02 -133.012 1431.77 -87.6848 1431.77 -31.9697C1431.77 23.745 1387.02 69.073 1332.02 69.073L1229.94 69.0721C1230.36 71.8801 1230.67 74.7196 1230.91 77.581H1332.02C1391.65 77.5785 1440.17 28.4355 1440.17 -31.9697C1440.17 -92.3765 1391.65 -141.521 1332.02 -141.521L1251.9 -141.522C1251.81 -141.878 1251.7 -142.23 1251.61 -142.584H1332.02C1392.23 -142.584 1441.22 -92.9629 1441.22 -31.9697C1441.22 29.023 1392.23 78.6454 1332.02 78.6454L1230.99 78.6445C1231.2 81.4525 1231.3 84.2921 1231.33 87.1535H1332.02C1333.12 87.1535 1334.23 87.1429 1335.33 87.1C1335.67 87.1 1336.03 87.0895 1336.38 87.0791C1339.19 86.9725 1342.01 86.76 1344.8 86.4515C1345.15 86.4196 1345.5 86.3771 1345.85 86.3342C1346.97 86.2067 1348.1 86.0581 1349.21 85.8876C1350.91 85.6326 1352.62 85.3455 1354.32 85.0161C1354.67 84.9416 1355.02 84.8776 1355.37 84.8027C1358.33 84.1967 1361.28 83.4737 1364.18 82.6442C1367.93 81.5698 1371.66 80.2832 1375.26 78.8362C1378.48 77.5492 1381.7 76.0923 1384.8 74.4967C1387.82 72.9757 1390.74 71.3271 1393.48 69.5932C1396.11 67.9771 1398.8 66.1577 1401.46 64.1798C1403.91 62.3613 1406.41 60.3508 1408.86 58.2027C1411.08 56.2558 1413.21 54.2562 1415.18 52.2677C1415.36 52.0762 1415.55 51.8848 1415.74 51.6823C1417.95 49.4274 1420.08 47.0558 1422.08 44.6307C1424.37 41.8762 1426.51 39.0359 1428.53 36.1003C1428.77 35.7497 1429.01 35.3983 1429.25 35.0372C1431.11 32.2713 1432.84 29.4314 1434.45 26.5278C1434.66 26.1772 1434.86 25.8153 1435.05 25.4647C1436.56 22.6777 1437.95 19.8488 1439.24 16.9554C1439.39 16.6048 1439.55 16.2428 1439.71 15.8923C1440.92 13.0948 1442.02 10.2653 1443.01 7.38292C1443.13 7.03233 1443.26 6.68097 1443.37 6.31984C1444.31 3.52242 1445.15 0.682358 1445.87 -2.18951C1445.97 -2.54008 1446.06 -2.89148 1446.14 -3.25262C1446.84 -6.06059 1447.43 -8.90051 1447.91 -11.762C1447.97 -12.1125 1448.03 -12.4745 1448.08 -12.8251C1448.54 -15.644 1448.9 -18.4835 1449.15 -21.3344C1449.18 -21.6955 1449.21 -22.0469 1449.23 -22.3975C1449.46 -25.227 1449.59 -28.056 1449.61 -30.9064C1449.62 -31.2574 1449.62 -31.6194 1449.62 -31.9699C1449.62 -34.831 1449.51 -37.6713 1449.32 -40.4789C1449.29 -40.8299 1449.27 -41.1809 1449.24 -41.5424C1445.61 -87.6926 1415.88 -126.514 1375.06 -142.83C1374.54 -143.042 1374 -143.255 1373.46 -143.446C1368.25 -145.457 1362.85 -147.084 1357.3 -148.318C1356.35 -148.53 1355.39 -148.732 1354.43 -148.913C1347.17 -150.349 1339.69 -151.094 1332.02 -151.094H1249.09C1248.94 -151.452 1248.78 -151.801 1248.62 -152.158H1332.02C1340.7 -152.158 1349.17 -151.211 1357.31 -149.392C1358.19 -149.222 1359.04 -149.02 1359.9 -148.796C1365.1 -147.53 1370.17 -145.914 1375.08 -143.967C1375.6 -143.765 1376.11 -143.553 1376.62 -143.34C1417.23 -126.599 1446.69 -87.703 1450.29 -41.5422C1450.32 -41.1913 1450.35 -40.8403 1450.37 -40.4788C1450.58 -37.6712 1450.67 -34.8308 1450.67 -31.9698C1450.67 -31.6192 1450.67 -31.2573 1450.66 -30.9063C1450.64 -28.0558 1450.51 -25.2269 1450.28 -22.3974C1450.26 -22.0468 1450.24 -21.6954 1450.2 -21.3343C1449.96 -18.4834 1449.6 -15.6439 1449.15 -12.8249C1449.09 -12.4638 1449.03 -12.1124 1448.98 -11.7618C1448.5 -8.90038 1447.91 -6.06046 1447.23 -3.25247C1447.14 -2.9019 1447.06 -2.53996 1446.96 -2.18938C1446.24 0.682617 1445.41 3.52254 1444.48 6.31996C1444.36 6.68109 1444.24 7.03249 1444.12 7.38307C1443.14 10.2655 1442.05 13.1056 1440.84 15.8924C1440.7 16.243 1440.55 16.6049 1440.38 16.9555C1439.12 19.8489 1437.73 22.678 1436.24 25.4648C1436.05 25.8154 1435.85 26.1774 1435.67 26.5279C1434.07 29.4315 1432.36 32.2714 1430.52 35.0373C1430.28 35.3879 1430.05 35.7498 1429.8 36.1004C1427.65 39.2809 1425.34 42.3544 1422.88 45.3117C1420.87 47.7577 1418.72 50.1507 1416.49 52.4162C1416.3 52.6287 1416.11 52.8202 1415.92 53.0117C1413.93 55.0328 1411.79 57.0427 1409.55 59.0102C1407.07 61.1697 1404.56 63.2011 1402.08 65.0306C1399.39 67.0301 1396.68 68.8701 1394.02 70.5081C1391.26 72.2416 1388.32 73.9117 1385.28 75.4541C1382.14 77.0601 1378.9 78.5276 1375.64 79.8361C1372.02 81.2927 1368.26 82.58 1364.48 83.6651C1361.46 84.537 1358.4 85.2817 1355.32 85.8876C1354.97 85.9625 1354.62 86.037 1354.27 86.0901C1352.63 86.4091 1350.99 86.6857 1349.36 86.9306C1348.18 87.1002 1347 87.2601 1345.83 87.3981C1345.48 87.441 1345.12 87.4831 1344.78 87.5256C1341.98 87.8235 1339.18 88.0256 1336.37 88.132C1336.02 88.1535 1335.67 88.1639 1335.32 88.1639C1334.22 88.2064 1333.12 88.217 1332.02 88.217H1231.34C1231.34 91.0784 1231.24 93.918 1231.06 96.726H1278.89H1279.95H1288.37H1289.42H1297.83H1298.89H1307.32H1308.37H1316.82H1317.87H1326.31H1327.36H1332.02C1333.28 96.726 1334.55 96.7044 1335.81 96.6619C1336.16 96.6619 1336.51 96.6409 1336.86 96.6198C1339.66 96.5238 1342.47 96.3219 1345.25 96.0239C1345.6 95.9919 1345.94 95.9598 1346.29 95.9177C1349.08 95.5987 1351.85 95.1938 1354.61 94.6834C1354.95 94.6304 1355.3 94.5665 1355.64 94.4919C1357.93 94.0669 1360.21 93.5563 1362.47 92.9928L1362.54 92.9709C1366.11 92.0887 1369.77 91.0037 1373.4 89.7483C1376.72 88.5787 1379.95 87.3023 1383 85.9408C1385.97 84.6223 1388.94 83.1648 1391.83 81.5909C1394.55 80.1335 1397.34 78.485 1400.1 76.698C1402.75 74.9964 1405.37 73.1669 1407.88 71.263C1410.31 69.4445 1412.78 67.434 1415.22 65.2859C1417.54 63.2325 1419.78 61.1265 1421.87 59.021C1421.94 58.9466 1422.02 58.872 1422.11 58.7656C1424.33 56.5111 1426.49 54.1391 1428.54 51.7141C1432.7 46.7791 1436.48 41.5676 1439.84 36.1001C1440.05 35.7495 1440.28 35.3982 1440.49 35.037C1442.17 32.2606 1443.73 29.4211 1445.18 26.5277C1445.37 26.1771 1445.55 25.8152 1445.71 25.4646C1447.09 22.6776 1448.36 19.8377 1449.51 16.9552C1449.67 16.6047 1449.82 16.2533 1449.95 15.8921C1451.06 13.0947 1452.08 10.2547 1452.98 7.3828C1453.1 7.03223 1453.2 6.68083 1453.31 6.31969C1454.18 3.51172 1454.94 0.682205 1455.62 -2.18967C1455.7 -2.54024 1455.78 -2.90218 1455.86 -3.25275C1456.5 -6.06073 1457.04 -8.90065 1457.5 -11.7621C1457.55 -12.1127 1457.6 -12.4641 1457.65 -12.8252C1458.07 -15.6441 1458.4 -18.4836 1458.63 -21.3345C1458.66 -21.6851 1458.69 -22.0471 1458.71 -22.3976C1458.92 -25.2271 1459.04 -28.0561 1459.06 -30.9066C1459.07 -31.2576 1459.07 -31.6195 1459.07 -31.9701C1459.07 -34.8311 1458.98 -37.6605 1458.8 -40.479C1458.78 -40.83 1458.74 -41.1915 1458.72 -41.5425C1455.32 -88.2033 1427.26 -128.014 1387.71 -147.627L1387.71 -147.627L1387.69 -147.637L1387.67 -147.647L1387.65 -147.657L1387.63 -147.667L1387.61 -147.677L1387.6 -147.687L1387.58 -147.697L1387.56 -147.707L1387.54 -147.717L1387.52 -147.727L1387.5 -147.737L1387.48 -147.746L1387.46 -147.756L1387.44 -147.766L1387.42 -147.776L1387.4 -147.786L1387.38 -147.796L1387.36 -147.805L1387.34 -147.815L1387.32 -147.825L1387.3 -147.835L1387.29 -147.845L1387.27 -147.854L1387.25 -147.864L1387.23 -147.873L1387.21 -147.883L1387.19 -147.893L1387.07 -147.95L1387.01 -147.979L1386.99 -147.988L1386.99 -147.989L1386.95 -148.007L1386.95 -148.008L1386.93 -148.017L1386.93 -148.017L1386.91 -148.027L1386.91 -148.027L1386.89 -148.036L1386.89 -148.036L1386.87 -148.045L1386.87 -148.046L1386.85 -148.055L1386.85 -148.055L1386.75 -148.102L1386.75 -148.103L1386.71 -148.121L1386.71 -148.122L1386.67 -148.14L1386.67 -148.141L1386.65 -148.15L1386.65 -148.15L1386.63 -148.159L1386.63 -148.16L1386.61 -148.168L1386.61 -148.169L1386.59 -148.178L1386.59 -148.178L1386.57 -148.187L1386.57 -148.188L1386.55 -148.196L1386.55 -148.197L1386.53 -148.206L1386.53 -148.207L1386.51 -148.215L1386.51 -148.216L1386.49 -148.225L1386.49 -148.226L1386.47 -148.234L1386.47 -148.235L1386.45 -148.243L1386.45 -148.245C1382.82 -149.999 1379.08 -151.584 1375.26 -152.987L1375.26 -152.988L1375.23 -152.997L1375.21 -153.007L1375.18 -153.016L1375.13 -153.035L1375.11 -153.044L1375.06 -153.063L1374.98 -153.091L1374.93 -153.11L1374.8 -153.156L1374.78 -153.165L1374.76 -153.174L1374.73 -153.183L1374.7 -153.192L1374.68 -153.201L1374.66 -153.21L1374.63 -153.219L1374.6 -153.228L1374.58 -153.237L1374.55 -153.246L1374.53 -153.255L1374.53 -153.255L1374.5 -153.264L1374.48 -153.273L1374.48 -153.273L1374.45 -153.282L1374.45 -153.282L1374.43 -153.291L1374.4 -153.3L1374.4 -153.3L1374.38 -153.309L1374.38 -153.309L1374.35 -153.317L1374.35 -153.318L1374.33 -153.326L1374.33 -153.327L1374.3 -153.335L1374.3 -153.335L1374.28 -153.344L1374.28 -153.344L1374.25 -153.353L1374.25 -153.353L1374.23 -153.361L1374.23 -153.362L1374.2 -153.37L1374.2 -153.371L1374.18 -153.379L1374.18 -153.379L1374.15 -153.388L1374.15 -153.388L1374.13 -153.397L1374.12 -153.397L1374.1 -153.405L1374.1 -153.406L1374.08 -153.414L1374.07 -153.415L1374.05 -153.423L1374.05 -153.423L1374.03 -153.431L1374.02 -153.432L1374 -153.44L1374 -153.441L1373.97 -153.449L1373.97 -153.449L1373.95 -153.457L1373.95 -153.458L1373.92 -153.466L1373.92 -153.466L1373.9 -153.475L1373.9 -153.475L1373.87 -153.483L1373.87 -153.483L1373.85 -153.492L1373.85 -153.492L1373.82 -153.5L1373.82 -153.501L1373.8 -153.509L1373.79 -153.509L1373.77 -153.517L1373.77 -153.518L1373.75 -153.526L1373.74 -153.526L1373.72 -153.534L1373.72 -153.535L1373.69 -153.543L1373.69 -153.543L1373.67 -153.551L1373.67 -153.552L1373.64 -153.56L1373.64 -153.56C1368.37 -155.432 1362.93 -156.942 1357.38 -158.091C1356.42 -158.282 1355.48 -158.474 1354.52 -158.643C1347.21 -159.973 1339.7 -160.665 1332.02 -160.665H1241.65C1241.43 -161.025 1241.2 -161.372 1240.98 -161.728H1261.28H1263.09H1278.74H1280.92H1302.07H1305.59H1332.02C1340.7 -161.728 1349.18 -160.845 1357.38 -159.176H1357.38C1358.23 -159.006 1359.08 -158.814 1359.93 -158.623L1359.93 -158.622C1365.17 -157.442 1370.28 -155.932 1375.26 -154.124L1375.26 -154.124C1375.77 -153.932 1376.29 -153.741 1376.8 -153.539L1376.8 -153.538C1380.53 -152.135 1384.18 -150.55 1387.73 -148.796L1387.73 -148.795C1388.15 -148.593 1388.56 -148.391 1388.97 -148.189L1388.97 -148.189C1428.44 -128.256 1456.39 -88.3075 1459.77 -41.5408H1475V-40.4773H1459.85C1460.03 -37.6697 1460.12 -34.8294 1460.12 -31.9683H1475V-30.9048H1460.11C1460.09 -28.0649 1459.97 -25.2254 1459.76 -22.3959H1475V-21.3328H1459.69C1459.46 -18.4819 1459.13 -15.6424 1458.71 -12.8234H1475V-11.7603H1458.56C1458.12 -8.89888 1457.58 -6.05896 1456.94 -3.25099H1475V-2.18788H1456.7C1456.04 0.673569 1455.27 3.51347 1454.41 6.32146H1475V7.38455H1454.08C1453.18 10.2565 1452.18 13.0965 1451.08 15.8939H1475V16.957H1450.66C1449.51 19.8394 1448.25 22.6795 1446.88 25.4663H1475V26.5294H1446.36C1444.93 29.4228 1443.37 32.2623 1441.71 35.0388H1475V36.1019H1441.08C1437.61 41.8033 1433.68 47.2594 1429.34 52.3967C1427.28 54.8533 1425.09 57.2467 1422.87 59.4908C1422.78 59.5969 1422.7 59.6823 1422.59 59.7778C1420.5 61.9052 1418.26 64.0218 1415.92 66.0957C1413.44 68.2548 1410.95 70.2863 1408.51 72.1162C1405.97 74.0306 1403.34 75.8811 1400.67 77.5932C1397.88 79.4016 1395.06 81.0607 1392.32 82.5286C1389.41 84.1135 1386.42 85.5916 1383.42 86.9211C1380.34 88.2931 1377.09 89.58 1373.74 90.7501C1370.06 92.037 1366.36 93.1326 1362.73 94.026L1362.67 94.0365C1360.39 94.611 1358.09 95.111 1355.78 95.547C1357.66 109.026 1364.65 120.861 1374.69 128.976H1373.05C1363.34 120.737 1356.6 109.027 1354.74 95.7385C1351.99 96.2491 1349.22 96.653 1346.44 96.972C1348.15 109.138 1353.38 120.17 1361.04 128.976H1359.67C1352.18 120.127 1347.08 109.16 1345.39 97.0891C1342.6 97.3762 1339.8 97.5786 1336.99 97.6847C1338.51 109.211 1342.77 119.865 1349.06 128.977H1347.78C1341.6 119.838 1337.43 109.208 1335.94 97.7276C1334.64 97.7697 1333.33 97.7911 1332.02 97.7911H1327.47C1328.79 109.053 1332.4 119.613 1337.82 128.976H1336.63C1331.29 119.588 1327.72 109.037 1326.42 97.7911H1317.97C1319.13 108.908 1322.3 119.424 1327.08 128.976H1325.91C1321.19 119.407 1318.06 108.896 1316.91 97.7911H1308.47C1309.51 108.8 1312.32 119.292 1316.6 128.976H1315.46C1311.23 119.28 1308.44 108.792 1307.42 97.7911H1298.99C1299.92 108.721 1302.46 119.194 1306.34 128.976H1305.21C1301.36 119.185 1298.85 108.714 1297.93 97.7911H1289.5C1290.35 108.66 1292.66 119.119 1296.21 128.976H1295.1C1291.58 119.112 1289.29 108.653 1288.45 97.7911L1280.01 97.79ZM-7.24268 102.364C-6.0665 99.332 -4.75349 96.3013 -3.3364 93.3335C-1.92918 90.398 -0.417206 87.526 1.15784 84.803C2.73288 82.0379 4.44422 79.3046 6.22919 76.667C8.10877 73.8906 9.95643 71.3701 11.8888 68.945C13.8207 66.4774 15.9102 64.0206 18.1151 61.6271C19.1442 60.5 20.2469 59.3301 21.4015 58.16C22.4622 57.0856 23.6173 55.9581 24.9193 54.7245C27.3029 52.491 29.7912 50.3317 32.3111 48.3001C38.0439 43.6842 44.0815 39.6001 50.3503 36.1007H-99.9996V35.0376H52.3035H53.2375C53.6679 35.0376 54.0987 35.0376 54.5293 35.0585C59.7265 35.1755 64.7355 36.0795 69.4602 37.6321C69.985 37.8131 70.4997 37.994 71.0145 38.175C74.8257 39.5685 78.427 41.3976 81.7662 43.5994C82.1547 43.8439 82.5323 44.11 82.9104 44.3754C85.7772 46.3644 88.4337 48.6304 90.8486 51.1509C91.1324 51.4488 91.4157 51.7459 91.6891 52.0545C93.8413 54.3844 95.7737 56.9264 97.485 59.6173C97.6844 59.9363 97.8839 60.2658 98.0832 60.5954C99.6163 63.1374 100.94 65.8179 102.052 68.6258C102.178 68.9659 102.304 69.3068 102.43 69.6468C103.417 72.3167 104.194 75.0928 104.751 77.9429C104.824 78.2938 104.887 78.6554 104.95 79.0068C105.423 81.7613 105.695 84.5904 105.727 87.4728C105.738 87.7173 105.738 87.9728 105.738 88.2173V88.5363C105.716 91.4828 105.464 94.3753 104.982 97.1943C104.929 97.5664 104.856 97.9283 104.782 98.3003C102.459 110.527 95.9845 121.271 86.9123 128.975H85.2482C94.5603 121.453 101.255 110.737 103.68 98.4708C86.2774 101.337 71.7777 113.094 64.8744 128.975H63.7306C70.7452 112.443 85.7995 100.207 103.889 97.3643C104.393 94.5353 104.656 91.6314 104.677 88.6642C81.5537 91.4658 62.3807 107.459 54.6974 128.975H53.5805C61.3334 106.87 80.9721 90.4217 104.677 87.6003C104.646 84.7073 104.383 81.8784 103.9 79.1233C75.8796 82.3757 52.8186 102.384 44.7355 128.975H43.6387C51.748 101.856 75.1913 81.4145 103.7 78.0708C103.145 75.2199 102.357 72.4443 101.359 69.7849C69.2603 74.1303 43.1421 97.8823 34.9045 128.975H33.8225C42.0605 97.4168 68.4662 73.2687 100.971 68.7743C99.8575 65.9883 98.5135 63.3078 96.9592 60.7868C61.6619 66.8644 33.3555 94.0216 25.1494 128.975H24.0658C32.2656 93.6302 60.7504 66.1249 96.3505 59.8191C94.6283 57.1387 92.6648 54.6286 90.4918 52.3202C53.0099 60.7707 23.5049 90.8907 15.4638 128.975H14.3952C22.4057 90.5944 51.9805 60.1835 89.6306 51.4271C87.1942 48.9382 84.4962 46.7043 81.5982 44.7582C43.1703 56.1694 13.5568 88.6645 5.8306 128.975H4.75571C12.4408 88.4827 41.9912 55.7688 80.4323 44.0032C77.0304 41.8437 73.3555 40.0787 69.4808 38.7597C59.1911 42.8012 49.447 48.3533 40.4801 55.3307C37.9602 57.2767 35.5031 59.3512 33.1512 61.5097C31.744 62.7861 30.3371 64.1371 28.8252 65.6691C27.9959 66.5091 27.1869 67.3597 26.3888 68.2107C24.1942 70.5721 22.1264 72.9968 20.2147 75.4007C18.304 77.8047 16.4243 80.3892 14.6182 83.0798C12.8541 85.6963 11.1644 88.4617 9.58936 91.2807C7.98225 94.1417 6.4911 97.0982 5.1475 100.066C3.73026 103.15 2.42822 106.362 1.28358 109.617C0.0238953 113.159 -1.08961 116.797 -1.99252 120.434C-2.70261 123.251 -3.29002 126.103 -3.79326 128.975H-4.85932C-4.3462 126.017 -3.74208 123.08 -3.01088 120.178C-2.09768 116.499 -0.973747 112.829 0.296364 109.255C1.45142 105.979 2.76389 102.735 4.19181 99.6189C5.54624 96.6304 7.05822 93.6414 8.67522 90.7484C10.2607 87.9085 11.972 85.1215 13.747 82.4839C15.5743 79.761 17.4746 77.1559 19.3957 74.7414C21.3177 72.3055 23.4176 69.8695 25.6224 67.4875C26.431 66.6151 27.2499 65.7645 28.0791 64.924C29.6018 63.3714 31.0299 61.999 32.4471 60.7229C34.8203 58.5424 37.3091 56.447 39.8397 54.4794C48.5335 47.7146 57.952 42.28 67.8848 38.2595C63.2439 36.8555 58.3193 36.1 53.2371 36.1H52.5441C45.7092 39.7803 39.1674 44.1304 32.9726 49.1289C30.4628 51.1394 27.9956 53.2883 25.6329 55.5108C24.3415 56.7343 23.1969 57.8403 22.147 58.9042C21.0023 60.0739 19.8996 61.2224 18.8813 62.3503C16.6972 64.7219 14.6181 67.1679 12.7073 69.6038C10.7965 72.0183 8.95878 74.5174 7.10045 77.2617C5.31561 79.8786 3.62497 82.5902 2.07064 85.3347C0.50602 88.0467 -0.99514 90.8866 -2.39206 93.8007C-3.79887 96.7362 -5.10091 99.7467 -6.2664 102.746C-7.48413 105.862 -8.58681 109.085 -9.56321 112.318C-11.2076 117.774 -12.4811 123.338 -13.3927 128.974H-14.4579C-13.538 123.231 -12.2431 117.56 -10.5607 111.999C-9.58432 108.745 -8.47083 105.501 -7.24268 102.364ZM150.961 20.1468C151.214 20.4982 151.455 20.8593 151.686 21.2107C153.523 23.9652 155.245 26.8052 156.852 29.7193C157.051 30.0703 157.251 30.4318 157.44 30.7832C158.931 33.5482 160.327 36.3882 161.598 39.2917C161.756 39.6427 161.913 39.9941 162.06 40.3552C163.268 43.1422 164.359 45.9712 165.347 48.8641C165.472 49.2151 165.598 49.5767 165.714 49.9276C166.649 52.7251 167.478 55.5542 168.192 58.4366C168.287 58.7876 168.381 59.139 168.454 59.5001C169.147 62.2975 169.725 65.137 170.197 68.009C170.271 68.36 170.324 68.7215 170.376 69.0725C170.828 71.8805 171.174 74.7095 171.415 77.5815C171.457 77.9324 171.488 78.2838 171.51 78.6449C171.73 81.4529 171.856 84.2924 171.877 87.1539C171.888 87.5049 171.888 87.8664 171.888 88.2174C171.888 91.0788 171.793 93.9184 171.583 96.7263C171.573 97.0879 171.541 97.4389 171.51 97.7899C170.661 108.654 168.363 119.109 164.842 128.975H163.728C167.283 119.117 169.604 108.661 170.46 97.7899C170.491 97.4287 170.513 97.0773 170.533 96.7263C170.733 93.9184 170.838 91.0788 170.838 88.2174C170.838 87.8664 170.838 87.5049 170.827 87.1539C170.807 84.2924 170.68 81.4529 170.46 78.6449C170.439 78.294 170.407 77.943 170.365 77.5815C170.124 74.72 169.767 71.8805 169.315 69.0725C169.263 68.7114 169.2 68.36 169.137 68.009C168.654 65.137 168.066 62.2975 167.373 59.5001C167.299 59.139 167.204 58.7876 167.121 58.4366C166.386 55.5542 165.546 52.7146 164.611 49.9276C164.485 49.5767 164.37 49.2151 164.233 48.8641C163.247 45.9712 162.133 43.1312 160.915 40.3552C160.768 39.9941 160.611 39.6427 160.453 39.2917C159.162 36.3882 157.754 33.5482 156.232 30.7832C156.054 30.4216 155.854 30.0703 155.655 29.7193C154.027 26.8052 152.285 23.9652 150.426 21.2107C150.184 20.8492 149.943 20.4982 149.691 20.1468C128.418 -10.6976 93.1168 -30.906 53.2375 -30.906H-99.9995V-31.9695H53.2375C93.7257 -31.9695 129.552 -11.3146 150.961 20.1468ZM139.265 20.1468C139.537 20.4982 139.8 20.8492 140.063 21.2107C142.13 23.9442 144.073 26.7838 145.879 29.7193C146.111 30.0703 146.321 30.4216 146.53 30.7832C148.2 33.5377 149.743 36.3776 151.161 39.2917C151.34 39.6427 151.507 39.9941 151.675 40.3552C152.999 43.1207 154.206 45.9606 155.298 48.8641C155.435 49.2151 155.571 49.5767 155.697 49.9276C156.716 52.7146 157.618 55.5436 158.416 58.4366C158.522 58.7876 158.616 59.139 158.7 59.5001C159.445 62.2975 160.086 65.1266 160.601 68.009C160.674 68.36 160.737 68.7215 160.8 69.0725C161.283 71.8699 161.661 74.7095 161.934 77.5815C161.976 77.9324 162.007 78.2838 162.028 78.6449C162.27 81.4529 162.406 84.2924 162.427 87.1539C162.438 87.5049 162.438 87.8664 162.438 88.2174C162.438 91.0788 162.333 93.9184 162.123 96.7263C162.091 97.0879 162.06 97.4389 162.028 97.7899C161.102 108.715 158.583 119.183 154.738 128.975H153.603C157.488 119.192 160.032 108.722 160.968 97.7899C161.01 97.4389 161.042 97.0879 161.063 96.7263C161.283 93.9184 161.388 91.0788 161.388 88.2174C161.388 87.8664 161.388 87.5049 161.378 87.1539C161.357 84.2819 161.22 81.4529 160.968 78.6449C160.947 78.2838 160.916 77.9324 160.884 77.5815C160.611 74.7095 160.223 71.8699 159.729 69.0725C159.677 68.7215 159.614 68.36 159.54 68.009C159.015 65.1266 158.364 62.2975 157.608 59.5001C157.524 59.1491 157.429 58.7876 157.335 58.4366C156.526 55.5542 155.602 52.7146 154.563 49.9276C154.437 49.5767 154.311 49.2151 154.164 48.8641C153.072 45.9606 151.844 43.1207 150.51 40.3552C150.342 39.9941 150.163 39.6427 149.985 39.2917C148.546 36.3776 146.982 33.5377 145.292 30.7832C145.081 30.4216 144.861 30.0703 144.641 29.7193C142.813 26.7838 140.839 23.9442 138.74 21.2107C138.467 20.8492 138.194 20.4982 137.921 20.1468C118.086 -5.11404 87.4889 -21.334 53.2378 -21.334H-99.9992V-22.3971H53.2378C88.1296 -22.3971 119.251 -5.73059 139.265 20.1468ZM84.3596 23.1358C84.8636 23.3908 85.3676 23.6463 85.8716 23.9014C89.6205 25.8587 93.169 28.1453 96.4977 30.7298C96.8966 31.0274 97.2855 31.3362 97.674 31.6553C100.635 34.0378 103.396 36.6543 105.927 39.4728C106.242 39.8024 106.536 40.1428 106.819 40.4832C109.119 43.1103 111.219 45.9182 113.109 48.8643C113.34 49.2153 113.56 49.5667 113.78 49.9278C115.461 52.6512 116.973 55.4907 118.296 58.4367C118.454 58.7877 118.611 59.1391 118.757 59.5002C119.944 62.2551 120.963 65.0951 121.803 68.0092C121.897 68.3601 122.002 68.7115 122.096 69.0726C122.853 71.8487 123.441 74.6886 123.861 77.5816C123.923 77.9326 123.966 78.2941 124.008 78.6451C124.386 81.4321 124.585 84.2716 124.628 87.154C124.638 87.505 124.638 87.8665 124.638 88.2175C124.638 91.0999 124.47 93.94 124.144 96.7265C124.102 97.088 124.06 97.439 124.008 97.79C122.508 109.246 118.342 119.856 112.177 128.975H110.89C117.166 119.893 121.419 109.275 122.947 97.79C123 97.439 123.042 97.088 123.084 96.7265C123.419 93.94 123.588 91.0999 123.588 88.2175C123.588 87.8665 123.588 87.505 123.577 87.154C123.535 84.2716 123.325 81.4321 122.947 78.6451C122.905 78.284 122.853 77.9326 122.811 77.5816C122.38 74.6886 121.771 71.8487 121.005 69.0726C120.91 68.7115 120.805 68.3601 120.7 68.0092C119.85 65.0842 118.821 62.2446 117.613 59.5002C117.466 59.1492 117.309 58.7877 117.141 58.4367C115.797 55.4907 114.253 52.6398 112.542 49.9278C112.353 49.6299 112.174 49.3432 111.975 49.0558C111.943 49.0023 111.912 48.9497 111.87 48.8964C111.87 48.8858 111.859 48.8748 111.849 48.8644C109.927 45.9289 107.796 43.1529 105.486 40.5574C105.181 40.2174 104.877 39.8768 104.562 39.547C101.989 36.75 99.1965 34.176 96.2146 31.836C95.8153 31.5279 95.4165 31.23 95.0176 30.9319C91.6469 28.3899 88.0351 26.1564 84.2339 24.2634C83.7191 24.008 83.2047 23.7529 82.6904 23.508C73.7235 19.3069 63.7484 16.956 53.2377 16.956H-99.9993V15.893H53.2377C64.3886 15.893 74.9516 18.4983 84.3596 23.1358ZM99.0704 20.7953C99.5113 21.0932 99.9525 21.4127 100.383 21.7317C103.711 24.1568 106.851 26.8263 109.77 29.7406C110.127 30.0811 110.473 30.4316 110.82 30.7936C113.414 33.4525 115.818 36.2921 118.033 39.2916C118.296 39.6425 118.548 39.9939 118.8 40.3551C120.743 43.0671 122.517 45.9074 124.124 48.864C124.312 49.215 124.501 49.5664 124.68 49.9275C126.129 52.6719 127.421 55.5115 128.554 58.4364C128.691 58.7874 128.827 59.149 128.953 59.5C129.982 62.2654 130.865 65.1053 131.589 68.0089C131.684 68.3599 131.767 68.7112 131.851 69.0724C132.513 71.8594 133.038 74.6883 133.406 77.5813C133.458 77.9323 133.5 78.2837 133.531 78.6448C133.857 81.4318 134.046 84.2713 134.067 87.1537C134.088 87.5047 134.088 87.8561 134.088 88.2173C134.088 91.0893 133.941 93.9288 133.647 96.7262C133.615 97.0878 133.584 97.4387 133.532 97.7897C132.236 109.036 128.67 119.586 123.329 128.975H122.123C127.544 119.611 131.164 109.054 132.481 97.7897C132.524 97.4387 132.566 97.0878 132.597 96.7262C132.891 93.9288 133.038 91.0893 133.038 88.2173C133.038 87.8663 133.038 87.5047 133.028 87.1537C132.996 84.2818 132.807 81.4423 132.481 78.6448C132.44 78.2837 132.398 77.9323 132.345 77.5813C131.977 74.6989 131.452 71.8594 130.77 69.0724C130.697 68.7214 130.602 68.3704 130.508 68.0089C129.772 65.1053 128.88 62.2654 127.83 59.5C127.704 59.149 127.567 58.7874 127.431 58.4364C126.286 55.5115 124.974 52.6719 123.504 49.9275C123.315 49.5664 123.126 49.215 122.927 48.864C121.299 45.9074 119.482 43.0671 117.509 40.3551C117.246 39.9939 116.983 39.6425 116.721 39.2916C114.463 36.2921 112.006 33.4631 109.36 30.8042C109.014 30.4637 108.667 30.1126 108.311 29.7722C105.35 26.9007 102.168 24.2632 98.7866 21.8802C98.3566 21.5721 97.9154 21.2636 97.4637 20.9657C84.8004 12.3827 69.5865 7.38333 53.2375 7.38333H-99.9995V6.32024H53.2375C70.2371 6.32024 86.0398 11.6698 99.0704 20.7953ZM113.477 20.1468C113.865 20.4872 114.243 20.8383 114.621 21.2107C117.456 23.8587 120.123 26.7092 122.6 29.7193C122.895 30.0703 123.178 30.4216 123.462 30.7832C125.636 33.4948 127.651 36.3351 129.499 39.2917C129.73 39.6427 129.951 39.9941 130.16 40.3552C131.83 43.0996 133.363 45.9392 134.749 48.8641C134.917 49.2151 135.074 49.5665 135.232 49.9276C136.503 52.6931 137.637 55.5331 138.624 58.4366C138.75 58.7876 138.866 59.139 138.981 59.5001C139.894 62.2761 140.671 65.116 141.312 68.009C141.396 68.36 141.469 68.7215 141.543 69.0725C142.142 71.8595 142.603 74.699 142.929 77.5815C142.971 77.9324 143.012 78.294 143.044 78.6449C143.338 81.4424 143.496 84.2819 143.528 87.1539C143.538 87.5049 143.538 87.8664 143.538 88.2174C143.538 91.0894 143.412 93.9289 143.15 96.7263C143.118 97.0773 143.086 97.4389 143.044 97.7899C141.899 108.894 138.772 119.406 134.05 128.975H132.877C137.66 119.423 140.826 108.906 141.984 97.7899C142.026 97.4389 142.068 97.0879 142.089 96.7263C142.352 93.9289 142.488 91.0894 142.488 88.2174C142.488 87.8664 142.488 87.5049 142.477 87.1539C142.446 84.2819 142.288 81.4424 141.984 78.6449C141.953 78.2838 141.91 77.9324 141.868 77.5815C141.543 74.699 141.071 71.8595 140.472 69.0725C140.398 68.7114 140.325 68.36 140.241 68.009C139.59 65.116 138.792 62.2761 137.868 59.5001C137.752 59.139 137.637 58.7876 137.511 58.4366C136.513 55.5225 135.369 52.6931 134.078 49.9276C133.92 49.5665 133.752 49.2151 133.584 48.8641C132.176 45.9392 130.623 43.0996 128.922 40.3552C128.712 39.9941 128.491 39.6427 128.26 39.2917C126.37 36.3351 124.323 33.4948 122.118 30.7832C121.824 30.4216 121.529 30.0703 121.236 29.7193C118.705 26.7093 115.986 23.8697 113.099 21.2107C112.731 20.8703 112.353 20.5298 111.975 20.2003C111.953 20.1788 111.933 20.1574 111.912 20.1468C96.2145 6.24539 75.687 -2.18912 53.2375 -2.18912H-99.9995V-3.25221H53.2375C76.3696 -3.25221 97.485 5.59676 113.477 20.1468ZM126.884 20.1468C127.199 20.4982 127.514 20.8492 127.819 21.2107C130.203 23.9223 132.439 26.7627 134.529 29.7193C134.771 30.0703 135.022 30.4318 135.253 30.7832C137.133 33.5271 138.886 36.3562 140.482 39.2917C140.681 39.6427 140.871 39.9941 141.06 40.3552C142.54 43.1101 143.884 45.95 145.102 48.8641C145.26 49.2151 145.396 49.5665 145.543 49.9276C146.677 52.7037 147.685 55.5436 148.567 58.4366C148.672 58.7876 148.777 59.1491 148.871 59.5001C149.701 62.2871 150.405 65.1266 150.982 68.009C151.056 68.36 151.119 68.7114 151.181 69.0725C151.717 71.8699 152.137 74.7095 152.431 77.5815C152.473 77.9324 152.515 78.294 152.536 78.6449C152.809 81.4529 152.956 84.2819 152.978 87.1539C152.988 87.5049 152.988 87.8664 152.988 88.2174C152.988 91.0788 152.872 93.9184 152.631 96.7263C152.61 97.0773 152.578 97.4389 152.536 97.7899C151.513 108.79 148.736 119.279 144.501 128.975H143.35C147.635 119.291 150.449 108.8 151.486 97.7899C151.518 97.4389 151.549 97.0879 151.58 96.7263C151.822 93.9184 151.938 91.0894 151.938 88.2174C151.938 87.8664 151.938 87.5049 151.927 87.1539C151.907 84.2819 151.749 81.4424 151.486 78.6449C151.454 78.294 151.423 77.9324 151.371 77.5815C151.088 74.7095 150.657 71.8699 150.121 69.0725C150.058 68.7114 149.985 68.36 149.911 68.009C149.323 65.1266 148.62 62.2871 147.78 59.5001C147.685 59.139 147.58 58.7876 147.465 58.4366C146.572 55.5436 145.554 52.7037 144.409 49.9276C144.273 49.5767 144.125 49.2151 143.968 48.8641C142.74 45.95 141.375 43.1101 139.873 40.3552C139.684 39.9941 139.495 39.6427 139.285 39.2917C137.668 36.3562 135.894 33.5167 133.983 30.7832C133.741 30.4318 133.489 30.0703 133.237 29.7193C131.127 26.7522 128.848 23.9118 126.423 21.2107C126.107 20.8492 125.792 20.4982 125.467 20.1468C107.428 0.523438 81.7246 -11.7616 53.2374 -11.7616H-99.9996V-12.8246H53.2374C82.3751 -12.8246 108.636 -0.104202 126.884 20.1468ZM69.1033 27.5493C69.6916 27.7093 70.2899 27.8794 70.867 28.0599C75.1726 29.3469 79.278 31.1129 83.1315 33.2718C83.5827 33.5168 84.0239 33.7719 84.4648 34.0378C87.7828 36.0054 90.9117 38.2814 93.7993 40.8338C94.1458 41.1213 94.482 41.4298 94.8177 41.7383C97.3695 44.0778 99.7211 46.6417 101.863 49.3748C102.126 49.7045 102.378 50.0453 102.619 50.3853C104.552 52.9483 106.284 55.6712 107.807 58.5327C107.996 58.8833 108.174 59.2346 108.352 59.5852C109.728 62.2871 110.914 65.0951 111.88 68.0092H111.891C111.922 68.0946 111.954 68.1792 111.975 68.2747C112.069 68.5411 112.153 68.8071 112.227 69.0726C113.109 71.8276 113.802 74.6675 114.296 77.5816C114.358 77.9326 114.411 78.284 114.474 78.6451C114.894 81.4211 115.135 84.261 115.178 87.154C115.188 87.505 115.188 87.8665 115.188 88.2175C115.188 91.0999 114.999 93.9505 114.611 96.7265C114.568 97.088 114.526 97.439 114.474 97.79C112.679 109.585 107.625 120.299 100.288 128.975H98.9168C106.411 120.367 111.576 109.631 113.403 97.79C113.455 97.439 113.508 97.0775 113.55 96.7265C113.938 93.94 114.138 91.0999 114.138 88.2175C114.138 87.8564 114.138 87.505 114.127 87.154C114.085 84.261 113.833 81.4211 113.403 78.6451C113.35 78.284 113.298 77.9326 113.225 77.5816C112.731 74.6675 112.027 71.8381 111.135 69.0832C111.03 68.7326 110.914 68.3813 110.788 68.0307C109.791 65.1267 108.583 62.3188 107.187 59.6283C107.019 59.2769 106.83 58.9367 106.641 58.5963C105.108 55.7564 103.344 53.0444 101.391 50.5024C101.149 50.1724 100.887 49.8433 100.624 49.5243C98.4611 46.7903 96.0672 44.2589 93.4738 41.9615C93.1377 41.653 92.8015 41.3555 92.455 41.0684C89.5256 38.5583 86.3546 36.3249 82.9842 34.3995C82.5434 34.1445 82.0913 33.8995 81.6402 33.6655C77.7131 31.549 73.5342 29.8688 69.1555 28.6669C68.5465 28.4964 67.9378 28.3474 67.3288 28.1984C62.803 27.1029 58.0885 26.5284 53.2374 26.5284H-99.9996V25.4653H53.2374C58.7183 25.4653 64.0321 26.1883 69.1033 27.5493Z"
          fill="#DFDCDA" opacity=".2"/>
</svg>
