<svg width="29" height="29" viewBox="0 0 29 29" fill="none" xmlns="http://www.w3.org/2000/svg">
    <g clip-path="url(#clip0_212_18)">
        <mask id="mask0_212_18" style="mask-type:luminance" maskUnits="userSpaceOnUse" x="0" y="0" width="29" height="29">
            <path d="M21.9697 0H7.0303C3.14757 0 0 3.14757 0 7.0303V21.9697C0 25.8524 3.14757 29 7.0303 29H21.9697C25.8524 29 29 25.8524 29 21.9697V7.0303C29 3.14757 25.8524 0 21.9697 0Z" fill="white"/>
        </mask>
        <g mask="url(#mask0_212_18)">
            <path d="M17.9132 13.8379H9.34558V10.4476H17.9132C18.4137 10.4476 18.7616 10.5349 18.9363 10.6872C19.1109 10.8395 19.2191 11.122 19.2191 11.5348V12.7521C19.2191 13.187 19.1109 13.4695 18.9363 13.6218C18.7616 13.7741 18.4137 13.8393 17.9132 13.8393V13.8379ZM18.501 7.2513H5.7121V21.75H9.34558V17.033H16.0417L19.2191 21.75H23.2879L19.7847 17.0109C21.0762 16.8195 21.6562 16.4236 22.1344 15.7714C22.6127 15.1191 22.8526 14.0762 22.8526 12.6844V11.5973C22.8526 10.7718 22.7652 10.1195 22.6127 9.61959C22.4603 9.11962 22.1997 8.68477 21.8295 8.29418C21.4385 7.92443 21.0032 7.66402 20.4806 7.48956C19.958 7.33724 19.3051 7.25 18.501 7.25V7.2513Z" fill="white"/>
            <path d="M43.5 6.67572e-06C43.5 8.00813 37.0082 14.5 29 14.5C27.3718 14.5 25.8065 14.2317 24.3455 13.7368C24.3767 13.3922 24.3905 13.0399 24.3905 12.6844V11.5973C24.3905 10.6742 24.2941 9.86053 24.0838 9.17094C23.8569 8.42731 23.468 7.78734 22.9458 7.23638L22.9168 7.2058L22.8863 7.17684C22.33 6.65069 21.6993 6.27509 20.9676 6.03081L20.9395 6.02143L20.911 6.01313C20.2145 5.81011 19.4104 5.71212 18.501 5.71212H16.9631V5.71342H15.669C14.9166 3.96019 14.5 2.02876 14.5 6.67572e-06C14.5 -8.00813 20.9919 -14.5 29 -14.5C37.0082 -14.5 43.5 -8.00813 43.5 6.67572e-06Z" fill="white"/>
        </g>
        <path d="M21.9697 0.219727H7.03033C3.26894 0.219727 0.219727 3.26894 0.219727 7.03033V21.9697C0.219727 25.7311 3.26894 28.7803 7.03033 28.7803H21.9697C25.7311 28.7803 28.7803 25.7311 28.7803 21.9697V7.03033C28.7803 3.26894 25.7311 0.219727 21.9697 0.219727Z" stroke="white"/>
    </g>
    <defs>
        <clipPath id="clip0_212_18">
            <rect width="29" height="29" fill="white"/>
        </clipPath>
    </defs>
</svg>