<svg width="29" height="29" viewBox="0 0 29 29" fill="none" xmlns="http://www.w3.org/2000/svg">
    <path d="M25.9382 3.31145C22.3036 4.81655 6.71987 11.2717 2.41395 13.0311C-0.473868 14.158 1.21654 15.2145 1.21654 15.2145C1.21654 15.2145 3.68154 16.0596 5.79448 16.6935C7.90742 17.3274 9.03436 16.623 9.03436 16.623L18.9651 9.93186C22.4866 7.53733 21.6415 9.50933 20.7965 10.3544C18.9651 12.1857 15.9367 15.0733 13.4012 17.3976C12.2742 18.3836 12.8377 19.229 13.3307 19.6515C15.1621 21.201 20.1625 24.3704 20.4444 24.5818C21.9324 25.6351 24.8591 27.1515 25.3042 23.9479L27.0651 12.8902C27.6286 9.15728 28.1921 5.70598 28.2625 4.71998C28.4736 2.32545 25.9382 3.31145 25.9382 3.31145Z" fill="white"/>
</svg>
