<svg width="618" height="800" viewBox="0 0 618 800" fill="none" xmlns="http://www.w3.org/2000/svg">
<g clip-path="url(#clip0_10_491)">
<path d="M569.696 512.408C586.459 513.643 602.642 516.978 618.014 522.121V520.387C602.642 515.294 586.451 511.991 569.696 510.765V512.408Z" fill="#F8F6F4"/>
<path d="M353.823 794.317V818.197H355.468V794.44C354.911 794.407 354.363 794.375 353.823 794.326V794.317Z" fill="#F8F6F4"/>
<path d="M569.696 527.279C586.533 528.62 602.74 532.242 618.014 537.817V536.068C602.732 530.549 586.525 526.96 569.696 525.636V527.279Z" fill="#F8F6F4"/>
<path d="M368.656 794.857V818.189H370.3V794.841C369.76 794.857 369.196 794.857 368.656 794.857Z" fill="#F8F6F4"/>
<path d="M383.48 794.301V818.197H385.125V794.187C384.585 794.236 384.02 794.268 383.48 794.301Z" fill="#F8F6F4"/>
<path d="M569.696 542.166C586.631 543.63 602.854 547.603 618.014 553.693V551.911C602.846 545.886 586.623 541.954 569.696 540.499V542.166Z" fill="#F8F6F4"/>
<path d="M569.532 601.756C587.392 604.135 603.893 610.823 618.014 620.69V618.679C603.853 608.992 587.384 602.451 569.597 600.105C569.581 600.661 569.565 601.209 569.532 601.756Z" fill="#F8F6F4"/>
<path d="M442.803 780.681V818.189H444.448V780.019C443.908 780.248 443.343 780.46 442.803 780.681Z" fill="#F8F6F4"/>
<path d="M427.979 785.897V818.189H429.623V785.39C429.083 785.57 428.535 785.733 427.979 785.897Z" fill="#F8F6F4"/>
<path d="M569.696 586.836C587.146 588.896 603.501 594.562 618.014 603.064V601.192C603.468 592.821 587.122 587.229 569.696 585.193V586.844V586.836Z" fill="#F8F6F4"/>
<path d="M413.146 789.87V818.189H414.79V789.486C414.25 789.617 413.686 789.747 413.146 789.862V789.87Z" fill="#F8F6F4"/>
<path d="M569.696 571.933C586.917 573.748 603.214 578.718 618.014 586.215V584.375C603.19 576.969 586.901 572.063 569.696 570.265V571.924V571.933Z" fill="#F8F6F4"/>
<path d="M398.313 792.65V818.189H399.958V792.404C399.418 792.486 398.853 792.584 398.313 792.65Z" fill="#F8F6F4"/>
<path d="M569.696 557.029C586.754 558.656 603.01 563.062 618.014 569.783V567.992C602.994 561.346 586.745 556.988 569.696 555.378V557.029Z" fill="#F8F6F4"/>
<path d="M568.427 616.578C587.277 619.26 604.368 627.459 618.014 639.477V637.319C604.303 625.587 587.31 617.584 568.607 614.927C568.542 615.475 568.493 616.03 568.427 616.578Z" fill="#F8F6F4"/>
<path d="M457.636 774.092V818.189H459.28V773.266C458.74 773.56 458.192 773.822 457.636 774.092Z" fill="#F8F6F4"/>
<path d="M472.469 765.99V818.19H474.113V765.001C473.573 765.328 473.009 765.663 472.469 765.99Z" fill="#F8F6F4"/>
<path d="M566.513 629.601C566.431 630.141 566.333 630.689 566.219 631.228C587.097 634.171 605.44 645.134 618.014 660.88V658.297C605.252 643.083 587.105 632.512 566.521 629.593L566.513 629.601Z" fill="#F8F6F4"/>
<path d="M189.46 681.302C189.133 680.656 188.814 680.002 188.503 679.323C188.503 679.323 188.503 679.323 188.503 679.332C188.814 680.002 189.125 680.664 189.46 681.302Z" fill="#F8F6F4"/>
<path d="M181.156 661.771C180.846 660.929 180.551 660.095 180.265 659.237C180.265 659.237 180.265 659.237 180.265 659.245C180.543 660.103 180.837 660.937 181.156 661.779V661.771Z" fill="#F8F6F4"/>
<path d="M567.945 599.909C567.945 600.448 567.912 601.012 567.879 601.552C567.732 605.95 567.421 610.348 566.955 614.706C566.906 615.245 566.857 615.793 566.791 616.333C566.3 620.715 565.67 625.064 564.877 629.372C564.795 629.92 564.697 630.46 564.582 630.983C563.919 634.588 563.134 638.161 562.259 641.701L562.226 641.815C560.86 647.415 559.174 653.146 557.235 658.844C555.419 664.044 553.447 669.121 551.337 673.895C549.291 678.555 547.033 683.215 544.595 687.744C542.337 692.012 539.785 696.385 537.011 700.718C534.377 704.871 531.538 708.983 528.592 712.916C525.778 716.717 522.661 720.592 519.331 724.427C516.149 728.065 512.884 731.572 509.628 734.85C509.514 734.965 509.399 735.079 509.236 735.226C505.742 738.701 502.069 742.093 498.313 745.306C490.664 751.847 482.589 757.774 474.121 763.039C473.581 763.366 473.033 763.717 472.477 764.044C468.173 766.677 463.78 769.129 459.297 771.402C458.757 771.696 458.192 771.974 457.652 772.244C453.333 774.402 448.931 776.397 444.472 778.204C443.932 778.449 443.384 778.678 442.828 778.882C438.492 780.632 434.098 782.226 429.648 783.64C429.108 783.82 428.56 783.984 428.003 784.147C423.651 785.512 419.274 786.714 414.823 787.769C414.283 787.9 413.719 788.03 413.179 788.145C408.826 789.151 404.425 790.009 399.999 790.712C399.459 790.794 398.91 790.876 398.354 790.957C393.985 791.619 389.584 792.126 385.174 792.486C384.634 792.535 384.069 792.584 383.53 792.617C379.144 792.944 374.759 793.124 370.349 793.156C369.809 793.173 369.245 793.173 368.705 793.173C364.271 793.173 359.886 793.026 355.525 792.739C354.985 792.707 354.42 792.658 353.88 792.625C281.59 787.287 219.911 743.279 189.526 681.261C189.199 680.615 188.88 679.961 188.569 679.291C188.569 679.291 188.569 679.291 188.569 679.283C185.852 673.584 183.398 667.723 181.222 661.73C180.911 660.888 180.616 660.054 180.33 659.196C180.33 659.196 180.33 659.196 180.33 659.188C177.434 650.922 175.094 642.396 173.311 633.681C173.016 632.185 172.721 630.705 172.451 629.201C170.39 617.739 169.318 605.95 169.318 593.916H167.674C167.674 607.536 169.04 620.821 171.625 633.681C171.887 635.013 172.181 636.346 172.484 637.678C172.484 637.678 172.484 637.678 172.484 637.687C174.309 645.903 176.648 653.923 179.455 661.722C179.749 662.531 180.044 663.333 180.363 664.142C182.539 669.987 184.993 675.718 187.71 681.277C187.71 681.277 187.71 681.277 187.71 681.286C188.021 681.94 188.331 682.585 188.65 683.223C219.535 745.118 281.427 788.954 353.88 794.26C354.42 794.309 354.969 794.342 355.525 794.375C359.877 794.652 364.279 794.8 368.705 794.8C369.245 794.8 369.809 794.8 370.349 794.783C374.751 794.751 379.153 794.571 383.53 794.244C384.069 794.211 384.634 794.178 385.174 794.129C389.592 793.77 393.993 793.254 398.354 792.6C398.894 792.535 399.459 792.437 399.999 792.355C404.433 791.668 408.834 790.826 413.179 789.821C413.719 789.706 414.283 789.576 414.823 789.445C419.257 788.407 423.659 787.205 428.003 785.856C428.56 785.692 429.108 785.529 429.648 785.349C434.098 783.935 438.5 782.365 442.828 780.64C443.368 780.427 443.932 780.215 444.472 779.978C448.939 778.163 453.341 776.193 457.652 774.051C458.209 773.789 458.757 773.527 459.297 773.225C463.78 770.985 468.182 768.549 472.477 765.949C473.017 765.622 473.581 765.287 474.121 764.96C482.957 759.507 491.408 753.351 499.369 746.533C503.173 743.303 506.879 739.878 510.356 736.387C510.52 736.256 510.651 736.125 510.798 735.962C514.095 732.684 517.376 729.16 520.583 725.489C523.929 721.606 527.079 717.698 529.91 713.88C532.88 709.891 535.743 705.762 538.394 701.577C541.192 697.195 543.769 692.78 546.043 688.488C548.498 683.926 550.788 679.233 552.85 674.525C554.977 669.701 556.965 664.592 558.782 659.343C560.778 653.579 562.471 647.767 563.854 642.085L563.87 641.987C564.762 638.414 565.539 634.809 566.21 631.187C566.325 630.648 566.423 630.1 566.505 629.56C567.298 625.244 567.92 620.903 568.419 616.537C568.485 615.989 568.534 615.433 568.599 614.886C569.041 610.52 569.36 606.122 569.524 601.715C569.556 601.167 569.573 600.628 569.589 600.064C569.655 598.02 569.687 595.984 569.687 593.924H568.035C568.035 595.903 568.002 597.889 567.936 599.868L567.945 599.909Z" fill="#F8F6F4"/>
<path d="M186.728 633.632C186.99 634.997 187.3 636.338 187.652 637.687C189.616 645.838 192.119 653.792 195.138 661.501C195.449 662.311 195.785 663.112 196.112 663.921C222.047 727.599 282.31 773.797 353.831 779.447C354.371 779.496 354.919 779.545 355.476 779.561C359.828 779.888 364.23 780.035 368.656 780.035C369.196 780.035 369.76 780.035 370.3 780.019C374.718 779.986 379.103 779.79 383.48 779.422C384.02 779.389 384.569 779.357 385.125 779.291C389.543 778.915 393.944 778.351 398.305 777.64C398.861 777.558 399.409 777.46 399.949 777.378C404.384 776.618 408.785 775.702 413.13 774.631C413.669 774.5 414.234 774.37 414.774 774.223C419.225 773.086 423.626 771.786 427.954 770.323C428.51 770.143 429.059 769.963 429.598 769.767C434.065 768.238 438.467 766.521 442.779 764.633C443.319 764.404 443.883 764.175 444.423 763.905C448.906 761.927 453.292 759.752 457.603 757.414C458.143 757.12 458.708 756.809 459.248 756.507C463.747 754.005 468.149 751.324 472.428 748.438C472.968 748.062 473.532 747.694 474.072 747.301C478.997 743.941 483.759 740.32 488.34 736.453C492.128 733.305 495.834 729.929 499.344 726.438C499.671 726.144 499.974 725.849 500.269 725.53C503.402 722.416 506.511 719.056 509.563 715.548C512.909 711.665 516.059 707.725 518.889 703.825C521.99 699.607 524.837 695.364 527.373 691.194C530.057 686.861 532.65 682.258 535.039 677.476C537.526 672.554 539.801 667.478 541.83 662.36C544.088 656.678 546.084 650.784 547.761 644.856C549.111 640.131 550.265 635.324 551.206 630.501C551.32 629.953 551.435 629.397 551.517 628.849C552.007 626.282 552.441 623.715 552.817 621.14C553.079 619.292 553.325 617.453 553.545 615.605C553.611 615.066 553.676 614.502 553.742 613.954C554.2 609.572 554.519 605.182 554.683 600.767C554.715 600.228 554.732 599.68 554.732 599.124C554.797 597.391 554.814 595.682 554.814 593.957H553.161C553.161 595.682 553.145 597.415 553.079 599.148C553.079 599.688 553.063 600.252 553.046 600.792C552.883 605.206 552.556 609.621 552.073 613.995C552.024 614.534 551.958 615.098 551.893 615.638C551.697 617.396 551.467 619.162 551.206 620.911C550.813 623.576 550.363 626.266 549.856 628.931C549.741 629.471 549.643 630.018 549.528 630.582C548.588 635.226 547.467 639.853 546.182 644.399C544.521 650.277 542.525 656.122 540.284 661.771C538.287 666.824 536.029 671.868 533.559 676.74C531.202 681.466 528.65 686.044 525.958 690.344C523.455 694.481 520.64 698.691 517.572 702.86C514.758 706.711 511.641 710.635 508.311 714.469C505.292 717.96 502.2 721.287 499.115 724.386C498.821 724.664 498.518 724.966 498.207 725.261C494.714 728.735 491.04 732.079 487.285 735.21C483.014 738.799 478.621 742.159 474.072 745.323C473.532 745.699 472.984 746.083 472.428 746.459C468.141 749.378 463.739 752.092 459.248 754.61C458.708 754.937 458.143 755.256 457.603 755.55C453.283 757.921 448.906 760.112 444.423 762.123C443.883 762.368 443.319 762.614 442.779 762.867C438.443 764.764 434.065 766.489 429.598 768.034C429.059 768.23 428.51 768.426 427.954 768.614C423.618 770.078 419.225 771.394 414.774 772.53C414.234 772.677 413.686 772.825 413.13 772.955C408.777 774.043 404.375 774.966 399.949 775.719C399.409 775.817 398.845 775.915 398.305 775.98C393.936 776.708 389.535 777.264 385.125 777.656C384.569 777.705 384.02 777.754 383.48 777.787C379.095 778.147 374.71 778.343 370.3 778.384C369.76 778.4 369.196 778.4 368.656 778.4C364.222 778.4 359.82 778.237 355.476 777.926C354.936 777.893 354.388 777.861 353.831 777.811C282.327 772.113 222.186 725.498 196.905 661.477C196.578 660.651 196.243 659.809 195.948 658.975C192.831 650.792 190.311 642.33 188.397 633.632C188.07 632.136 187.75 630.631 187.472 629.119C185.247 617.739 184.093 605.999 184.093 593.982H182.449C182.449 607.602 183.913 620.87 186.736 633.648L186.728 633.632Z" fill="#F8F6F4"/>
<path d="M368.656 765.213C463.15 765.213 540.03 688.39 540.03 593.957V593.965H538.386C538.377 687.483 462.242 763.562 368.656 763.562C275.07 763.562 198.926 687.474 198.926 593.957H197.274C197.274 688.39 274.153 765.213 368.656 765.213Z" fill="#F8F6F4"/>
<path d="M368.656 705.934C430.441 705.934 480.707 655.705 480.707 593.957V593.965H479.063C479.055 654.798 429.533 704.283 368.656 704.283C307.779 704.283 258.249 654.789 258.249 593.957H256.596C256.596 655.697 306.862 705.934 368.656 705.934Z" fill="#F8F6F4"/>
<path d="M368.656 720.748C438.622 720.748 495.54 663.872 495.54 593.957V593.965H493.895C493.887 662.965 437.714 719.105 368.656 719.105C299.597 719.105 243.416 662.965 243.416 593.957H241.764C241.764 663.872 298.681 720.748 368.648 720.748H368.656Z" fill="#F8F6F4"/>
<path d="M368.656 735.57C446.796 735.57 510.373 672.039 510.373 593.957V593.965H508.728C508.72 671.14 445.896 733.926 368.656 733.926C291.424 733.926 228.583 671.14 228.583 593.957H226.931C226.931 672.048 290.508 735.57 368.648 735.57H368.656Z" fill="#F8F6F4"/>
<path d="M368.656 750.392C454.977 750.392 525.205 680.215 525.205 593.957V593.965H523.561C523.553 679.307 454.069 748.74 368.664 748.74C283.251 748.74 213.767 679.307 213.767 593.957H212.115C212.115 680.215 282.343 750.392 368.664 750.392H368.656Z" fill="#F8F6F4"/>
<path d="M368.656 691.112C422.268 691.112 465.883 647.53 465.883 593.957V593.965H464.238C464.23 646.622 421.36 689.461 368.664 689.461C315.96 689.461 273.09 646.614 273.09 593.957H271.437C271.437 647.53 315.052 691.112 368.664 691.112H368.656Z" fill="#F8F6F4"/>
<path d="M368.656 676.291C414.087 676.291 451.05 639.355 451.05 593.957V593.965H449.406C449.397 638.455 413.179 674.647 368.664 674.647C324.141 674.647 287.923 638.455 287.923 593.957H286.27C286.27 639.355 323.233 676.291 368.664 676.291H368.656Z" fill="#F8F6F4"/>
<path d="M576.781 140.326C572.084 142.165 567.388 144.226 562.79 146.449C558.242 148.657 553.791 151.027 549.578 153.496C545.291 155.965 541.061 158.647 536.97 161.451C532.667 164.394 528.764 167.296 525.009 170.329C521.188 173.362 517.376 176.633 513.67 180.091C511.927 181.701 510.111 183.434 508.295 185.241C506.634 186.901 504.883 188.716 502.977 190.759C499.516 194.496 496.17 198.395 493.02 202.352C485.87 211.345 479.537 220.812 474.121 230.647V234.089C479.824 223.371 486.565 213.111 494.305 203.39C497.422 199.458 500.752 195.583 504.196 191.879C506.094 189.852 507.804 188.062 509.448 186.41C511.265 184.62 513.04 182.887 514.791 181.292C518.464 177.867 522.252 174.605 526.032 171.613C529.771 168.613 533.649 165.735 537.895 162.824C541.953 160.028 546.15 157.371 550.404 154.935C554.609 152.483 559.003 150.128 563.519 147.937C568.067 145.73 572.731 143.686 577.378 141.863C582.205 139.958 587.195 138.225 592.211 136.696C600.662 134.113 609.285 132.118 618.014 130.687V129.02C609.113 130.458 600.326 132.494 591.711 135.135C586.672 136.663 581.64 138.413 576.781 140.342V140.326Z" fill="#F8F6F4"/>
<path d="M587.457 152.155C582.385 153.962 577.353 156.022 572.526 158.262C567.896 160.388 563.265 162.759 558.782 165.293C554.38 167.778 550.06 170.46 545.978 173.248C541.756 176.109 537.723 179.093 533.984 182.11C530.212 185.126 526.433 188.413 522.743 191.871C521.393 193.138 520.076 194.422 518.775 195.722C516.37 198.109 514.242 200.349 512.263 202.572C508.884 206.292 505.636 210.2 502.592 214.165C492.112 227.801 483.693 242.566 477.459 258.148C477.705 258.99 477.966 259.832 478.236 260.65C484.495 244.512 493.102 229.232 503.909 215.171C506.928 211.222 510.135 207.363 513.482 203.676C515.461 201.469 517.556 199.261 519.928 196.891C521.229 195.591 522.546 194.324 523.864 193.073C527.521 189.631 531.276 186.385 535.007 183.393C538.729 180.393 542.738 177.45 546.902 174.613C550.96 171.85 555.239 169.193 559.608 166.724C564.042 164.206 568.624 161.868 573.222 159.758C577.999 157.535 582.974 155.491 588.022 153.7C593.511 151.722 599.148 149.981 604.785 148.566C609.146 147.455 613.564 146.531 618.014 145.746V144.078C613.433 144.879 608.884 145.828 604.384 146.972C598.682 148.403 592.996 150.169 587.457 152.164V152.155Z" fill="#F8F6F4"/>
<path d="M486.361 277.826C486.737 278.439 487.121 279.044 487.531 279.657C505.21 219.389 555.558 172.953 618.006 160.837V159.153C555.272 171.204 504.589 217.55 486.361 277.834V277.826Z" fill="#F8F6F4"/>
<path d="M539.138 314.313C539.678 314.427 540.226 314.525 540.766 314.623C545.806 270.681 576.805 234.513 618.006 221.834V220.117C575.987 232.837 544.317 269.602 539.138 314.304V314.313Z" fill="#F8F6F4"/>
<path d="M524.739 310.028C525.246 310.241 525.778 310.437 526.302 310.642C533.035 260.306 569.835 219.34 618.006 206.423V204.73C569.115 217.647 531.701 259.055 524.739 310.037V310.028Z" fill="#F8F6F4"/>
<path d="M510.864 302.786C511.354 303.113 511.853 303.448 512.361 303.742C521.777 248.387 563.854 203.995 618.006 191.127V189.427C563.249 202.287 520.632 246.956 510.864 302.786Z" fill="#F8F6F4"/>
<path d="M497.863 292.247C498.322 292.721 498.788 293.171 499.246 293.596C512.336 234.816 559.002 188.543 618.006 175.937V174.261C558.544 186.827 511.428 233.205 497.855 292.247H497.863Z" fill="#F8F6F4"/>
<path d="M553.906 315.841C554.216 315.858 554.552 315.858 554.863 315.858C555.092 315.858 555.321 315.858 555.558 315.841C559.902 279.576 584.675 249.515 618.014 237.465V235.715C583.767 247.872 558.283 278.668 553.914 315.849L553.906 315.841Z" fill="#F8F6F4"/>
<path d="M569.033 314.607C569.614 314.509 570.186 314.411 570.751 314.28C575.193 286.991 593.405 264.247 618.014 253.423V251.624C592.399 262.628 573.443 286.238 569.041 314.607H569.033Z" fill="#F8F6F4"/>
<path d="M568.043 512.31V525.513V527.156V540.343V542.011V555.23V556.882V570.118V571.761V584.997V586.64V593.949H569.695V586.82V585.168V571.916V570.257V557.021V555.369V542.15V540.482V527.263V525.619V512.392V510.749V435.511C569.147 435.56 568.607 435.593 568.043 435.626V510.634V512.294V512.31Z" fill="#F8F6F4"/>
<path d="M554.863 593.965V436.067C554.315 436.067 553.758 436.067 553.21 436.051V593.965H554.863Z" fill="#F8F6F4"/>
<path d="M538.386 593.965H540.03V593.957V435.52C539.474 435.487 538.926 435.438 538.377 435.389V593.965H538.386Z" fill="#F8F6F4"/>
<path d="M479.063 593.965H480.707V593.957V421.908C480.151 421.695 479.603 421.466 479.055 421.254V593.973L479.063 593.965Z" fill="#F8F6F4"/>
<path d="M493.895 593.965H495.54V593.957V427.14C494.984 426.976 494.435 426.796 493.887 426.625V593.957L493.895 593.965Z" fill="#F8F6F4"/>
<path d="M508.72 593.965H510.365V593.957V431.113C509.808 430.982 509.26 430.868 508.712 430.737V593.973L508.72 593.965Z" fill="#F8F6F4"/>
<path d="M523.553 593.965H525.197V593.957V433.876C524.649 433.811 524.109 433.729 523.545 433.631V593.965H523.553Z" fill="#F8F6F4"/>
<path d="M464.23 593.965H465.875V593.957V415.302C465.326 415.024 464.77 414.754 464.222 414.46V593.965H464.23Z" fill="#F8F6F4"/>
<path d="M451.05 593.957V407.151C450.502 406.824 449.945 406.489 449.397 406.146V593.965H451.042V593.957H451.05Z" fill="#F8F6F4"/>
<path d="M286.262 593.957H287.906V452.361C287.358 452.712 286.818 453.08 286.262 453.415V593.957Z" fill="#F8F6F4"/>
<path d="M273.082 593.957V461.198C272.534 461.444 271.985 461.697 271.429 461.934V593.957H273.082Z" fill="#F8F6F4"/>
<path d="M258.249 593.957V465.425C257.701 465.58 257.153 465.744 256.596 465.891V593.957H258.249Z" fill="#F8F6F4"/>
<path d="M198.926 593.957V468.319C198.378 468.172 197.83 468.008 197.282 467.853V593.957H198.926Z" fill="#F8F6F4"/>
<path d="M213.751 593.957V470.305C213.203 470.24 212.646 470.175 212.098 470.093V593.957H213.751Z" fill="#F8F6F4"/>
<path d="M228.583 593.957V469.741C228.305 469.741 228.035 469.758 227.757 469.758C227.479 469.758 227.209 469.741 226.931 469.741V593.957H228.583Z" fill="#F8F6F4"/>
<path d="M243.416 593.957V468.491C242.868 468.564 242.32 468.63 241.772 468.695V593.949H243.416V593.957Z" fill="#F8F6F4"/>
<path d="M184.094 593.965V463.912C183.537 463.675 182.997 463.422 182.441 463.177V593.965H184.094Z" fill="#F8F6F4"/>
<path d="M167.616 513.823V547.006V552.525V593.974H169.261V452.255C168.704 451.911 168.164 451.551 167.616 451.2V483.043V485.871V510.422V513.831V513.823Z" fill="#F8F6F4"/>
<path d="M449.397 406.145C449.945 406.489 450.502 406.824 451.05 407.151C455.353 409.751 459.739 412.203 464.23 414.46C464.778 414.754 465.335 415.016 465.883 415.302C470.186 417.444 474.579 419.414 479.063 421.245C479.611 421.458 480.151 421.687 480.715 421.899C485.035 423.632 489.429 425.194 493.896 426.625C494.444 426.788 494.984 426.968 495.548 427.14C499.884 428.472 504.278 429.674 508.728 430.729C509.276 430.859 509.816 430.974 510.381 431.105C514.717 432.094 519.11 432.928 523.561 433.623C524.117 433.721 524.665 433.803 525.214 433.868C529.566 434.53 533.968 435.021 538.394 435.38C538.942 435.429 539.482 435.478 540.046 435.511C544.399 435.838 548.8 436.002 553.226 436.043C553.775 436.059 554.331 436.059 554.879 436.059C559.313 436.059 563.715 435.912 568.059 435.626C568.616 435.593 569.164 435.56 569.712 435.511C586.467 434.285 602.65 430.974 618.031 425.873V424.139C602.666 429.282 586.484 432.617 569.712 433.86C569.156 433.892 568.607 433.942 568.059 433.958C563.69 434.252 559.305 434.399 554.879 434.399C554.331 434.399 553.775 434.399 553.226 434.383C548.792 434.35 544.407 434.17 540.046 433.86C539.498 433.811 538.942 433.778 538.394 433.729C533.959 433.369 529.558 432.854 525.214 432.2C524.657 432.118 524.109 432.037 523.561 431.939C519.11 431.244 514.709 430.41 510.381 429.404C509.825 429.29 509.276 429.159 508.728 429.012C504.278 427.974 499.876 426.755 495.548 425.407C494.992 425.243 494.444 425.063 493.896 424.883C489.429 423.453 485.035 421.867 480.715 420.109C480.167 419.913 479.611 419.684 479.063 419.447C474.579 417.615 470.178 415.612 465.883 413.438C465.326 413.176 464.778 412.898 464.23 412.612C459.73 410.323 455.345 407.854 451.05 405.222C450.502 404.895 449.945 404.543 449.397 404.183C393.028 368.964 355.468 306.374 355.468 235.167V-5.146H353.823V235.167C353.823 307.322 392.087 370.722 449.397 406.137V406.145Z" fill="#F8F6F4"/>
<path d="M449.397 388.43C449.945 388.822 450.502 389.206 451.05 389.566C455.321 392.444 459.714 395.15 464.23 397.668C464.778 397.978 465.335 398.289 465.883 398.592C470.17 400.93 474.571 403.121 479.063 405.116C479.611 405.361 480.151 405.606 480.715 405.843C485.035 407.74 489.412 409.448 493.896 410.994C494.444 411.19 495 411.386 495.548 411.574C499.884 413.037 504.261 414.337 508.728 415.457C509.276 415.604 509.816 415.752 510.381 415.866C514.717 416.953 519.11 417.861 523.561 418.597C524.109 418.711 524.666 418.793 525.214 418.875C529.566 419.578 533.943 420.125 538.394 420.501C538.942 420.567 539.482 420.616 540.046 420.649C544.399 420.992 548.8 421.188 553.226 421.229C553.775 421.245 554.331 421.245 554.879 421.245C559.313 421.245 563.715 421.098 568.059 420.771C568.616 420.755 569.164 420.706 569.712 420.657C586.541 419.324 602.74 415.719 618.031 410.201V408.451C602.756 414.027 586.557 417.665 569.712 419.005C569.156 419.054 568.607 419.087 568.059 419.12C563.707 419.43 559.305 419.594 554.879 419.594C554.331 419.594 553.775 419.594 553.226 419.578C548.792 419.545 544.391 419.349 540.046 418.997C539.498 418.964 538.958 418.915 538.394 418.85C533.959 418.474 529.558 417.91 525.214 417.207C524.657 417.125 524.109 417.027 523.561 416.929C519.11 416.169 514.709 415.253 510.381 414.166C509.825 414.051 509.276 413.904 508.728 413.773C504.261 412.62 499.868 411.304 495.548 409.841C495 409.645 494.444 409.465 493.896 409.244C489.412 407.699 485.011 405.949 480.715 404.045C480.159 403.816 479.611 403.57 479.063 403.317C474.563 401.289 470.162 399.082 465.883 396.695C465.326 396.417 464.778 396.098 464.23 395.787C459.714 393.237 455.312 390.506 451.05 387.588C450.494 387.212 449.945 386.827 449.397 386.435C401.61 353.072 370.3 297.717 370.3 235.175V-5.1377H368.656V235.175C368.656 298.673 400.661 354.854 449.397 388.43Z" fill="#F8F6F4"/>
<path d="M449.397 370.084C449.946 370.51 450.485 370.927 451.05 371.335C455.288 374.581 459.681 377.622 464.23 380.459C464.778 380.819 465.318 381.154 465.883 381.481C470.153 384.097 474.547 386.517 479.063 388.741C479.611 389.018 480.151 389.28 480.715 389.55C485.002 391.626 489.404 393.515 493.896 395.232C494.444 395.444 495 395.665 495.548 395.861C499.868 397.455 504.245 398.878 508.728 400.129C509.276 400.292 509.816 400.439 510.381 400.57C514.717 401.739 519.094 402.745 523.561 403.546C524.109 403.66 524.666 403.759 525.214 403.857C529.55 404.609 533.943 405.206 538.394 405.639C538.942 405.704 539.482 405.753 540.046 405.786C544.399 406.162 548.8 406.383 553.227 406.416C553.775 406.432 554.331 406.432 554.879 406.432C559.313 406.432 563.715 406.268 568.059 405.941C568.616 405.892 569.164 405.843 569.712 405.794C586.639 404.339 602.854 400.39 618.031 394.365V392.583C602.871 398.673 586.655 402.663 569.712 404.135C569.164 404.2 568.624 404.249 568.059 404.282C563.707 404.625 559.305 404.789 554.879 404.789C554.331 404.789 553.775 404.789 553.227 404.772C548.776 404.74 544.391 404.527 540.046 404.126C539.49 404.094 538.942 404.045 538.394 403.996C533.943 403.571 529.542 402.957 525.214 402.189C524.666 402.107 524.109 402.009 523.561 401.895C519.094 401.069 514.709 400.047 510.381 398.862C509.833 398.731 509.276 398.584 508.728 398.436C504.261 397.169 499.868 395.722 495.548 394.087C495 393.891 494.444 393.695 493.896 393.458C489.396 391.741 484.994 389.82 480.715 387.727C480.159 387.465 479.611 387.187 479.063 386.901C474.547 384.645 470.145 382.192 465.883 379.543C465.326 379.216 464.778 378.865 464.23 378.521C459.681 375.66 455.28 372.562 451.05 369.267C450.494 368.834 449.946 368.409 449.397 367.983C410.258 336.876 385.133 288.895 385.133 235.184V-5.12939H383.489V235.184C383.489 289.901 409.309 338.708 449.406 370.093L449.397 370.084Z" fill="#F8F6F4"/>
<path d="M454.028 283.982C454.421 284.775 454.822 285.56 455.214 286.353C458.25 292.231 461.792 297.798 465.793 303.014C466.251 303.636 466.734 304.249 467.224 304.854C470.914 309.497 474.972 313.83 479.333 317.795C479.84 318.286 480.372 318.752 480.895 319.193C484.97 322.798 489.314 326.093 493.879 329.053C494.427 329.412 494.967 329.756 495.532 330.107C499.753 332.74 504.147 335.111 508.712 337.187C509.26 337.432 509.8 337.678 510.365 337.915C514.635 339.779 519.029 341.373 523.545 342.689C524.093 342.836 524.633 343 525.197 343.147C529.501 344.332 533.894 345.256 538.377 345.91C538.926 346.008 539.482 346.074 540.03 346.139C544.35 346.728 548.743 347.046 553.21 347.112C553.758 347.128 554.315 347.128 554.863 347.128C559.33 347.128 563.731 346.867 568.043 346.352C568.599 346.286 569.147 346.221 569.695 346.139C587.441 343.784 603.885 337.252 618.014 327.581V325.562C603.943 335.405 587.49 342.076 569.695 344.471C569.147 344.553 568.607 344.618 568.043 344.684C563.723 345.207 559.33 345.477 554.863 345.477C554.315 345.477 553.758 345.477 553.21 345.46C548.743 345.395 544.35 345.068 540.03 344.471C539.474 344.406 538.926 344.324 538.377 344.259C533.894 343.58 529.492 342.632 525.197 341.43C524.641 341.283 524.093 341.119 523.545 340.956C519.012 339.623 514.611 338.013 510.365 336.116C509.816 335.887 509.26 335.642 508.712 335.372C504.147 333.263 499.729 330.843 495.532 328.161C495.074 327.867 494.624 327.581 494.182 327.27C494.1 327.221 494.018 327.172 493.936 327.107C493.92 327.107 493.904 327.091 493.887 327.074C489.339 324.057 485.035 320.722 481.018 317.092C480.495 316.618 479.963 316.136 479.456 315.645C475.119 311.615 471.135 307.233 467.511 302.556C467.036 301.927 466.57 301.306 466.112 300.676C462.177 295.387 458.708 289.721 455.779 283.761C455.386 282.952 454.985 282.151 454.609 281.342C448.097 267.28 444.456 251.632 444.456 235.151V-5.16211H442.811V235.151C442.811 252.638 446.845 269.201 454.036 283.958L454.028 283.982Z" fill="#F8F6F4"/>
<path d="M450.404 307.053C450.862 307.748 451.361 308.435 451.852 309.113C455.607 314.329 459.747 319.259 464.263 323.837C464.795 324.393 465.335 324.94 465.891 325.48C470.006 329.551 474.408 333.32 479.055 336.795C479.603 337.203 480.143 337.604 480.707 337.996C484.913 341.046 489.306 343.825 493.887 346.343C494.436 346.638 494.976 346.94 495.54 347.218C499.794 349.491 504.188 351.518 508.72 353.292C509.268 353.505 509.825 353.718 510.373 353.914C514.66 355.524 519.061 356.914 523.553 358.05C524.101 358.198 524.641 358.328 525.206 358.459C529.525 359.497 533.902 360.323 538.386 360.895C538.934 360.977 539.474 361.043 540.038 361.092C544.358 361.607 548.751 361.901 553.218 361.934C553.767 361.966 554.307 361.966 554.871 361.966C559.322 361.966 563.723 361.737 568.051 361.272C568.607 361.222 569.156 361.173 569.704 361.092C587.13 359.064 603.468 353.464 618.023 345.093V343.204C603.517 351.706 587.155 357.38 569.704 359.448C569.156 359.514 568.616 359.579 568.051 359.628C563.715 360.086 559.322 360.323 554.871 360.323C554.323 360.323 553.767 360.323 553.218 360.307C548.768 360.258 544.366 359.963 540.038 359.448C539.482 359.383 538.934 359.318 538.386 359.236C533.919 358.655 529.525 357.838 525.206 356.767C524.657 356.652 524.117 356.505 523.553 356.358C519.053 355.205 514.652 353.807 510.373 352.156C509.825 351.96 509.268 351.747 508.72 351.535C504.188 349.736 499.786 347.684 495.54 345.379C494.984 345.084 494.436 344.782 493.887 344.471C489.306 341.921 484.904 339.067 480.707 335.977C480.151 335.568 479.603 335.151 479.055 334.743C474.408 331.203 470.023 327.352 465.907 323.199C465.384 322.66 464.836 322.112 464.312 321.556C459.861 316.912 455.779 311.925 452.081 306.62C451.606 305.941 451.124 305.254 450.666 304.543C437.371 284.685 429.623 260.822 429.623 235.184V-5.12939H427.979V235.184C427.979 261.843 436.266 286.623 450.404 307.061V307.053Z" fill="#F8F6F4"/>
<path d="M449.397 329.641C449.929 330.246 450.469 330.843 451.05 331.44C455.149 335.887 459.567 340.065 464.23 343.956C464.778 344.414 465.318 344.864 465.883 345.305C470.088 348.714 474.481 351.878 479.063 354.772C479.611 355.132 480.151 355.475 480.715 355.81C484.97 358.426 489.363 360.83 493.896 363.005C494.444 363.266 494.984 363.52 495.548 363.765C499.835 365.76 504.237 367.534 508.728 369.079C509.276 369.275 509.816 369.455 510.381 369.635C514.684 371.065 519.078 372.284 523.561 373.289C524.109 373.42 524.666 373.534 525.214 373.649C529.533 374.589 533.927 375.317 538.394 375.823C538.942 375.889 539.498 375.954 540.046 376.003C544.383 376.461 548.776 376.706 553.227 376.764C553.775 376.78 554.331 376.78 554.879 376.78C559.33 376.78 563.731 376.584 568.059 376.167C568.607 376.118 569.164 376.069 569.712 376.003C586.917 374.205 603.206 369.299 618.031 361.901V360.061C603.231 367.558 586.942 372.529 569.712 374.344C569.164 374.409 568.624 374.474 568.059 374.507C563.723 374.916 559.33 375.129 554.879 375.129C554.331 375.129 553.775 375.129 553.227 375.112C548.776 375.063 544.374 374.818 540.046 374.336C539.49 374.286 538.942 374.221 538.394 374.156C533.927 373.641 529.533 372.905 525.214 371.965C524.657 371.85 524.109 371.736 523.561 371.605C519.078 370.583 514.676 369.332 510.381 367.885C509.825 367.705 509.276 367.525 508.728 367.329C504.212 365.768 499.827 363.969 495.548 361.942C494.992 361.696 494.444 361.427 493.896 361.165C489.363 358.958 484.962 356.522 480.715 353.856C480.159 353.529 479.611 353.178 479.063 352.818C474.481 349.85 470.08 346.646 465.883 343.188C465.326 342.73 464.778 342.264 464.23 341.806C459.567 337.841 455.165 333.573 451.05 329.044C450.526 328.464 449.995 327.875 449.487 327.287C449.455 327.254 449.422 327.221 449.406 327.189C427.872 302.573 414.799 270.378 414.799 235.175V-5.1377H413.154V235.175C413.154 271.449 426.866 304.567 449.406 329.641H449.397Z" fill="#F8F6F4"/>
<path d="M449.397 350.668C449.945 351.158 450.485 351.657 451.05 352.131C455.255 355.867 459.648 359.375 464.23 362.653C464.778 363.029 465.334 363.43 465.883 363.789C470.137 366.741 474.514 369.488 479.063 371.989C479.611 372.3 480.151 372.602 480.715 372.897C484.986 375.218 489.379 377.328 493.895 379.241C494.444 379.486 494.984 379.698 495.548 379.936C499.851 381.718 504.245 383.296 508.728 384.677C509.276 384.841 509.833 385.004 510.381 385.151C514.701 386.451 519.094 387.555 523.561 388.462C524.109 388.577 524.649 388.675 525.214 388.773C529.55 389.615 533.943 390.269 538.394 390.735C538.942 390.801 539.498 390.866 540.046 390.899C544.399 391.324 548.776 391.561 553.226 391.594C553.775 391.61 554.331 391.61 554.879 391.61C559.313 391.61 563.715 391.43 568.059 391.046C568.607 391.013 569.164 390.964 569.712 390.899C586.754 389.296 603.01 384.939 618.031 378.3V376.494C603.026 383.214 586.77 387.629 569.712 389.255C569.164 389.304 568.624 389.354 568.059 389.403C563.707 389.779 559.33 389.958 554.879 389.958C554.331 389.958 553.775 389.958 553.226 389.942C548.776 389.909 544.374 389.664 540.046 389.255C539.498 389.206 538.942 389.157 538.394 389.076C533.943 388.634 529.542 387.956 525.214 387.113C524.657 387.015 524.109 386.901 523.561 386.786C519.094 385.863 514.701 384.759 510.381 383.443C509.825 383.296 509.276 383.132 508.728 382.952C504.245 381.554 499.843 379.952 495.548 378.162C495 377.949 494.444 377.712 493.895 377.467C489.379 375.537 484.978 373.395 480.715 371.041C480.159 370.747 479.611 370.444 479.063 370.117C474.514 367.583 470.112 364.795 465.883 361.803C465.334 361.427 464.778 361.026 464.23 360.634C459.632 357.323 455.231 353.75 451.05 349.949C450.494 349.458 449.945 348.959 449.397 348.452C418.995 320.166 399.958 279.853 399.958 235.175V-5.1377H398.313V235.175C398.313 280.867 418.022 322.054 449.397 350.668Z" fill="#F8F6F4"/>
<path d="M460.868 260.053C461.113 260.977 461.383 261.917 461.661 262.816C463.657 269.569 466.39 276.003 469.736 282.044C470.112 282.756 470.513 283.442 470.922 284.137C473.974 289.345 477.5 294.25 481.452 298.779C481.894 299.327 482.376 299.85 482.851 300.373C486.475 304.379 490.443 308.066 494.681 311.426C495.196 311.835 495.72 312.236 496.244 312.612C500.212 315.645 504.433 318.359 508.867 320.746C509.407 321.041 509.956 321.319 510.495 321.605C514.684 323.763 519.037 325.619 523.545 327.139V327.156C523.676 327.205 523.806 327.254 523.954 327.286C524.363 327.434 524.78 327.564 525.189 327.679C529.46 329.061 533.853 330.148 538.369 330.925C538.917 331.023 539.457 331.104 540.022 331.202C544.325 331.865 548.719 332.241 553.202 332.306C553.75 332.323 554.306 332.323 554.855 332.323C559.322 332.323 563.74 332.028 568.035 331.415C568.591 331.35 569.139 331.284 569.687 331.202C587.964 328.39 604.564 320.46 618.006 308.957V306.807C604.671 318.563 588.038 326.657 569.687 329.527C569.139 329.608 568.583 329.69 568.035 329.755C563.715 330.36 559.322 330.679 554.855 330.679C554.298 330.679 553.75 330.679 553.202 330.663C548.719 330.598 544.317 330.205 540.022 329.527C539.466 329.445 538.917 329.363 538.369 329.249C533.853 328.472 529.468 327.368 525.206 325.97C524.666 325.807 524.117 325.627 523.577 325.431C519.078 323.869 514.725 321.973 510.561 319.782C510.021 319.52 509.489 319.217 508.966 318.923C504.564 316.52 500.367 313.756 496.424 310.691C495.908 310.315 495.401 309.898 494.91 309.489C490.672 306.096 486.753 302.344 483.194 298.272C482.72 297.749 482.254 297.218 481.812 296.678C477.926 292.084 474.465 287.113 471.479 281.824C471.086 281.129 470.702 280.426 470.342 279.714C467.061 273.558 464.459 267.002 462.594 260.135C462.332 259.178 462.103 258.222 461.866 257.265C460.172 250.169 459.28 242.778 459.28 235.167V-5.146H457.636V235.167C457.636 243.759 458.757 252.098 460.868 260.045V260.053Z" fill="#F8F6F4"/>
<path d="M472.469 235.175C472.469 235.854 472.469 236.524 472.501 237.203C472.681 245.354 474.08 253.21 476.486 260.617C476.764 261.443 477.042 262.244 477.328 263.053C479.488 269.029 482.319 274.678 485.731 279.911C486.107 280.524 486.524 281.112 486.933 281.709C490.018 286.206 493.527 290.367 497.43 294.16C497.888 294.61 498.354 295.051 498.829 295.476C502.437 298.853 506.38 301.886 510.544 304.567C511.035 304.878 511.551 305.189 512.058 305.507C515.993 307.911 520.149 309.988 524.502 311.729C525.025 311.925 525.557 312.121 526.081 312.326C530.221 313.871 534.516 315.089 538.934 315.964C539.474 316.078 540.038 316.176 540.586 316.274C544.857 317.018 549.234 317.443 553.701 317.492C554.077 317.509 554.478 317.509 554.855 317.509H555.345C559.911 317.476 564.394 317.076 568.763 316.323C569.344 316.242 569.9 316.127 570.481 316.013C589.421 312.367 606.07 302.213 618.006 287.988V285.38C606.356 299.981 589.748 310.486 570.743 314.28C570.178 314.41 569.605 314.508 569.025 314.607C564.639 315.4 560.14 315.808 555.55 315.841C555.321 315.857 555.084 315.857 554.855 315.857C554.544 315.857 554.208 315.857 553.897 315.841C549.414 315.792 545.029 315.383 540.766 314.623C540.226 314.525 539.678 314.427 539.138 314.312C534.72 313.438 530.417 312.203 526.302 310.642C525.778 310.445 525.246 310.249 524.739 310.028C520.419 308.287 516.271 306.178 512.361 303.742C511.853 303.447 511.354 303.12 510.864 302.785C506.707 300.087 502.821 297.005 499.246 293.596C498.788 293.163 498.322 292.721 497.863 292.247C494.01 288.429 490.549 284.194 487.53 279.649C487.121 279.036 486.737 278.431 486.36 277.818C483.014 272.479 480.282 266.716 478.236 260.641C477.975 259.816 477.713 258.982 477.459 258.14C475.283 250.864 474.113 243.138 474.113 235.167V234.08V230.638V-5.146H472.469V233.704V235.167V235.175Z" fill="#F8F6F4"/>
<path fill-rule="evenodd" clip-rule="evenodd" d="M295.04 442.313C299 431.685 297.077 423.698 291.547 413.757L290.009 411.116C266.381 378.726 232.511 343.466 191.948 333.238C180.248 330.287 170.872 330.532 161.325 339.075C161.3 339.1 161.259 339.133 161.227 339.157C140.741 357.519 143.637 449.082 188.11 465.654C211.125 474.23 284.216 471.426 295.049 442.305L295.04 442.313Z" stroke="#F8F6F4" stroke-width="2" stroke-miterlimit="22.9256"/>
<path fill-rule="evenodd" clip-rule="evenodd" d="M274.448 362.604C250.665 361.092 210.634 411.983 213.374 423.968C213.694 425.374 214.814 429.838 215.567 431.04C222.333 443 247.482 441.945 258.535 441.569C275.749 440.973 293.142 427.565 292.758 411.255C292.381 394.929 294.549 363.888 274.44 362.604H274.448Z" stroke="#F8F6F4" stroke-width="2" stroke-miterlimit="22.9256"/>
<path fill-rule="evenodd" clip-rule="evenodd" d="M405.185 569.766C384.716 560.503 332.421 592.027 330.842 603.514C330.654 604.863 330.155 609.171 330.416 610.487C332.388 623.29 354.919 630.754 364.786 634.098C380.167 639.313 399.982 633.288 405.095 618.777C410.209 604.25 422.497 577.606 405.194 569.766H405.185Z" stroke="#F8F6F4" stroke-width="2" stroke-miterlimit="22.9256"/>
</g>
<defs>
<clipPath id="clip0_10_491">
<rect width="618" height="800" fill="white"/>
</clipPath>
</defs>
</svg>
