<svg width="470" height="600" viewBox="0 0 470 600" fill="none" xmlns="http://www.w3.org/2000/svg">
<path d="M421.696 372.408C438.459 373.643 454.642 376.978 470.014 382.121V380.387C454.642 375.294 438.451 371.991 421.696 370.765V372.408Z" fill="#F8F6F4"/>
<path d="M421.696 387.279C438.533 388.62 454.74 392.242 470.014 397.817V396.068C454.732 390.549 438.525 386.96 421.696 385.636V387.279Z" fill="#F8F6F4"/>
<path d="M421.696 402.166C438.631 403.63 454.854 407.603 470.014 413.693V411.911C454.846 405.886 438.623 401.954 421.696 400.499V402.166Z" fill="#F8F6F4"/>
<path d="M421.532 461.756C439.392 464.135 455.893 470.823 470.014 480.69V478.679C455.853 468.992 439.384 462.451 421.597 460.105C421.581 460.661 421.565 461.209 421.532 461.756Z" fill="#F8F6F4"/>
<path d="M421.696 446.836C439.146 448.896 455.501 454.562 470.014 463.064V461.192C455.468 452.821 439.122 447.229 421.696 445.193V446.844V446.836Z" fill="#F8F6F4"/>
<path d="M421.696 431.933C438.917 433.748 455.214 438.718 470.014 446.215V444.375C455.19 436.969 438.901 432.063 421.696 430.265V431.924V431.933Z" fill="#F8F6F4"/>
<path d="M421.696 417.029C438.754 418.656 455.01 423.062 470.014 429.783V427.992C454.994 421.346 438.745 416.988 421.696 415.378V417.029Z" fill="#F8F6F4"/>
<path d="M420.427 476.578C439.277 479.26 456.368 487.459 470.014 499.477V497.319C456.303 485.587 439.31 477.584 420.607 474.927C420.542 475.475 420.493 476.03 420.427 476.578Z" fill="#F8F6F4"/>
<path d="M418.513 489.601C418.431 490.141 418.333 490.689 418.219 491.228C439.097 494.171 457.44 505.134 470.014 520.88V518.297C457.252 503.083 439.105 492.512 418.521 489.593L418.513 489.601Z" fill="#F8F6F4"/>
<path d="M41.4604 541.302C41.1331 540.656 40.8141 540.002 40.5032 539.323C40.5032 539.323 40.5032 539.323 40.5032 539.332C40.8141 540.002 41.125 540.664 41.4604 541.302Z" fill="#F8F6F4"/>
<path d="M33.1564 521.771C32.8455 520.929 32.551 520.095 32.2646 519.237C32.2646 519.237 32.2646 519.237 32.2646 519.245C32.5428 520.103 32.8373 520.937 33.1564 521.779V521.771Z" fill="#F8F6F4"/>
<path d="M419.945 459.909C419.945 460.448 419.912 461.012 419.879 461.552C419.732 465.95 419.421 470.348 418.955 474.706C418.906 475.245 418.857 475.793 418.791 476.333C418.3 480.715 417.67 485.064 416.877 489.372C416.795 489.92 416.697 490.46 416.582 490.983C415.919 494.588 415.134 498.161 414.259 501.701L414.226 501.815C412.86 507.415 411.174 513.146 409.235 518.844C407.419 524.044 405.447 529.121 403.337 533.895C401.291 538.555 399.033 543.215 396.595 547.744C394.337 552.012 391.785 556.385 389.011 560.718C386.377 564.871 383.538 568.983 380.592 572.916C377.778 576.717 374.661 580.592 371.331 584.427C368.149 588.065 364.884 591.572 361.628 594.85C361.514 594.965 361.399 595.079 361.236 595.226C357.742 598.701 354.069 602.093 350.313 605.306C342.664 611.847 334.589 617.774 326.121 623.039C325.581 623.366 325.033 623.717 324.477 624.044C320.173 626.677 315.78 629.129 311.297 631.402C310.757 631.696 310.192 631.974 309.652 632.244C305.333 634.402 300.931 636.397 296.472 638.204C295.932 638.449 295.384 638.678 294.828 638.882C290.492 640.632 286.098 642.226 281.648 643.64C281.108 643.82 280.56 643.984 280.003 644.147C275.651 645.512 271.274 646.714 266.823 647.769C266.283 647.9 265.719 648.03 265.179 648.145C260.826 649.151 256.425 650.009 251.999 650.712C251.459 650.794 250.91 650.876 250.354 650.957C245.985 651.619 241.584 652.126 237.174 652.486C236.634 652.535 236.069 652.584 235.53 652.617C231.144 652.944 226.759 653.124 222.349 653.156C221.809 653.173 221.245 653.173 220.705 653.173C216.271 653.173 211.886 653.026 207.525 652.739C206.985 652.707 206.42 652.658 205.88 652.625C133.59 647.287 71.9113 603.279 41.5259 541.261C41.1986 540.615 40.8796 539.961 40.5687 539.291C40.5687 539.291 40.5687 539.291 40.5687 539.283C37.8525 533.584 35.3981 527.723 33.2218 521.73C32.911 520.888 32.6164 520.054 32.3301 519.196C32.3301 519.196 32.3301 519.196 32.3301 519.188C29.4339 510.922 27.094 502.396 25.3105 493.681C25.016 492.185 24.7215 490.705 24.4515 489.201C22.3898 477.739 21.318 465.95 21.318 453.916H19.6736C19.6736 467.536 21.0399 480.821 23.6252 493.681C23.887 495.013 24.1815 496.346 24.4842 497.678C24.4842 497.678 24.4842 497.678 24.4842 497.687C26.3086 505.903 28.6485 513.923 31.4547 521.722C31.7492 522.531 32.0437 523.333 32.3628 524.142C34.539 529.987 36.9934 535.718 39.7096 541.277C39.7096 541.277 39.7096 541.277 39.7096 541.286C40.0205 541.94 40.3314 542.585 40.6505 543.223C71.535 605.118 133.427 648.954 205.88 654.26C206.42 654.309 206.969 654.342 207.525 654.375C211.877 654.652 216.279 654.8 220.705 654.8C221.245 654.8 221.809 654.8 222.349 654.783C226.751 654.751 231.153 654.571 235.53 654.244C236.069 654.211 236.634 654.178 237.174 654.129C241.592 653.77 245.993 653.254 250.354 652.6C250.894 652.535 251.459 652.437 251.999 652.355C256.433 651.668 260.834 650.826 265.179 649.821C265.719 649.706 266.283 649.576 266.823 649.445C271.257 648.407 275.659 647.205 280.003 645.856C280.56 645.692 281.108 645.529 281.648 645.349C286.098 643.935 290.5 642.365 294.828 640.64C295.368 640.427 295.932 640.215 296.472 639.978C300.939 638.163 305.341 636.193 309.652 634.051C310.209 633.789 310.757 633.527 311.297 633.225C315.78 630.985 320.182 628.549 324.477 625.949C325.017 625.622 325.581 625.287 326.121 624.96C334.957 619.507 343.408 613.351 351.369 606.533C355.173 603.303 358.879 599.878 362.356 596.387C362.52 596.256 362.651 596.125 362.798 595.962C366.095 592.684 369.376 589.16 372.583 585.489C375.929 581.606 379.079 577.698 381.91 573.88C384.88 569.891 387.743 565.762 390.394 561.577C393.192 557.195 395.769 552.78 398.043 548.488C400.498 543.926 402.788 539.233 404.85 534.525C406.977 529.701 408.965 524.592 410.782 519.343C412.778 513.579 414.471 507.767 415.854 502.085L415.87 501.987C416.762 498.414 417.539 494.809 418.21 491.187C418.325 490.648 418.423 490.1 418.505 489.56C419.298 485.244 419.92 480.903 420.419 476.537C420.485 475.989 420.534 475.433 420.599 474.886C421.041 470.52 421.36 466.122 421.524 461.715C421.556 461.167 421.573 460.628 421.589 460.064C421.655 458.02 421.687 455.984 421.687 453.924H420.035C420.035 455.903 420.002 457.889 419.936 459.868L419.945 459.909Z" fill="#F8F6F4"/>
<path d="M38.7278 493.632C38.9896 494.997 39.3005 496.338 39.6523 497.687C41.6158 505.838 44.1193 513.792 47.1382 521.501C47.4491 522.311 47.7845 523.112 48.1118 523.921C74.0466 587.599 134.31 633.797 205.831 639.447C206.371 639.496 206.919 639.545 207.476 639.561C211.828 639.888 216.23 640.035 220.656 640.035C221.196 640.035 221.76 640.035 222.3 640.019C226.718 639.986 231.103 639.79 235.48 639.422C236.02 639.389 236.569 639.357 237.125 639.291C241.543 638.915 245.944 638.351 250.305 637.64C250.861 637.558 251.409 637.46 251.949 637.378C256.384 636.618 260.785 635.702 265.13 634.631C265.669 634.5 266.234 634.37 266.774 634.223C271.225 633.086 275.626 631.786 279.954 630.323C280.51 630.143 281.059 629.963 281.598 629.767C286.065 628.238 290.467 626.521 294.779 624.633C295.319 624.404 295.883 624.175 296.423 623.905C300.906 621.927 305.292 619.752 309.603 617.414C310.143 617.12 310.708 616.809 311.248 616.507C315.747 614.005 320.149 611.324 324.428 608.438C324.968 608.062 325.532 607.694 326.072 607.301C330.997 603.941 335.759 600.32 340.34 596.453C344.128 593.305 347.834 589.929 351.344 586.438C351.671 586.144 351.974 585.849 352.269 585.53C355.402 582.416 358.511 579.056 361.563 575.548C364.909 571.665 368.059 567.725 370.889 563.825C373.99 559.607 376.837 555.364 379.373 551.194C382.057 546.861 384.65 542.258 387.039 537.476C389.526 532.554 391.801 527.478 393.83 522.36C396.088 516.678 398.084 510.784 399.761 504.856C401.111 500.131 402.265 495.324 403.206 490.501C403.32 489.953 403.435 489.397 403.517 488.849C404.007 486.282 404.441 483.715 404.817 481.14C405.079 479.292 405.325 477.453 405.545 475.605C405.611 475.066 405.676 474.502 405.742 473.954C406.2 469.572 406.519 465.182 406.683 460.767C406.715 460.228 406.732 459.68 406.732 459.124C406.797 457.391 406.814 455.682 406.814 453.957H405.161C405.161 455.682 405.145 457.415 405.079 459.148C405.079 459.688 405.063 460.252 405.046 460.792C404.883 465.206 404.556 469.621 404.073 473.995C404.024 474.534 403.958 475.098 403.893 475.638C403.697 477.396 403.467 479.162 403.206 480.911C402.813 483.576 402.363 486.266 401.856 488.931C401.741 489.471 401.643 490.018 401.528 490.582C400.588 495.226 399.467 499.853 398.182 504.399C396.521 510.277 394.525 516.122 392.284 521.771C390.287 526.824 388.029 531.868 385.559 536.74C383.202 541.466 380.65 546.044 377.958 550.344C375.455 554.481 372.64 558.691 369.572 562.86C366.758 566.711 363.641 570.635 360.311 574.469C357.292 577.96 354.2 581.287 351.115 584.386C350.821 584.664 350.518 584.966 350.207 585.261C346.714 588.735 343.04 592.079 339.285 595.21C335.014 598.799 330.621 602.159 326.072 605.323C325.532 605.699 324.984 606.083 324.428 606.459C320.141 609.378 315.739 612.092 311.248 614.61C310.708 614.937 310.143 615.256 309.603 615.55C305.283 617.921 300.906 620.112 296.423 622.123C295.883 622.368 295.319 622.614 294.779 622.867C290.443 624.764 286.065 626.489 281.598 628.034C281.059 628.23 280.51 628.426 279.954 628.614C275.618 630.078 271.225 631.394 266.774 632.53C266.234 632.677 265.686 632.825 265.13 632.955C260.777 634.043 256.375 634.966 251.949 635.719C251.409 635.817 250.845 635.915 250.305 635.98C245.936 636.708 241.535 637.264 237.125 637.656C236.569 637.705 236.02 637.754 235.48 637.787C231.095 638.147 226.71 638.343 222.3 638.384C221.76 638.4 221.196 638.4 220.656 638.4C216.222 638.4 211.82 638.237 207.476 637.926C206.936 637.893 206.388 637.861 205.831 637.811C134.327 632.113 74.1856 585.498 48.9054 521.477C48.5781 520.651 48.2427 519.809 47.9482 518.975C44.8311 510.792 42.3112 502.33 40.3968 493.632C40.0695 492.136 39.7505 490.631 39.4723 489.119C37.247 477.739 36.0934 465.999 36.0934 453.982H34.449C34.449 467.602 35.9134 480.87 38.736 493.648L38.7278 493.632Z" fill="#F8F6F4"/>
<path d="M220.656 625.213C315.15 625.213 392.03 548.39 392.03 453.957V453.965H390.386C390.377 547.483 314.242 623.562 220.656 623.562C127.07 623.562 50.9262 547.474 50.9262 453.957H49.2736C49.2736 548.39 126.153 625.213 220.656 625.213Z" fill="#F8F6F4"/>
<path d="M220.656 565.934C282.441 565.934 332.707 515.705 332.707 453.957V453.965H331.063C331.055 514.798 281.533 564.283 220.656 564.283C159.779 564.283 110.249 514.789 110.249 453.957H108.596C108.596 515.697 158.862 565.934 220.656 565.934Z" fill="#F8F6F4"/>
<path d="M220.656 580.748C290.622 580.748 347.54 523.872 347.54 453.957V453.965H345.895C345.887 522.965 289.714 579.105 220.656 579.105C151.597 579.105 95.4162 522.965 95.4162 453.957H93.7635C93.7635 523.872 150.681 580.748 220.648 580.748H220.656Z" fill="#F8F6F4"/>
<path d="M220.656 595.57C298.796 595.57 362.373 532.039 362.373 453.957V453.965H360.728C360.72 531.14 297.896 593.926 220.656 593.926C143.424 593.926 80.5834 531.14 80.5834 453.957H78.9308C78.9308 532.048 142.508 595.57 220.648 595.57H220.656Z" fill="#F8F6F4"/>
<path d="M220.656 610.392C306.977 610.392 377.205 540.215 377.205 453.957V453.965H375.561C375.553 539.307 306.069 608.74 220.664 608.74C135.251 608.74 65.7671 539.307 65.7671 453.957H64.1145C64.1145 540.215 134.343 610.392 220.664 610.392H220.656Z" fill="#F8F6F4"/>
<path d="M220.656 551.112C274.268 551.112 317.883 507.53 317.883 453.957V453.965H316.238C316.23 506.622 273.36 549.461 220.664 549.461C167.96 549.461 125.09 506.614 125.09 453.957H123.437C123.437 507.53 167.052 551.112 220.664 551.112H220.656Z" fill="#F8F6F4"/>
<path d="M220.656 536.291C266.087 536.291 303.05 499.355 303.05 453.957V453.965H301.406C301.397 498.455 265.179 534.647 220.664 534.647C176.141 534.647 139.923 498.455 139.923 453.957H138.27C138.27 499.355 175.233 536.291 220.664 536.291H220.656Z" fill="#F8F6F4"/>
<path d="M428.781 0.325724C424.084 2.16517 419.388 4.22535 414.79 6.44903C410.242 8.65636 405.791 11.0272 401.578 13.4961C397.291 15.9651 393.061 18.6466 388.97 21.4507C384.667 24.3938 380.764 27.2961 377.009 30.3291C373.188 33.3621 369.376 36.6323 365.67 40.0904C363.927 41.701 362.111 43.4341 360.295 45.2409C358.634 46.9004 356.883 48.7154 354.977 50.7592C351.516 54.4953 348.17 58.3949 345.02 62.3518C337.87 71.3446 331.537 80.8116 326.121 90.6465V94.0883C331.824 83.3705 338.565 73.1105 346.305 63.39C349.422 59.4577 352.752 55.5826 356.196 51.8792C358.094 49.8517 359.804 48.0613 361.448 46.4099C363.265 44.6195 365.04 42.8864 366.791 41.2922C370.464 37.8667 374.252 34.6048 378.032 31.6126C381.771 28.6123 385.649 25.7346 389.895 22.8242C393.953 20.0282 398.15 17.3712 402.404 14.935C406.609 12.4824 411.003 10.1279 415.519 7.93694C420.067 5.72961 424.731 3.68578 429.378 1.86269C434.205 -0.042161 439.195 -1.77532 444.211 -3.3041C452.662 -5.8875 461.285 -7.88228 470.014 -9.31296V-10.9807C461.113 -9.54186 452.326 -7.50621 443.711 -4.86559C438.672 -3.33681 433.64 -1.58729 428.781 0.342078V0.325724Z" fill="#F8F6F4"/>
<path d="M439.457 12.1553C434.385 13.9621 429.353 16.0222 424.526 18.2623C419.896 20.3879 415.265 22.7587 410.782 25.293C406.38 27.7783 402.06 30.4598 397.978 33.2476C393.756 36.109 389.723 39.093 385.984 42.1096C382.212 45.1263 378.433 48.4128 374.743 51.871C373.393 53.1381 372.076 54.4217 370.775 55.7215C368.37 58.1087 366.242 60.3488 364.263 62.5724C360.884 66.2922 357.636 70.2 354.592 74.165C344.112 87.8014 335.693 102.566 329.459 118.148C329.705 118.99 329.966 119.832 330.236 120.65C336.495 104.512 345.102 89.2321 355.909 75.1706C358.928 71.2219 362.135 67.3632 365.482 63.6761C367.461 61.4688 369.556 59.2614 371.928 56.8906C373.229 55.5907 374.546 54.3236 375.864 53.0727C379.521 49.6309 383.276 46.3853 387.007 43.3932C390.729 40.3928 394.738 37.4497 398.902 34.6129C402.96 31.8496 407.239 29.1927 411.608 26.7237C416.042 24.2057 420.624 21.8676 425.222 19.7584C429.999 17.5347 434.974 15.4908 440.022 13.7005C445.511 11.722 451.148 9.98069 456.785 8.56636C461.146 7.45452 465.564 6.53071 470.014 5.74588V4.07812C465.433 4.87931 460.884 5.82764 456.384 6.97218C450.682 8.40286 444.996 10.1687 439.457 12.1635V12.1553Z" fill="#F8F6F4"/>
<path d="M338.361 137.826C338.737 138.439 339.121 139.044 339.531 139.657C357.21 79.389 407.558 32.9532 470.006 20.8374V19.1533C407.272 31.2037 356.589 77.5495 338.361 137.834V137.826Z" fill="#F8F6F4"/>
<path d="M391.138 174.313C391.678 174.427 392.226 174.525 392.766 174.623C397.806 130.681 428.805 94.5134 470.006 81.8335V80.1167C427.987 92.8375 396.317 129.602 391.138 174.304V174.313Z" fill="#F8F6F4"/>
<path d="M376.739 170.029C377.246 170.241 377.778 170.437 378.302 170.642C385.035 120.306 421.835 79.34 470.006 66.423V64.7307C421.115 77.6477 383.701 119.056 376.739 170.037V170.029Z" fill="#F8F6F4"/>
<path d="M362.864 162.785C363.354 163.112 363.853 163.448 364.361 163.742C373.777 108.387 415.854 63.9949 470.006 51.127V49.4265C415.249 62.2863 372.632 106.956 362.864 162.785Z" fill="#F8F6F4"/>
<path d="M349.863 152.247C350.322 152.722 350.788 153.171 351.246 153.596C364.336 94.8158 411.002 48.5436 470.006 35.9373V34.2614C410.544 46.8268 363.428 93.2053 349.855 152.247H349.863Z" fill="#F8F6F4"/>
<path d="M405.906 175.841C406.216 175.858 406.552 175.858 406.863 175.858C407.092 175.858 407.321 175.858 407.558 175.841C411.902 139.576 436.675 109.515 470.014 97.4646V95.7151C435.767 107.872 410.283 138.668 405.914 175.849L405.906 175.841Z" fill="#F8F6F4"/>
<path d="M421.033 174.607C421.614 174.509 422.186 174.411 422.751 174.28C427.193 146.991 445.405 124.247 470.014 113.423V111.624C444.399 122.628 425.443 146.238 421.041 174.607H421.033Z" fill="#F8F6F4"/>
<path d="M420.043 372.31V385.513V387.156V400.343V402.011V415.23V416.882V430.118V431.761V444.997V446.64V453.949H421.695V446.82V445.168V431.916V430.257V417.021V415.369V402.15V400.482V387.263V385.619V372.392V370.749V295.511C421.147 295.56 420.607 295.593 420.043 295.626V370.634V372.294V372.31Z" fill="#F8F6F4"/>
<path d="M406.863 453.965V296.067C406.315 296.067 405.758 296.067 405.21 296.051V453.965H406.863Z" fill="#F8F6F4"/>
<path d="M390.386 453.965H392.03V453.957V295.52C391.474 295.487 390.926 295.438 390.377 295.389V453.965H390.386Z" fill="#F8F6F4"/>
<path d="M331.063 453.965H332.707V453.957V281.908C332.151 281.695 331.603 281.466 331.055 281.254V453.973L331.063 453.965Z" fill="#F8F6F4"/>
<path d="M345.895 453.965H347.54V453.957V287.14C346.984 286.976 346.435 286.796 345.887 286.625V453.957L345.895 453.965Z" fill="#F8F6F4"/>
<path d="M360.72 453.965H362.365V453.957V291.113C361.808 290.982 361.26 290.868 360.712 290.737V453.973L360.72 453.965Z" fill="#F8F6F4"/>
<path d="M375.553 453.965H377.197V453.957V293.876C376.649 293.811 376.109 293.729 375.545 293.631V453.965H375.553Z" fill="#F8F6F4"/>
<path d="M316.23 453.965H317.875V453.957V275.302C317.326 275.024 316.77 274.754 316.222 274.46V453.965H316.23Z" fill="#F8F6F4"/>
<path d="M303.05 453.957V267.151C302.502 266.824 301.945 266.489 301.397 266.146V453.965H303.042V453.957H303.05Z" fill="#F8F6F4"/>
<path d="M138.262 453.957H139.906V312.361C139.358 312.712 138.818 313.08 138.262 313.415V453.957Z" fill="#F8F6F4"/>
<path d="M125.082 453.957V321.198C124.534 321.444 123.985 321.697 123.429 321.934V453.957H125.082Z" fill="#F8F6F4"/>
<path d="M110.249 453.957V325.425C109.701 325.58 109.153 325.744 108.596 325.891V453.957H110.249Z" fill="#F8F6F4"/>
<path d="M50.9262 453.957V328.319C50.378 328.172 49.8299 328.008 49.2817 327.853V453.957H50.9262Z" fill="#F8F6F4"/>
<path d="M65.7508 453.957V330.305C65.2026 330.24 64.6463 330.175 64.0981 330.093V453.957H65.7508Z" fill="#F8F6F4"/>
<path d="M80.5834 453.957V329.741C80.3052 329.741 80.0353 329.758 79.7571 329.758C79.4789 329.758 79.209 329.741 78.9308 329.741V453.957H80.5834Z" fill="#F8F6F4"/>
<path d="M95.4162 453.957V328.491C94.868 328.564 94.3199 328.63 93.7717 328.695V453.949H95.4162V453.957Z" fill="#F8F6F4"/>
<path d="M36.0935 453.965V323.912C35.5372 323.675 34.9972 323.422 34.4409 323.177V453.965H36.0935Z" fill="#F8F6F4"/>
<path d="M19.6163 373.823V407.006V412.525V453.974H21.2608V312.255C20.7044 311.911 20.1645 311.551 19.6163 311.2V343.043V345.871V370.422V373.831V373.823Z" fill="#F8F6F4"/>
<path d="M301.397 266.146C301.945 266.489 302.502 266.824 303.05 267.151C307.353 269.751 311.739 272.204 316.23 274.46C316.778 274.754 317.335 275.016 317.883 275.302C322.186 277.444 326.579 279.414 331.063 281.246C331.611 281.458 332.151 281.687 332.715 281.9C337.035 283.633 341.429 285.194 345.896 286.625C346.444 286.788 346.984 286.968 347.548 287.14C351.884 288.473 356.278 289.674 360.728 290.729C361.276 290.86 361.816 290.974 362.381 291.105C366.717 292.094 371.11 292.928 375.561 293.623C376.117 293.721 376.665 293.803 377.214 293.868C381.566 294.53 385.968 295.021 390.394 295.381C390.942 295.43 391.482 295.479 392.046 295.511C396.399 295.838 400.8 296.002 405.226 296.043C405.775 296.059 406.331 296.059 406.879 296.059C411.313 296.059 415.715 295.912 420.059 295.626C420.616 295.593 421.164 295.56 421.712 295.511C438.467 294.285 454.65 290.974 470.031 285.873V284.14C454.666 289.282 438.484 292.617 421.712 293.86C421.156 293.893 420.607 293.942 420.059 293.958C415.69 294.252 411.305 294.4 406.879 294.4C406.331 294.4 405.775 294.4 405.226 294.383C400.792 294.351 396.407 294.171 392.046 293.86C391.498 293.811 390.942 293.778 390.394 293.729C385.959 293.37 381.558 292.854 377.214 292.2C376.657 292.119 376.109 292.037 375.561 291.939C371.11 291.244 366.709 290.41 362.381 289.405C361.825 289.29 361.276 289.159 360.728 289.012C356.278 287.974 351.876 286.756 347.548 285.407C346.992 285.243 346.444 285.063 345.896 284.884C341.429 283.453 337.035 281.867 332.715 280.109C332.167 279.913 331.611 279.684 331.063 279.447C326.579 277.616 322.178 275.613 317.883 273.438C317.326 273.177 316.778 272.899 316.23 272.612C311.73 270.323 307.345 267.854 303.05 265.222C302.502 264.895 301.945 264.543 301.397 264.184C245.028 228.964 207.468 166.374 207.468 95.1674V-145.146H205.823V95.1674C205.823 167.323 244.087 230.722 301.397 266.138V266.146Z" fill="#F8F6F4"/>
<path d="M301.397 248.43C301.945 248.822 302.502 249.206 303.05 249.566C307.321 252.444 311.714 255.15 316.23 257.668C316.778 257.979 317.335 258.289 317.883 258.592C322.17 260.93 326.571 263.121 331.063 265.116C331.611 265.361 332.151 265.606 332.715 265.843C337.035 267.74 341.412 269.449 345.896 270.994C346.444 271.19 347 271.386 347.548 271.574C351.884 273.037 356.261 274.337 360.728 275.457C361.276 275.605 361.816 275.752 362.381 275.866C366.717 276.953 371.11 277.861 375.561 278.597C376.109 278.711 376.666 278.793 377.214 278.875C381.566 279.578 385.943 280.125 390.394 280.502C390.942 280.567 391.482 280.616 392.046 280.649C396.399 280.992 400.8 281.188 405.226 281.229C405.775 281.246 406.331 281.245 406.879 281.245C411.313 281.245 415.715 281.098 420.059 280.771C420.616 280.755 421.164 280.706 421.712 280.657C438.541 279.324 454.74 275.719 470.031 270.201V268.451C454.756 274.027 438.557 277.665 421.712 279.005C421.156 279.055 420.607 279.087 420.059 279.12C415.707 279.431 411.305 279.594 406.879 279.594C406.331 279.594 405.775 279.594 405.226 279.578C400.792 279.545 396.391 279.349 392.046 278.997C391.498 278.965 390.958 278.916 390.394 278.85C385.959 278.474 381.558 277.91 377.214 277.207C376.657 277.125 376.109 277.027 375.561 276.929C371.11 276.169 366.709 275.253 362.381 274.166C361.825 274.051 361.276 273.904 360.728 273.773C356.261 272.621 351.868 271.304 347.548 269.841C347 269.645 346.444 269.465 345.896 269.244C341.412 267.699 337.011 265.949 332.715 264.045C332.159 263.816 331.611 263.57 331.063 263.317C326.563 261.29 322.162 259.082 317.883 256.695C317.326 256.417 316.778 256.098 316.23 255.788C311.714 253.237 307.312 250.506 303.05 247.588C302.494 247.212 301.945 246.827 301.397 246.435C253.61 213.072 222.3 157.717 222.3 95.1756V-145.138H220.656V95.1756C220.656 158.673 252.661 214.854 301.397 248.43Z" fill="#F8F6F4"/>
<path d="M301.397 230.084C301.946 230.51 302.485 230.927 303.05 231.335C307.288 234.581 311.681 237.622 316.23 240.459C316.778 240.819 317.318 241.154 317.883 241.481C322.153 244.097 326.547 246.517 331.063 248.741C331.611 249.018 332.151 249.28 332.715 249.55C337.002 251.626 341.404 253.515 345.896 255.232C346.444 255.444 347 255.665 347.548 255.861C351.868 257.455 356.245 258.878 360.728 260.129C361.276 260.292 361.816 260.439 362.381 260.57C366.717 261.739 371.094 262.745 375.561 263.546C376.109 263.66 376.666 263.759 377.214 263.857C381.55 264.609 385.943 265.206 390.394 265.639C390.942 265.704 391.482 265.753 392.046 265.786C396.399 266.162 400.8 266.383 405.227 266.416C405.775 266.432 406.331 266.432 406.879 266.432C411.313 266.432 415.715 266.268 420.059 265.941C420.616 265.892 421.164 265.843 421.712 265.794C438.639 264.339 454.854 260.39 470.031 254.365V252.583C454.871 258.673 438.655 262.663 421.712 264.135C421.164 264.2 420.624 264.249 420.059 264.282C415.707 264.625 411.305 264.789 406.879 264.789C406.331 264.789 405.775 264.789 405.227 264.772C400.776 264.74 396.391 264.527 392.046 264.126C391.49 264.094 390.942 264.045 390.394 263.996C385.943 263.571 381.542 262.957 377.214 262.189C376.666 262.107 376.109 262.009 375.561 261.895C371.094 261.069 366.709 260.047 362.381 258.862C361.833 258.731 361.276 258.584 360.728 258.436C356.261 257.169 351.868 255.722 347.548 254.087C347 253.891 346.444 253.695 345.896 253.458C341.396 251.741 336.994 249.82 332.715 247.727C332.159 247.465 331.611 247.187 331.063 246.901C326.547 244.645 322.145 242.192 317.883 239.543C317.326 239.216 316.778 238.865 316.23 238.521C311.681 235.66 307.28 232.562 303.05 229.267C302.494 228.834 301.946 228.409 301.397 227.983C262.258 196.876 237.133 148.895 237.133 95.1837V-145.129H235.489V95.1837C235.489 149.901 261.309 198.708 301.406 230.093L301.397 230.084Z" fill="#F8F6F4"/>
<path d="M306.028 143.982C306.421 144.775 306.822 145.56 307.214 146.353C310.25 152.231 313.792 157.798 317.793 163.014C318.251 163.636 318.734 164.249 319.224 164.854C322.914 169.497 326.972 173.83 331.333 177.795C331.84 178.286 332.372 178.752 332.895 179.193C336.97 182.798 341.314 186.093 345.879 189.053C346.427 189.412 346.967 189.756 347.532 190.107C351.753 192.74 356.147 195.111 360.712 197.187C361.26 197.432 361.8 197.678 362.365 197.915C366.635 199.779 371.029 201.373 375.545 202.689C376.093 202.836 376.633 203 377.197 203.147C381.501 204.332 385.894 205.256 390.377 205.91C390.926 206.008 391.482 206.074 392.03 206.139C396.35 206.728 400.743 207.046 405.21 207.112C405.758 207.128 406.315 207.128 406.863 207.128C411.33 207.128 415.731 206.867 420.043 206.352C420.599 206.286 421.147 206.221 421.695 206.139C439.441 203.784 455.885 197.252 470.014 187.581V185.562C455.943 195.405 439.49 202.076 421.695 204.471C421.147 204.553 420.607 204.618 420.043 204.684C415.723 205.207 411.33 205.477 406.863 205.477C406.315 205.477 405.758 205.477 405.21 205.46C400.743 205.395 396.35 205.068 392.03 204.471C391.474 204.406 390.926 204.324 390.377 204.259C385.894 203.58 381.492 202.632 377.197 201.43C376.641 201.283 376.093 201.119 375.545 200.956C371.012 199.623 366.611 198.013 362.365 196.116C361.816 195.887 361.26 195.642 360.712 195.372C356.147 193.263 351.729 190.843 347.532 188.161C347.074 187.867 346.624 187.581 346.182 187.27C346.1 187.221 346.018 187.172 345.936 187.107C345.92 187.107 345.904 187.091 345.887 187.074C341.339 184.057 337.035 180.722 333.018 177.092C332.495 176.618 331.963 176.136 331.456 175.645C327.119 171.615 323.135 167.233 319.511 162.556C319.036 161.927 318.57 161.306 318.112 160.676C314.177 155.387 310.708 149.721 307.779 143.761C307.386 142.952 306.985 142.151 306.609 141.342C300.097 127.28 296.456 111.632 296.456 95.151V-145.162H294.811V95.151C294.811 112.638 298.845 129.201 306.036 143.958L306.028 143.982Z" fill="#F8F6F4"/>
<path d="M302.404 167.053C302.862 167.748 303.361 168.435 303.852 169.113C307.607 174.329 311.747 179.259 316.263 183.837C316.795 184.393 317.335 184.94 317.891 185.48C322.006 189.551 326.408 193.32 331.055 196.795C331.603 197.203 332.143 197.604 332.707 197.996C336.913 201.046 341.306 203.825 345.887 206.343C346.436 206.638 346.976 206.94 347.54 207.218C351.794 209.491 356.188 211.518 360.72 213.292C361.268 213.505 361.825 213.718 362.373 213.914C366.66 215.524 371.061 216.914 375.553 218.05C376.101 218.198 376.641 218.328 377.206 218.459C381.525 219.497 385.902 220.323 390.386 220.895C390.934 220.977 391.474 221.043 392.038 221.092C396.358 221.607 400.751 221.901 405.218 221.934C405.767 221.966 406.307 221.966 406.871 221.966C411.322 221.966 415.723 221.737 420.051 221.272C420.607 221.222 421.156 221.173 421.704 221.092C439.13 219.064 455.468 213.464 470.023 205.093V203.204C455.517 211.706 439.155 217.38 421.704 219.448C421.156 219.514 420.616 219.579 420.051 219.628C415.715 220.086 411.322 220.323 406.871 220.323C406.323 220.323 405.767 220.323 405.218 220.307C400.768 220.258 396.366 219.963 392.038 219.448C391.482 219.383 390.934 219.318 390.386 219.236C385.919 218.655 381.525 217.838 377.206 216.767C376.657 216.652 376.117 216.505 375.553 216.358C371.053 215.205 366.652 213.807 362.373 212.156C361.825 211.96 361.268 211.747 360.72 211.535C356.188 209.736 351.786 207.684 347.54 205.379C346.984 205.084 346.436 204.782 345.887 204.471C341.306 201.921 336.904 199.067 332.707 195.977C332.151 195.568 331.603 195.151 331.055 194.743C326.408 191.203 322.023 187.352 317.907 183.199C317.384 182.66 316.836 182.112 316.312 181.556C311.861 176.912 307.779 171.925 304.081 166.62C303.606 165.941 303.124 165.254 302.666 164.543C289.371 144.685 281.623 120.822 281.623 95.1837V-145.129H279.979V95.1837C279.979 121.843 288.266 146.623 302.404 167.061V167.053Z" fill="#F8F6F4"/>
<path d="M301.397 189.641C301.929 190.246 302.469 190.843 303.05 191.44C307.149 195.887 311.567 200.065 316.23 203.956C316.778 204.414 317.318 204.864 317.883 205.305C322.088 208.714 326.481 211.878 331.063 214.772C331.611 215.132 332.151 215.475 332.715 215.81C336.97 218.426 341.363 220.83 345.896 223.005C346.444 223.266 346.984 223.52 347.548 223.765C351.835 225.76 356.237 227.534 360.728 229.079C361.276 229.275 361.816 229.455 362.381 229.635C366.684 231.066 371.078 232.284 375.561 233.289C376.109 233.42 376.666 233.534 377.214 233.649C381.533 234.589 385.927 235.317 390.394 235.824C390.942 235.889 391.498 235.954 392.046 236.003C396.383 236.461 400.776 236.706 405.227 236.764C405.775 236.78 406.331 236.78 406.879 236.78C411.33 236.78 415.731 236.584 420.059 236.167C420.607 236.118 421.164 236.069 421.712 236.003C438.917 234.205 455.206 229.3 470.031 221.901V220.062C455.231 227.558 438.942 232.529 421.712 234.344C421.164 234.409 420.624 234.475 420.059 234.507C415.723 234.916 411.33 235.129 406.879 235.129C406.331 235.129 405.775 235.129 405.227 235.112C400.776 235.063 396.374 234.818 392.046 234.336C391.49 234.287 390.942 234.221 390.394 234.156C385.927 233.641 381.533 232.905 377.214 231.965C376.657 231.85 376.109 231.736 375.561 231.605C371.078 230.583 366.676 229.332 362.381 227.885C361.825 227.705 361.276 227.526 360.728 227.329C356.212 225.768 351.827 223.969 347.548 221.942C346.992 221.697 346.444 221.427 345.896 221.165C341.363 218.958 336.962 216.522 332.715 213.856C332.159 213.529 331.611 213.178 331.063 212.818C326.481 209.851 322.08 206.646 317.883 203.188C317.326 202.73 316.778 202.264 316.23 201.806C311.567 197.841 307.165 193.574 303.05 189.044C302.526 188.464 301.995 187.875 301.487 187.287C301.455 187.254 301.422 187.221 301.406 187.189C279.872 162.573 266.799 130.378 266.799 95.1756V-145.138H265.154V95.1756C265.154 131.449 278.866 164.568 301.406 189.641H301.397Z" fill="#F8F6F4"/>
<path d="M301.397 210.668C301.945 211.159 302.485 211.657 303.05 212.131C307.255 215.868 311.648 219.375 316.23 222.653C316.778 223.029 317.334 223.43 317.883 223.789C322.137 226.741 326.514 229.488 331.063 231.989C331.611 232.3 332.151 232.602 332.715 232.897C336.986 235.219 341.379 237.328 345.895 239.241C346.444 239.486 346.984 239.699 347.548 239.936C351.851 241.718 356.245 243.296 360.728 244.677C361.276 244.841 361.833 245.004 362.381 245.152C366.701 246.451 371.094 247.555 375.561 248.463C376.109 248.577 376.649 248.675 377.214 248.773C381.55 249.615 385.943 250.269 390.394 250.735C390.942 250.801 391.498 250.866 392.046 250.899C396.399 251.324 400.776 251.561 405.226 251.594C405.775 251.61 406.331 251.61 406.879 251.61C411.313 251.61 415.715 251.43 420.059 251.046C420.607 251.013 421.164 250.964 421.712 250.899C438.754 249.296 455.01 244.939 470.031 238.301V236.494C455.026 243.214 438.77 247.629 421.712 249.256C421.164 249.305 420.624 249.354 420.059 249.403C415.707 249.779 411.33 249.959 406.879 249.959C406.331 249.959 405.775 249.959 405.226 249.942C400.776 249.91 396.374 249.664 392.046 249.256C391.498 249.206 390.942 249.157 390.394 249.076C385.943 248.634 381.542 247.956 377.214 247.114C376.657 247.015 376.109 246.901 375.561 246.787C371.094 245.863 366.701 244.759 362.381 243.443C361.825 243.296 361.276 243.132 360.728 242.952C356.245 241.554 351.843 239.952 347.548 238.162C347 237.949 346.444 237.712 345.895 237.467C341.379 235.537 336.978 233.395 332.715 231.041C332.159 230.747 331.611 230.444 331.063 230.117C326.514 227.583 322.112 224.795 317.883 221.803C317.334 221.427 316.778 221.026 316.23 220.634C311.632 217.323 307.231 213.75 303.05 209.949C302.494 209.458 301.945 208.959 301.397 208.453C270.995 180.166 251.958 139.854 251.958 95.1756V-145.138H250.313V95.1756C250.313 140.867 270.022 182.055 301.397 210.668Z" fill="#F8F6F4"/>
<path d="M312.868 120.053C313.113 120.977 313.383 121.917 313.661 122.816C315.657 129.569 318.39 136.003 321.736 142.045C322.112 142.756 322.513 143.443 322.922 144.137C325.974 149.345 329.5 154.25 333.452 158.779C333.894 159.327 334.376 159.85 334.851 160.374C338.475 164.38 342.443 168.067 346.681 171.427C347.196 171.835 347.72 172.236 348.244 172.612C352.212 175.645 356.433 178.359 360.867 180.747C361.407 181.041 361.956 181.319 362.495 181.605C366.684 183.763 371.037 185.619 375.545 187.14V187.156C375.676 187.205 375.806 187.254 375.954 187.287C376.363 187.434 376.78 187.565 377.189 187.679C381.46 189.061 385.853 190.148 390.369 190.925C390.917 191.023 391.457 191.105 392.022 191.203C396.325 191.865 400.719 192.241 405.202 192.306C405.75 192.323 406.306 192.323 406.855 192.323C411.322 192.323 415.74 192.028 420.035 191.415C420.591 191.35 421.139 191.284 421.687 191.203C439.964 188.39 456.564 180.46 470.006 168.958V166.808C456.671 178.564 440.038 186.657 421.687 189.527C421.139 189.609 420.583 189.69 420.035 189.756C415.715 190.361 411.322 190.68 406.855 190.68C406.298 190.68 405.75 190.68 405.202 190.663C400.719 190.598 396.317 190.205 392.022 189.527C391.466 189.445 390.917 189.363 390.369 189.249C385.853 188.472 381.468 187.369 377.206 185.971C376.666 185.807 376.117 185.627 375.577 185.431C371.078 183.869 366.725 181.973 362.561 179.782C362.021 179.52 361.489 179.218 360.966 178.923C356.564 176.52 352.367 173.757 348.424 170.691C347.908 170.315 347.401 169.898 346.91 169.489C342.672 166.096 338.753 162.344 335.194 158.273C334.72 157.749 334.254 157.218 333.812 156.678C329.926 152.084 326.465 147.113 323.479 141.824C323.086 141.129 322.702 140.426 322.342 139.715C319.061 133.559 316.459 127.002 314.594 120.135C314.332 119.178 314.103 118.222 313.866 117.265C312.172 110.169 311.28 102.779 311.28 95.1674V-145.146H309.636V95.1674C309.636 103.76 310.757 112.098 312.868 120.045V120.053Z" fill="#F8F6F4"/>
<path d="M324.469 95.1756C324.469 95.8541 324.469 96.5245 324.501 97.203C324.681 105.354 326.08 113.21 328.486 120.617C328.764 121.443 329.042 122.244 329.328 123.053C331.488 129.029 334.319 134.679 337.731 139.911C338.107 140.524 338.524 141.113 338.933 141.709C342.018 146.206 345.527 150.367 349.43 154.16C349.888 154.61 350.354 155.051 350.829 155.477C354.437 158.853 358.38 161.886 362.544 164.568C363.035 164.878 363.551 165.189 364.058 165.508C367.993 167.911 372.149 169.988 376.502 171.729C377.025 171.925 377.557 172.122 378.081 172.326C382.221 173.871 386.516 175.089 390.934 175.964C391.474 176.078 392.038 176.176 392.586 176.275C396.857 177.019 401.234 177.444 405.701 177.493C406.077 177.509 406.478 177.509 406.855 177.509H407.345C411.911 177.476 416.394 177.076 420.763 176.324C421.344 176.242 421.9 176.127 422.481 176.013C441.421 172.367 458.07 162.213 470.006 147.988V145.38C458.356 159.981 441.748 170.486 422.743 174.28C422.178 174.411 421.605 174.509 421.025 174.607C416.639 175.4 412.14 175.809 407.55 175.841C407.321 175.858 407.084 175.858 406.855 175.858C406.544 175.858 406.208 175.858 405.897 175.841C401.414 175.792 397.029 175.383 392.766 174.623C392.226 174.525 391.678 174.427 391.138 174.313C386.72 173.438 382.417 172.203 378.302 170.642C377.778 170.446 377.246 170.249 376.739 170.029C372.419 168.287 368.271 166.178 364.361 163.742C363.853 163.448 363.354 163.121 362.864 162.785C358.707 160.087 354.821 157.005 351.246 153.596C350.788 153.163 350.322 152.722 349.863 152.247C346.01 148.43 342.549 144.195 339.53 139.649C339.121 139.036 338.737 138.431 338.36 137.818C335.014 132.479 332.282 126.716 330.236 120.642C329.975 119.816 329.713 118.982 329.459 118.14C327.283 110.864 326.113 103.138 326.113 95.1674V94.0801V90.6383V-145.146H324.469V93.704V95.1674V95.1756Z" fill="#F8F6F4"/>
<path fill-rule="evenodd" clip-rule="evenodd" d="M147.04 302.313C151 291.685 149.077 283.698 143.547 273.757L142.009 271.116C118.381 238.726 84.5105 203.466 43.9475 193.238C32.2482 190.287 22.8725 190.532 13.3249 199.075C13.3003 199.1 13.2594 199.133 13.2267 199.157C-7.25935 217.519 -4.36316 309.082 40.1105 325.654C63.1246 334.23 136.216 331.426 147.049 302.305L147.04 302.313Z" stroke="#F8F6F4" stroke-width="2" stroke-miterlimit="22.9256"/>
<path fill-rule="evenodd" clip-rule="evenodd" d="M126.448 222.604C102.665 221.092 62.6337 271.983 65.3744 283.968C65.6935 285.374 66.8144 289.838 67.567 291.04C74.333 303 99.4824 301.945 110.535 301.569C127.749 300.973 145.142 287.565 144.758 271.255C144.381 254.929 146.549 223.888 126.44 222.604H126.448Z" stroke="#F8F6F4" stroke-width="2" stroke-miterlimit="22.9256"/>
<path fill-rule="evenodd" clip-rule="evenodd" d="M257.185 429.766C236.716 420.503 184.421 452.027 182.842 463.514C182.654 464.863 182.155 469.171 182.416 470.487C184.388 483.29 206.919 490.754 216.786 494.098C232.167 499.313 251.982 493.288 257.095 478.777C262.209 464.25 274.497 437.606 257.194 429.766H257.185Z" stroke="#F8F6F4" stroke-width="2" stroke-miterlimit="22.9256"/>
</svg>
