<svg width="431" height="701" viewBox="0 0 431 701" fill="none" xmlns="http://www.w3.org/2000/svg">
    <g clip-path="url(#clip0_74_119)">
        <path d="M30.4276 1327.96L30.4129 1327.99L30.3988 1328.02L30.3841 1328.05L30.3694 1328.08L30.3553 1328.11L30.3406 1328.13L30.3265 1328.16L30.3118 1328.19L30.2977 1328.22L30.2836 1328.25L30.2689 1328.28L30.2547 1328.3L30.2406 1328.33L30.2259 1328.36L30.2118 1328.39L30.1977 1328.42L30.1836 1328.45L30.1695 1328.48L30.1554 1328.51L30.1413 1328.53L30.1407 1328.54L30.1266 1328.56L30.1124 1328.59L30.0983 1328.62L30.0842 1328.65L30.0709 1328.68L30.0703 1328.68L30.057 1328.71L30.0564 1328.71L30.043 1328.74L30.0425 1328.74L29.9595 1328.91L29.959 1328.91L29.9182 1329L29.9176 1329L29.9043 1329.02L29.9037 1329.03L29.8768 1329.08L29.8762 1329.08L29.8629 1329.11L29.8623 1329.11L29.849 1329.14L29.8484 1329.14L29.8357 1329.17L29.8351 1329.17L29.8217 1329.2L29.8211 1329.2L29.8078 1329.23L29.8072 1329.23L29.7396 1329.38L29.7384 1329.38L29.7122 1329.43L29.711 1329.44L29.6847 1329.49L29.6835 1329.5L29.6708 1329.52L29.6696 1329.53L29.6575 1329.55L29.6563 1329.55L29.6436 1329.58L29.6424 1329.59L29.6302 1329.61L29.629 1329.61L29.6169 1329.64L29.6151 1329.64L29.603 1329.67L29.6018 1329.67L29.5896 1329.7L29.5879 1329.7L29.5757 1329.73L29.5746 1329.73L29.5624 1329.76L29.5606 1329.76L29.5485 1329.79L29.5473 1329.79L29.5352 1329.82L29.5334 1329.82C29.5334 1329.82 29.5346 1329.82 29.5352 1329.82L30.4276 1327.96ZM385.836 -60.6591C401.504 -61.8225 416.635 -64.9515 430.998 -69.7823V-68.1515C416.627 -63.3635 401.498 -60.2648 385.836 -59.1123V11.5854C401.5 12.7384 416.626 15.8517 430.998 20.6409V22.2665C416.635 17.4357 401.507 14.2971 385.836 13.1326C385.313 13.1013 384.804 13.0554 384.296 13.0396C380.214 12.7609 376.117 12.6218 371.973 12.6218C371.465 12.6218 370.942 12.6219 370.433 12.6373C366.289 12.6678 362.193 12.8386 358.111 13.1324C357.603 13.179 357.079 13.2096 356.571 13.2566C352.427 13.5964 348.315 14.0765 344.248 14.6951C343.725 14.7729 343.216 14.85 342.708 14.943C338.549 15.5931 334.437 16.3817 330.385 17.3258C329.863 17.4341 329.354 17.5579 328.845 17.6975C324.686 18.6716 320.574 19.8165 316.523 21.0858C316 21.2408 315.491 21.4108 314.983 21.5803C310.808 22.9272 306.696 24.4126 302.66 26.0682C302.152 26.2538 301.628 26.4707 301.12 26.6868C296.93 28.4049 292.818 30.2922 288.798 32.3348C288.274 32.5822 287.766 32.8455 287.257 33.1088C283.052 35.2596 278.955 37.5801 274.935 40.0555C274.427 40.3652 273.904 40.6904 273.395 41.0309C220.701 74.1283 185.598 132.943 185.598 199.849L185.598 425.666V425.667V447.994C189.664 447.731 193.777 447.592 197.921 447.592V425.667V425.666L197.921 199.849C197.921 140.184 227.833 87.3887 273.395 55.8385C273.904 55.4669 274.427 55.1118 274.935 54.7716C278.924 52.0636 283.037 49.5256 287.257 47.1584C287.766 46.8647 288.289 46.5708 288.798 46.2921C292.802 44.0947 296.915 42.0369 301.12 40.1646C301.628 39.9318 302.137 39.7003 302.66 39.4829C306.696 37.7036 310.793 36.0946 314.983 34.64C315.491 34.4545 316.015 34.269 316.523 34.0986C320.574 32.7211 324.671 31.499 328.845 30.4471C329.354 30.3075 329.863 30.1682 330.385 30.0599C334.437 29.0387 338.549 28.1877 342.708 27.4916C343.216 27.3833 343.74 27.3057 344.248 27.2284C348.315 26.5629 352.411 26.0529 356.571 25.6967C357.079 25.6349 357.588 25.5887 358.111 25.5569C362.177 25.2324 366.289 25.047 370.433 25.0157C370.942 25.0004 371.465 25.0004 371.973 25.0004C376.117 25.0004 380.23 25.14 384.296 25.4491C384.82 25.4645 385.328 25.5109 385.836 25.5568C401.57 26.8076 416.71 30.1942 430.998 35.3838V37.0251C416.721 31.786 401.58 28.3666 385.836 27.1047C385.313 27.0582 384.804 27.027 384.296 26.9965C380.23 26.7026 376.117 26.5476 371.973 26.5476C371.465 26.5476 370.942 26.5477 370.433 26.5631C366.289 26.5936 362.177 26.7798 358.111 27.1049C357.603 27.1354 357.094 27.1826 356.571 27.2439C352.427 27.5995 348.315 28.1261 344.248 28.7911C343.725 28.8689 343.216 28.9619 342.708 29.0544C338.549 29.7665 334.437 30.6329 330.385 31.6542C329.863 31.7625 329.354 31.9021 328.845 32.0258C324.671 33.1088 320.559 34.3462 316.523 35.7238C316.015 35.9093 315.491 36.0795 314.983 36.2809C310.793 37.7344 306.68 39.3752 302.66 41.1698C302.137 41.3866 301.628 41.6184 301.12 41.8512C296.915 43.7534 292.802 45.8281 288.798 48.0714C288.274 48.3347 287.766 48.6285 287.257 48.9225C283.037 51.3207 278.924 53.8889 274.935 56.6277C274.412 56.9841 273.904 57.34 273.395 57.7115C228.726 89.0596 199.461 141.081 199.461 199.849L199.461 425.666V425.667V447.607C203.573 447.638 207.686 447.808 211.783 448.117V425.667V425.666L211.783 199.849C211.783 148.431 235.919 102.569 273.395 73.0757C273.904 72.674 274.412 72.2871 274.935 71.8997C278.894 68.8523 283.006 65.9893 287.257 63.3278C287.766 62.9872 288.274 62.6781 288.798 62.3684C292.787 59.9083 296.9 57.6337 301.12 55.5446C301.628 55.2812 302.137 55.0339 302.66 54.7866C306.665 52.8364 310.778 51.0573 314.983 49.4482C315.491 49.2467 316.015 49.0459 316.523 48.8599C320.559 47.3591 324.656 46.0287 328.845 44.8525C329.354 44.6975 329.863 44.5587 330.385 44.4349C334.437 43.3364 338.534 42.3923 342.708 41.6337C343.216 41.5254 343.74 41.4329 344.248 41.3398C348.299 40.6284 352.411 40.0714 356.571 39.6691C357.079 39.6073 357.588 39.5608 358.111 39.5302C362.177 39.1737 366.289 38.9729 370.433 38.9417C370.942 38.9263 371.465 38.9263 371.973 38.9263C376.117 38.9263 380.23 39.0812 384.296 39.3903C384.82 39.4368 385.328 39.4828 385.836 39.5302C401.657 40.8955 416.817 44.6064 430.998 50.2736V51.9459C416.83 46.2206 401.668 42.4717 385.836 41.0923C385.328 41.0305 384.82 40.9841 384.296 40.9529C380.23 40.6283 376.117 40.4734 371.973 40.4734C371.465 40.4734 370.942 40.4733 370.433 40.4886C366.274 40.5192 362.177 40.7213 358.111 41.0923C357.588 41.1237 357.079 41.1696 356.571 41.2159C352.411 41.6183 348.299 42.1909 344.248 42.9183C343.74 42.9955 343.216 43.0884 342.708 43.1969C338.534 43.9708 334.437 44.9302 330.385 46.0439C329.877 46.1676 329.354 46.3071 328.845 46.4462C324.671 47.6377 320.559 48.9995 316.523 50.5314C316.015 50.7169 315.491 50.9022 314.983 51.1196C310.778 52.7286 306.665 54.5385 302.66 56.5045C302.137 56.7512 301.628 57.0146 301.12 57.278C296.9 59.3976 292.787 61.7035 288.798 64.1941C288.274 64.5038 287.766 64.8282 287.257 65.1534C283.006 67.8462 278.894 70.7551 274.935 73.8495C274.412 74.2523 273.904 74.6541 273.395 75.0562C236.812 104.285 213.323 149.375 213.323 199.849L213.323 425.665V425.667V448.226C217.451 448.566 221.564 449.046 225.646 449.665V425.667V425.665L225.646 199.849C225.646 156.911 244.067 118.211 273.395 91.3195C273.904 90.8553 274.412 90.3911 274.935 89.9423C278.862 86.4297 282.976 83.1334 287.257 80.0542C287.766 79.6986 288.289 79.3267 288.798 78.9869C292.772 76.2172 296.869 73.6329 301.12 71.2811C301.628 70.9873 302.137 70.7087 302.66 70.4301C306.65 68.2485 310.763 66.2677 314.983 64.4725C315.491 64.2406 316 64.0398 316.523 63.8224C320.543 62.1515 324.656 60.6661 328.845 59.3663C329.354 59.2119 329.877 59.0573 330.385 58.9182C334.422 57.6949 338.534 56.6582 342.708 55.8077C343.216 55.6995 343.725 55.6064 344.248 55.514C348.299 54.7242 352.411 54.106 356.571 53.6724C357.079 53.6105 357.603 53.5487 358.111 53.5173C362.177 53.1151 366.274 52.8989 370.433 52.8677C370.942 52.8523 371.465 52.8523 371.973 52.8523C376.117 52.8523 380.23 53.0226 384.296 53.3784C384.804 53.4089 385.328 53.4562 385.836 53.5173C401.766 55.026 416.957 59.1178 430.998 65.3593V67.0552C416.974 60.7407 401.781 56.5933 385.836 55.0651C385.328 55.0186 384.82 54.9719 384.296 54.926C380.23 54.5696 376.133 54.3995 371.973 54.3995C371.465 54.3995 370.942 54.3994 370.433 54.4148C366.274 54.4453 362.162 54.6781 358.111 55.0651C357.603 55.1116 357.079 55.1573 356.571 55.2351C352.411 55.6528 348.299 56.2872 344.248 57.0764C343.725 57.1696 343.216 57.2778 342.708 57.3855C338.534 58.252 334.422 59.2898 330.385 60.5272C329.863 60.6663 329.354 60.8209 328.845 60.9913C324.656 62.3065 320.543 63.8071 316.523 65.4939C316.015 65.6953 315.491 65.9121 314.983 66.1434C310.763 67.9545 306.65 69.9658 302.66 72.178C302.137 72.4565 301.628 72.735 301.12 73.0449C296.869 75.4272 292.757 78.0431 288.798 80.8594C288.289 81.215 287.766 81.5867 287.257 81.9576C282.961 85.0674 278.847 88.425 274.935 92.0001C274.412 92.4642 273.904 92.9283 273.395 93.4077C244.976 119.991 227.185 157.87 227.185 199.849L227.185 425.665V425.667V449.898C231.329 450.547 235.442 451.336 239.509 452.28V425.667V425.665L239.509 199.849C239.509 165.761 252.324 134.644 273.395 111.078C273.888 110.506 274.396 109.949 274.935 109.392C278.77 105.214 282.898 101.284 287.257 97.6326C287.766 97.1991 288.274 96.7809 288.798 96.3634C292.725 93.1599 296.838 90.1892 301.12 87.4664C301.628 87.1254 302.137 86.8008 302.66 86.4917C306.634 84.031 310.747 81.7725 314.983 79.7299C315.491 79.4819 316 79.2502 316.523 79.0177C320.528 77.1454 324.641 75.4745 328.845 74.0198C329.354 73.8342 329.863 73.6632 330.385 73.4937C334.406 72.1473 338.518 71.0023 342.708 70.059C343.216 69.9347 343.74 69.8262 344.248 69.7185C348.284 68.8354 352.396 68.1554 356.571 67.6761C357.079 67.6138 357.603 67.5524 358.111 67.5052C362.162 67.0719 366.274 66.8405 370.433 66.7939C370.942 66.7781 371.465 66.778 371.973 66.778C376.133 66.778 380.245 66.964 384.296 67.3503C384.804 67.3973 385.328 67.4435 385.836 67.5052C401.917 69.1945 417.141 73.802 430.998 80.7604V82.4879C417.165 75.4401 401.935 70.7749 385.836 69.0684C385.328 69.0066 384.82 68.9446 384.296 68.9133C380.245 68.5264 376.133 68.3256 371.973 68.3256C371.465 68.3256 370.942 68.3256 370.433 68.3408C366.274 68.3879 362.162 68.6196 358.111 69.0684C357.588 69.1143 357.079 69.1766 356.571 69.2385C352.396 69.7186 348.284 70.4141 344.248 71.2963C343.725 71.4045 343.216 71.5132 342.708 71.6373C338.518 72.5962 334.406 73.7722 330.385 75.1333C329.863 75.3041 329.354 75.4744 328.845 75.6598C324.625 77.1299 320.528 78.8167 316.523 80.7191C316 80.9519 315.491 81.1997 314.983 81.4464C310.747 83.5208 306.634 85.8102 302.66 88.3167C302.137 88.6271 301.628 88.9517 301.12 89.2921C296.838 92.0773 292.725 95.0945 288.798 98.3439C288.274 98.7772 287.766 99.2108 287.257 99.6437C282.898 103.372 278.786 107.38 274.935 111.635C274.442 112.177 273.949 112.734 273.472 113.291C273.441 113.323 273.41 113.353 273.395 113.384C253.263 136.516 241.048 166.767 241.048 199.849L241.048 425.665V425.667V452.636C245.192 453.61 249.305 454.741 253.371 456.009V425.667V425.666L253.371 199.849C253.371 174.798 261.118 151.51 274.334 132.308C274.765 131.658 275.228 131.008 275.69 130.374C279.202 125.469 283.068 120.842 287.288 116.541C287.781 116.015 288.289 115.504 288.813 114.993C292.664 111.171 296.776 107.628 301.12 104.363C301.628 103.976 302.137 103.605 302.66 103.234C306.587 100.371 310.701 97.7563 314.982 95.3885C315.491 95.11 316 94.8314 316.523 94.5687C320.497 92.4338 324.609 90.5295 328.845 88.8586C329.353 88.6578 329.877 88.4564 330.385 88.271C334.39 86.7543 338.503 85.4545 342.708 84.3873C343.216 84.2477 343.725 84.1241 344.248 84.0005C348.284 83.0251 352.381 82.2517 356.57 81.7098C357.079 81.6326 357.588 81.5707 358.111 81.5243C362.147 81.0448 366.259 80.7664 370.433 80.7356C370.941 80.7037 371.45 80.7036 371.973 80.7036C376.132 80.7036 380.245 80.9211 384.296 81.354C384.819 81.4005 385.328 81.4463 385.836 81.524C402.123 83.4338 417.4 88.6888 430.998 96.559V98.3363C417.437 90.3474 402.149 85.0127 385.836 83.0719C385.328 83.0095 384.819 82.9476 384.296 82.9012C380.245 82.4678 376.132 82.2515 371.973 82.2515C371.465 82.2515 370.941 82.2516 370.433 82.267C366.274 82.314 362.162 82.592 358.111 83.072C357.588 83.1333 357.079 83.1952 356.57 83.2729C352.396 83.8148 348.284 84.5881 344.248 85.594C343.74 85.7024 343.231 85.8418 342.708 85.9803C338.503 87.064 334.39 88.3792 330.385 89.9264C329.877 90.1124 329.353 90.3135 328.845 90.5143C324.609 92.201 320.497 94.135 316.523 96.3014C316 96.58 315.491 96.8584 314.982 97.1525C310.701 99.5507 306.587 102.228 302.66 105.137C302.137 105.524 301.628 105.91 301.12 106.297C296.776 109.624 292.679 113.245 288.828 117.144C288.335 117.654 287.827 118.166 287.334 118.691C283.176 123.055 279.356 127.743 275.905 132.726C275.459 133.36 275.012 134.01 274.581 134.676C262.151 153.337 254.911 175.757 254.911 199.849L254.911 425.666V425.667V456.488C259.07 457.82 263.183 459.29 267.234 460.914V425.667V425.666V199.849C267.234 183.417 271.007 167.851 277.723 153.986C278.092 153.244 278.462 152.501 278.832 151.758C281.666 146.234 284.978 141.004 288.721 136.099C289.152 135.511 289.599 134.938 290.061 134.366C293.511 130.003 297.3 125.933 301.382 122.204C301.859 121.74 302.352 121.307 302.845 120.889C306.65 117.5 310.716 114.405 314.983 111.62C315.491 111.28 316 110.955 316.523 110.63C320.467 108.154 324.579 105.926 328.845 103.976C329.354 103.744 329.863 103.512 330.385 103.296C334.375 101.548 338.488 100.047 342.708 98.8085C343.216 98.6694 343.725 98.5145 344.248 98.3755C348.268 97.2612 352.381 96.3943 356.571 95.7759C357.079 95.6836 357.603 95.6208 358.111 95.559C362.147 95.002 366.259 94.7079 370.433 94.6455C370.942 94.6301 371.465 94.6301 371.973 94.6301C376.148 94.6301 380.261 94.8782 384.296 95.3577C384.82 95.42 385.328 95.4812 385.836 95.559C402.427 97.7692 417.792 103.908 430.998 112.993V114.889C417.845 105.641 402.468 99.3745 385.836 97.1213C385.328 97.0442 384.82 96.9829 384.296 96.9205C380.261 96.4258 376.148 96.1776 371.973 96.1776C371.465 96.1776 370.942 96.1777 370.433 96.1931C366.259 96.2555 362.147 96.5647 358.111 97.1213C357.588 97.1837 357.079 97.261 356.571 97.3229C352.381 97.9572 348.268 98.8547 344.248 99.9844C343.725 100.123 343.216 100.278 342.708 100.433C338.472 101.686 334.36 103.203 330.385 104.982C329.877 105.198 329.354 105.431 328.845 105.678C324.579 107.659 320.45 109.934 316.523 112.456C316.091 112.734 315.676 112.997 315.26 113.291C315.183 113.338 315.106 113.384 315.029 113.446C315.014 113.446 314.998 113.462 314.983 113.477C310.732 116.308 306.712 119.45 302.953 122.854C302.46 123.302 301.967 123.751 301.49 124.215C297.439 128.007 293.711 132.122 290.323 136.516C289.876 137.105 289.445 137.692 289.013 138.28C285.332 143.247 282.097 148.57 279.356 154.172C278.986 154.93 278.617 155.688 278.262 156.446C272.178 169.66 268.774 184.36 268.774 199.849V425.665V425.667V461.533C272.948 463.235 277.061 465.092 281.097 467.104V425.667V425.665V199.849C281.097 191.772 282.144 183.942 284.115 176.469C284.347 175.602 284.593 174.721 284.854 173.87C286.718 167.525 289.276 161.475 292.402 155.796C292.757 155.131 293.126 154.481 293.511 153.831C296.361 148.942 299.657 144.331 303.353 140.075C303.77 139.565 304.216 139.069 304.663 138.575C308.051 134.814 311.764 131.349 315.722 128.192C316.2 127.806 316.693 127.434 317.186 127.078C320.897 124.23 324.841 121.678 328.985 119.433C329.492 119.155 330.001 118.893 330.509 118.629C334.422 116.602 338.488 114.854 342.708 113.431V113.415C342.832 113.368 342.954 113.322 343.093 113.291C343.479 113.152 343.864 113.028 344.248 112.919C348.238 111.62 352.351 110.598 356.571 109.871C357.079 109.779 357.588 109.701 358.111 109.609C362.131 108.989 366.244 108.633 370.434 108.571C370.942 108.556 371.465 108.556 371.974 108.556C376.148 108.556 380.276 108.834 384.296 109.407C384.82 109.469 385.328 109.531 385.836 109.609C402.917 112.253 418.434 119.701 430.998 130.513V132.534C418.532 121.491 402.985 113.879 385.836 111.187C385.328 111.11 384.805 111.032 384.296 110.97C380.261 110.397 376.148 110.104 371.974 110.104C371.451 110.104 370.942 110.104 370.434 110.119C366.244 110.181 362.131 110.552 358.111 111.187C357.588 111.264 357.079 111.341 356.571 111.449C352.351 112.177 348.253 113.214 344.264 114.529C343.756 114.684 343.247 114.854 342.739 115.04C338.534 116.51 334.467 118.289 330.571 120.347C330.062 120.594 329.57 120.873 329.077 121.152C324.964 123.411 321.036 126.01 317.355 128.888C316.877 129.244 316.401 129.631 315.939 130.018C311.979 133.206 308.313 136.734 304.986 140.556C304.54 141.05 304.109 141.546 303.693 142.057C300.058 146.374 296.824 151.046 294.035 156.013C293.666 156.663 293.311 157.329 292.972 157.994C289.907 163.781 287.474 169.939 285.733 176.392C285.486 177.29 285.271 178.186 285.055 179.084C283.468 185.753 282.636 192.701 282.636 199.85V425.666V425.667V467.877C286.826 469.982 290.939 472.271 294.959 474.717V425.667V425.666V201.226V199.85C294.959 199.216 294.959 198.581 294.99 197.946C295.159 190.287 296.468 182.906 298.717 175.943C298.979 175.17 299.241 174.411 299.503 173.653C301.521 168.036 304.17 162.729 307.359 157.809C307.713 157.236 308.098 156.679 308.482 156.122C311.363 151.897 314.644 147.983 318.294 144.424C318.726 144.006 319.156 143.588 319.603 143.185C322.977 140.014 326.659 137.166 330.555 134.644C331.017 134.35 331.495 134.057 331.972 133.763C335.653 131.504 339.535 129.554 343.602 127.914C344.094 127.728 344.588 127.543 345.08 127.357C348.947 125.902 352.967 124.758 357.094 123.937C357.603 123.83 358.126 123.736 358.635 123.643C362.624 122.947 366.721 122.545 370.895 122.498C371.249 122.483 371.619 122.483 371.973 122.483H372.436C376.703 122.514 380.892 122.885 384.974 123.597C385.513 123.674 386.037 123.782 386.576 123.891C404.282 127.316 419.842 136.855 430.998 150.225V152.677C420.105 138.954 404.586 129.088 386.823 125.516C390.973 151.161 408 172.528 430.998 182.701V184.386C407.056 174.049 389.337 151.865 385.22 125.206C381.123 124.464 376.918 124.076 372.621 124.046C376.678 158.121 399.838 186.376 430.998 197.698V199.344C398.986 187.92 375.166 158.979 371.08 124.046C366.89 124.092 362.794 124.479 358.804 125.191C363.514 166.483 392.49 200.467 430.998 212.379V213.995C391.724 202.045 362.122 167.498 357.28 125.485C353.151 126.304 349.131 127.465 345.28 128.935C351.573 176.238 385.97 214.727 430.998 226.866V228.461C385.296 216.321 350.325 177.409 343.816 129.508C339.782 131.149 335.9 133.129 332.249 135.419C341.051 187.435 380.379 229.149 430.998 241.242V242.839C379.812 230.755 339.98 188.778 330.848 136.316C326.966 138.854 323.331 141.748 319.988 144.95C332.226 200.185 375.845 243.665 430.998 255.515V257.09C375.416 245.285 331.375 201.702 318.695 146.219C315.09 149.809 311.855 153.785 309.037 158.056C325.562 214.685 372.621 258.325 430.998 269.711V271.295C372.358 259.97 324.982 216.423 307.943 159.774C304.816 164.787 302.26 170.203 300.35 175.913C306.203 191.076 314.243 205.436 324.348 218.65C327.166 222.363 330.17 225.984 333.296 229.45C335.145 231.524 337.101 233.597 339.32 235.825C340.536 237.047 341.768 238.239 343 239.415C346.42 242.649 349.931 245.697 353.413 248.514C356.894 251.33 360.637 254.099 364.533 256.761C368.323 259.361 372.328 261.851 376.41 264.172C380.553 266.54 384.835 268.738 389.133 270.718C393.599 272.806 398.251 274.725 402.964 276.412C408.094 278.269 413.362 279.909 418.629 281.24C422.708 282.286 426.839 283.151 430.998 283.893V285.464C426.715 284.708 422.461 283.818 418.259 282.74C412.93 281.395 407.616 279.739 402.441 277.867C397.696 276.164 392.998 274.23 388.485 272.126C384.157 270.13 379.829 267.902 375.639 265.519C371.526 263.182 367.49 260.661 363.671 258.045C359.727 255.352 355.955 252.552 352.458 249.721C348.93 246.889 345.403 243.795 341.953 240.545C340.69 239.353 339.458 238.146 338.24 236.924C335.992 234.681 334.005 232.576 332.157 230.488C328.999 226.99 325.964 223.323 323.115 219.594C313.318 206.782 305.448 192.903 299.625 178.265C297.592 185.104 296.498 192.361 296.498 199.85V200.872C301.828 210.945 308.128 220.584 315.366 229.713C318.278 233.412 321.39 237.047 324.609 240.529C326.38 242.432 327.982 244.119 329.523 245.666C331.217 247.353 332.88 248.978 334.513 250.479C337.948 253.698 341.49 256.761 345.018 259.577C348.514 262.393 352.134 265.101 356.108 267.84C359.898 270.47 363.824 272.961 367.799 275.252C371.727 277.557 375.839 279.77 380.059 281.828C384.311 283.901 388.67 285.82 393.013 287.538C397.526 289.332 402.193 290.957 406.876 292.396C414.777 294.819 422.835 296.696 430.997 298.039V299.609C422.68 298.254 414.467 296.345 406.414 293.866C401.701 292.427 397.003 290.787 392.459 288.977C388.068 287.244 383.68 285.31 379.382 283.221C375.13 281.147 370.971 278.919 367.028 276.598C363.024 274.277 359.065 271.755 355.245 269.124C351.225 266.354 347.574 263.632 344.063 260.784C340.489 257.937 336.931 254.858 333.465 251.609C331.833 250.092 330.138 248.467 328.444 246.766C326.888 245.203 325.255 243.501 323.469 241.582C320.234 238.069 317.107 234.403 314.165 230.689C307.48 222.241 301.566 213.343 296.498 204.105V425.667V425.669V475.646C304.754 480.768 312.656 486.554 320.096 492.961C323.653 495.994 327.119 499.213 330.369 502.492C330.523 502.616 330.647 502.74 330.785 502.895C333.866 505.974 336.931 509.286 339.935 512.736C343.061 516.388 346.003 520.055 348.653 523.645C351.426 527.389 354.106 531.273 356.585 535.203C359.204 539.319 361.607 543.466 363.732 547.505C366.028 551.79 368.168 556.2 370.093 560.625C372.08 565.159 373.944 569.956 375.639 574.892C377.502 580.307 379.089 585.769 380.383 591.108L380.398 591.201C381.23 594.559 381.954 597.947 382.585 601.351C402.105 598.587 419.245 588.287 430.997 573.487V575.911C419.065 590.211 402.107 600.14 382.863 602.883C383.602 606.937 384.187 611.022 384.649 615.122C402.267 612.604 418.244 604.898 430.997 593.602V595.63C418.182 606.654 402.3 614.177 384.819 616.67C385.234 620.771 385.527 624.902 385.681 629.049C402.373 626.811 417.803 620.532 430.997 611.255V613.146C417.764 622.248 402.369 628.399 385.743 630.596C385.804 632.515 385.835 634.433 385.835 636.368V643.068C402.145 641.128 417.437 635.806 430.997 627.821V629.581C417.401 637.45 402.122 642.703 385.835 644.615V657.071C401.934 655.365 417.163 650.698 430.997 643.649V645.376C417.139 652.336 401.918 656.947 385.835 658.634V671.075C401.779 669.547 416.973 665.404 430.997 659.09V660.771C416.955 667.013 401.767 671.113 385.835 672.622V685.047C401.664 683.668 416.83 679.934 430.997 674.211V675.885C416.818 681.549 401.653 685.243 385.835 686.609V699.035C401.576 697.774 416.722 694.371 430.997 689.135V690.775C416.712 695.963 401.566 699.331 385.835 700.582V713.008C401.503 711.844 416.634 708.715 430.997 703.884V705.515C416.626 710.303 401.497 713.402 385.835 714.554V785.252C401.499 786.405 416.625 789.518 430.997 794.308V795.933C416.634 791.102 401.506 787.964 385.835 786.799C385.312 786.768 384.803 786.722 384.295 786.706C380.213 786.427 376.116 786.288 371.973 786.288C371.464 786.288 370.941 786.289 370.432 786.304C366.288 786.334 362.192 786.505 358.11 786.799C357.602 786.846 357.078 786.876 356.57 786.923C352.426 787.263 348.314 787.743 344.247 788.362C343.724 788.439 343.215 788.517 342.707 788.609C338.548 789.259 334.436 790.048 330.385 790.992C329.862 791.101 329.353 791.224 328.844 791.364C324.685 792.338 320.573 793.483 316.522 794.752C315.999 794.907 315.49 795.078 314.982 795.247C310.807 796.593 306.695 798.079 302.659 799.735C302.151 799.921 301.627 800.137 301.119 800.353C296.929 802.071 292.817 803.959 288.797 806.001C288.273 806.249 287.765 806.512 287.256 806.775C283.052 808.926 278.954 811.247 274.934 813.722C274.426 814.032 273.903 814.357 273.394 814.698C220.7 847.794 185.597 906.609 185.597 973.516V1199.33V1221.66C189.663 1221.4 193.776 1221.26 197.92 1221.26V1199.33V973.516C197.92 913.85 227.832 861.055 273.394 829.505C273.903 829.133 274.426 828.778 274.934 828.438C278.923 825.73 283.036 823.192 287.256 820.825C287.765 820.531 288.288 820.237 288.797 819.958C292.801 817.761 296.914 815.703 301.119 813.831C301.627 813.598 302.136 813.367 302.659 813.149C306.695 811.37 310.792 809.761 314.982 808.306C315.49 808.121 316.014 807.935 316.522 807.765C320.573 806.387 324.67 805.165 328.844 804.113C329.353 803.974 329.862 803.835 330.385 803.727C334.436 802.705 338.548 801.854 342.707 801.158C343.215 801.05 343.739 800.972 344.247 800.895C348.314 800.229 352.411 799.719 356.57 799.363C357.078 799.301 357.587 799.255 358.11 799.223C362.176 798.899 366.288 798.713 370.432 798.682C370.941 798.666 371.464 798.666 371.973 798.666C376.116 798.666 380.229 798.806 384.295 799.115C384.819 799.131 385.327 799.177 385.835 799.223C401.569 800.474 416.709 803.861 430.997 809.05V810.692C416.72 805.453 401.579 802.033 385.835 800.771C385.312 800.724 384.803 800.693 384.295 800.663C380.229 800.369 376.116 800.214 371.973 800.214C371.464 800.214 370.941 800.214 370.432 800.229C366.288 800.26 362.176 800.446 358.11 800.771C357.602 800.802 357.093 800.849 356.57 800.91C352.426 801.266 348.314 801.793 344.247 802.458C343.724 802.535 343.215 802.628 342.707 802.721C338.548 803.433 334.436 804.299 330.385 805.321C329.862 805.429 329.353 805.568 328.844 805.692C324.67 806.775 320.558 808.013 316.522 809.39C316.014 809.576 315.49 809.746 314.982 809.947C310.792 811.401 306.679 813.042 302.659 814.836C302.136 815.053 301.627 815.285 301.119 815.517C296.914 817.42 292.801 819.494 288.797 821.738C288.273 822.001 287.765 822.295 287.256 822.589C283.036 824.987 278.923 827.555 274.934 830.294C274.411 830.65 273.903 831.006 273.394 831.378C228.725 862.726 199.46 914.748 199.46 973.516V1199.33V1221.27C203.572 1221.3 207.685 1221.47 211.782 1221.78V1199.33V973.516C211.782 922.097 235.918 876.234 273.394 846.742C273.903 846.34 274.411 845.953 274.934 845.566C278.893 842.518 283.005 839.656 287.256 836.994C287.765 836.653 288.273 836.344 288.797 836.035C292.786 833.574 296.899 831.3 301.119 829.211C301.627 828.948 302.136 828.7 302.659 828.453C306.664 826.503 310.777 824.724 314.982 823.115C315.49 822.913 316.014 822.712 316.522 822.526C320.558 821.025 324.655 819.695 328.844 818.519C329.353 818.364 329.862 818.225 330.385 818.101C334.436 817.003 338.533 816.059 342.707 815.3C343.215 815.192 343.739 815.099 344.247 815.006C348.298 814.295 352.411 813.738 356.57 813.335C357.078 813.274 357.587 813.227 358.11 813.196C362.176 812.84 366.288 812.639 370.432 812.608C370.941 812.592 371.464 812.592 371.973 812.592C376.116 812.592 380.229 812.747 384.295 813.057C384.819 813.103 385.327 813.149 385.835 813.196C401.656 814.562 416.816 818.273 430.997 823.94V825.612C416.829 819.887 401.667 816.138 385.835 814.759C385.327 814.697 384.819 814.65 384.295 814.619C380.229 814.294 376.116 814.14 371.973 814.14C371.464 814.14 370.941 814.14 370.432 814.155C366.273 814.185 362.176 814.388 358.11 814.759C357.587 814.789 357.078 814.836 356.57 814.882C352.411 815.285 348.298 815.857 344.247 816.584C343.739 816.662 343.215 816.755 342.707 816.863C338.533 817.637 334.436 818.596 330.385 819.71C329.876 819.834 329.353 819.973 328.844 820.112C324.67 821.304 320.558 822.666 316.522 824.198C316.014 824.383 315.49 824.568 314.982 824.786C310.777 826.395 306.664 828.205 302.659 830.17C302.136 830.417 301.627 830.681 301.119 830.944C296.899 833.064 292.786 835.37 288.797 837.86C288.273 838.17 287.765 838.494 287.256 838.82C283.005 841.512 278.893 844.421 274.934 847.516C274.411 847.918 273.903 848.32 273.394 848.722C236.811 877.951 213.322 923.041 213.322 973.515V1199.33V1221.89C217.45 1222.23 221.563 1222.71 225.645 1223.33V1199.33V973.515C225.645 930.576 244.066 891.877 273.394 864.985C273.903 864.521 274.411 864.057 274.934 863.608C278.861 860.095 282.975 856.799 287.256 853.72C287.765 853.364 288.288 852.993 288.797 852.653C292.771 849.883 296.868 847.299 301.119 844.947C301.627 844.653 302.136 844.375 302.659 844.096C306.649 841.914 310.762 839.934 314.982 838.139C315.49 837.907 315.999 837.706 316.522 837.489C320.542 835.818 324.655 834.332 328.844 833.033C329.353 832.878 329.876 832.724 330.385 832.584C334.421 831.361 338.533 830.324 342.707 829.474C343.215 829.366 343.724 829.273 344.247 829.18C348.298 828.39 352.411 827.772 356.57 827.339C357.078 827.277 357.602 827.215 358.11 827.184C362.176 826.781 366.273 826.565 370.432 826.533C370.941 826.518 371.464 826.518 371.973 826.518C376.116 826.518 380.229 826.689 384.295 827.044C384.803 827.075 385.327 827.122 385.835 827.184C401.765 828.692 416.956 832.784 430.997 839.025V840.721C416.973 834.406 401.78 830.26 385.835 828.731C385.327 828.685 384.819 828.638 384.295 828.592C380.229 828.236 376.132 828.066 371.973 828.066C371.464 828.066 370.941 828.066 370.432 828.081C366.273 828.112 362.161 828.344 358.11 828.731C357.602 828.778 357.078 828.824 356.57 828.901C352.411 829.318 348.298 829.953 344.247 830.743C343.724 830.836 343.215 830.944 342.707 831.052C338.533 831.918 334.421 832.955 330.385 834.193C329.862 834.332 329.353 834.487 328.844 834.657C324.655 835.973 320.542 837.473 316.522 839.16C316.014 839.361 315.49 839.578 314.982 839.81C310.762 841.62 306.649 843.632 302.659 845.844C302.136 846.123 301.627 846.401 301.119 846.711C296.868 849.094 292.756 851.709 288.797 854.525C288.288 854.881 287.765 855.252 287.256 855.624C282.96 858.734 278.846 862.091 274.934 865.666C274.411 866.13 273.903 866.595 273.394 867.074C244.975 893.657 227.184 931.535 227.184 973.516V1199.33V1223.56C231.328 1224.21 235.441 1225 239.508 1225.95V1199.33V973.516C239.508 939.427 252.323 908.31 273.394 884.744C273.887 884.172 274.395 883.615 274.934 883.058C278.769 878.88 282.897 874.95 287.256 871.299C287.765 870.865 288.273 870.447 288.797 870.03C292.724 866.826 296.837 863.856 301.119 861.132C301.627 860.792 302.136 860.467 302.659 860.158C306.634 857.697 310.746 855.439 314.982 853.396C315.49 853.148 315.999 852.917 316.522 852.684C320.527 850.812 324.64 849.141 328.844 847.686C329.353 847.5 329.862 847.33 330.385 847.16C334.405 845.814 338.517 844.669 342.707 843.725C343.215 843.601 343.739 843.492 344.247 843.384C348.283 842.502 352.395 841.822 356.57 841.342C357.078 841.28 357.602 841.219 358.11 841.172C362.161 840.738 366.273 840.507 370.432 840.459C370.941 840.444 371.464 840.444 371.973 840.444C376.132 840.444 380.244 840.63 384.295 841.017C384.803 841.064 385.327 841.11 385.835 841.172C401.916 842.86 417.14 847.468 430.997 854.427V856.154C417.164 849.106 401.934 844.441 385.835 842.734C385.327 842.673 384.819 842.611 384.295 842.58C380.244 842.193 376.132 841.992 371.973 841.992C371.464 841.992 370.941 841.992 370.432 842.007C366.273 842.053 362.161 842.286 358.11 842.734C357.587 842.78 357.078 842.843 356.57 842.905C352.395 843.384 348.283 844.08 344.247 844.962C343.724 845.071 343.215 845.179 342.707 845.304C338.517 846.262 334.405 847.438 330.385 848.8C329.862 848.97 329.353 849.141 328.844 849.326C324.624 850.796 320.527 852.483 316.522 854.385C315.999 854.618 315.49 854.866 314.982 855.113C310.746 857.187 306.634 859.476 302.659 861.983C302.136 862.293 301.627 862.618 301.119 862.958C296.837 865.744 292.724 868.76 288.797 872.01C288.273 872.443 287.765 872.877 287.256 873.309C282.897 877.039 278.785 881.047 274.934 885.301C274.441 885.843 273.948 886.4 273.471 886.957C273.44 886.989 273.409 887.019 273.394 887.05C253.262 910.182 241.047 940.433 241.047 973.516V1199.33V1226.3C245.191 1227.28 249.304 1228.41 253.37 1229.68V1199.33V973.516C253.37 948.464 261.117 925.176 274.333 905.974C274.764 905.324 275.227 904.674 275.689 904.04C279.201 899.135 283.067 894.508 287.287 890.207C287.78 889.681 288.288 889.17 288.812 888.659C292.663 884.837 296.775 881.294 301.119 878.029C301.627 877.642 302.136 877.271 302.659 876.899C306.586 874.036 310.7 871.422 314.982 869.054C315.49 868.776 315.999 868.497 316.522 868.235C320.496 866.099 324.608 864.196 328.844 862.525C329.352 862.324 329.876 862.122 330.384 861.937C334.389 860.42 338.502 859.12 342.707 858.053C343.215 857.913 343.724 857.79 344.247 857.666C348.283 856.691 352.38 855.918 356.57 855.376C357.078 855.299 357.587 855.237 358.11 855.19C362.146 854.711 366.258 854.432 370.432 854.402C370.94 854.37 371.449 854.37 371.972 854.37C376.132 854.37 380.244 854.587 384.295 855.02C384.818 855.067 385.327 855.112 385.835 855.19C402.122 857.1 417.399 862.355 430.997 870.225V872.002C417.436 864.013 402.148 858.679 385.835 856.738C385.327 856.676 384.818 856.614 384.295 856.567C380.244 856.134 376.132 855.917 371.972 855.917C371.464 855.917 370.94 855.918 370.432 855.933C366.273 855.979 362.161 856.258 358.11 856.738C357.587 856.799 357.078 856.861 356.57 856.939C352.395 857.481 348.283 858.254 344.247 859.26C343.739 859.368 343.23 859.507 342.707 859.646C338.502 860.73 334.389 862.045 330.384 863.592C329.876 863.778 329.352 863.979 328.844 864.18C324.608 865.867 320.496 867.801 316.522 869.967C315.999 870.246 315.49 870.524 314.982 870.818C310.7 873.217 306.586 875.894 302.659 878.802C302.136 879.19 301.627 879.576 301.119 879.963C296.775 883.29 292.678 886.911 288.827 890.81C288.334 891.32 287.826 891.832 287.333 892.357C283.175 896.721 279.355 901.409 275.904 906.392C275.458 907.026 275.011 907.676 274.58 908.342C262.15 927.003 254.91 949.423 254.91 973.516V1199.33V1230.15C259.069 1231.49 263.182 1232.96 267.233 1234.58V1199.33V973.516C267.233 957.083 271.006 941.517 277.722 927.652C278.091 926.91 278.461 926.167 278.831 925.424C281.665 919.9 284.977 914.67 288.72 909.765C289.151 909.177 289.598 908.604 290.06 908.032C293.51 903.668 297.299 899.599 301.381 895.87C301.858 895.406 302.351 894.973 302.844 894.555C306.649 891.166 310.715 888.071 314.982 885.286C315.49 884.946 315.999 884.621 316.522 884.296C320.466 881.82 324.578 879.592 328.844 877.642C329.353 877.41 329.862 877.178 330.385 876.962C334.374 875.214 338.487 873.712 342.707 872.474C343.215 872.335 343.724 872.181 344.247 872.042C348.267 870.927 352.38 870.06 356.57 869.442C357.078 869.349 357.602 869.287 358.11 869.225C362.146 868.668 366.258 868.374 370.432 868.312C370.941 868.296 371.464 868.296 371.973 868.296C376.147 868.296 380.26 868.544 384.295 869.024C384.819 869.086 385.327 869.147 385.835 869.225C402.426 871.435 417.791 877.574 430.997 886.659V888.555C417.844 879.307 402.467 873.041 385.835 870.787C385.327 870.71 384.819 870.648 384.295 870.587C380.26 870.092 376.147 869.844 371.973 869.844C371.464 869.844 370.941 869.844 370.432 869.859C366.258 869.921 362.146 870.23 358.11 870.787C357.587 870.85 357.078 870.927 356.57 870.989C352.38 871.623 348.267 872.521 344.247 873.65C343.724 873.789 343.215 873.944 342.707 874.099C338.471 875.352 334.359 876.869 330.385 878.648C329.876 878.865 329.353 879.097 328.844 879.344C324.578 881.325 320.449 883.6 316.522 886.121C316.09 886.4 315.675 886.663 315.259 886.957C315.182 887.004 315.105 887.05 315.028 887.112C315.013 887.112 314.997 887.128 314.982 887.143C310.731 889.974 306.711 893.116 302.952 896.52C302.459 896.968 301.966 897.417 301.489 897.881C297.438 901.673 293.71 905.788 290.322 910.182C289.875 910.771 289.444 911.359 289.012 911.946C285.331 916.914 282.096 922.236 279.355 927.838C278.985 928.596 278.616 929.354 278.261 930.112C272.177 943.326 268.773 958.026 268.773 973.515V1199.33V1235.2C272.947 1236.9 277.06 1238.76 281.096 1240.77V1199.33V973.515C281.096 965.438 282.143 957.608 284.114 950.135C284.346 949.268 284.592 948.386 284.853 947.536C286.717 941.191 289.275 935.141 292.401 929.462C292.756 928.797 293.125 928.147 293.51 927.497C296.36 922.608 299.656 917.997 303.352 913.741C303.769 913.231 304.215 912.735 304.662 912.241C308.05 908.48 311.763 905.015 315.721 901.858C316.199 901.471 316.692 901.1 317.185 900.744C320.896 897.896 324.84 895.344 328.984 893.099C329.491 892.821 330 892.559 330.508 892.296C334.421 890.268 338.487 888.52 342.707 887.097V887.081C342.831 887.034 342.953 886.988 343.092 886.957C343.478 886.818 343.863 886.694 344.247 886.586C348.237 885.286 352.35 884.264 356.57 883.537C357.078 883.445 357.587 883.367 358.11 883.275C362.13 882.655 366.243 882.3 370.433 882.237C370.941 882.222 371.464 882.222 371.973 882.222C376.147 882.222 380.275 882.5 384.295 883.073C384.819 883.135 385.327 883.197 385.835 883.275C402.916 885.919 418.433 893.367 430.997 904.179V906.2C418.531 895.156 402.984 887.544 385.835 884.853C385.327 884.776 384.804 884.698 384.295 884.636C380.26 884.064 376.147 883.77 371.973 883.77C371.45 883.77 370.941 883.77 370.433 883.785C366.243 883.847 362.13 884.218 358.11 884.853C357.587 884.93 357.078 885.007 356.57 885.115C352.35 885.843 348.252 886.88 344.263 888.195C343.755 888.35 343.246 888.52 342.738 888.705C338.533 890.176 334.466 891.955 330.57 894.013C330.061 894.26 329.569 894.539 329.076 894.818C324.963 897.077 321.035 899.676 317.354 902.554C316.876 902.91 316.4 903.297 315.938 903.684C311.978 906.872 308.312 910.399 304.985 914.221C304.539 914.716 304.108 915.212 303.692 915.722C300.057 920.039 296.823 924.712 294.034 929.679C293.665 930.329 293.31 930.995 292.971 931.66C289.906 937.447 287.473 943.605 285.732 950.058C285.486 950.955 285.27 951.852 285.054 952.75C283.467 959.419 282.635 966.367 282.635 973.516V1199.33V1241.54C286.826 1243.65 290.938 1245.94 294.958 1248.38V1199.33V974.892V973.515C294.958 972.88 294.958 972.246 294.989 971.612C295.158 963.953 296.467 956.571 298.716 949.609C298.978 948.835 299.24 948.077 299.502 947.318C301.52 941.702 304.169 936.395 307.358 931.474C307.712 930.902 308.097 930.344 308.481 929.788C311.362 925.563 314.643 921.648 318.294 918.09C318.725 917.671 319.155 917.254 319.602 916.851C322.976 913.68 326.658 910.832 330.554 908.31C331.017 908.016 331.494 907.722 331.971 907.428C335.652 905.169 339.534 903.219 343.601 901.579C344.093 901.394 344.587 901.208 345.079 901.023C348.946 899.568 352.966 898.423 357.093 897.603C357.602 897.495 358.125 897.402 358.634 897.309C362.623 896.612 366.72 896.211 370.894 896.164C371.248 896.148 371.619 896.148 371.973 896.148H372.435C376.702 896.18 380.891 896.551 384.973 897.263C385.512 897.34 386.036 897.448 386.575 897.556C404.281 900.981 419.841 910.521 430.997 923.891V926.343C420.104 912.62 404.585 902.754 386.822 899.181C390.972 924.826 407.999 946.194 430.997 956.367V958.052C407.055 947.715 389.336 925.53 385.219 898.872C381.122 898.129 376.917 897.742 372.62 897.711C376.677 931.787 399.837 960.042 430.997 971.364V973.01C398.985 961.585 375.165 932.644 371.079 897.711C366.889 897.758 362.793 898.145 358.803 898.856C363.513 940.149 392.489 974.133 430.997 986.044V987.661C391.724 975.71 362.121 941.163 357.279 899.151C353.15 899.97 349.13 901.131 345.279 902.601C351.572 949.903 385.969 988.392 430.997 1000.53V1002.13C385.295 989.986 350.324 951.074 343.816 903.173C339.781 904.814 335.899 906.794 332.248 909.085C341.05 961.101 380.378 1002.81 430.997 1014.91V1016.5C379.811 1004.42 339.979 962.444 330.847 909.982C326.965 912.52 323.33 915.413 319.987 918.615C332.225 973.851 375.844 1017.33 430.997 1029.18V1030.76C375.415 1018.95 331.374 975.368 318.694 919.885C315.089 923.475 311.854 927.451 309.036 931.722C325.561 988.351 372.62 1031.99 430.997 1043.38V1044.96C372.357 1033.64 324.981 990.089 307.942 933.44C304.815 938.453 302.259 943.868 300.349 949.578C306.202 964.742 314.242 979.101 324.347 992.315C327.165 996.029 330.169 999.65 333.295 1003.12C335.144 1005.19 337.1 1007.26 339.319 1009.49C340.535 1010.71 341.767 1011.9 342.999 1013.08C346.419 1016.32 349.93 1019.36 353.412 1022.18C356.893 1025 360.636 1027.77 364.533 1030.43C368.322 1033.03 372.327 1035.52 376.409 1037.84C380.552 1040.21 384.834 1042.4 389.132 1044.38C393.598 1046.47 398.25 1048.39 402.963 1050.08C408.093 1051.93 413.361 1053.57 418.628 1054.91C422.707 1055.95 426.838 1056.82 430.997 1057.56V1059.13C426.714 1058.37 422.46 1057.48 418.258 1056.41C412.929 1055.06 407.615 1053.4 402.44 1051.53C397.695 1049.83 392.997 1047.9 388.484 1045.79C384.156 1043.8 379.828 1041.57 375.638 1039.18C371.525 1036.85 367.489 1034.33 363.67 1031.71C359.726 1029.02 355.954 1026.22 352.457 1023.39C348.929 1020.55 345.402 1017.46 341.952 1014.21C340.689 1013.02 339.457 1011.81 338.24 1010.59C335.991 1008.35 334.004 1006.24 332.156 1004.15C328.998 1000.66 325.963 996.988 323.114 993.259C313.317 980.447 305.447 966.568 299.624 951.93C297.591 958.769 296.497 966.027 296.497 973.516V974.537C301.827 984.609 308.127 994.25 315.365 1003.38C318.277 1007.08 321.389 1010.71 324.608 1014.19C326.379 1016.1 327.981 1017.78 329.522 1019.33C331.216 1021.02 332.879 1022.64 334.512 1024.14C337.947 1027.36 341.489 1030.43 345.017 1033.24C348.513 1036.06 352.133 1038.77 356.107 1041.51C359.897 1044.14 363.823 1046.63 367.798 1048.92C371.726 1051.22 375.838 1053.44 380.058 1055.49C384.31 1057.57 388.669 1059.49 393.012 1061.2C397.525 1063 402.192 1064.62 406.875 1066.06C414.776 1068.48 422.834 1070.36 430.996 1071.7V1073.27C422.679 1071.92 414.466 1070.01 406.413 1067.53C401.7 1066.09 397.002 1064.45 392.458 1062.64C388.067 1060.91 383.679 1058.97 379.381 1056.89C375.129 1054.81 370.97 1052.58 367.027 1050.26C363.023 1047.94 359.064 1045.42 355.244 1042.79C351.224 1040.02 347.573 1037.3 344.062 1034.45C340.488 1031.6 336.93 1028.52 333.464 1025.27C331.832 1023.76 330.137 1022.13 328.443 1020.43C326.887 1018.87 325.254 1017.17 323.468 1015.25C320.233 1011.73 317.106 1008.07 314.164 1004.35C307.479 995.906 301.565 987.009 296.497 977.771V1199.33V1249.31C304.753 1254.43 312.655 1260.22 320.095 1266.63C323.652 1269.66 327.118 1272.88 330.368 1276.16C330.522 1276.28 330.646 1276.41 330.784 1276.56C333.865 1279.64 336.93 1282.95 339.934 1286.4C343.06 1290.05 346.002 1293.72 348.652 1297.31C351.425 1301.06 354.105 1304.94 356.584 1308.87C359.203 1312.99 361.606 1317.13 363.731 1321.17C366.027 1325.46 368.167 1329.87 370.092 1334.29C372.079 1338.82 373.943 1343.62 375.638 1348.56C377.501 1353.97 379.088 1359.44 380.382 1364.77L380.397 1364.87C381.229 1368.22 381.953 1371.61 382.584 1375.02C402.104 1372.25 419.244 1361.95 430.996 1347.15V1349.58C419.064 1363.88 402.106 1373.81 382.862 1376.55C383.601 1380.6 384.186 1384.69 384.648 1388.79C402.266 1386.27 418.243 1378.56 430.996 1367.27V1369.3C418.181 1380.32 402.299 1387.84 384.818 1390.34C385.233 1394.44 385.526 1398.57 385.68 1402.71C402.372 1400.48 417.802 1394.2 430.996 1384.92V1386.81C417.763 1395.91 402.368 1402.07 385.742 1404.26C385.803 1406.18 385.834 1408.1 385.834 1410.03V1416.73C402.144 1414.79 417.436 1409.47 430.996 1401.49V1403.25C417.4 1411.12 402.121 1416.37 385.834 1418.28V1430.74C401.933 1429.03 417.162 1424.36 430.996 1417.32V1419.04C417.138 1426 401.917 1430.61 385.834 1432.3V1444.74C401.778 1443.21 416.972 1439.07 430.996 1432.76V1434.44C416.954 1440.68 401.766 1444.78 385.834 1446.29V1458.71C401.663 1457.33 416.829 1453.6 430.996 1447.88V1449.55C416.817 1455.21 401.652 1458.91 385.834 1460.28V1472.7C401.575 1471.44 416.721 1468.04 430.996 1462.8V1464.44C416.711 1469.63 401.565 1473 385.834 1474.25V1486.67C401.502 1485.51 416.633 1482.38 430.996 1477.55V1479.18C416.625 1483.97 401.496 1487.07 385.834 1488.22L385.834 1558.92C401.498 1560.07 416.624 1563.18 430.996 1567.97V1569.6C416.633 1564.77 401.505 1561.63 385.834 1560.47C385.311 1560.43 384.802 1560.39 384.294 1560.37C380.212 1560.09 376.115 1559.95 371.972 1559.95C371.463 1559.95 370.94 1559.95 370.431 1559.97C366.287 1560 362.191 1560.17 358.109 1560.47C357.601 1560.51 357.077 1560.54 356.569 1560.59C352.425 1560.93 348.313 1561.41 344.246 1562.03C343.723 1562.11 343.214 1562.18 342.706 1562.28C338.547 1562.93 334.435 1563.71 330.384 1564.66C329.861 1564.77 329.352 1564.89 328.843 1565.03C324.684 1566 320.572 1567.15 316.521 1568.42C315.998 1568.57 315.489 1568.74 314.981 1568.91C310.806 1570.26 306.694 1571.75 302.658 1573.4C302.15 1573.59 301.626 1573.8 301.118 1574.02C296.928 1575.74 292.816 1577.62 288.796 1579.67C288.273 1579.91 287.764 1580.18 287.255 1580.44C283.051 1582.59 278.953 1584.91 274.933 1587.39C274.425 1587.7 273.902 1588.02 273.393 1588.36C220.699 1621.46 185.596 1680.28 185.596 1747.18V1973H184.056V1747.18C184.056 1679.38 219.822 1619.81 273.393 1586.52L273.393 1410.03C273.389 1368.23 239.533 1334.22 197.919 1334.22C156.303 1334.22 122.444 1368.23 122.444 1410.04L122.444 1543.09C121.93 1542.76 121.427 1542.42 120.905 1542.1V1410.04C120.905 1367.38 155.452 1332.67 197.919 1332.67C240.383 1332.67 274.929 1367.38 274.933 1410.03V1410.04L274.933 1585.58C278.953 1583.13 283.051 1580.83 287.255 1578.71L287.255 1410.03C287.252 1360.55 247.178 1320.3 197.919 1320.3C148.658 1320.3 108.582 1360.55 108.582 1410.04V1534.79C108.067 1534.57 107.561 1534.32 107.042 1534.1V1410.04C107.042 1359.7 147.809 1318.75 197.919 1318.75C248.026 1318.75 288.792 1359.7 288.796 1410.03V1410.04L288.796 1577.92C292.816 1575.91 296.928 1574.05 301.118 1572.33L301.118 1410.03C301.114 1352.87 254.821 1306.37 197.919 1306.37C141.015 1306.37 94.7197 1352.87 94.7191 1410.04V1530.82C94.2042 1530.67 93.6965 1530.51 93.179 1530.38V1410.04C93.1796 1352.02 140.166 1304.82 197.919 1304.82C255.673 1304.82 302.659 1352.02 302.659 1410.04L302.658 1571.71C306.694 1570.09 310.806 1568.62 314.981 1567.27L314.981 1410.03C314.977 1345.19 262.465 1292.44 197.919 1292.44C133.37 1292.44 80.8564 1345.2 80.8564 1410.04L80.8559 1527.94C80.345 1527.87 79.8301 1527.8 79.3169 1527.74V1410.04C79.3169 1344.34 132.521 1290.9 197.919 1290.9C263.317 1290.9 316.522 1344.34 316.522 1410.04L316.521 1566.79C320.572 1565.54 324.685 1564.41 328.844 1563.42L328.844 1410.03C328.84 1337.51 270.11 1278.52 197.92 1278.52C125.727 1278.52 66.9948 1337.52 66.994 1410.04V1526.76C66.7362 1526.76 66.482 1526.74 66.2236 1526.74C65.9647 1526.74 65.7128 1526.76 65.4538 1526.76V1410.04C65.4544 1336.66 124.878 1276.97 197.92 1276.97C270.961 1276.97 330.385 1336.66 330.385 1410.04L330.384 1563.06C334.435 1562.14 338.547 1561.35 342.707 1560.7L342.707 1410.03C342.703 1329.84 277.753 1264.59 197.92 1264.59C118.083 1264.59 53.1319 1329.84 53.1313 1410.04L53.1313 1526.23C52.6181 1526.3 52.1026 1526.36 51.5911 1526.43L51.5911 1410.04C51.5917 1328.99 117.234 1263.04 197.92 1263.04C278.605 1263.04 344.248 1328.99 344.248 1410.04L344.247 1560.46C348.313 1559.85 352.425 1559.38 356.569 1559.04L356.569 1410.03C356.566 1322.16 285.397 1250.66 197.92 1250.66C110.439 1250.66 39.2692 1322.16 39.2692 1410.04L39.268 1528.1C38.7517 1528.23 38.2428 1528.39 37.7291 1528.54L37.7291 1410.04C37.7291 1321.31 109.59 1249.12 197.92 1249.12C286.248 1249.12 358.111 1321.31 358.111 1410.04L358.109 1558.92C362.176 1558.61 366.288 1558.45 370.432 1558.42L370.432 1410.03C370.432 1408.41 370.417 1406.78 370.355 1405.16C370.355 1404.65 370.339 1404.12 370.324 1403.61C370.17 1399.46 369.862 1395.32 369.415 1391.2C369.369 1390.69 369.308 1390.16 369.245 1389.65C369.061 1388 368.846 1386.34 368.599 1384.7C368.229 1382.2 367.814 1379.67 367.337 1377.17C367.229 1376.66 367.136 1376.15 367.028 1375.62C366.15 1371.26 365.103 1366.91 363.902 1362.64C362.346 1357.11 360.483 1351.62 358.387 1346.31C356.523 1341.56 354.413 1336.83 352.103 1332.25C349.9 1327.81 347.513 1323.51 345.001 1319.47C342.661 1315.58 340.026 1311.62 337.162 1307.71C334.528 1304.09 331.617 1300.4 328.506 1296.8C325.686 1293.52 322.791 1290.39 319.911 1287.48C319.634 1287.22 319.356 1286.94 319.063 1286.66C315.798 1283.4 312.363 1280.26 308.851 1277.32C304.862 1273.95 300.749 1270.79 296.497 1267.82C295.99 1267.46 295.481 1267.11 294.958 1266.75C290.952 1264.01 286.84 1261.46 282.635 1259.09C282.127 1258.78 281.603 1258.49 281.095 1258.21C277.059 1255.98 272.962 1253.92 268.772 1252.04C268.264 1251.8 267.74 1251.57 267.233 1251.34C263.181 1249.56 259.084 1247.94 254.909 1246.48C254.402 1246.29 253.893 1246.11 253.37 1245.94C249.319 1244.56 245.206 1243.32 241.047 1242.26C240.539 1242.12 240.03 1241.98 239.507 1241.85C235.441 1240.83 231.328 1239.97 227.184 1239.25C226.676 1239.16 226.152 1239.07 225.645 1239.01C221.562 1238.33 217.45 1237.8 213.321 1237.43C212.798 1237.38 212.29 1237.34 211.782 1237.3C207.684 1236.96 203.587 1236.78 199.459 1236.75C198.951 1236.73 198.427 1236.73 197.919 1236.73C193.776 1236.73 189.663 1236.89 185.597 1237.18C185.088 1237.21 184.58 1237.24 184.057 1237.29C117.222 1242.64 61.0018 1286.45 37.3735 1346.61C37.0657 1347.38 36.758 1348.17 36.4806 1348.96C33.5691 1356.65 31.2129 1364.6 29.4258 1372.77C29.118 1374.18 28.8254 1375.59 28.5633 1377.01C26.4843 1387.71 25.4056 1398.74 25.4056 1410.03L25.4056 1532.24C24.8863 1532.46 24.381 1532.71 23.8648 1532.93L23.8648 1410.03C23.8648 1397.24 25.2362 1384.77 27.8703 1372.76C28.1165 1371.47 28.4092 1370.22 28.7328 1368.95C30.5662 1361.29 32.9071 1353.82 35.7261 1346.58C36.0186 1345.82 36.3265 1345.06 36.6343 1344.3C60.8789 1284.47 117.207 1241.05 184.057 1235.74C184.565 1235.7 185.073 1235.65 185.597 1235.63C189.663 1235.32 193.776 1235.18 197.919 1235.18C198.427 1235.18 198.951 1235.18 199.46 1235.2C203.588 1235.23 207.684 1235.42 211.782 1235.76C212.29 1235.79 212.799 1235.82 213.322 1235.88C217.45 1236.24 221.562 1236.76 225.645 1237.43C226.168 1237.51 226.677 1237.6 227.184 1237.68C231.328 1238.39 235.441 1239.25 239.507 1240.26C240.015 1240.38 240.539 1240.51 241.047 1240.65C245.206 1241.71 249.319 1242.94 253.37 1244.31C253.893 1244.48 254.402 1244.65 254.91 1244.84C259.084 1246.28 263.197 1247.89 267.233 1249.67C267.74 1249.88 268.265 1250.1 268.772 1250.35C272.962 1252.21 277.06 1254.25 281.095 1256.45C281.603 1256.72 282.127 1257.02 282.635 1257.3C286.84 1259.65 290.953 1262.17 294.958 1264.88C295.466 1265.23 295.99 1265.57 296.498 1265.95C301.104 1269.1 305.555 1272.51 309.837 1276.14C313.38 1279.1 316.845 1282.27 320.126 1285.55C320.434 1285.83 320.711 1286.11 320.988 1286.4C323.915 1289.33 326.826 1292.48 329.675 1295.78C332.803 1299.43 335.745 1303.13 338.394 1306.8C341.29 1310.76 343.954 1314.75 346.326 1318.66C348.837 1322.73 351.255 1327.06 353.489 1331.55C355.815 1336.18 357.94 1340.94 359.835 1345.76C361.944 1351.09 363.809 1356.63 365.38 1362.2C366.643 1366.65 367.721 1371.16 368.599 1375.7C368.707 1376.21 368.815 1376.73 368.892 1377.24C369.354 1379.66 369.755 1382.07 370.109 1384.49C370.355 1386.22 370.586 1387.95 370.786 1389.69C370.848 1390.2 370.909 1390.72 370.971 1391.23C371.402 1395.35 371.695 1399.48 371.849 1403.63C371.88 1404.14 371.895 1404.65 371.895 1405.17C371.957 1406.8 371.972 1408.41 371.972 1410.03L371.972 1558.41C376.116 1558.41 380.228 1558.55 384.295 1558.81L384.295 1488.33V1486.77V1474.36V1472.81V1460.41V1458.85V1446.43V1444.88V1432.44V1430.89V1418.45V1416.9V1410.03C384.295 1408.18 384.263 1406.3 384.202 1404.45C384.202 1403.94 384.172 1403.41 384.141 1402.9C384.002 1398.77 383.71 1394.64 383.278 1390.54C383.232 1390.03 383.185 1389.52 383.124 1389.01C382.662 1384.89 382.076 1380.8 381.337 1376.75C381.26 1376.24 381.167 1375.73 381.059 1375.23C380.444 1371.85 379.704 1368.49 378.888 1365.16L378.857 1365.05C377.579 1359.79 376.008 1354.41 374.19 1349.05C372.496 1344.16 370.647 1339.4 368.676 1334.91C366.766 1330.53 364.656 1326.15 362.376 1321.9C360.266 1317.89 357.878 1313.77 355.29 1309.7C352.826 1305.8 350.177 1301.94 347.42 1298.24C344.786 1294.66 341.875 1291.03 338.764 1287.42C335.79 1284 332.74 1280.71 329.691 1277.63C329.583 1277.52 329.475 1277.41 329.321 1277.27C326.056 1274.01 322.621 1270.82 319.109 1267.8C311.962 1261.66 304.415 1256.09 296.497 1251.14C295.99 1250.83 295.481 1250.5 294.958 1250.19C290.937 1247.72 286.825 1245.41 282.635 1243.28C282.127 1243 281.603 1242.74 281.095 1242.49C277.059 1240.46 272.946 1238.59 268.772 1236.89C268.264 1236.65 267.755 1236.44 267.232 1236.25C263.181 1234.61 259.068 1233.11 254.909 1231.78C254.402 1231.61 253.893 1231.46 253.37 1231.3C249.303 1230.02 245.206 1228.89 241.047 1227.9C240.539 1227.77 240.015 1227.65 239.507 1227.54C235.441 1226.6 231.328 1225.79 227.184 1225.13C226.676 1225.05 226.167 1224.97 225.644 1224.9C221.562 1224.28 217.45 1223.8 213.321 1223.46C212.814 1223.41 212.289 1223.36 211.782 1223.33C207.684 1223.02 203.587 1222.85 199.459 1222.82C198.951 1222.81 198.427 1222.81 197.919 1222.81C193.776 1222.81 189.678 1222.95 185.596 1223.21C185.088 1223.24 184.565 1223.29 184.056 1223.32C116.483 1228.33 58.83 1269.69 30.4269 1327.96C30.4269 1327.96 30.4263 1327.96 30.4263 1327.97L29.5334 1329.82C26.9924 1335.18 24.6965 1340.68 22.664 1346.31C22.664 1346.32 22.6628 1346.32 22.6628 1346.32C22.3704 1347.11 22.0942 1347.89 21.8321 1348.7L21.8436 1348.66L21.8442 1348.66L21.8558 1348.63L21.8564 1348.62L21.868 1348.59L21.8691 1348.58L21.8807 1348.55L21.8813 1348.55L21.8928 1348.51L21.8934 1348.51L21.905 1348.47L21.9062 1348.47L21.9177 1348.44L21.9183 1348.43L21.9299 1348.4L21.9305 1348.4L21.9426 1348.36L21.9432 1348.36L21.9548 1348.32L21.9681 1348.28L21.9797 1348.25L21.9803 1348.25L21.9924 1348.21L21.993 1348.21L22.0046 1348.17L22.0058 1348.17L22.0173 1348.14L22.0179 1348.13L22.0301 1348.1L22.0307 1348.1L22.0422 1348.06L22.0434 1348.06L22.055 1348.02L22.0555 1348.02L22.0677 1347.99L22.0683 1347.98L22.0804 1347.95L22.081 1347.95L22.0932 1347.91L22.0938 1347.91L22.1059 1347.87L22.1065 1347.87L22.1187 1347.84L22.1193 1347.83L22.1314 1347.8L22.132 1347.8L22.1441 1347.76L22.1447 1347.76L22.1569 1347.73L22.1575 1347.72L22.1696 1347.69L22.1702 1347.69L22.1824 1347.65L22.183 1347.65L22.1951 1347.61L22.1957 1347.61L22.2079 1347.58L22.2084 1347.57L22.2341 1347.5L22.2347 1347.5L22.2469 1347.47L22.2475 1347.46L22.2602 1347.43V1347.43L22.2729 1347.39L22.2735 1347.39L22.2857 1347.35L22.2863 1347.35L22.299 1347.32L22.2996 1347.32L22.3117 1347.28L22.3123 1347.28L22.3251 1347.24L22.3257 1347.24L22.3384 1347.21V1347.2L22.3511 1347.17L22.3517 1347.17L22.3645 1347.13L22.3778 1347.09L22.3905 1347.06L22.3911 1347.06L22.4039 1347.02L22.4045 1347.02L22.4172 1346.98L22.4441 1346.91L22.4709 1346.84L22.4978 1346.76L22.5111 1346.73L22.5244 1346.69L22.5378 1346.65L22.5511 1346.61L22.5644 1346.58L22.5785 1346.54L22.5919 1346.5L22.6052 1346.47L22.6193 1346.43L22.6326 1346.39L22.6467 1346.36L22.6601 1346.32L21.8287 1348.7L21.8293 1348.7V1348.7C21.8293 1348.7 21.8293 1348.7 21.8287 1348.7C19.1178 1356.47 16.9309 1364.48 15.2677 1372.67C14.9903 1374.08 14.7132 1375.47 14.4675 1376.88C12.5416 1387.65 11.5401 1398.72 11.5401 1410.04L11.5401 1543.21C11.0183 1543.53 10.5155 1543.88 10 1544.2L10 1514.28V1511.62L10 1488.55V1485.35L10 1454.17V1448.98L10 1410.04C10 1397.24 11.2787 1384.76 13.6966 1372.67C13.6966 1372.67 13.6966 1372.67 13.6966 1372.67C13.9428 1371.42 14.2202 1370.16 14.4967 1368.91C14.4967 1368.91 14.4979 1368.91 14.4979 1368.91C16.2068 1361.19 18.3937 1353.65 21.0121 1346.32C21.0127 1346.32 21.0127 1346.32 21.0127 1346.32C21.2901 1345.56 21.5667 1344.8 21.8593 1344.04C21.8599 1344.04 21.8599 1344.04 21.8605 1344.04C23.8931 1338.55 26.1873 1333.17 28.7287 1327.94C28.7293 1327.94 28.7293 1327.93 28.7299 1327.93C29.0224 1327.32 29.3144 1326.71 29.6069 1326.11C29.6069 1326.11 29.6075 1326.11 29.6075 1326.11C58.4733 1267.94 116.327 1226.75 184.054 1221.77V1199.34V973.518C184.054 905.713 219.819 846.141 273.39 812.858V636.369C273.387 594.565 239.531 560.557 197.917 560.557C156.3 560.557 122.442 594.569 122.442 636.376L122.442 769.428C121.927 769.101 121.424 768.756 120.903 768.437L120.903 636.376C120.903 593.715 155.45 559.009 197.917 559.009C240.383 559.009 274.932 593.715 274.932 636.376L274.931 811.914C278.951 809.469 283.048 807.164 287.253 805.044V636.369C287.249 586.886 247.175 546.631 197.917 546.631C148.655 546.631 108.579 586.89 108.579 636.376L108.579 761.129C108.064 760.901 107.559 760.657 107.039 760.438L107.039 636.376C107.04 586.037 147.807 545.084 197.917 545.084C248.026 545.084 288.794 586.037 288.794 636.376L288.794 804.255C292.813 802.243 296.926 800.386 301.116 798.668V636.369C301.112 579.208 254.819 532.705 197.917 532.705C141.012 532.705 94.7174 579.211 94.7168 636.376L94.7168 757.153C94.2018 757.009 93.6941 756.851 93.1766 756.715L93.1766 636.376C93.1772 578.358 140.163 531.157 197.917 531.157C255.67 531.157 302.657 578.358 302.657 636.376L302.656 798.05C306.692 796.425 310.804 794.955 314.978 793.609V636.369C314.975 571.529 262.463 518.779 197.917 518.779C133.368 518.779 80.8541 571.532 80.8541 636.376L80.8535 754.272C80.3427 754.201 79.8277 754.139 79.3145 754.076L79.3145 636.376C79.3145 570.679 132.519 517.231 197.917 517.231C263.315 517.231 316.52 570.679 316.52 636.376L316.519 793.13C320.57 791.876 324.682 790.747 328.841 789.756V636.369C328.838 563.85 270.107 504.853 197.917 504.853C125.724 504.853 66.9924 563.853 66.9916 636.376V753.096C66.7338 753.094 66.4796 753.077 66.2212 753.077C65.9623 753.077 65.7104 753.094 65.4515 753.096V636.376C65.4521 563 124.876 503.306 197.917 503.306C270.959 503.306 330.383 563 330.383 636.376L330.382 789.4C334.433 788.472 338.545 787.683 342.704 787.033V636.369C342.701 556.172 277.751 490.927 197.917 490.927C118.081 490.927 53.1295 556.175 53.1289 636.376L53.1289 752.568C52.6158 752.632 52.1002 752.693 51.5888 752.765L51.5888 636.376C51.5894 555.322 117.231 489.38 197.917 489.38C278.602 489.38 344.246 555.322 344.246 636.376L344.244 786.801C348.311 786.182 352.423 785.718 356.567 785.377V636.369C356.563 548.493 285.395 477.001 197.917 477.001C110.437 477.001 39.2669 548.497 39.2669 636.376L39.2657 754.433C38.7494 754.57 38.2405 754.727 37.7267 754.872L37.7267 636.376C37.7267 547.643 109.588 475.453 197.917 475.453C286.246 475.453 358.108 547.643 358.108 636.376L358.107 785.254C362.174 784.944 366.286 784.789 370.43 784.758V636.369C370.43 634.745 370.414 633.12 370.352 631.495C370.352 630.984 370.337 630.458 370.322 629.948C370.168 625.801 369.86 621.654 369.413 617.537C369.367 617.027 369.305 616.501 369.243 615.991C369.058 614.335 368.843 612.679 368.596 611.039C368.227 608.532 367.811 606.01 367.334 603.503C367.226 602.993 367.134 602.482 367.025 601.956C366.148 597.592 365.101 593.245 363.899 588.974C362.343 583.45 360.48 577.957 358.385 572.649C356.521 567.899 354.411 563.165 352.1 558.584C349.897 554.143 347.51 549.842 344.999 545.803C342.659 541.92 340.024 537.959 337.159 534.044C334.526 530.424 331.614 526.741 328.504 523.135C325.684 519.855 322.788 516.729 319.909 513.82C319.631 513.557 319.354 513.279 319.061 513C315.795 509.736 312.361 506.594 308.849 503.654C304.86 500.281 300.746 497.125 296.495 494.154C295.987 493.798 295.478 493.442 294.956 493.087C290.95 490.347 286.837 487.795 282.632 485.427C282.125 485.118 281.601 484.824 281.093 484.546C277.057 482.318 272.96 480.259 268.77 478.371C268.262 478.14 267.738 477.907 267.23 477.675C263.179 475.895 259.081 474.271 254.907 472.816C254.399 472.631 253.891 472.445 253.368 472.274C249.316 470.898 245.203 469.659 241.044 468.592C240.537 468.453 240.028 468.314 239.505 468.189C235.438 467.168 231.326 466.302 227.182 465.59C226.674 465.498 226.15 465.405 225.642 465.343C221.56 464.661 217.448 464.136 213.319 463.764C212.796 463.718 212.287 463.672 211.779 463.64C207.682 463.3 203.585 463.115 199.457 463.083C198.949 463.068 198.425 463.068 197.917 463.068C193.774 463.068 189.66 463.223 185.594 463.516C185.086 463.548 184.578 463.579 184.054 463.625C117.22 468.979 60.9994 512.784 37.3711 572.943C37.0634 573.717 36.7556 574.507 36.4783 575.295C33.5667 582.986 31.2106 590.939 29.4234 599.109C29.1157 600.517 28.823 601.925 28.5609 603.349C26.4819 614.042 25.4032 625.073 25.4032 636.369L25.4032 758.58C24.8839 758.799 24.3786 759.043 23.8625 759.271L23.8625 636.369C23.8625 623.573 25.2338 611.101 27.868 599.094C28.1142 597.81 28.4069 596.556 28.7305 595.288C30.5639 587.628 32.9048 580.155 35.7238 572.913C36.0162 572.154 36.3242 571.396 36.6319 570.638C60.8765 510.803 117.205 467.385 184.054 462.078C184.563 462.031 185.071 461.985 185.594 461.969C189.66 461.66 193.774 461.521 197.917 461.521C198.425 461.521 198.949 461.521 199.457 461.536C203.585 461.567 207.682 461.753 211.78 462.094C212.287 462.124 212.796 462.155 213.319 462.217C217.448 462.573 221.56 463.099 225.642 463.764C226.165 463.842 226.674 463.935 227.182 464.012C231.326 464.724 235.439 465.589 239.505 466.595C240.013 466.72 240.537 466.843 241.045 466.983C245.204 468.05 249.317 469.273 253.368 470.65C253.891 470.82 254.4 470.99 254.907 471.176C259.082 472.615 263.194 474.224 267.23 476.004C267.738 476.22 268.262 476.436 268.77 476.684C272.96 478.541 277.057 480.584 281.093 482.781C281.601 483.06 282.125 483.354 282.633 483.632C286.837 485.984 290.95 488.506 294.956 491.214C295.463 491.57 295.988 491.91 296.495 492.282C301.101 495.438 305.552 498.843 309.835 502.479C313.377 505.434 316.843 508.606 320.124 511.886C320.431 512.165 320.709 512.443 320.986 512.737C323.913 515.662 326.824 518.819 329.673 522.114C332.8 525.766 335.742 529.464 338.392 533.131C341.287 537.093 343.952 541.085 346.324 545C348.834 549.069 351.253 553.4 353.487 557.888C355.812 562.515 357.938 567.281 359.833 572.093C361.942 577.431 363.806 582.971 365.378 588.541C366.641 592.982 367.719 597.5 368.596 602.034C368.705 602.544 368.813 603.07 368.89 603.581C369.352 605.995 369.752 608.409 370.107 610.823C370.352 612.556 370.584 614.288 370.784 616.021C370.846 616.532 370.907 617.058 370.969 617.569C371.4 621.685 371.693 625.816 371.847 629.963C371.878 630.474 371.893 630.984 371.893 631.511C371.954 633.135 371.97 634.745 371.97 636.369V784.743C376.114 784.743 380.226 784.883 384.292 785.145V714.664V713.101V700.691V699.144V686.75V685.187V672.762V671.214V658.774V657.227V644.786V643.239V636.369C384.292 634.512 384.261 632.639 384.2 630.783C384.2 630.272 384.169 629.747 384.139 629.236C384 625.105 383.707 620.973 383.276 616.873C383.229 616.363 383.183 615.851 383.122 615.341C382.66 611.224 382.074 607.14 381.334 603.086C381.257 602.575 381.165 602.065 381.057 601.57C380.441 598.181 379.702 594.824 378.886 591.496L378.854 591.388C377.577 586.127 376.005 580.743 374.187 575.388C372.494 570.5 370.645 565.733 368.673 561.246C366.764 556.867 364.653 552.489 362.374 548.234C360.263 544.226 357.876 540.11 355.288 536.04C352.824 532.141 350.174 528.273 347.417 524.575C344.784 521 341.872 517.364 338.761 513.759C335.788 510.34 332.738 507.043 329.689 503.964C329.581 503.856 329.473 503.747 329.319 503.609C326.054 500.344 322.619 497.156 319.107 494.139C311.96 487.996 304.413 482.425 296.495 477.474C295.987 477.164 295.478 476.839 294.955 476.53C290.935 474.054 286.822 471.749 282.632 469.614C282.125 469.335 281.6 469.072 281.093 468.824C277.057 466.798 272.944 464.925 268.77 463.223C268.262 462.991 267.753 462.774 267.23 462.589C263.179 460.948 259.066 459.447 254.907 458.117C254.399 457.946 253.89 457.791 253.367 457.637C249.301 456.353 245.203 455.223 241.044 454.233C240.536 454.109 240.012 453.985 239.505 453.877C235.438 452.933 231.325 452.129 227.182 451.463C226.674 451.386 226.165 451.309 225.642 451.232C221.56 450.612 217.447 450.132 213.319 449.792C212.811 449.746 212.287 449.699 211.779 449.668C207.682 449.359 203.585 449.189 199.457 449.157C198.948 449.142 198.424 449.142 197.917 449.142C193.773 449.142 189.676 449.281 185.594 449.545C185.086 449.575 184.562 449.623 184.054 449.653C116.481 454.667 58.8277 496.026 30.4245 554.298C30.4245 554.299 30.4239 554.3 30.4239 554.301L30.4092 554.33L30.3951 554.358L30.3804 554.386L30.3657 554.415L30.3516 554.443L30.3369 554.471L30.3228 554.5L30.3081 554.528L30.294 554.557L30.2798 554.585L30.2651 554.614L30.251 554.642L30.2369 554.67L30.2222 554.699L30.2081 554.727L30.194 554.756L30.1799 554.785L30.1658 554.813L30.1516 554.842L30.1375 554.87L30.1369 554.872L30.1228 554.899L30.1087 554.928L30.0946 554.957L30.0805 554.985L30.0672 555.014L30.0666 555.016L30.0532 555.043L30.0527 555.045L30.0393 555.072L30.0387 555.074L29.9558 555.245L29.9552 555.247L29.9145 555.333L29.9139 555.334L29.9005 555.361L29.9 555.364L29.8731 555.419L29.8725 555.422L29.8592 555.449L29.8586 555.451L29.8453 555.478L29.8447 555.48L29.8319 555.507L29.8313 555.509L29.818 555.536L29.8174 555.539L29.8041 555.565L29.8035 555.568L29.7359 555.712L29.7347 555.715L29.7084 555.771L29.7073 555.774L29.681 555.829L29.6798 555.833L29.6671 555.859L29.6659 555.862L29.6537 555.889L29.6526 555.892L29.6398 555.918L29.6387 555.922L29.6265 555.948L29.6253 555.951L29.6132 555.978L29.6114 555.981L29.5993 556.007L29.5981 556.011L29.5859 556.037L29.5842 556.041L29.572 556.067L29.5708 556.07L29.5587 556.096L29.5569 556.1L29.5448 556.127L29.5436 556.13L29.5314 556.156L29.5297 556.159C26.9886 561.512 24.694 567.019 22.6614 572.651C22.6614 572.652 22.6603 572.652 22.6603 572.654L22.6469 572.691L22.6328 572.728L22.6195 572.765L22.6054 572.801L22.5921 572.838L22.5787 572.875L22.5646 572.912L22.5513 572.949L22.538 572.986L22.5246 573.022L22.5113 573.059L22.498 573.096L22.4711 573.17L22.4443 573.244L22.4174 573.319L22.4047 573.355L22.4041 573.356L22.3913 573.391L22.3907 573.393L22.378 573.429L22.3647 573.467L22.3519 573.503L22.3513 573.504L22.3386 573.539V573.541L22.3259 573.576L22.3253 573.578L22.3125 573.613L22.3119 573.616L22.2998 573.65L22.2992 573.652L22.2865 573.687L22.2859 573.689L22.2737 573.724L22.2731 573.727L22.2604 573.761V573.763L22.2476 573.798L22.2471 573.8L22.2349 573.835L22.2343 573.838L22.2086 573.909L22.2081 573.912L22.1959 573.946L22.1953 573.949L22.1832 573.983L22.1826 573.986L22.1704 574.021L22.1698 574.023L22.1577 574.058L22.1571 574.06L22.1449 574.095L22.1443 574.097L22.1322 574.132L22.1316 574.135L22.1194 574.169L22.1189 574.172L22.1067 574.206L22.1061 574.21L22.094 574.244L22.0934 574.247L22.0812 574.281L22.0806 574.284L22.0685 574.319L22.0679 574.322L22.0557 574.356L22.0552 574.359L22.0436 574.394L22.0424 574.396L22.0308 574.431L22.0303 574.434L22.0181 574.468L22.0175 574.472L22.006 574.506L22.0048 574.509L21.9932 574.543L21.9926 574.546L21.9805 574.581L21.9799 574.584L21.9683 574.618L21.955 574.659L21.9434 574.693L21.9428 574.696L21.9307 574.731L21.9301 574.734L21.9185 574.768L21.9179 574.772L21.9064 574.805L21.9052 574.809L21.8936 574.844L21.893 574.847L21.8815 574.881L21.8809 574.885L21.8693 574.919L21.8681 574.922L21.8566 574.956L21.856 574.96L21.8444 574.994L21.8438 574.998L21.8323 575.032V575.033L21.8317 575.035C19.1207 582.801 16.9339 590.816 15.2706 599C14.9933 600.408 14.7161 601.801 14.4705 603.209C12.5446 613.978 11.5431 625.057 11.5431 636.368L11.5431 769.543C11.0213 769.863 10.5185 770.207 10.0029 770.535L10.0029 740.614L10.0029 737.953V714.882V711.679L10.0029 680.498V675.315L10.0029 636.368C10.0029 623.573 11.2816 611.088 13.6995 599.004C13.6995 599.003 13.6995 599 13.6995 599C13.9457 597.748 14.2231 596.496 14.4997 595.243C14.4997 595.243 14.5009 595.241 14.5009 595.239C16.2098 587.519 18.3966 579.985 21.0151 572.652C21.0156 572.65 21.0156 572.65 21.0156 572.648C21.293 571.892 21.5696 571.134 21.8623 570.377C21.8629 570.376 21.8629 570.375 21.8634 570.374C23.896 564.882 26.1902 559.498 28.7317 554.269C28.7322 554.268 28.7322 554.267 28.7328 554.266C29.0253 553.648 29.3174 553.046 29.6098 552.444C29.6098 552.442 29.6104 552.442 29.6104 552.441C58.4762 494.276 116.33 453.086 184.057 448.104V425.669V425.667L184.057 199.851C184.057 132.046 219.822 72.4745 273.393 39.191V-137.298C273.39 -179.102 239.534 -213.11 197.92 -213.11C156.303 -213.11 122.445 -179.098 122.445 -137.291L122.444 -4.23853C121.93 -4.56592 121.427 -4.9104 120.905 -5.22998V-137.291C120.905 -179.952 155.453 -214.658 197.92 -214.658C240.386 -214.658 274.935 -179.952 274.935 -137.291L274.934 38.2473C278.954 35.8026 283.051 33.4973 287.256 31.3771V-137.298C287.252 -186.781 247.178 -227.036 197.92 -227.036C148.658 -227.036 108.582 -186.777 108.582 -137.291V-12.5378C108.067 -12.7656 107.561 -13.0094 107.042 -13.2285V-137.291C107.043 -187.629 147.81 -228.583 197.92 -228.583C248.029 -228.583 288.797 -187.629 288.797 -137.291L288.797 30.5879C292.816 28.5765 296.929 26.7195 301.119 25.002V-137.298C301.115 -194.459 254.822 -240.962 197.92 -240.962C141.015 -240.962 94.7203 -194.456 94.7197 -137.291V-16.5128C94.2048 -16.658 93.6971 -16.816 93.1796 -16.9519V-137.291C93.1802 -195.309 140.166 -242.509 197.92 -242.509C255.673 -242.509 302.66 -195.309 302.66 -137.291L302.659 24.3837C306.695 22.7581 310.807 21.2878 314.981 19.9419V-137.298C314.978 -202.139 262.466 -254.888 197.92 -254.888C133.371 -254.888 80.857 -202.135 80.857 -137.291L80.8564 -19.3951C80.3456 -19.4662 79.8307 -19.5278 79.3175 -19.5914V-137.291C79.3175 -202.988 132.522 -256.435 197.92 -256.435C263.318 -256.435 316.523 -202.988 316.523 -137.291L316.522 19.4626C320.573 18.2086 324.685 17.0798 328.844 16.0891V-137.298C328.841 -209.817 270.11 -268.814 197.92 -268.814C125.727 -268.814 66.9953 -209.814 66.9946 -137.292L66.9946 -20.5712C66.7368 -20.5736 66.4825 -20.5901 66.2242 -20.5901C65.9652 -20.5901 65.7134 -20.5736 65.4544 -20.5712L65.4544 -137.291C65.455 -210.667 124.878 -270.361 197.92 -270.361C270.962 -270.361 330.386 -210.667 330.386 -137.291L330.385 15.7327C334.436 14.8044 338.548 14.0161 342.707 13.366V-137.298C342.703 -217.495 277.754 -282.74 197.92 -282.74C118.084 -282.74 53.1325 -217.492 53.1319 -137.291L53.1319 -21.0986C52.6187 -21.035 52.1032 -20.9739 51.5917 -20.9022L51.5917 -137.291C51.5923 -218.345 117.234 -284.287 197.92 -284.287C278.605 -284.287 344.249 -218.345 344.249 -137.291L344.247 13.1335C348.314 12.5153 352.426 12.0505 356.57 11.7101V-137.298C356.566 -225.174 285.398 -296.667 197.92 -296.667C110.44 -296.667 39.2698 -225.17 39.2698 -137.291L39.2686 -19.2338C38.7523 -19.0973 38.2434 -18.9401 37.7297 -18.7955L37.7297 -137.291C37.7297 -226.024 109.591 -298.214 197.92 -298.214C286.249 -298.214 358.111 -226.024 358.111 -137.291L358.11 11.5862C362.177 11.2765 366.289 11.1222 370.433 11.0911V-137.298C370.433 -138.923 370.417 -140.548 370.355 -142.172C370.355 -142.683 370.34 -143.209 370.325 -143.72C370.171 -147.867 369.863 -152.013 369.416 -156.129C369.37 -156.64 369.308 -157.166 369.246 -157.676C369.061 -159.332 368.846 -160.988 368.599 -162.628C368.23 -165.135 367.814 -167.657 367.337 -170.164C367.229 -170.674 367.137 -171.185 367.028 -171.711C366.151 -176.074 365.104 -180.422 363.902 -184.693C362.346 -190.217 360.483 -195.71 358.388 -201.017C356.524 -205.768 354.414 -210.502 352.103 -215.083C349.9 -219.524 347.513 -223.824 345.002 -227.863C342.662 -231.747 340.027 -235.708 337.162 -239.623C334.529 -243.243 331.617 -246.926 328.506 -250.532C325.687 -253.812 322.791 -256.938 319.911 -259.846C319.634 -260.11 319.357 -260.388 319.064 -260.667C315.798 -263.931 312.364 -267.073 308.852 -270.013C304.863 -273.386 300.749 -276.542 296.498 -279.513C295.99 -279.869 295.481 -280.225 294.958 -280.581C290.953 -283.32 286.84 -285.872 282.635 -288.24C282.128 -288.549 281.603 -288.843 281.096 -289.122C277.06 -291.35 272.963 -293.408 268.773 -295.296C268.265 -295.528 267.741 -295.76 267.233 -295.992C263.182 -297.772 259.084 -299.396 254.91 -300.851C254.402 -301.036 253.893 -301.222 253.37 -301.393C249.319 -302.769 245.206 -304.008 241.047 -305.075C240.54 -305.215 240.031 -305.354 239.508 -305.478C235.441 -306.499 231.329 -307.365 227.185 -308.077C226.677 -308.169 226.153 -308.262 225.645 -308.324C221.563 -309.006 217.451 -309.531 213.322 -309.903C212.799 -309.949 212.29 -309.995 211.782 -310.027C207.685 -310.367 203.588 -310.552 199.46 -310.584C198.952 -310.6 198.427 -310.599 197.92 -310.599C193.776 -310.599 189.663 -310.444 185.597 -310.15C185.089 -310.12 184.581 -310.088 184.057 -310.042C117.223 -304.688 61.0024 -260.883 37.3741 -200.723C37.0663 -199.95 36.7586 -199.161 36.4812 -198.372C33.5697 -190.681 31.2135 -182.728 29.4264 -174.558C29.1186 -173.15 28.8259 -171.742 28.5639 -170.318C26.4849 -159.626 25.4061 -148.594 25.4061 -137.298L25.4061 -15.087C24.8869 -14.8678 24.3815 -14.6241 23.8654 -14.3965L23.8654 -137.298C23.8654 -150.095 25.2368 -162.566 27.8709 -174.573C28.1171 -175.858 28.4098 -177.112 28.7334 -178.38C30.5668 -186.039 32.9077 -193.512 35.7267 -200.754C36.0192 -201.513 36.3271 -202.271 36.6349 -203.029C60.8794 -262.864 117.208 -306.282 184.057 -311.589C184.566 -311.636 185.074 -311.682 185.597 -311.698C189.663 -312.007 193.777 -312.146 197.92 -312.146C198.428 -312.146 198.952 -312.146 199.46 -312.131C203.588 -312.1 207.685 -311.915 211.783 -311.574C212.29 -311.543 212.799 -311.512 213.322 -311.45C217.451 -311.094 221.563 -310.568 225.645 -309.903C226.168 -309.825 226.677 -309.733 227.185 -309.655C231.329 -308.943 235.441 -308.077 239.508 -307.072C240.016 -306.948 240.54 -306.824 241.048 -306.684C245.207 -305.617 249.319 -304.394 253.371 -303.017C253.894 -302.847 254.403 -302.676 254.91 -302.491C259.084 -301.052 263.197 -299.444 267.233 -297.663C267.741 -297.447 268.265 -297.23 268.773 -296.983C272.963 -295.126 277.06 -293.083 281.096 -290.886C281.604 -290.607 282.128 -290.313 282.636 -290.035C286.84 -287.683 290.953 -285.161 294.959 -282.454C295.466 -282.097 295.991 -281.757 296.498 -281.385C301.104 -278.229 305.555 -274.824 309.838 -271.188C313.38 -268.233 316.846 -265.061 320.126 -261.781C320.434 -261.502 320.712 -261.224 320.989 -260.93C323.916 -258.005 326.827 -254.848 329.676 -251.553C332.803 -247.901 335.745 -244.203 338.395 -240.536C341.29 -236.574 343.955 -232.582 346.327 -228.667C348.837 -224.598 351.256 -220.267 353.49 -215.779C355.815 -211.152 357.941 -206.387 359.836 -201.574C361.945 -196.236 363.809 -190.697 365.381 -185.126C366.643 -180.686 367.722 -176.167 368.599 -171.634C368.708 -171.123 368.816 -170.597 368.893 -170.086C369.355 -167.672 369.755 -165.259 370.11 -162.845C370.355 -161.111 370.587 -159.379 370.787 -157.646C370.849 -157.135 370.91 -156.609 370.971 -156.098C371.403 -151.982 371.696 -147.851 371.85 -143.704C371.881 -143.193 371.896 -142.683 371.896 -142.157C371.957 -140.532 371.973 -138.923 371.973 -137.298V11.0756C376.117 11.0756 380.229 11.2153 384.295 11.4785V-59.0033V-60.5658V-72.9753V-74.5231V-86.9167V-88.4797V-100.905V-102.452V-114.893V-116.44V-128.881V-130.428V-137.298C384.295 -139.155 384.264 -141.027 384.203 -142.884C384.203 -143.395 384.172 -143.92 384.142 -144.432C384.003 -148.562 383.71 -152.694 383.279 -156.795C383.232 -157.305 383.186 -157.816 383.125 -158.326C382.663 -162.443 382.077 -166.527 381.337 -170.581C381.26 -171.092 381.168 -171.602 381.06 -172.098C380.444 -175.486 379.705 -178.844 378.889 -182.171L378.857 -182.279C377.58 -187.541 376.008 -192.925 374.19 -198.279C372.496 -203.168 370.648 -207.934 368.676 -212.421C366.767 -216.8 364.656 -221.178 362.377 -225.434C360.266 -229.441 357.879 -233.557 355.291 -237.627C352.827 -241.526 350.177 -245.394 347.42 -249.092C344.787 -252.667 341.875 -256.303 338.764 -259.908C335.791 -263.327 332.741 -266.624 329.692 -269.703C329.584 -269.811 329.476 -269.92 329.322 -270.059C326.057 -273.323 322.622 -276.511 319.11 -279.529C311.963 -285.671 304.416 -291.241 296.498 -296.193C295.99 -296.502 295.481 -296.828 294.958 -297.137C290.937 -299.613 286.825 -301.918 282.635 -304.053C282.127 -304.332 281.603 -304.595 281.096 -304.843C277.06 -306.869 272.947 -308.742 268.772 -310.444C268.265 -310.677 267.756 -310.893 267.233 -311.079C263.182 -312.719 259.069 -314.22 254.91 -315.55C254.402 -315.72 253.893 -315.876 253.37 -316.03C249.304 -317.314 245.206 -318.444 241.047 -319.434C240.539 -319.558 240.015 -319.682 239.508 -319.79C235.441 -320.734 231.328 -321.539 227.184 -322.204C226.677 -322.281 226.168 -322.358 225.645 -322.436C221.563 -323.054 217.45 -323.535 213.322 -323.875C212.814 -323.921 212.29 -323.968 211.782 -323.999C207.685 -324.308 203.588 -324.478 199.46 -324.509C198.951 -324.525 198.427 -324.525 197.92 -324.525C193.776 -324.525 189.679 -324.385 185.597 -324.123C185.089 -324.092 184.565 -324.045 184.057 -324.014C116.483 -319.001 58.8306 -277.641 30.4274 -219.369C30.4274 -219.368 30.4269 -219.367 30.4269 -219.366L30.4122 -219.338L30.398 -219.31L30.3833 -219.281L30.3686 -219.253L30.3545 -219.224L30.3398 -219.196L30.3257 -219.167L30.311 -219.139L30.2969 -219.111L30.2828 -219.082L30.2681 -219.054L30.254 -219.026L30.2399 -218.997L30.2251 -218.969L30.211 -218.94L30.1969 -218.911L30.1828 -218.883L30.1687 -218.854L30.1546 -218.825L30.1405 -218.797L30.1399 -218.795L30.1258 -218.768L30.1117 -218.739L30.0975 -218.71L30.0834 -218.682L30.0701 -218.653L30.0562 -218.624L30.0556 -218.622L30.0423 -218.595L30.0417 -218.594L29.9588 -218.422L29.9582 -218.42L29.9174 -218.335L29.9168 -218.333L29.9035 -218.306L29.9029 -218.304L29.876 -218.248L29.8754 -218.246L29.8621 -218.219L29.8615 -218.216L29.8482 -218.189L29.8476 -218.187L29.8349 -218.16L29.8343 -218.158L29.821 -218.131L29.8204 -218.129L29.807 -218.102L29.8064 -218.099L29.7388 -217.956L29.7376 -217.952L29.7114 -217.897L29.7102 -217.893L29.6839 -217.838L29.6828 -217.835L29.67 -217.808L29.6688 -217.805L29.6567 -217.779L29.6555 -217.776L29.6428 -217.749L29.6416 -217.745L29.6294 -217.719L29.6283 -217.716L29.6161 -217.689L29.6143 -217.686L29.6022 -217.66L29.601 -217.656L29.5889 -217.63L29.5871 -217.626L29.5749 -217.6L29.5738 -217.597L29.5616 -217.571L29.5599 -217.567L29.5477 -217.541L29.5465 -217.537L29.5344 -217.511L29.5326 -217.508C26.9916 -212.156 24.6969 -206.648 22.6644 -201.016C22.6644 -201.015 22.6632 -201.015 22.6632 -201.013L22.6499 -200.977L22.6358 -200.94L22.6224 -200.903L22.595 -200.829L22.5817 -200.792L22.5542 -200.718L22.514 -200.607L22.4872 -200.533L22.4201 -200.347L22.4074 -200.312L22.4068 -200.31L22.3941 -200.275L22.3935 -200.273L22.3807 -200.238L22.3674 -200.199L22.3547 -200.164L22.3541 -200.162L22.3413 -200.127V-200.125L22.3286 -200.09L22.328 -200.088L22.3153 -200.053L22.3147 -200.051L22.3025 -200.016L22.3019 -200.014L22.2892 -199.979L22.2886 -199.977L22.2765 -199.942L22.2759 -199.94L22.2631 -199.905V-199.903L22.2504 -199.869L22.2498 -199.866L22.2376 -199.832L22.2371 -199.829L22.2243 -199.794V-199.792L22.2116 -199.758L22.211 -199.755L22.1988 -199.72L22.1982 -199.718L22.1861 -199.683L22.1855 -199.681L22.1734 -199.646L22.1728 -199.644L22.1606 -199.609L22.16 -199.607L22.1479 -199.572L22.1473 -199.57L22.1351 -199.535L22.1345 -199.532L22.1224 -199.498L22.1218 -199.495L22.1096 -199.46L22.1091 -199.458L22.0969 -199.424L22.0963 -199.421L22.0842 -199.386L22.0836 -199.383L22.0714 -199.349L22.0708 -199.346L22.0587 -199.312L22.0581 -199.308L22.0465 -199.274L22.0454 -199.271L22.0338 -199.237L22.0332 -199.234L22.021 -199.199L22.0205 -199.196L22.0089 -199.162L22.0077 -199.159L21.9962 -199.124L21.9956 -199.121L21.9834 -199.087L21.9828 -199.084L21.9713 -199.049L21.9707 -199.046L21.9585 -199.011L21.9579 -199.009L21.9464 -198.974L21.9458 -198.971L21.9336 -198.937L21.933 -198.934L21.9215 -198.899L21.9209 -198.896L21.9093 -198.861L21.9081 -198.858L21.8966 -198.824L21.896 -198.821L21.8844 -198.787L21.8838 -198.783L21.8723 -198.749L21.8711 -198.745L21.8595 -198.711L21.8589 -198.707L21.8474 -198.673L21.8468 -198.67L21.8352 -198.636V-198.634L21.8346 -198.632C19.1236 -190.866 16.9368 -182.852 15.2736 -174.667C14.9962 -173.259 14.719 -171.867 14.4734 -170.458C12.5475 -159.689 11.546 -148.61 11.546 -137.3L11.546 -4.12451C11.0242 -3.80481 10.5214 -3.45996 10.0059 -3.13257L10.0059 -33.0535V-35.715L10.0059 -58.7858V-61.9885L10.0059 -93.1689V-98.3525L10.0059 -137.3C10.0059 -150.095 11.2845 -162.58 13.7025 -174.664C13.7025 -174.665 13.7025 -174.667 13.7025 -174.667C13.9487 -175.919 14.226 -177.172 14.5026 -178.424C14.5026 -178.425 14.5038 -178.426 14.5038 -178.427C16.2127 -186.148 18.3995 -193.683 21.018 -201.016C21.0186 -201.017 21.0186 -201.018 21.0186 -201.018C21.296 -201.775 21.5725 -202.533 21.8652 -203.29C21.8658 -203.291 21.8658 -203.292 21.8664 -203.293C23.8989 -208.785 26.1932 -214.17 28.7346 -219.398C28.7352 -219.399 28.7352 -219.4 28.7358 -219.401C29.0282 -220.019 29.3203 -220.621 29.6128 -221.223C29.6128 -221.225 29.6134 -221.225 29.6134 -221.226C58.4792 -279.391 116.332 -320.581 184.059 -325.563V-348H185.6V-325.671C189.665 -325.934 193.779 -326.073 197.922 -326.073V-348H199.462V-326.058C203.575 -326.028 207.687 -325.857 211.785 -325.548V-348H213.324V-325.439C217.453 -325.099 221.565 -324.619 225.647 -324V-348H227.187V-323.768C231.331 -323.118 235.444 -322.329 239.51 -321.385V-348H241.05V-321.03C245.194 -320.055 249.306 -318.925 253.373 -317.656V-348H254.912V-317.177C259.072 -315.846 263.184 -314.375 267.235 -312.751L267.235 -348H268.775L268.775 -312.132C272.949 -310.43 277.062 -308.573 281.098 -306.562L281.098 -348H282.638L282.638 -305.788C286.828 -303.683 290.94 -301.394 294.961 -298.949L294.961 -348H296.5L296.5 -298.02C304.757 -292.899 312.658 -287.112 320.098 -280.706C323.656 -277.673 327.122 -274.454 330.372 -271.174C330.525 -271.051 330.649 -270.926 330.788 -270.772C333.868 -267.692 336.934 -264.381 339.937 -260.931C343.064 -257.279 346.006 -253.612 348.656 -250.021C351.428 -246.278 354.108 -242.393 356.588 -238.464C359.206 -234.348 361.609 -230.201 363.735 -226.162C366.03 -221.876 368.171 -217.467 370.096 -213.042C372.083 -208.508 373.947 -203.711 375.641 -198.775C377.505 -193.359 379.091 -187.897 380.385 -182.559L380.4 -182.466C381.232 -179.108 381.956 -175.72 382.588 -172.316C402.108 -175.08 419.247 -185.38 431 -200.18V-197.755C419.068 -183.456 402.109 -173.527 382.865 -170.783C383.605 -166.73 384.19 -162.645 384.652 -158.544C402.27 -161.063 418.246 -168.769 431 -180.065V-178.037C418.185 -167.013 402.302 -159.49 384.821 -156.997C385.237 -152.896 385.53 -148.764 385.684 -144.618C402.376 -146.856 417.805 -153.135 431 -162.411V-160.521C417.766 -151.419 402.372 -145.268 385.746 -143.07C385.807 -141.152 385.838 -139.233 385.838 -137.299V-130.599C402.148 -132.539 417.439 -137.861 431 -145.846V-144.085C417.404 -136.217 402.124 -130.964 385.838 -129.052V-116.596C401.937 -118.302 417.166 -122.969 431 -130.017V-128.291C417.141 -121.331 401.92 -116.719 385.838 -115.033V-102.592C401.781 -104.12 416.976 -108.262 431 -114.577V-112.896C416.957 -106.654 401.77 -102.553 385.838 -101.045V-88.6201C401.667 -89.999 416.833 -93.7332 431 -99.4556V-97.782C416.82 -92.1179 401.656 -88.4236 385.838 -87.0571V-74.6323C401.578 -75.8923 416.725 -79.2952 431 -84.5315V-82.8918C416.714 -77.7041 401.569 -74.3354 385.838 -73.0846V-60.6593L385.836 -60.6591ZM29.5354 -217.513C29.5348 -217.512 29.5336 -217.512 29.5336 -217.51L29.5354 -217.513ZM29.5354 556.152C29.5348 556.153 29.5336 556.154 29.5336 556.156L29.5354 556.152ZM392.46 1836.31C388.069 1834.57 383.68 1832.64 379.382 1830.55C375.131 1828.48 370.972 1826.25 367.029 1823.93C363.024 1821.61 359.066 1819.09 355.246 1816.46C351.225 1813.69 347.575 1810.96 344.063 1808.11C340.49 1805.27 336.932 1802.19 333.466 1798.94C331.833 1797.42 330.139 1795.8 328.445 1794.1C326.889 1792.53 325.256 1790.83 323.469 1788.91C320.235 1785.4 317.108 1781.73 314.166 1778.02C307.481 1769.57 301.566 1760.67 296.499 1751.44V1973H294.959V1748.56V1747.18C294.959 1746.55 294.959 1745.91 294.989 1745.28C295.159 1737.62 296.468 1730.24 298.716 1723.27C298.978 1722.5 299.241 1721.74 299.503 1720.98C301.521 1715.37 304.17 1710.06 307.358 1705.14C307.712 1704.57 308.098 1704.01 308.482 1703.45C311.362 1699.23 314.644 1695.31 318.294 1691.76C318.726 1691.34 319.156 1690.92 319.603 1690.52C322.977 1687.35 326.658 1684.5 330.555 1681.98C331.017 1681.68 331.494 1681.39 331.971 1681.09C335.653 1678.84 339.535 1676.89 343.601 1675.25C344.094 1675.06 344.587 1674.87 345.08 1674.69C348.946 1673.23 352.966 1672.09 357.094 1671.27C357.602 1671.16 358.126 1671.07 358.635 1670.98C362.624 1670.28 366.721 1669.88 370.895 1669.83C371.249 1669.81 371.619 1669.81 371.973 1669.81H372.435C376.702 1669.85 380.891 1670.22 384.973 1670.93C385.512 1671.01 386.036 1671.11 386.575 1671.22C404.281 1674.65 419.841 1684.19 430.998 1697.56V1700.01C420.105 1686.29 404.585 1676.42 386.822 1672.85C390.973 1698.49 407.999 1719.86 430.998 1730.03V1731.72C407.056 1721.38 389.337 1699.2 385.22 1672.54C381.123 1671.8 376.917 1671.41 372.62 1671.38C376.678 1705.45 399.838 1733.71 430.998 1745.03V1746.68C398.985 1735.25 375.166 1706.31 371.08 1671.38C366.89 1671.42 362.793 1671.81 358.803 1672.52C363.513 1713.81 392.49 1747.8 430.998 1759.71V1761.33C391.724 1749.38 362.121 1714.83 357.279 1672.82C353.151 1673.64 349.131 1674.8 345.28 1676.27C351.573 1723.57 385.97 1762.06 430.998 1774.2V1775.79C385.296 1763.65 350.325 1724.74 343.816 1676.84C339.781 1678.48 335.9 1680.46 332.249 1682.75C341.05 1734.77 380.379 1776.48 430.998 1788.57V1790.17C379.812 1778.09 339.979 1736.11 330.847 1683.65C326.966 1686.19 323.33 1689.08 319.988 1692.28C332.225 1747.52 375.845 1791 430.997 1802.85V1804.42C375.416 1792.62 331.375 1749.03 318.694 1693.55C315.09 1697.14 311.855 1701.12 309.036 1705.39C325.562 1762.02 372.621 1805.66 430.998 1817.04V1818.63C372.357 1807.3 324.982 1763.75 307.943 1707.11C304.816 1712.12 302.259 1717.53 300.349 1723.24C306.202 1738.41 314.243 1752.77 324.347 1765.98C327.165 1769.69 330.17 1773.32 333.296 1776.78C335.144 1778.86 337.101 1780.93 339.319 1783.16C340.536 1784.38 341.767 1785.57 343 1786.75C346.42 1789.98 349.931 1793.03 353.412 1795.85C356.894 1798.66 360.637 1801.43 364.533 1804.09C368.322 1806.69 372.327 1809.18 376.409 1811.5C380.553 1813.87 384.834 1816.07 389.133 1818.05C393.599 1820.14 398.25 1822.06 402.963 1823.74C408.093 1825.6 413.361 1827.24 418.629 1828.57C422.708 1829.62 426.839 1830.48 430.998 1831.22V1832.8C426.714 1832.04 422.461 1831.15 418.259 1830.07C412.93 1828.73 407.615 1827.07 402.44 1825.2C397.695 1823.5 392.997 1821.56 388.485 1819.46C384.157 1817.46 379.828 1815.23 375.639 1812.85C371.526 1810.51 367.49 1807.99 363.67 1805.38C359.727 1802.68 355.954 1799.88 352.458 1797.05C348.93 1794.22 345.402 1791.13 341.953 1787.88C340.689 1786.68 339.457 1785.48 338.24 1784.26C335.992 1782.01 334.004 1779.91 332.156 1777.82C328.998 1774.32 325.964 1770.65 323.114 1766.93C313.318 1754.11 305.447 1740.23 299.625 1725.6C297.592 1732.44 296.498 1739.69 296.498 1747.18V1748.2C301.827 1758.28 308.127 1767.92 315.366 1777.04C318.277 1780.74 321.389 1784.38 324.608 1787.86C326.38 1789.76 327.982 1791.45 329.522 1793C331.216 1794.68 332.879 1796.31 334.513 1797.81C337.947 1801.03 341.49 1804.09 345.017 1806.91C348.514 1809.72 352.133 1812.43 356.107 1815.17C359.897 1817.8 363.824 1820.29 367.799 1822.58C371.726 1824.89 375.839 1827.1 380.059 1829.16C384.31 1831.23 388.67 1833.15 393.013 1834.87C397.526 1836.66 402.193 1838.29 406.876 1839.73C414.776 1842.15 422.835 1844.03 430.997 1845.37V1846.94C422.679 1845.59 414.467 1843.68 406.414 1841.2C401.7 1839.76 397.003 1838.12 392.459 1836.31L392.46 1836.31ZM273.394 1603.17C273.903 1602.8 274.426 1602.44 274.935 1602.1C278.924 1599.4 283.037 1596.86 287.257 1594.49C287.765 1594.2 288.289 1593.9 288.798 1593.62C292.802 1591.43 296.915 1589.37 301.12 1587.5C301.628 1587.26 302.137 1587.03 302.66 1586.81C306.696 1585.04 310.793 1583.43 314.982 1581.97C315.491 1581.79 316.014 1581.6 316.523 1581.43C320.574 1580.05 324.671 1578.83 328.845 1577.78C329.353 1577.64 329.862 1577.5 330.385 1577.39C334.436 1576.37 338.549 1575.52 342.708 1574.82C343.216 1574.72 343.74 1574.64 344.248 1574.56C348.314 1573.89 352.411 1573.38 356.57 1573.03C357.079 1572.97 357.588 1572.92 358.111 1572.89C362.177 1572.56 366.289 1572.38 370.433 1572.35C370.941 1572.33 371.465 1572.33 371.973 1572.33C376.117 1572.33 380.229 1572.47 384.296 1572.78C384.819 1572.8 385.328 1572.84 385.836 1572.89C401.57 1574.14 416.709 1577.53 430.998 1582.72V1584.36C416.721 1579.12 401.58 1575.7 385.836 1574.44C385.313 1574.39 384.804 1574.36 384.296 1574.33C380.229 1574.03 376.117 1573.88 371.973 1573.88C371.465 1573.88 370.941 1573.88 370.433 1573.89C366.289 1573.93 362.177 1574.11 358.111 1574.44C357.602 1574.47 357.094 1574.51 356.57 1574.58C352.427 1574.93 348.314 1575.46 344.248 1576.12C343.725 1576.2 343.216 1576.29 342.708 1576.39C338.549 1577.1 334.436 1577.96 330.385 1578.99C329.862 1579.09 329.353 1579.23 328.845 1579.36C324.671 1580.44 320.559 1581.68 316.523 1583.06C316.014 1583.24 315.491 1583.41 314.982 1583.61C310.793 1585.07 306.68 1586.71 302.66 1588.5C302.137 1588.72 301.628 1588.95 301.12 1589.18C296.915 1591.09 292.802 1593.16 288.798 1595.4C288.274 1595.67 287.765 1595.96 287.257 1596.25C283.037 1598.65 278.924 1601.22 274.935 1603.96C274.412 1604.32 273.903 1604.67 273.394 1605.04C228.726 1636.39 199.46 1688.41 199.46 1747.18V1973H197.92V1747.18C197.92 1687.52 227.833 1634.72 273.394 1603.17ZM273.394 1620.41C273.903 1620.01 274.412 1619.62 274.935 1619.23C278.894 1616.18 283.006 1613.32 287.257 1610.66C287.765 1610.32 288.274 1610.01 288.798 1609.7C292.787 1607.24 296.9 1604.97 301.12 1602.88C301.628 1602.61 302.137 1602.37 302.66 1602.12C306.665 1600.17 310.778 1598.39 314.982 1596.78C315.491 1596.58 316.014 1596.38 316.523 1596.19C320.559 1594.69 324.656 1593.36 328.845 1592.18C329.353 1592.03 329.862 1591.89 330.385 1591.77C334.436 1590.67 338.534 1589.72 342.708 1588.97C343.216 1588.86 343.74 1588.76 344.248 1588.67C348.299 1587.96 352.411 1587.4 356.57 1587C357.079 1586.94 357.588 1586.89 358.111 1586.86C362.177 1586.51 366.289 1586.3 370.433 1586.27C370.941 1586.26 371.465 1586.26 371.973 1586.26C376.117 1586.26 380.229 1586.41 384.296 1586.72C384.819 1586.77 385.328 1586.81 385.836 1586.86C401.657 1588.23 416.817 1591.94 430.998 1597.61V1599.28C416.83 1593.55 401.668 1589.8 385.836 1588.42C385.328 1588.36 384.819 1588.32 384.296 1588.28C380.229 1587.96 376.117 1587.81 371.973 1587.81C371.465 1587.81 370.941 1587.81 370.433 1587.82C366.274 1587.85 362.177 1588.05 358.111 1588.42C357.588 1588.46 357.079 1588.5 356.57 1588.55C352.411 1588.95 348.299 1589.52 344.248 1590.25C343.74 1590.33 343.216 1590.42 342.708 1590.53C338.534 1591.3 334.436 1592.26 330.385 1593.38C329.877 1593.5 329.353 1593.64 328.845 1593.78C324.671 1594.97 320.559 1596.33 316.523 1597.86C316.014 1598.05 315.491 1598.23 314.982 1598.45C310.778 1600.06 306.665 1601.87 302.66 1603.84C302.137 1604.08 301.628 1604.35 301.12 1604.61C296.9 1606.73 292.787 1609.04 288.798 1611.53C288.274 1611.84 287.765 1612.16 287.257 1612.49C283.006 1615.18 278.894 1618.09 274.935 1621.18C274.412 1621.58 273.903 1621.99 273.394 1622.39C236.812 1651.62 213.323 1696.71 213.323 1747.18V1973H211.783V1747.18C211.783 1695.76 235.919 1649.9 273.394 1620.41ZM277.723 1701.32C278.092 1700.58 278.462 1699.83 278.832 1699.09C281.666 1693.57 284.978 1688.34 288.721 1683.43C289.152 1682.84 289.599 1682.27 290.061 1681.7C293.511 1677.33 297.3 1673.26 301.382 1669.54C301.859 1669.07 302.352 1668.64 302.845 1668.22C306.65 1664.83 310.716 1661.74 314.983 1658.95C315.491 1658.61 316 1658.29 316.523 1657.96C320.467 1655.49 324.579 1653.26 328.845 1651.31C329.354 1651.08 329.863 1650.84 330.385 1650.63C334.375 1648.88 338.488 1647.38 342.708 1646.14C343.216 1646 343.725 1645.85 344.248 1645.71C348.268 1644.59 352.381 1643.73 356.571 1643.11C357.079 1643.02 357.603 1642.95 358.111 1642.89C362.147 1642.33 366.259 1642.04 370.433 1641.98C370.942 1641.96 371.465 1641.96 371.973 1641.96C376.148 1641.96 380.261 1642.21 384.296 1642.69C384.82 1642.75 385.328 1642.81 385.836 1642.89C402.427 1645.1 417.792 1651.24 430.998 1660.32V1662.22C417.845 1652.97 402.468 1646.71 385.836 1644.45C385.328 1644.38 384.82 1644.31 384.296 1644.25C380.261 1643.76 376.148 1643.51 371.973 1643.51C371.465 1643.51 370.942 1643.51 370.433 1643.52C366.259 1643.59 362.147 1643.9 358.111 1644.45C357.588 1644.52 357.079 1644.59 356.571 1644.65C352.381 1645.29 348.268 1646.19 344.248 1647.32C343.725 1647.46 343.216 1647.61 342.708 1647.77C338.472 1649.02 334.36 1650.53 330.385 1652.31C329.877 1652.53 329.354 1652.76 328.845 1653.01C324.579 1654.99 320.45 1657.27 316.523 1659.79C316.091 1660.07 315.676 1660.33 315.26 1660.62C315.183 1660.67 315.106 1660.72 315.029 1660.78C315.014 1660.78 314.998 1660.79 314.983 1660.81C310.732 1663.64 306.712 1666.78 302.953 1670.19C302.46 1670.63 301.967 1671.08 301.49 1671.55C297.439 1675.34 293.711 1679.45 290.323 1683.85C289.876 1684.44 289.445 1685.02 289.013 1685.61C285.332 1690.58 282.097 1695.9 279.356 1701.5C278.986 1702.26 278.617 1703.02 278.262 1703.78C272.178 1716.99 268.774 1731.69 268.774 1747.18V1973H267.234V1747.18C267.234 1730.75 271.007 1715.18 277.723 1701.32ZM274.334 1679.64C274.765 1678.99 275.228 1678.34 275.69 1677.71C279.202 1672.8 283.068 1668.17 287.288 1663.87C287.781 1663.35 288.289 1662.84 288.813 1662.33C292.664 1658.5 296.776 1654.96 301.12 1651.7C301.628 1651.31 302.137 1650.94 302.66 1650.57C306.587 1647.7 310.701 1645.09 314.982 1642.72C315.491 1642.44 315.999 1642.16 316.522 1641.9C320.497 1639.77 324.609 1637.86 328.845 1636.19C329.353 1635.99 329.877 1635.79 330.385 1635.6C334.39 1634.09 338.503 1632.79 342.708 1631.72C343.216 1631.58 343.725 1631.46 344.248 1631.33C348.284 1630.36 352.381 1629.58 356.57 1629.04C357.079 1628.96 357.587 1628.9 358.11 1628.86C362.147 1628.38 366.259 1628.1 370.433 1628.07C370.941 1628.04 371.45 1628.04 371.973 1628.04C376.132 1628.04 380.244 1628.25 384.296 1628.69C384.819 1628.73 385.327 1628.78 385.836 1628.86C402.123 1630.77 417.4 1636.02 430.998 1643.89V1645.67C417.437 1637.68 402.149 1632.34 385.836 1630.4C385.327 1630.34 384.819 1630.28 384.296 1630.23C380.244 1629.8 376.132 1629.58 371.973 1629.58C371.465 1629.58 370.941 1629.58 370.433 1629.6C366.274 1629.65 362.162 1629.92 358.11 1630.4C357.587 1630.47 357.079 1630.53 356.57 1630.6C352.396 1631.15 348.284 1631.92 344.248 1632.93C343.739 1633.03 343.231 1633.17 342.708 1633.31C338.503 1634.4 334.39 1635.71 330.385 1637.26C329.877 1637.44 329.353 1637.65 328.845 1637.85C324.609 1639.53 320.497 1641.47 316.522 1643.63C315.999 1643.91 315.491 1644.19 314.982 1644.48C310.701 1646.88 306.587 1649.56 302.66 1652.47C302.137 1652.86 301.628 1653.24 301.12 1653.63C296.776 1656.96 292.679 1660.58 288.828 1664.48C288.335 1664.99 287.827 1665.5 287.334 1666.02C283.175 1670.39 279.356 1675.08 275.905 1680.06C275.459 1680.69 275.012 1681.34 274.58 1682.01C262.151 1700.67 254.911 1723.09 254.911 1747.18V1973H253.371V1747.18C253.371 1722.13 261.118 1698.84 274.334 1679.64ZM273.394 1658.41C273.887 1657.84 274.396 1657.28 274.935 1656.72C278.77 1652.55 282.898 1648.62 287.257 1644.96C287.765 1644.53 288.274 1644.11 288.798 1643.7C292.725 1640.49 296.838 1637.52 301.12 1634.8C301.628 1634.46 302.137 1634.13 302.66 1633.82C306.634 1631.36 310.747 1629.1 314.982 1627.06C315.491 1626.81 316 1626.58 316.523 1626.35C320.528 1624.48 324.64 1622.81 328.845 1621.35C329.353 1621.17 329.862 1621 330.385 1620.83C334.406 1619.48 338.518 1618.33 342.708 1617.39C343.216 1617.27 343.74 1617.16 344.248 1617.05C348.284 1616.17 352.396 1615.49 356.57 1615.01C357.079 1614.95 357.602 1614.88 358.111 1614.84C362.162 1614.4 366.274 1614.17 370.433 1614.13C370.941 1614.11 371.465 1614.11 371.973 1614.11C376.132 1614.11 380.245 1614.3 384.296 1614.68C384.804 1614.73 385.328 1614.78 385.836 1614.84C401.917 1616.53 417.14 1621.13 430.998 1628.09V1629.82C417.165 1622.77 401.935 1618.11 385.836 1616.4C385.328 1616.34 384.819 1616.28 384.296 1616.25C380.245 1615.86 376.132 1615.66 371.973 1615.66C371.465 1615.66 370.941 1615.66 370.433 1615.67C366.274 1615.72 362.162 1615.95 358.111 1616.4C357.588 1616.45 357.079 1616.51 356.57 1616.57C352.396 1617.05 348.284 1617.75 344.248 1618.63C343.725 1618.74 343.216 1618.85 342.708 1618.97C338.518 1619.93 334.406 1621.1 330.385 1622.47C329.862 1622.64 329.353 1622.81 328.845 1622.99C324.625 1624.46 320.528 1626.15 316.523 1628.05C316 1628.28 315.491 1628.53 314.982 1628.78C310.747 1630.85 306.634 1633.14 302.66 1635.65C302.137 1635.96 301.628 1636.28 301.12 1636.62C296.838 1639.41 292.725 1642.43 288.798 1645.68C288.274 1646.11 287.765 1646.54 287.257 1646.98C282.898 1650.7 278.786 1654.71 274.935 1658.97C274.442 1659.51 273.949 1660.07 273.472 1660.62C273.441 1660.65 273.41 1660.69 273.394 1660.72C253.263 1683.85 241.048 1714.1 241.048 1747.18V1973H239.508V1747.18C239.508 1713.09 252.323 1681.98 273.394 1658.41ZM273.394 1638.65C273.903 1638.19 274.412 1637.72 274.935 1637.27C278.862 1633.76 282.975 1630.47 287.257 1627.39C287.765 1627.03 288.289 1626.66 288.798 1626.32C292.772 1623.55 296.869 1620.97 301.12 1618.61C301.628 1618.32 302.137 1618.04 302.66 1617.76C306.65 1615.58 310.762 1613.6 314.982 1611.8C315.491 1611.57 316 1611.37 316.523 1611.15C320.543 1609.48 324.656 1608 328.845 1606.7C329.353 1606.54 329.877 1606.39 330.385 1606.25C334.421 1605.03 338.534 1603.99 342.708 1603.14C343.216 1603.03 343.725 1602.94 344.248 1602.85C348.299 1602.06 352.411 1601.44 356.57 1601C357.079 1600.94 357.602 1600.88 358.111 1600.85C362.177 1600.45 366.274 1600.23 370.433 1600.2C370.941 1600.18 371.465 1600.18 371.973 1600.18C376.117 1600.18 380.229 1600.35 384.296 1600.71C384.804 1600.74 385.328 1600.79 385.836 1600.85C401.766 1602.36 416.957 1606.45 430.998 1612.69V1614.39C416.974 1608.07 401.781 1603.93 385.836 1602.4C385.328 1602.35 384.819 1602.3 384.296 1602.26C380.229 1601.9 376.132 1601.73 371.973 1601.73C371.465 1601.73 370.941 1601.73 370.433 1601.75C366.274 1601.78 362.162 1602.01 358.111 1602.4C357.602 1602.44 357.079 1602.49 356.57 1602.57C352.411 1602.98 348.299 1603.62 344.248 1604.41C343.725 1604.5 343.216 1604.61 342.708 1604.72C338.534 1605.58 334.421 1606.62 330.385 1607.86C329.862 1608 329.353 1608.15 328.845 1608.32C324.656 1609.64 320.543 1611.14 316.523 1612.83C316.014 1613.03 315.491 1613.24 314.982 1613.48C310.762 1615.29 306.65 1617.3 302.66 1619.51C302.137 1619.79 301.628 1620.07 301.12 1620.38C296.869 1622.76 292.757 1625.38 288.798 1628.19C288.289 1628.55 287.765 1628.92 287.257 1629.29C282.96 1632.4 278.847 1635.76 274.935 1639.33C274.412 1639.8 273.903 1640.26 273.394 1640.74C244.976 1667.32 227.185 1705.2 227.185 1747.18V1973H225.646V1747.18C225.646 1704.24 244.067 1665.54 273.394 1638.65ZM284.115 1723.8C284.346 1722.93 284.593 1722.05 284.854 1721.2C286.718 1714.86 289.275 1708.81 292.402 1703.13C292.757 1702.46 293.126 1701.81 293.511 1701.16C296.361 1696.27 299.657 1691.66 303.353 1687.41C303.769 1686.9 304.216 1686.4 304.663 1685.91C308.051 1682.15 311.764 1678.68 315.722 1675.52C316.199 1675.14 316.693 1674.77 317.185 1674.41C320.897 1671.56 324.84 1669.01 328.984 1666.77C329.492 1666.49 330.001 1666.22 330.509 1665.96C334.421 1663.93 338.488 1662.19 342.708 1660.76V1660.75C342.832 1660.7 342.954 1660.65 343.093 1660.62C343.478 1660.48 343.864 1660.36 344.248 1660.25C348.238 1658.95 352.351 1657.93 356.571 1657.2C357.079 1657.11 357.588 1657.03 358.111 1656.94C362.131 1656.32 366.244 1655.97 370.433 1655.9C370.942 1655.89 371.465 1655.89 371.973 1655.89C376.148 1655.89 380.276 1656.17 384.296 1656.74C384.82 1656.8 385.328 1656.86 385.836 1656.94C402.917 1659.58 418.434 1667.03 430.998 1677.85V1679.87C418.532 1668.82 402.985 1661.21 385.836 1658.52C385.328 1658.44 384.804 1658.36 384.296 1658.3C380.261 1657.73 376.148 1657.44 371.973 1657.44C371.451 1657.44 370.942 1657.44 370.433 1657.45C366.244 1657.51 362.131 1657.88 358.111 1658.52C357.588 1658.6 357.079 1658.67 356.571 1658.78C352.351 1659.51 348.253 1660.55 344.263 1661.86C343.756 1662.02 343.247 1662.19 342.739 1662.37C338.534 1663.84 334.467 1665.62 330.571 1667.68C330.062 1667.93 329.569 1668.21 329.076 1668.48C324.964 1670.74 321.036 1673.34 317.355 1676.22C316.877 1676.58 316.401 1676.96 315.939 1677.35C311.979 1680.54 308.313 1684.07 304.986 1687.89C304.539 1688.38 304.109 1688.88 303.693 1689.39C300.058 1693.71 296.823 1698.38 294.035 1703.35C293.666 1703.99 293.311 1704.66 292.972 1705.33C289.907 1711.11 287.474 1717.27 285.733 1723.72C285.486 1724.62 285.27 1725.52 285.055 1726.42C283.468 1733.09 282.636 1740.03 282.636 1747.18V1973H281.097V1747.18C281.097 1739.1 282.144 1731.27 284.115 1723.8Z" fill="#EAE7E5"/>
    </g>
    <defs>
        <clipPath id="clip0_74_119">
            <rect width="701" height="431" fill="white" transform="matrix(0 -1 1 0 0 701)"/>
        </clipPath>
    </defs>
</svg>