<svg width="73" height="73" viewBox="0 0 73 73" fill="none" xmlns="http://www.w3.org/2000/svg">
<rect width="73" height="73" rx="36.5" fill="#DB7021"/>
<path fill-rule="evenodd" clip-rule="evenodd" d="M30.403 21.329C30.0647 21.1222 29.677 21.0088 29.2799 21.0005C28.8827 20.9922 28.4906 21.0893 28.1438 21.2819C27.7971 21.4744 27.5083 21.7554 27.3072 22.0958C27.1061 22.4363 27.0001 22.8238 27 23.2186V50.7814C27.0001 51.1762 27.1061 51.5638 27.3072 51.9042C27.5083 52.2446 27.7971 52.5256 28.1438 52.7181C28.4906 52.9107 28.8827 53.0078 29.2799 52.9995C29.677 52.9912 30.0647 52.8778 30.403 52.671L52.9379 38.8895C53.2625 38.6909 53.5306 38.4129 53.7165 38.0822C53.9024 37.7514 54 37.3789 54 37C54 36.6211 53.9024 36.2486 53.7165 35.9178C53.5306 35.5871 53.2625 35.3091 52.9379 35.1105L30.403 21.329Z" fill="white"/>
</svg>
