<svg width="29" height="23" viewBox="0 0 29 23" fill="none" xmlns="http://www.w3.org/2000/svg">
    <path d="M2.59572 10.4969L2.59574 10.4969L2.60308 10.4939C6.66798 8.833 20.7771 2.98999 25.4064 1.07283L26.1221 0.776471L26.1353 0.771649C26.1493 0.766629 26.1715 0.758913 26.2005 0.749511C26.2589 0.730627 26.3438 0.705405 26.4453 0.681575C26.6544 0.632499 26.9067 0.595938 27.1362 0.615891C27.365 0.635786 27.5155 0.705581 27.6077 0.813861C27.6987 0.920701 27.8103 1.15601 27.7645 1.67607L27.7644 1.67606L27.7638 1.68434C27.7145 2.37466 27.4125 4.33304 27.0358 6.77689C26.8887 7.7307 26.7303 8.75845 26.571 9.81363C26.5709 9.81426 26.5708 9.81489 26.5707 9.81553L24.8105 20.8692L24.8104 20.8692L24.809 20.879C24.7078 21.6074 24.4784 21.9743 24.2516 22.1581C24.0287 22.3387 23.7246 22.41 23.3217 22.3643C22.4847 22.2695 21.472 21.6961 20.7371 21.1764C20.651 21.1135 20.357 20.9214 19.9547 20.6586C19.8877 20.6148 19.8177 20.5691 19.7451 20.5216C19.2084 20.1708 18.5014 19.7075 17.7465 19.2028C16.2285 18.1878 14.5456 17.0242 13.6549 16.2709C13.4472 16.0925 13.2867 15.8739 13.2523 15.6573C13.2249 15.4852 13.2574 15.1878 13.7304 14.7739L13.7305 14.774L13.7391 14.7662C16.2786 12.4381 19.3124 9.54553 21.15 7.70795C21.3949 7.46309 21.6358 7.1422 21.8025 6.83173C21.8858 6.67666 21.9596 6.50774 22.0018 6.34002C22.0406 6.18578 22.0717 5.95924 21.9806 5.73786C21.8691 5.46713 21.6294 5.32596 21.3771 5.29433C21.1579 5.26687 20.9221 5.31719 20.693 5.39608C20.2255 5.557 19.5738 5.91343 18.6851 6.51766C18.6847 6.5179 18.6843 6.51815 18.684 6.5184L8.76859 13.1992C8.7649 13.2012 8.75957 13.2041 8.7526 13.2077C8.73054 13.2191 8.69213 13.2377 8.63765 13.2597C8.52877 13.3038 8.35542 13.3618 8.11941 13.4037C7.65015 13.487 6.91932 13.509 5.93817 13.2146C4.88798 12.8995 3.74836 12.5314 2.86984 12.2415C2.43091 12.0966 2.05784 11.9715 1.79459 11.8827C1.66298 11.8383 1.55884 11.8029 1.48769 11.7787L1.44694 11.7648C1.42177 11.7451 1.38917 11.7174 1.35612 11.6834C1.27592 11.6008 1.23499 11.5251 1.22662 11.4702L1.22659 11.47C1.22312 11.4472 1.20981 11.3598 1.36897 11.1942C1.54454 11.0116 1.90395 10.7668 2.59572 10.4969Z" stroke="white"/>
</svg>
