<svg width="113" height="113" viewBox="0 0 113 113" fill="none" xmlns="http://www.w3.org/2000/svg">
<g clip-path="url(#clip0_94_124)">
<rect x="1" width="112" height="113" rx="30" fill="#DB7021"/>
<path fill-rule="evenodd" clip-rule="evenodd" d="M52.9688 31.7812H84.75C88.8271 31.7864 92.7502 30.2242 95.7078 27.4178C98.6654 24.6114 100.431 20.7756 100.64 16.7038C100.848 12.6321 99.484 8.63586 96.8288 5.54188C94.1735 2.4479 90.4307 0.492877 86.3744 0.0812187C85.8341 0.0512031 85.2991 0 84.75 0H28.25C20.7576 0 13.5721 2.97633 8.27423 8.27423C2.97633 13.5721 0 20.7576 0 28.25L0 84.75C0 70.7018 5.58062 57.229 15.5142 47.2954C25.4478 37.3619 38.9206 31.7812 52.9688 31.7812Z" fill="#F27B21" fill-opacity="0.79"/>
<path fill-rule="evenodd" clip-rule="evenodd" d="M84.75 56.5C79.1627 56.5 73.7008 58.1568 69.0552 61.261C64.4095 64.3651 60.7886 68.7772 58.6504 73.9392C56.5122 79.1012 55.9528 84.7813 57.0428 90.2613C58.1329 95.7413 60.8234 100.775 64.7742 104.726C68.7251 108.677 73.7587 111.367 79.2387 112.457C84.7187 113.547 90.3988 112.988 95.5608 110.85C100.723 108.711 105.135 105.091 108.239 100.445C111.343 95.7992 113 90.3373 113 84.75V28.25C113 35.7424 110.024 42.9279 104.726 48.2258C99.4279 53.5237 92.2424 56.5 84.75 56.5Z" fill="#CC691F" fill-opacity="0.78"/>
<path fill-rule="evenodd" clip-rule="evenodd" d="M44.2254 31.5622C43.6904 31.233 43.0772 31.0526 42.4492 31.0394C41.8212 31.0262 41.201 31.1807 40.6526 31.4871C40.1042 31.7935 39.6475 32.2406 39.3295 32.7824C39.0116 33.3241 38.8439 33.9409 38.8438 34.5691V78.4307C38.8439 79.0589 39.0116 79.6756 39.3295 80.2174C39.6475 80.7591 40.1042 81.2063 40.6526 81.5126C41.201 81.819 41.8212 81.9736 42.4492 81.9604C43.0772 81.9472 43.6904 81.7667 44.2254 81.4376L79.8628 59.5067C80.3761 59.1906 80.8 58.7483 81.094 58.222C81.388 57.6956 81.5424 57.1028 81.5424 56.4999C81.5424 55.897 81.388 55.3041 81.094 54.7778C80.8 54.2515 80.3761 53.8092 79.8628 53.493L44.2254 31.5622Z" fill="white"/>
</g>
<defs>
<clipPath id="clip0_94_124">
<rect width="113" height="113" fill="white"/>
</clipPath>
</defs>
</svg>
